<?xml version="1.0" encoding="utf-8"?>
<!-- Generator: Adobe Illustrator 18.1.1, SVG Export Plug-In . SVG Version: 6.00 Build 0)  -->
<svg version="1.1" id="Layer_1" xmlns="http://www.w3.org/2000/svg" xmlns:xlink="http://www.w3.org/1999/xlink" x="0px" y="0px"
	 viewBox="0 0 278.9 175" enable-background="new 0 0 278.9 175" xml:space="preserve">
<g>
	<g>
		<g>
			<g>
				<g>
					<path fill="#FF4F5B" d="M71.9,150.7c0.8-3.8-0.7-7.9-3.6-10.3c0,0-0.8-0.3-0.8,0.6c0,0.6-0.5,1.4-1,1c-0.8-0.6-0.5-1.8-0.9-2.8
						c-0.4-1.1-1.6-1.7-2.6-2.1c-2-0.9-4-1.7-6.1-2.1c-2.1-0.4-4.4-0.3-6.3,0.7c0.5,0.9,0.9,1.9,1.4,2.8c0.1,0.2,0.2,0.3,0.3,0.5
						c0.3,0.2,0.6,0.2,0.9,0.2c0.9-0.1,1.7-0.1,2.6-0.2c0.4,0,0.8,0,1,0.4c0.1,0.4-0.4,0.7-0.8,0.8c-0.9,0.3-1.8,0.6-2.7,1
						c0.8,1.3,2.1,2.3,3.5,2.9c1.4,0.7,2.9,1.1,4.4,1.5c0.5,0.1,1,0.3,1.5,0.1c0.8-0.3,1.3-1.2,2.1-1.1c-0.1,0.9-0.5,1.7-1.3,2.3
						C66.8,148.2,69,149.7,71.9,150.7"/>
				</g>
				<g>
					<g>
						<path fill="#263238" d="M74.6,164.7C74.6,164.7,74.6,164.7,74.6,164.7c0-0.1-0.1-0.2-0.1-0.3c0-0.2-0.1-0.5-0.2-0.9
							c-0.2-0.8-0.4-2-0.7-3.4c-0.1-0.7-0.3-1.5-0.5-2.4c-0.1-0.4-0.2-0.9-0.3-1.3c0-0.2-0.1-0.5-0.1-0.7c0-0.2-0.1-0.5-0.1-0.7
							c-0.3-1.9-0.6-4.1-1.6-6.1c-0.9-2-2.5-3.6-3.9-4.9c-1.5-1.3-2.9-2.3-4.2-3.1c-1.2-0.8-2.3-1.4-3-1.8c-0.3-0.2-0.6-0.4-0.8-0.5
							c-0.1-0.1-0.2-0.1-0.2-0.1c0,0-0.1,0-0.1,0c0,0,0,0,0.1,0c0.1,0,0.1,0.1,0.2,0.1c0.2,0.1,0.5,0.3,0.8,0.5c0.7,0.4,1.8,1,3,1.8
							c1.3,0.8,2.7,1.8,4.2,3.1c0.7,0.6,1.5,1.4,2.2,2.2c0.7,0.8,1.3,1.7,1.8,2.8c0.9,2.1,1.3,4.2,1.6,6.1c0,0.2,0.1,0.5,0.1,0.7
							c0,0.2,0.1,0.5,0.1,0.7c0.1,0.5,0.2,0.9,0.3,1.3c0.2,0.9,0.3,1.6,0.5,2.4c0.3,1.4,0.5,2.6,0.6,3.4c0.1,0.4,0.1,0.7,0.2,0.9
							C74.5,164.5,74.6,164.6,74.6,164.7C74.6,164.7,74.6,164.7,74.6,164.7z"/>
					</g>
				</g>
			</g>
			<g>
				<g>
					<g>
						<path fill="#FF4F5B" d="M79.5,129.4c-0.7,1-2.6,0.5-2.7-0.7c-0.1-1.2,1.7-2.1,2.5-1.2c0.3-3.6-0.1-7.2-1.1-10.6
							c-0.2,0.7-0.5,1.4-1,1.9c-0.5,0.5-1.3,0.9-2,0.6c-0.9-0.3-1.2-1.6-0.8-2.5c0.4-0.9,1.2-1.5,2-2.1c-1.3-2.4-3.6-4.2-6.2-4.9
							c-1,1.7-2.1,3.4-2.5,5.3c-0.5,1.9-0.3,4.1,1,5.6c0.5,0.6,1.3,1.1,1.7,1.8c0.4,0.7,0.4,1.8-0.3,2.2c-0.9,0.5-1.8-0.4-2.3-1.2
							c-0.5-0.8-1-1.9-2-2c-0.6,6.7,2.9,13.7,8.7,17.2l-0.1-0.1C76.7,135.8,78.4,132.7,79.5,129.4z M75.1,121.9
							c0.6-0.5,1.1-0.8,1.8-1c0.3-0.1,0.6,0,0.8,0.2c0.2,0.2,0.2,0.5,0.2,0.8c0,0.3-0.2,0.5-0.3,0.8c-0.3,0.4-0.6,0.7-1,0.9
							c-0.4,0.2-0.9,0.2-1.4,0c-0.3-0.1-0.5-0.4-0.5-0.8C74.6,122.4,74.8,122.1,75.1,121.9z"/>
					</g>
				</g>
				<g>
					<g>
						<path fill="#263238" d="M75.8,164.7c0,0,0,0,0-0.1c0-0.1,0-0.2,0-0.3c0-0.3,0-0.7,0-1.2c0-1-0.1-2.6-0.2-4.4
							c-0.2-3.7-0.4-8.9-0.8-14.5c-0.4-5.7-0.9-10.8-1.3-14.5c-0.2-1.8-0.4-3.3-0.5-4.4c-0.1-0.5-0.1-0.9-0.1-1.2c0-0.1,0-0.2,0-0.3
							c0-0.1,0-0.1,0-0.1c0,0,0,0,0,0.1c0,0.1,0,0.2,0,0.3c0,0.3,0.1,0.7,0.2,1.2c0.1,1,0.3,2.5,0.6,4.4c0.4,3.7,0.9,8.8,1.4,14.5
							c0.4,5.7,0.7,10.8,0.8,14.5c0.1,1.9,0.1,3.4,0.1,4.4c0,0.5,0,0.9,0,1.2c0,0.1,0,0.2,0,0.3C75.9,164.7,75.8,164.7,75.8,164.7z"
							/>
					</g>
				</g>
			</g>
			<g>
				<g>
					<polygon fill="#375A64" points="64.9,158.4 67.7,170 81.9,170 84.9,158.4 					"/>
				</g>
				<g>
					<path fill="#375A64" d="M69.4,167.5c0,0.2,1.1,6.8,1.1,6.8h8.7l1-6.8H69.4z"/>
				</g>
				<g>
					<g>
						<ellipse fill="#263238" cx="74.6" cy="169.9" rx="6.9" ry="0.1"/>
					</g>
				</g>
			</g>
		</g>
		<g>
			<g>
				<ellipse fill="#263238" cx="74.8" cy="165.3" rx="8.2" ry="0.1"/>
			</g>
		</g>
		<g>
			<g>
				<ellipse fill="#263238" cx="74.6" cy="166.9" rx="7.7" ry="0.1"/>
			</g>
		</g>
		<g>
			<g>
				<ellipse fill="#263238" cx="74.9" cy="168.5" rx="7.4" ry="0.1"/>
			</g>
		</g>
		<g>
			<g>
				<ellipse fill="#263238" cx="74.9" cy="163.7" rx="8.6" ry="0.1"/>
			</g>
		</g>
		<g>
			<g>
				<ellipse fill="#263238" cx="75" cy="162.4" rx="8.7" ry="0.1"/>
			</g>
		</g>
	</g>
	<g>
		<g>
			<g>
				<g>
					<g>
						<g>
							<g>
								<g>
									<rect x="216.7" y="51.5" fill="#E0E0E0" width="17.3" height="18"/>
								</g>
							</g>
						</g>
					</g>
				</g>
			</g>
			<g>
				<g>
					<g>
						<g>
							<g>
								<g>
									<rect x="215.5" y="51.5" fill="#FAFAFA" width="17.3" height="18"/>
								</g>
							</g>
						</g>
					</g>
				</g>
				<g>
					<g>
						<g>
							<g>
								<g>
									<path fill="#E0E0E0" d="M232.8,69.5h-17.3v-18h17.3V69.5z M215.5,69.5h17.3v-18h-17.3V69.5z"/>
								</g>
							</g>
						</g>
					</g>
				</g>
			</g>
			<g>
				<g>
					<g>
						<g>
							<g>
								<g>
									<rect x="217.8" y="53.9" fill="#FAFAFA" width="12.6" height="13.2"/>
								</g>
							</g>
						</g>
					</g>
				</g>
			</g>
			<g>
				<g>
					<g>
						<g>
							<g>
								<g>
									<g>
										<path fill="#E0E0E0" d="M217.8,67.1c0,0-0.1,0.1-0.3,0.4c-0.2,0.2-0.5,0.5-0.8,0.8c-0.3,0.3-0.6,0.6-0.8,0.8
											c-0.2,0.2-0.4,0.3-0.4,0.3c0,0,0.1-0.1,0.3-0.4c0.2-0.2,0.5-0.5,0.8-0.8c0.3-0.3,0.6-0.6,0.8-0.8
											C217.7,67.2,217.8,67.1,217.8,67.1z"/>
									</g>
								</g>
							</g>
						</g>
					</g>
				</g>
			</g>
			<g>
				<g>
					<g>
						<g>
							<g>
								<g>
									<g>
										<path fill="#E0E0E0" d="M230.5,67.1c0,0,0.1,0.1,0.4,0.3c0.2,0.2,0.5,0.5,0.8,0.8c0.3,0.3,0.6,0.6,0.8,0.8
											c0.2,0.2,0.3,0.4,0.3,0.4c0,0-0.1-0.1-0.4-0.3c-0.2-0.2-0.5-0.5-0.8-0.8c-0.3-0.3-0.6-0.6-0.8-0.8
											C230.6,67.3,230.4,67.1,230.5,67.1z"/>
									</g>
								</g>
							</g>
						</g>
					</g>
				</g>
			</g>
			<g>
				<g>
					<g>
						<g>
							<g>
								<g>
									<g>
										<path fill="#E0E0E0" d="M230.4,53.9c0,0,0.1-0.1,0.3-0.4c0.2-0.2,0.5-0.5,0.8-0.8c0.3-0.3,0.6-0.6,0.8-0.8
											c0.2-0.2,0.4-0.3,0.4-0.3c0,0-0.1,0.1-0.3,0.4c-0.2,0.2-0.5,0.5-0.8,0.8c-0.3,0.3-0.6,0.6-0.8,0.8
											C230.6,53.8,230.4,53.9,230.4,53.9z"/>
									</g>
								</g>
							</g>
						</g>
					</g>
				</g>
			</g>
			<g>
				<g>
					<g>
						<g>
							<g>
								<g>
									<g>
										<path fill="#E0E0E0" d="M217.8,54c0,0-0.1-0.1-0.4-0.3c-0.2-0.2-0.5-0.5-0.8-0.8c-0.3-0.3-0.6-0.6-0.8-0.8
											c-0.2-0.2-0.3-0.4-0.3-0.4c0,0,0.1,0.1,0.4,0.3c0.2,0.2,0.5,0.5,0.8,0.8c0.3,0.3,0.6,0.6,0.8,0.8
											C217.7,53.8,217.8,54,217.8,54z"/>
									</g>
								</g>
							</g>
						</g>
					</g>
				</g>
			</g>
			<g>
				<g>
					<g>
						<g>
							<g>
								<g>
									<g>
										<path fill="#E0E0E0" d="M230.4,67.1C230.4,67.1,230.4,67,230.4,67.1c0-0.1,0-0.2,0-0.2c0-0.2,0-0.4,0-0.7
											c0-0.6,0-1.5,0-2.7c0-2.3,0-5.6,0-9.5l0,0c-3.7,0-8,0-12.6,0h0l0.1-0.1c0,4.8,0,9.3,0,13.2l0,0c3.8,0,6.9,0,9.1,0
											c1.1,0,2,0,2.6,0c0.3,0,0.5,0,0.7,0C230.3,67.1,230.3,67.1,230.4,67.1C230.4,67.1,230.4,67.1,230.4,67.1
											C230.4,67.1,230.4,67.1,230.4,67.1c-0.1,0-0.2,0-0.2,0c-0.2,0-0.4,0-0.7,0c-0.6,0-1.5,0-2.5,0c-2.2,0-5.4,0-9.1,0l0,0l0,0
											c0-3.8,0-8.3,0-13.2l0-0.1h0.1h0c4.6,0,8.9,0,12.6,0h0l0,0c0,3.9,0,7.2,0,9.5c0,1.1,0,2,0,2.7c0,0.3,0,0.5,0,0.7
											C230.4,66.9,230.4,67,230.4,67.1C230.4,67,230.4,67.1,230.4,67.1z"/>
									</g>
								</g>
							</g>
						</g>
					</g>
				</g>
			</g>
			<g>
				<g>
					<g>
						<g>
							<g>
								<g>
									<rect x="222" y="58.4" fill="#ECECEC" width="4.2" height="4.2"/>
								</g>
							</g>
						</g>
					</g>
				</g>
			</g>
		</g>
		<g>
			<g>
				<path fill="#263238" d="M244.9,174.3c0,0.1-40.5,0.1-90.5,0.1c-50,0-90.5,0-90.5-0.1c0-0.1,40.5-0.1,90.5-0.1
					C204.4,174.2,244.9,174.2,244.9,174.3z"/>
			</g>
		</g>
		<g>
			<g>
				<g>
					<g>
						<g>
							<g>
								<g>
									<g>
										<path fill="#263238" d="M193.2,174.4l-54.5-0.3c-6.6,0-11.9-5.4-11.8-11.9l0.6-136.7c0-6.6,5.4-11.9,11.9-11.8l54.5,0.3
											c6.6,0,11.9,5.4,11.8,11.9l-0.6,136.7C205.1,169.2,199.8,174.5,193.2,174.4z"/>
									</g>
								</g>
								<g>
									<g>
										<path fill="#FAFAFA" d="M193.8,18.6l-10.6,0c-1.4,0-2.6,1.2-2.6,2.7l0,1.9c0,1.5-1.2,2.7-2.6,2.7l-20.6-0.1
											c-1.4,0-2.6-1.2-2.6-2.7l0-1.9c0-1.5-1.1-2.7-2.6-2.7l-3.7,0l-9.3,0c-4.6,0-8.3,3.7-8.4,8.3l-0.6,133.5
											c0,4.6,3.7,8.3,8.3,8.4l54.4,0.3c4.6,0,8.3-3.7,8.4-8.3L202.1,27C202.1,22.4,198.4,18.7,193.8,18.6z"/>
									</g>
								</g>
							</g>
						</g>
					</g>
				</g>
			</g>
			<g>
				<g>
					<g>
						<g>
							<circle fill="#263238" cx="195.9" cy="33.3" r="0.4"/>
						</g>
					</g>
					<g>
						<g>
							<circle fill="#263238" cx="195.9" cy="34.7" r="0.4"/>
						</g>
					</g>
					<g>
						<g>
							<circle fill="#263238" cx="195.9" cy="36.1" r="0.4"/>
						</g>
					</g>
				</g>
			</g>
		</g>
		<g>
			<path fill="#F5F5F5" d="M194.4,91.2H145c-2.4,0-4.3-1.9-4.3-4.3V58.7c0-2.4,1.9-4.3,4.3-4.3h49.4c2.4,0,4.3,1.9,4.3,4.3v28.2
				C198.7,89.3,196.8,91.2,194.4,91.2z"/>
		</g>
		<g>
			<path fill="#E0E0E0" d="M192.8,88.8h-49.4c-2.4,0-4.3-1.9-4.3-4.3V56.3c0-2.4,1.9-4.3,4.3-4.3h49.4c2.4,0,4.3,1.9,4.3,4.3v28.2
				C197.1,86.9,195.2,88.8,192.8,88.8z"/>
		</g>
		<g>
			<path fill="#263238" d="M183.1,44.5h-0.6l-0.1,0.3h-0.3l0.5-1.2h0.3l0.5,1.2h-0.3L183.1,44.5z M183,44.3l-0.2-0.5l-0.2,0.5H183z"
				/>
			<path fill="#263238" d="M183.6,43.6h0.5c0.4,0,0.7,0.2,0.7,0.6c0,0.4-0.3,0.6-0.7,0.6h-0.5V43.6z M184.1,44.6
				c0.2,0,0.4-0.1,0.4-0.4c0-0.2-0.2-0.4-0.4-0.4h-0.3v0.7H184.1z"/>
			<path fill="#263238" d="M185,43.6h0.5c0.4,0,0.7,0.2,0.7,0.6c0,0.4-0.3,0.6-0.7,0.6H185V43.6z M185.5,44.6c0.2,0,0.4-0.1,0.4-0.4
				c0-0.2-0.2-0.4-0.4-0.4h-0.3v0.7H185.5z"/>
			<path fill="#263238" d="M188,44.8l0-0.7l-0.4,0.6h-0.1l-0.3-0.6v0.7h-0.3v-1.2h0.2l0.4,0.7l0.4-0.7h0.2l0,1.2H188z"/>
			<path fill="#263238" d="M188.4,44.2c0-0.4,0.3-0.6,0.7-0.6c0.4,0,0.7,0.3,0.7,0.6c0,0.4-0.3,0.6-0.7,0.6
				C188.7,44.8,188.4,44.5,188.4,44.2z M189.5,44.2c0-0.2-0.2-0.4-0.4-0.4c-0.2,0-0.4,0.2-0.4,0.4c0,0.2,0.2,0.4,0.4,0.4
				C189.3,44.6,189.5,44.4,189.5,44.2z"/>
			<path fill="#263238" d="M190.7,44.8l-0.2-0.3h0h-0.2v0.3H190v-1.2h0.5c0.3,0,0.5,0.2,0.5,0.4c0,0.2-0.1,0.3-0.2,0.4l0.3,0.4
				H190.7z M190.5,43.8h-0.2v0.4h0.2c0.2,0,0.3-0.1,0.3-0.2C190.7,43.9,190.6,43.8,190.5,43.8z"/>
			<path fill="#263238" d="M192.1,44.6v0.2h-0.9v-1.2h0.9v0.2h-0.6v0.3h0.6v0.2h-0.6v0.3H192.1z"/>
			<path fill="#263238" d="M193.1,44.3h-0.3v0.3h-0.2v-0.3h-0.3v-0.2h0.3v-0.3h0.2v0.3h0.3V44.3z"/>
		</g>
		<g>
			<path fill="#263238" d="M137.2,35c0-0.8,0.6-1.4,1.5-1.4c0.5,0,0.9,0.2,1.1,0.5l-0.4,0.4c-0.2-0.2-0.4-0.3-0.7-0.3
				c-0.5,0-0.9,0.4-0.9,0.9c0,0.5,0.4,0.9,0.9,0.9c0.3,0,0.5-0.1,0.7-0.3l0.4,0.4c-0.3,0.3-0.6,0.5-1.1,0.5
				C137.8,36.4,137.2,35.8,137.2,35z"/>
			<path fill="#263238" d="M142,35.2v1.2h-0.6v-0.3c-0.1,0.2-0.3,0.3-0.6,0.3c-0.5,0-0.8-0.3-0.8-0.6c0-0.4,0.3-0.6,0.9-0.6h0.5
				c0-0.3-0.2-0.4-0.5-0.4c-0.2,0-0.5,0.1-0.6,0.2l-0.2-0.4c0.2-0.2,0.6-0.3,0.9-0.3C141.6,34.3,142,34.6,142,35.2z M141.4,35.7
				v-0.2H141c-0.3,0-0.4,0.1-0.4,0.2c0,0.2,0.1,0.3,0.3,0.3C141.2,36,141.3,35.9,141.4,35.7z"/>
			<path fill="#263238" d="M143.9,34.3v0.6c-0.1,0-0.1,0-0.1,0c-0.3,0-0.6,0.2-0.6,0.6v1h-0.6v-2.1h0.6v0.3
				C143.3,34.4,143.5,34.3,143.9,34.3z"/>
			<path fill="#263238" d="M146.3,33.5v2.9h-0.6v-0.2c-0.2,0.2-0.4,0.3-0.7,0.3c-0.6,0-1-0.4-1-1.1c0-0.7,0.5-1.1,1-1.1
				c0.3,0,0.5,0.1,0.6,0.3v-1H146.3z M145.7,35.3c0-0.4-0.2-0.6-0.5-0.6c-0.3,0-0.5,0.2-0.5,0.6c0,0.4,0.2,0.6,0.5,0.6
				C145.5,35.9,145.7,35.7,145.7,35.3z"/>
			<path fill="#263238" d="M146.7,36.2l0.2-0.4c0.2,0.1,0.5,0.2,0.7,0.2c0.3,0,0.4-0.1,0.4-0.2c0-0.3-1.3,0-1.3-0.8
				c0-0.4,0.4-0.7,1-0.7c0.3,0,0.6,0.1,0.8,0.2l-0.2,0.4c-0.2-0.1-0.4-0.2-0.6-0.2c-0.3,0-0.4,0.1-0.4,0.2c0,0.4,1.3,0,1.3,0.8
				c0,0.4-0.4,0.7-1,0.7C147.2,36.4,146.9,36.3,146.7,36.2z"/>
		</g>
		<g>
			<path fill="#263238" d="M161.3,123.1h-0.7v-0.5h2.1v0.5H162v1.8h-0.7V123.1z"/>
			<path fill="#263238" d="M162.8,123.8c0-0.7,0.5-1.2,1.3-1.2c0.7,0,1.3,0.5,1.3,1.2c0,0.7-0.5,1.2-1.3,1.2
				C163.3,125,162.8,124.4,162.8,123.8z M164.7,123.8c0-0.4-0.3-0.7-0.6-0.7c-0.3,0-0.6,0.3-0.6,0.7c0,0.4,0.3,0.7,0.6,0.7
				C164.4,124.4,164.7,124.2,164.7,123.8z"/>
			<path fill="#263238" d="M166.1,123.1h-0.7v-0.5h2.1v0.5h-0.7v1.8h-0.7V123.1z"/>
			<path fill="#263238" d="M169.1,124.5h-1l-0.2,0.4h-0.7l1-2.3h0.6l1,2.3h-0.7L169.1,124.5z M169,124l-0.3-0.7l-0.3,0.7H169z"/>
			<path fill="#263238" d="M170.2,122.6h0.7v1.8h1.1v0.5h-1.7V122.6z"/>
		</g>
		<path fill="#263238" d="M160.9,129.4v4.3h-0.4v-3.9h-1v-0.4H160.9z"/>
		<path fill="#263238" d="M165.3,132.5c0,0.8-0.7,1.2-1.7,1.2c-1,0-1.7-0.5-1.7-1.2c0-0.5,0.3-0.9,0.8-1.1c-0.4-0.2-0.7-0.5-0.7-1
			c0-0.7,0.6-1.1,1.5-1.1c0.9,0,1.5,0.4,1.5,1.1c0,0.5-0.2,0.8-0.7,1C165,131.6,165.3,132,165.3,132.5z M164.8,132.5
			c0-0.5-0.5-0.9-1.2-0.9c-0.8,0-1.2,0.3-1.2,0.9c0,0.5,0.5,0.9,1.2,0.9C164.4,133.4,164.8,133,164.8,132.5z M163.6,131.3
			c0.7,0,1.1-0.3,1.1-0.8c0-0.5-0.4-0.8-1.1-0.8c-0.7,0-1.1,0.3-1.1,0.8C162.5,131,162.9,131.3,163.6,131.3z"/>
		<path fill="#263238" d="M165.9,131.5c0-1.4,0.7-2.2,1.7-2.2c1,0,1.7,0.8,1.7,2.2c0,1.4-0.7,2.2-1.7,2.2
			C166.6,133.8,165.9,132.9,165.9,131.5z M168.9,131.5c0-1.2-0.5-1.8-1.3-1.8c-0.8,0-1.3,0.6-1.3,1.8c0,1.2,0.5,1.8,1.3,1.8
			C168.4,133.3,168.9,132.7,168.9,131.5z"/>
		<path fill="#263238" d="M170.6,133.4c0,0.1,0,0.2-0.1,0.4l-0.3,0.9H170l0.2-0.9c-0.1,0-0.2-0.2-0.2-0.3c0-0.2,0.1-0.3,0.3-0.3
			C170.5,133.1,170.6,133.2,170.6,133.4z"/>
		<path fill="#263238" d="M174.3,133.3v0.4h-3v-0.3l1.8-1.8c0.5-0.5,0.6-0.8,0.6-1.1c0-0.5-0.4-0.8-1-0.8c-0.5,0-0.9,0.2-1.2,0.5
			l-0.3-0.3c0.3-0.4,0.9-0.6,1.5-0.6c0.9,0,1.4,0.4,1.4,1.2c0,0.4-0.1,0.8-0.7,1.4l-1.5,1.4H174.3z"/>
		<path fill="#263238" d="M174.8,131.5c0-1.4,0.7-2.2,1.7-2.2c1,0,1.7,0.8,1.7,2.2c0,1.4-0.7,2.2-1.7,2.2
			C175.5,133.8,174.8,132.9,174.8,131.5z M177.8,131.5c0-1.2-0.5-1.8-1.3-1.8c-0.8,0-1.3,0.6-1.3,1.8c0,1.2,0.5,1.8,1.3,1.8
			C177.3,133.3,177.8,132.7,177.8,131.5z"/>
		<g>
			<g>
				<g>
					<path fill="#FF4F5B" d="M189.4,154.9h-41.8c-3.8,0-6.8-3.1-6.8-6.8v-0.9c0-3.8,3.1-6.8,6.8-6.8h41.8c3.8,0,6.8,3.1,6.8,6.8v0.9
						C196.2,151.9,193.1,154.9,189.4,154.9z"/>
				</g>
				<g opacity="0.3">
					<path d="M189.4,154.9h-41.8c-3.8,0-6.8-3.1-6.8-6.8v-0.9c0-3.8,3.1-6.8,6.8-6.8h41.8c3.8,0,6.8,3.1,6.8,6.8v0.9
						C196.2,151.9,193.1,154.9,189.4,154.9z"/>
				</g>
			</g>
			<g>
				<path fill="#FF4F5B" d="M187.2,154.9h-41.8c-3.8,0-6.8-3.1-6.8-6.8v-0.9c0-3.8,3.1-6.8,6.8-6.8h41.8c3.8,0,6.8,3.1,6.8,6.8v0.9
					C194,151.9,191,154.9,187.2,154.9z"/>
			</g>
			<g>
				<path fill="#FFFFFF" d="M164.6,146.8c0,0.7-0.5,1.2-1.4,1.2h-0.9v1h-0.5v-3.4h1.3C164.1,145.6,164.6,146.1,164.6,146.8z
					 M164.1,146.8c0-0.5-0.3-0.8-1-0.8h-0.8v1.5h0.8C163.8,147.6,164.1,147.3,164.1,146.8z"/>
				<path fill="#FFFFFF" d="M167.4,148.2h-1.8l-0.4,0.9h-0.5l1.6-3.4h0.5l1.6,3.4h-0.5L167.4,148.2z M167.2,147.8l-0.7-1.7l-0.7,1.7
					H167.2z"/>
				<path fill="#FFFFFF" d="M169.9,147.9v1.2h-0.5v-1.2l-1.4-2.2h0.5l1.1,1.8l1.1-1.8h0.5L169.9,147.9z"/>
			</g>
		</g>
		<g>
			<g>
				<g>
					<g>
						<path fill="#FF4F5B" d="M174.1,116.7c0,0,0.3,0,0.8-0.1c0.5-0.1,1.2-0.5,1.7-1.4c0.1-0.2,0.2-0.5,0.2-0.7c0-0.3,0.1-0.5,0-0.8
							c0-0.6,0-1.2,0-1.9c0-1.4,0-3,0-4.7c0-1.7,0-3.7,0-5.7c0-0.5,0-1,0-1.6c0-0.5-0.1-1-0.4-1.5c-0.3-0.5-0.7-0.8-1.2-1.1
							c-0.5-0.3-1-0.3-1.6-0.3c-4.6,0-9.7,0-15,0.1c-0.6,0-1.3,0.2-1.8,0.7c-0.5,0.4-0.8,1-0.9,1.6c0,0.3,0,0.6,0,1c0,0.3,0,0.6,0,1
							c0,0.6,0,1.3,0,1.9c0,2.5,0,4.9,0,7.3c0,1.2,0,2.3,0,3.4c0,0.6,0,1.1,0.3,1.5c0.2,0.5,0.6,0.9,1,1.1c0.9,0.6,1.9,0.4,2.8,0.4
							c1,0,1.9,0,2.7,0c3.5,0,6.3,0,8.3,0c1,0,1.7,0,2.3,0c0.3,0,0.4,0,0.6,0C174,116.7,174.1,116.7,174.1,116.7s-0.1,0-0.2,0
							c-0.1,0-0.3,0-0.6,0c-0.5,0-1.3,0-2.3,0c-2,0-4.8,0-8.3,0.1c-0.9,0-1.8,0-2.7,0c-0.5,0-1,0-1.5,0c-0.5,0-1-0.1-1.5-0.4
							c-0.5-0.3-0.8-0.7-1.1-1.2c-0.3-0.5-0.3-1.1-0.3-1.6c0-1.1,0-2.2,0-3.4c0-2.3,0-4.7,0-7.3c0-0.6,0-1.3,0-1.9c0-0.3,0-0.6,0-1
							c0-0.3,0-0.6,0-1c0.1-0.7,0.4-1.3,1-1.7c0.5-0.5,1.2-0.7,1.9-0.7c5.3,0,10.4,0,15,0c0.6,0,1.2,0,1.7,0.3
							c0.5,0.3,1,0.7,1.2,1.2c0.3,0.5,0.4,1.1,0.4,1.6c0,0.5,0,1.1,0,1.6c0,2.1,0,4,0,5.7c0,1.7,0,3.3,0,4.7c0,0.7,0,1.3,0,1.9
							c0,0.3,0,0.6-0.1,0.9c-0.1,0.3-0.1,0.5-0.3,0.7c-0.5,0.9-1.2,1.3-1.7,1.4c-0.3,0.1-0.4,0.1-0.6,0.1
							C174.1,116.7,174.1,116.7,174.1,116.7z"/>
					</g>
				</g>
			</g>
			<g>
				<g>
					<g>
						<g>
							<g>
								<path fill="#FF4F5B" d="M169.8,109.7c0,0,0,0-0.1,0c-0.1,0-0.2,0-0.4,0c-0.4,0-0.9,0-1.5,0c-1.3,0-3.1,0-5.1,0l0,0l0,0
									c0-0.3-0.1-0.6-0.1-0.8c-0.4-2.5-0.7-4.6-0.9-6.1l0,0c-0.6,0-1,0-1.3,0c-0.2,0-0.3,0-0.4,0c-0.1,0-0.1,0-0.1,0
									c0,0,0,0,0.1,0c0.1,0,0.2,0,0.4,0c0.3,0,0.8,0,1.3,0l0,0l0,0c0.2,1.4,0.5,3.6,0.9,6.1c0,0.3,0.1,0.6,0.1,0.8l0,0
									c2,0,3.8,0,5.1,0c0.6,0,1.1,0,1.5,0c0.2,0,0.3,0,0.4,0C169.8,109.7,169.8,109.7,169.8,109.7z"/>
							</g>
						</g>
					</g>
					<g>
						<g>
							<g>
								<path fill="#FF4F5B" d="M162.5,108.3C162.5,108.3,162.5,108.3,162.5,108.3c0.1,0,0.1,0,0.1,0c0.1,0,0.2,0,0.4,0
									c0.4,0,0.9,0,1.5,0c1.3,0,3.1,0,5.3,0l0,0c0.2-0.9,0.3-1.8,0.5-2.8c0.1-0.5,0.2-1,0.3-1.5l0,0.1c-2.5,0-4.6,0-6.2,0
									c-0.8,0-1.4,0-1.8,0c-0.2,0-0.4,0-0.5,0c-0.1,0-0.1,0-0.1,0c0,0,0,0,0,0c0,0,0,0,0,0c0,0,0.1,0,0.1,0c0.1,0,0.3,0,0.5,0
									c0.4,0,1.1,0,1.8,0c1.6,0,3.7,0,6.2-0.1l0.1,0l0,0.1c-0.1,0.5-0.2,1-0.3,1.5c-0.2,1-0.3,1.9-0.5,2.8l0,0l0,0
									c-2.1,0-4,0-5.3,0c-0.6,0-1.2,0-1.5,0c-0.2,0-0.3,0-0.4,0C162.6,108.3,162.5,108.3,162.5,108.3
									C162.5,108.3,162.5,108.3,162.5,108.3z"/>
							</g>
						</g>
					</g>
					<g>
						<g>
							<g>
								<path fill="#FF4F5B" d="M164.5,111.7c0,0,0-0.1,0-0.2c0-0.1-0.1-0.3-0.3-0.4c-0.2-0.1-0.4-0.2-0.6-0.1
									c-0.2,0.1-0.4,0.3-0.4,0.6c0,0.3,0.2,0.5,0.4,0.6c0.2,0.1,0.5,0,0.6-0.1c0.2-0.1,0.2-0.3,0.3-0.4
									C164.5,111.8,164.5,111.7,164.5,111.7c0,0,0,0.1,0,0.2c0,0.1-0.1,0.3-0.3,0.4c-0.2,0.1-0.4,0.2-0.7,0.1
									c-0.3-0.1-0.5-0.4-0.5-0.7c0-0.3,0.2-0.6,0.5-0.7c0.3-0.1,0.5,0,0.7,0.1c0.2,0.1,0.2,0.3,0.3,0.4
									C164.5,111.6,164.5,111.7,164.5,111.7z"/>
							</g>
						</g>
					</g>
					<g>
						<g>
							<g>
								<path fill="#FF4F5B" d="M169.1,111.7c0,0,0-0.1,0-0.2c0-0.1-0.1-0.3-0.3-0.4c-0.2-0.1-0.4-0.2-0.6-0.1
									c-0.2,0.1-0.4,0.3-0.4,0.6c0,0.3,0.2,0.5,0.4,0.6c0.2,0.1,0.5,0,0.6-0.1c0.2-0.1,0.2-0.3,0.3-0.4
									C169.1,111.7,169.1,111.7,169.1,111.7c0,0,0,0.1,0,0.2c0,0.1-0.1,0.3-0.3,0.4c-0.2,0.1-0.4,0.2-0.7,0.1
									c-0.3-0.1-0.5-0.4-0.5-0.7c0-0.3,0.2-0.6,0.5-0.7c0.3-0.1,0.5,0,0.7,0.1c0.2,0.1,0.2,0.3,0.3,0.4
									C169.1,111.6,169.1,111.7,169.1,111.7z"/>
							</g>
						</g>
					</g>
					<g>
						<g>
							<circle fill="#FF4F5B" cx="170.2" cy="103.2" r="2"/>
						</g>
					</g>
				</g>
				<g>
					<path fill="#FFFFFF" d="M170.4,102.4l0,1.5l-0.4,0l0-1.3l-0.3,0l0-0.3L170.4,102.4z"/>
				</g>
			</g>
		</g>
		<g>
			<g>
				<g>
					<path fill="#FF4F5B" d="M191,86.8h-49.4c-2.4,0-4.3-1.9-4.3-4.3V54.3c0-2.4,1.9-4.3,4.3-4.3H191c2.4,0,4.3,1.9,4.3,4.3v28.2
						C195.3,84.9,193.4,86.8,191,86.8z"/>
				</g>
				<g>
					<path fill="#FFFFFF" d="M146.8,58.4c0,0.5-0.4,0.7-1.1,0.7h-1.4v-2.7h1.3c0.7,0,1,0.3,1,0.7c0,0.3-0.1,0.5-0.4,0.6
						C146.6,57.9,146.8,58.1,146.8,58.4z M145,56.9v0.6h0.6c0.3,0,0.5-0.1,0.5-0.3c0-0.2-0.2-0.3-0.5-0.3H145z M146.2,58.4
						c0-0.2-0.2-0.3-0.5-0.3H145v0.7h0.7C146,58.7,146.2,58.6,146.2,58.4z"/>
					<path fill="#FFFFFF" d="M149.1,58.6h-1.3l-0.2,0.6h-0.6l1.2-2.7h0.6l1.2,2.7h-0.7L149.1,58.6z M148.9,58.1l-0.4-1l-0.4,1H148.9
						z"/>
					<path fill="#FFFFFF" d="M152.8,56.4v2.7h-0.5l-1.4-1.7v1.7h-0.6v-2.7h0.5l1.4,1.7v-1.7H152.8z"/>
					<path fill="#FFFFFF" d="M154.4,58.1l-0.4,0.4v0.7h-0.6v-2.7h0.6v1.3l1.2-1.3h0.7l-1.1,1.2l1.2,1.5h-0.7L154.4,58.1z"/>
				</g>
				<g>
					<path fill="#FFFFFF" d="M146.3,69.8h-0.5v0.7h-0.3v-0.7h-1.4v-0.2l1.3-1.7h0.3l-1.3,1.6h1.1v-0.6h0.2v0.6h0.5V69.8z"/>
					<path fill="#FFFFFF" d="M148.2,69.7c0,0.4-0.3,0.7-0.9,0.7c-0.4,0-0.7-0.1-0.9-0.3l0.1-0.2c0.2,0.2,0.4,0.3,0.8,0.3
						c0.4,0,0.6-0.2,0.6-0.5c0-0.3-0.2-0.5-0.7-0.5H147V69l0.7-0.9h-1.3v-0.2h1.6v0.2l-0.7,0.9C147.9,69,148.2,69.3,148.2,69.7z"/>
					<path fill="#FFFFFF" d="M150.2,69.7c0,0.4-0.3,0.8-0.9,0.8c-0.4,0-0.7-0.1-0.9-0.3l0.1-0.2c0.2,0.2,0.4,0.3,0.8,0.3
						c0.4,0,0.7-0.2,0.7-0.5c0-0.3-0.2-0.5-0.8-0.5h-0.5l0.1-1.3h1.4v0.2h-1.1l-0.1,0.8h0.3C149.9,68.9,150.2,69.2,150.2,69.7z"/>
					<path fill="#FFFFFF" d="M152.4,69.7c0,0.5-0.4,0.8-0.9,0.8c-0.7,0-1-0.5-1-1.3c0-0.8,0.5-1.3,1.1-1.3c0.2,0,0.4,0,0.6,0.1
						l-0.1,0.2c-0.1-0.1-0.3-0.1-0.5-0.1c-0.5,0-0.9,0.3-0.9,1c0,0.1,0,0.1,0,0.2c0.1-0.3,0.4-0.4,0.8-0.4
						C152,68.9,152.4,69.2,152.4,69.7z M152.1,69.7c0-0.3-0.2-0.5-0.6-0.5c-0.4,0-0.6,0.2-0.6,0.5c0,0.3,0.2,0.5,0.7,0.5
						C151.9,70.2,152.1,70,152.1,69.7z"/>
					<path fill="#FFFFFF" d="M157.8,70.4l-0.6-0.8l-0.6,0.8h-0.3l0.7-1l-0.7-0.9h0.3l0.6,0.7l0.6-0.7h0.3l-0.7,0.9l0.8,1H157.8z"/>
					<path fill="#FFFFFF" d="M159.7,70.4l-0.6-0.8l-0.6,0.8h-0.3l0.7-1l-0.7-0.9h0.3l0.6,0.7l0.6-0.7h0.3l-0.7,0.9l0.8,1H159.7z"/>
					<path fill="#FFFFFF" d="M161.6,70.4l-0.6-0.8l-0.6,0.8h-0.3l0.7-1l-0.7-0.9h0.3l0.6,0.7l0.6-0.7h0.3l-0.7,0.9l0.8,1H161.6z"/>
					<path fill="#FFFFFF" d="M163.5,70.4l-0.6-0.8l-0.6,0.8H162l0.7-1l-0.7-0.9h0.3l0.6,0.7l0.6-0.7h0.3l-0.7,0.9l0.8,1H163.5z"/>
					<path fill="#FFFFFF" d="M170.1,70.4l-0.6-0.8l-0.6,0.8h-0.3l0.7-1l-0.7-0.9h0.3l0.6,0.7l0.6-0.7h0.3l-0.7,0.9l0.8,1H170.1z"/>
					<path fill="#FFFFFF" d="M172,70.4l-0.6-0.8l-0.6,0.8h-0.3l0.7-1l-0.7-0.9h0.3l0.6,0.7l0.6-0.7h0.3l-0.7,0.9l0.8,1H172z"/>
					<path fill="#FFFFFF" d="M173.9,70.4l-0.6-0.8l-0.6,0.8h-0.3l0.7-1l-0.7-0.9h0.3l0.6,0.7l0.6-0.7h0.3l-0.7,0.9l0.8,1H173.9z"/>
					<path fill="#FFFFFF" d="M175.8,70.4l-0.6-0.8l-0.6,0.8h-0.3l0.7-1l-0.7-0.9h0.3l0.6,0.7l0.6-0.7h0.3l-0.7,0.9l0.8,1H175.8z"/>
					<path fill="#FFFFFF" d="M181.7,67.9v2.5h-0.3v-2.3h-0.6v-0.2H181.7z"/>
					<path fill="#FFFFFF" d="M184,69.7c0,0.4-0.3,0.7-0.9,0.7c-0.4,0-0.7-0.1-0.9-0.3l0.1-0.2c0.2,0.2,0.4,0.3,0.8,0.3
						c0.4,0,0.6-0.2,0.6-0.5c0-0.3-0.2-0.5-0.7-0.5h-0.2V69l0.7-0.9h-1.3v-0.2h1.6v0.2l-0.7,0.9C183.7,69,184,69.3,184,69.7z"/>
					<path fill="#FFFFFF" d="M186.5,69.8H186v0.7h-0.3v-0.7h-1.4v-0.2l1.3-1.7h0.3l-1.3,1.6h1.1v-0.6h0.2v0.6h0.5V69.8z"/>
					<path fill="#FFFFFF" d="M188.4,70.2v0.2h-1.8v-0.2l1-1c0.3-0.3,0.3-0.4,0.3-0.6c0-0.3-0.2-0.5-0.6-0.5c-0.3,0-0.5,0.1-0.7,0.3
						l-0.2-0.2c0.2-0.2,0.5-0.4,0.9-0.4c0.5,0,0.8,0.3,0.8,0.7c0,0.2-0.1,0.5-0.4,0.8l-0.9,0.8H188.4z"/>
				</g>
				<g>
					<path fill="#FFFFFF" d="M142.9,75.6c0-0.4,0.3-0.6,0.6-0.6c0.2,0,0.4,0.1,0.5,0.2l-0.2,0.2c-0.1-0.1-0.2-0.1-0.3-0.1
						c-0.2,0-0.4,0.2-0.4,0.4s0.2,0.4,0.4,0.4c0.1,0,0.2,0,0.3-0.1L144,76c-0.1,0.1-0.3,0.2-0.5,0.2C143.1,76.2,142.9,76,142.9,75.6
						z"/>
					<path fill="#FFFFFF" d="M145,75.9h-0.6l-0.1,0.3H144l0.5-1.2h0.3l0.5,1.2h-0.3L145,75.9z M144.9,75.7l-0.2-0.5l-0.2,0.5H144.9z
						"/>
					<path fill="#FFFFFF" d="M146.2,76.2l-0.2-0.3h0h-0.2v0.3h-0.3V75h0.5c0.3,0,0.5,0.2,0.5,0.4c0,0.2-0.1,0.3-0.2,0.4l0.3,0.4
						H146.2z M146,75.2h-0.2v0.4h0.2c0.2,0,0.3-0.1,0.3-0.2C146.2,75.3,146.1,75.2,146,75.2z"/>
					<path fill="#FFFFFF" d="M146.6,76.1l0.1-0.2c0.1,0.1,0.3,0.1,0.4,0.1c0.2,0,0.2-0.1,0.2-0.1c0-0.2-0.7-0.1-0.7-0.5
						c0-0.2,0.2-0.4,0.5-0.4c0.1,0,0.3,0,0.4,0.1l-0.1,0.2c-0.1-0.1-0.2-0.1-0.3-0.1c-0.2,0-0.2,0.1-0.2,0.1c0,0.2,0.7,0.1,0.7,0.5
						c0,0.2-0.2,0.4-0.5,0.4C146.9,76.2,146.7,76.2,146.6,76.1z"/>
					<path fill="#FFFFFF" d="M149.4,75v1.2h-0.3v-0.5h-0.5v0.5h-0.3V75h0.3v0.5h0.5V75H149.4z"/>
					<path fill="#FFFFFF" d="M149.6,75.6c0-0.4,0.3-0.6,0.7-0.6c0.4,0,0.7,0.3,0.7,0.6s-0.3,0.6-0.7,0.6
						C149.9,76.2,149.6,76,149.6,75.6z M150.6,75.6c0-0.2-0.2-0.4-0.4-0.4c-0.2,0-0.4,0.2-0.4,0.4s0.2,0.4,0.4,0.4
						C150.5,76,150.6,75.8,150.6,75.6z"/>
					<path fill="#FFFFFF" d="M151.1,75h0.3v1h0.6v0.2h-0.9V75z"/>
					<path fill="#FFFFFF" d="M152.2,75h0.5c0.4,0,0.7,0.2,0.7,0.6s-0.3,0.6-0.7,0.6h-0.5V75z M152.7,76c0.2,0,0.4-0.1,0.4-0.4
						s-0.2-0.4-0.4-0.4h-0.3V76H152.7z"/>
					<path fill="#FFFFFF" d="M154.5,76v0.2h-0.9V75h0.9v0.2h-0.6v0.3h0.6v0.2h-0.6V76H154.5z"/>
					<path fill="#FFFFFF" d="M155.5,76.2l-0.2-0.3h0H155v0.3h-0.3V75h0.5c0.3,0,0.5,0.2,0.5,0.4c0,0.2-0.1,0.3-0.2,0.4l0.3,0.4
						H155.5z M155.2,75.2H155v0.4h0.2c0.2,0,0.3-0.1,0.3-0.2C155.5,75.3,155.4,75.2,155.2,75.2z"/>
				</g>
				<g>
					<path fill="#FFFFFF" d="M142.7,80.3l0.3-0.4c0.1,0.2,0.3,0.3,0.4,0.3c0.2,0,0.3-0.1,0.3-0.4v-1.1H143v-0.4h1.3v1.5
						c0,0.6-0.3,0.8-0.8,0.8C143.2,80.6,142.9,80.5,142.7,80.3z"/>
					<path fill="#FFFFFF" d="M144.7,80.3c0-0.2,0.1-0.3,0.3-0.3c0.2,0,0.3,0.1,0.3,0.3c0,0.2-0.1,0.3-0.3,0.3
						C144.8,80.6,144.7,80.4,144.7,80.3z"/>
					<path fill="#FFFFFF" d="M149,78.3l-0.8,2.3h-0.6l-0.5-1.6l-0.5,1.6h-0.6l-0.8-2.3h0.6l0.5,1.6l0.5-1.6h0.5l0.5,1.6l0.5-1.6H149
						z"/>
					<path fill="#FFFFFF" d="M149.3,78.3c0-0.2,0.1-0.3,0.3-0.3c0.2,0,0.3,0.1,0.3,0.3c0,0.2-0.1,0.3-0.3,0.3
						C149.4,78.5,149.3,78.4,149.3,78.3z M149.3,78.8h0.5v1.8h-0.5V78.8z"/>
					<path fill="#FFFFFF" d="M150.3,78.1h0.5v2.4h-0.5V78.1z"/>
					<path fill="#FFFFFF" d="M151.3,78.1h0.5v2.4h-0.5V78.1z"/>
					<path fill="#FFFFFF" d="M152.2,78.3c0-0.2,0.1-0.3,0.3-0.3c0.2,0,0.3,0.1,0.3,0.3c0,0.2-0.1,0.3-0.3,0.3
						C152.3,78.5,152.2,78.4,152.2,78.3z M152.3,78.8h0.5v1.8h-0.5V78.8z"/>
					<path fill="#FFFFFF" d="M154.8,79.5v1h-0.5v-0.2c-0.1,0.2-0.3,0.2-0.5,0.2c-0.4,0-0.7-0.2-0.7-0.5c0-0.3,0.2-0.5,0.8-0.5h0.4
						c0-0.2-0.1-0.3-0.4-0.3c-0.2,0-0.4,0.1-0.5,0.2l-0.2-0.4c0.2-0.1,0.5-0.2,0.8-0.2C154.5,78.8,154.8,79,154.8,79.5z M154.3,80
						v-0.2H154c-0.2,0-0.3,0.1-0.3,0.2c0,0.1,0.1,0.2,0.3,0.2C154.1,80.2,154.3,80.2,154.3,80z"/>
					<path fill="#FFFFFF" d="M158.3,79.5v1h-0.5v-0.9c0-0.3-0.1-0.4-0.3-0.4c-0.2,0-0.4,0.1-0.4,0.5v0.9h-0.5v-0.9
						c0-0.3-0.1-0.4-0.3-0.4c-0.2,0-0.4,0.1-0.4,0.5v0.9h-0.5v-1.8h0.5V79c0.1-0.2,0.3-0.2,0.6-0.2c0.2,0,0.5,0.1,0.6,0.3
						c0.1-0.2,0.4-0.3,0.6-0.3C158,78.8,158.3,79,158.3,79.5z"/>
					<path fill="#FFFFFF" d="M158.6,80.4l0.2-0.4c0.2,0.1,0.4,0.2,0.6,0.2c0.2,0,0.3-0.1,0.3-0.2c0-0.3-1.1,0-1.1-0.7
						c0-0.3,0.3-0.6,0.8-0.6c0.2,0,0.5,0.1,0.7,0.2l-0.2,0.4c-0.2-0.1-0.3-0.1-0.5-0.1c-0.2,0-0.3,0.1-0.3,0.2c0,0.3,1.1,0,1.1,0.7
						c0,0.3-0.3,0.6-0.8,0.6C159,80.6,158.7,80.5,158.6,80.4z"/>
				</g>
				<g>
					<path fill="#FFFFFF" d="M179.2,79.5c0-0.8,0.4-1.2,1-1.2c0.6,0,1,0.4,1,1.2c0,0.8-0.4,1.2-1,1.2
						C179.6,80.7,179.2,80.2,179.2,79.5z M180.6,79.5c0-0.5-0.2-0.7-0.4-0.7c-0.3,0-0.4,0.2-0.4,0.7c0,0.5,0.2,0.7,0.4,0.7
						C180.4,80.2,180.6,80,180.6,79.5z"/>
					<path fill="#FFFFFF" d="M183.3,79.9c0,0.5-0.4,0.8-0.9,0.8c-0.6,0-1-0.4-1-1.1c0-0.8,0.5-1.2,1.2-1.2c0.2,0,0.5,0.1,0.6,0.2
						l-0.2,0.4c-0.1-0.1-0.3-0.1-0.4-0.1c-0.4,0-0.6,0.2-0.6,0.7c0.1-0.1,0.3-0.2,0.6-0.2C182.9,79.2,183.3,79.5,183.3,79.9z
						 M182.8,79.9c0-0.2-0.2-0.3-0.4-0.3c-0.2,0-0.4,0.1-0.4,0.3c0,0.2,0.1,0.3,0.4,0.3C182.6,80.3,182.8,80.1,182.8,79.9z"/>
					<path fill="#FFFFFF" d="M184.4,77.9h0.5l-1.1,3.1h-0.5L184.4,77.9z"/>
					<path fill="#FFFFFF" d="M186.5,80.2v0.4h-1.7v-0.3l0.9-0.8c0.2-0.2,0.2-0.3,0.2-0.4c0-0.2-0.1-0.3-0.4-0.3
						c-0.2,0-0.4,0.1-0.5,0.2l-0.4-0.2c0.2-0.3,0.5-0.4,0.9-0.4c0.5,0,0.9,0.3,0.9,0.7c0,0.2-0.1,0.4-0.4,0.7l-0.5,0.5H186.5z"/>
					<path fill="#FFFFFF" d="M188.8,80.1h-0.4v0.5h-0.5v-0.5h-1.2v-0.4l1.1-1.5h0.6l-1,1.4h0.6v-0.4h0.5v0.4h0.4V80.1z"/>
				</g>
				<g opacity="0.2">
					<g>
						<path fill="#FFFFFF" d="M179.2,60.3c-0.4-1.7-2.1-2.7-3.8-2.6c-0.5,0-1.1,0.2-1.5,0.4c-1.2,0.5-2,1.9-1.6,3.2
							c0.3,1,1.3,1.7,2.3,2.1c1,0.4,2.2,0.7,3.2,0.3c1-0.5,1.5-1.6,1.5-2.7C179.3,60.7,179.2,60.5,179.2,60.3z"/>
					</g>
				</g>
			</g>
			<g opacity="0.2">
				<g>
					<path fill="#FFFFFF" d="M193.4,50h-54.2c-1.1,0-1.9,0.9-1.9,1.9v9.7c3.4,2.4,8.1,2.8,12.3,1.9c4.9-1,9.4-3.5,13.9-5.6
						c4.6-2.1,9.6-3.7,14.6-2.9c4.7,0.8,8.7,3.7,12.9,5.9c1.4,0.7,2.8,1.3,4.3,1.7V51.9C195.3,50.9,194.4,50,193.4,50z"/>
				</g>
			</g>
		</g>
		<g>
			<g>
				<g>
					<path fill="#FFBF9D" d="M75.4,17.5c0,0,0,0.1,0,0.1c0.1,0.6,0.8,3.1,1.2,3.1c0.4,0,1.2-0.4,1.1-0.8c0-0.3-1-3.1-1-3.1
						s-0.2-0.4-1-0.3C75.3,16.6,75.4,17.5,75.4,17.5z"/>
				</g>
				<g>
					<path fill="#FFBF9D" d="M76.7,16.2c0,0,0,0.1,0,0.1c0.1,0.6,0.8,3.1,1.2,3.1c0.4,0,1.2-0.4,1.1-0.8c0-0.3-1-3.1-1-3.1
						s-0.2-0.4-1-0.3C76.5,15.3,76.7,16.2,76.7,16.2z"/>
				</g>
				<g>
					<path fill="#FFBF9D" d="M78,15.3c0,0,0,0.1,0,0.1c0.1,0.6,0.8,3.1,1.2,3.1c0.4,0,1.2-0.4,1.1-0.8c0-0.3-1-3.1-1-3.1
						s-0.2-0.4-1-0.3C77.9,14.4,78,15.3,78,15.3z"/>
				</g>
				<g>
					<path fill="#FFBF9D" d="M79.3,14.5c0,0,0,0.1,0,0.1c0.1,0.6,0.8,3.1,1.2,3.1c0.4,0,1.2-0.4,1.1-0.8c0-0.3-1-3.1-1-3.1
						s-0.2-0.4-1-0.3C79.2,13.6,79.3,14.5,79.3,14.5z"/>
				</g>
				<g>
					<g>
						<path fill="#FF9A6C" d="M77.5,19.2c0,0-0.2-0.5-0.5-1.2c-0.2-0.7-0.3-1.2-0.3-1.2c0,0,0.2,0.5,0.5,1.2
							C77.4,18.7,77.6,19.2,77.5,19.2z"/>
					</g>
				</g>
				<g>
					<g>
						
							<ellipse transform="matrix(0.3024 0.9532 -0.9532 0.3024 71.056 -62.8463)" fill="#FF9A6C" cx="78.5" cy="17.1" rx="1.8" ry="0.1"/>
					</g>
				</g>
				<g opacity="0.78">
					<g>
						
							<ellipse transform="matrix(0.3024 0.9532 -0.9532 0.3024 71.5584 -64.6163)" fill="#FF9A6C" cx="79.9" cy="16.6" rx="1.8" ry="0.1"/>
					</g>
				</g>
			</g>
			<g>
				<g>
					<g>
						<path fill="#FFBF9D" d="M76.7,22.3c0-0.1-1.4-5.2-1.4-5.2l6.4,0c0.2,0.4,0.7,4.4,0.7,4.4l-0.3,1.3c0,0-4.4,2-4.5,2
							C77.5,24.8,76.7,22.3,76.7,22.3z"/>
					</g>
					<g>
						<g>
							<g>
								<path fill="#FFBF9D" d="M81.1,21.7l0.8-2c0.3-0.9,0.3-1.8,0-2.7l-0.3-0.7L76.7,18c0,0,0.9,1.6,2.2,0.9l-1.1,1.7L81.1,21.7z"
									/>
							</g>
						</g>
					</g>
					<g>
						<g>
							<path fill="#FF9A6C" d="M78.2,20.8c0,0,0-0.2,0.1-0.6c0.1-0.4,0.4-0.9,1-1.3l0.5-0.3l-0.5,0.1c-0.4,0.1-0.8,0.1-1.2,0.2l0,0
								c-0.5,0-1.1-0.2-1.3-0.8c0,0,0-0.1,0-0.1l-0.1,0.1c1.4-0.4,2.6-0.8,3.5-1.1c0.4-0.2,0.8-0.3,1-0.4c0.2-0.1,0.4-0.2,0.4-0.2
								c0,0-0.6,0.2-1.5,0.4c-0.9,0.3-2.1,0.6-3.5,1l-0.1,0l0,0.1c0,0.1,0,0.1,0.1,0.2c0.1,0.3,0.4,0.5,0.6,0.7
								c0.3,0.1,0.6,0.2,0.8,0.2l0,0l0,0c0.4-0.1,0.8-0.2,1.2-0.2l-0.1-0.2c-0.7,0.4-0.9,1-1,1.4C78.1,20.6,78.1,20.8,78.2,20.8z"/>
						</g>
					</g>
					<g>
						<g>
							<path fill="#FF9A6C" d="M77.3,18.6c0,0,0,0.3-0.1,0.6c-0.1,0.2-0.2,0.3-0.4,0.3c-0.2,0-0.4-0.2-0.5-0.4
								c-0.2-0.5-0.5-1-0.6-1.3c-0.1-0.3-0.2-0.6-0.2-0.6c0,0,0,0.2,0.1,0.6c0.1,0.4,0.3,0.9,0.6,1.4c0.1,0.3,0.4,0.5,0.7,0.5
								c0.3,0,0.5-0.3,0.6-0.5c0.1-0.2,0-0.4,0-0.5C77.3,18.7,77.3,18.6,77.3,18.6z"/>
						</g>
					</g>
				</g>
			</g>
			<g>
				<g>
					<g>
						<path fill="#263238" d="M115.6,59.8c0,0-0.3-0.8-0.9-2c-0.3-0.6-0.7-1.3-1.4-1.8c-0.3-0.3-0.7-0.5-1.2-0.7
							c-0.4-0.2-0.9-0.3-1.4-0.3c-1-0.1-2-0.2-2.9-0.6c-0.9-0.4-1.4-1-1.8-1.6c-0.3-0.6-0.5-1.2-0.5-1.5c0-0.2,0-0.3,0-0.4
							c0-0.1,0-0.2,0-0.2c0,0,0,0.2,0.1,0.6c0.1,0.4,0.2,0.9,0.5,1.5c0.3,0.6,0.9,1.2,1.7,1.5c0.8,0.3,1.8,0.4,2.8,0.5
							c0.5,0.1,1,0.2,1.5,0.3c0.5,0.2,0.9,0.4,1.2,0.7c0.7,0.6,1.1,1.3,1.4,1.9c0.3,0.6,0.5,1.1,0.6,1.5
							C115.6,59.6,115.6,59.8,115.6,59.8z"/>
					</g>
				</g>
				<g>
					<path fill="#263238" d="M98.1,35.1c2.8-1.4,6.4-0.7,8.5,1.6c1,1.1,1.7,2.6,3,3.5c1.6,1.1,3.6,1,5.5,1.1s4.1,0.4,5.1,2
						c0.5,0.7,0.6,1.6,0.9,2.5c0.3,0.9,0.7,1.7,1.5,2.1c0.6,0.3,1.3,0.3,1.9,0.4c0.7,0.1,1.4,0.3,1.7,0.9c-0.9,2.6-2.2,5-4,7.1
						c-0.4-0.2-0.9-0.5-1.3-0.7c0,0.5,0.1,1.1,0.1,1.6c-1.2,0.7-2.3,1.6-3.2,2.6c-0.8-1-1.7-2-2.5-3c-0.7-0.9-1.5-1.8-2.5-2.3
						c-1-0.4-2-0.5-3.1-0.6c-1-0.1-2.2-0.4-2.9-1.2c-0.6-0.6-0.8-1.5-1.3-2.2c-0.7-0.9-1.9-1.5-3.1-1.3"/>
				</g>
				<g>
					<g>
						<g>
							<path fill="#FF4F5B" d="M103.1,48.6c-0.2,0.8,0.4,1.6,1.2,2c0.7,0.3,1.6,0.3,2.4,0.3s1.7,0,2.4,0.4c1.2,0.6,1.8,2,2.9,2.9
								c1,0.8,2.4,1,3.6,0.5c1.2-0.5,2.1-1.6,2.3-2.8c-1.2,1-3.2,1-4.4,0c-1-0.8-1.6-2.1-2.7-2.6c-1.1-0.5-2.4-0.2-3.7-0.1
								c-1.2,0.1-2.8-0.2-3.1-1.4l-0.3,0L103.1,48.6z"/>
						</g>
						<g opacity="0.3">
							<g>
								<path d="M103.4,49.9c-0.1,0.1,0.9,0.8,0.9,0.7c0,0,0.6-0.3,0.7-0.7c0.1-0.5,0-0.6-0.2-1.1c0,0-0.8-0.4-0.9-1.1h-0.3
									L103.4,49.9"/>
							</g>
						</g>
					</g>
					<g>
						<g>
							<path fill="#FAFAFA" d="M105.9,49.2c0,0,0,0.4-0.1,0.9c-0.1,0.5-0.2,0.9-0.3,0.9c0,0,0.1-0.4,0.2-0.9
								C105.8,49.6,105.9,49.2,105.9,49.2z"/>
						</g>
					</g>
					<g>
						<g>
							<path fill="#FAFAFA" d="M109.7,49c0,0-0.4,0.4-0.7,0.9c-0.3,0.6-0.4,1.1-0.4,1.1c0,0,0-0.1,0-0.4c0.1-0.2,0.2-0.5,0.3-0.8
								c0.2-0.3,0.4-0.5,0.5-0.7C109.6,49.1,109.7,49,109.7,49z"/>
						</g>
					</g>
					<g>
						<g>
							<path fill="#FAFAFA" d="M113.1,51.8c0,0-0.1,0.1-0.2,0.3c-0.2,0.2-0.4,0.4-0.7,0.6c-0.3,0.2-0.6,0.4-0.8,0.5
								c-0.2,0.1-0.4,0.1-0.4,0.1c0,0,0.5-0.2,1.1-0.7C112.7,52.2,113.1,51.8,113.1,51.8z"/>
						</g>
					</g>
					<g>
						<g>
							<path fill="#FAFAFA" d="M115.8,54.6c0,0,0-0.4,0-1c0-0.5,0-1,0-1c0,0,0.1,0.4,0.1,1C115.9,54.2,115.8,54.6,115.8,54.6z"/>
						</g>
					</g>
				</g>
				<g>
					<g>
						<polygon fill="#FFBF9D" points="128.9,125.4 144,119.7 141.9,113.1 125.6,116.9 						"/>
					</g>
					<g>
						<g>
							<g>
								<g>
									<path fill="#FF4F5B" d="M142,120.5l0.4-0.1c0,0,5.3,6.6,6.8,6.3l-4.6-14.9l-4.9,1.7C141.4,115.4,142.3,117.7,142,120.5z"/>
								</g>
							</g>
							<g opacity="0.6">
								<g>
									<g>
										<path fill="#FFFFFF" d="M141.8,114.5c0-0.3,0.3-0.6,0.6-0.6c0.3,0,0.6,0.2,0.6,0.6c0,0.3-0.3,0.7-0.6,0.7
											C142,115.1,141.7,114.7,141.8,114.5"/>
									</g>
								</g>
							</g>
							<g opacity="0.6">
								<g>
									<path fill="#FFFFFF" d="M144.6,111.7l-1.2,0.4l4.8,14.2c0,0,0.5,0.6,0.9,0.4L144.6,111.7z"/>
								</g>
							</g>
							<g>
								<g>
									<g>
										<path fill="#263238" d="M142.5,120.5c0.1,0,0-0.4,0.1-0.8c0.1-0.4,0.4-0.7,0.3-0.8c0-0.1-0.4,0.2-0.6,0.7
											C142.2,120.1,142.5,120.5,142.5,120.5z"/>
									</g>
								</g>
							</g>
							<g>
								<g>
									<g>
										<path fill="#263238" d="M143.6,121.8c0.1,0,0.1-0.4,0.3-0.7c0.2-0.3,0.5-0.5,0.5-0.6c0-0.1-0.5,0-0.7,0.4
											C143.5,121.4,143.6,121.8,143.6,121.8z"/>
									</g>
								</g>
							</g>
							<g>
								<g>
									<g>
										<path fill="#263238" d="M145.8,122.1c0-0.1-0.4-0.1-0.7,0.3c-0.3,0.3-0.4,0.7-0.3,0.7c0.1,0,0.2-0.3,0.5-0.5
											C145.5,122.3,145.8,122.2,145.8,122.1z"/>
									</g>
								</g>
							</g>
						</g>
					</g>
				</g>
				<g>
					<g>
						<polygon fill="#FFBF9D" points="94.1,154.9 98.5,170.4 105.3,168.8 102.9,152.3 						"/>
					</g>
					<g>
						<g>
							<g>
								<g>
									<path fill="#FF4F5B" d="M97.9,168.3l0.1,0.5c0,0-7,4.7-6.8,6.2l15.3-3.3l-1.3-5C103.1,168.2,100.7,168.8,97.9,168.3z"/>
								</g>
							</g>
							<g opacity="0.6">
								<g>
									<g>
										<path fill="#FFFFFF" d="M103.9,168.6c0.3,0,0.6,0.3,0.6,0.6c0,0.3-0.3,0.6-0.6,0.6c-0.3,0-0.7-0.3-0.6-0.7
											C103.3,168.8,103.7,168.5,103.9,168.6"/>
									</g>
								</g>
							</g>
							<g opacity="0.6">
								<g>
									<path fill="#FFFFFF" d="M106.5,171.7l-0.3-1.2l-14.5,3.7c0,0-0.6,0.4-0.4,0.9L106.5,171.7z"/>
								</g>
							</g>
							<g>
								<g>
									<g>
										<path fill="#263238" d="M98,168.9c0,0.1,0.4,0,0.8,0.2c0.4,0.1,0.7,0.4,0.7,0.4c0.1,0-0.1-0.5-0.7-0.6
											C98.4,168.6,97.9,168.8,98,168.9z"/>
									</g>
								</g>
							</g>
							<g>
								<g>
									<g>
										<path fill="#263238" d="M96.5,169.9c0,0.1,0.3,0.1,0.7,0.4c0.3,0.3,0.5,0.6,0.5,0.6c0.1,0,0-0.5-0.4-0.8
											C96.9,169.7,96.5,169.8,96.5,169.9z"/>
									</g>
								</g>
							</g>
							<g>
								<g>
									<g>
										<path fill="#263238" d="M96,172c0.1,0,0.1-0.4-0.2-0.8c-0.3-0.4-0.7-0.5-0.7-0.4c0,0.1,0.2,0.2,0.5,0.5
											C95.8,171.7,95.9,172,96,172z"/>
									</g>
								</g>
							</g>
						</g>
					</g>
				</g>
				<g>
					<path fill="#263238" d="M86.2,89c0,0-0.6,29.6,2.3,49.5l6.7,21.7l9-1.8c0,0-3.5-22.4-3.9-31.6c-0.5-9.2-0.1-42.7-0.1-42.7
						L86.2,89z"/>
				</g>
				<g>
					<path fill="#263238" d="M92.2,86.3l8.8,33.8c1.8,6.9,9,11,15.8,8.9l20-6l-2.9-8.6l-18.7,3.1l-2.5-19.5c0,0-3.5-14.6-8.1-14.6
						C103.6,83.5,92.2,86.3,92.2,86.3z"/>
				</g>
				<g>
					<g>
						<g>
							<path fill="#FFBF9D" d="M82,22.5l0,1.8c0,0-0.7,14.2-0.7,16.3S88.5,55,88.5,55l-4.3,7.1l-9.8-17.7c-0.4-0.7-0.6-1.6-0.5-2.4
								l2.3-18.9l0.1-0.5"/>
						</g>
					</g>
				</g>
				<g>
					<path fill="#FF4F5B" d="M81.4,41.1L89,51.2c1.4,1.9,3.9,3,6.1,3.9l0,0c5.5,0.3,12.1-0.5,14.9,4c0.5,0.7,0.6,1.6,0.3,2.5
						c-1.2,3.9-5.1,16.8-5.2,18.5c0,0,1.7,1.8,1.3,2.8c-0.4,1.1-1.8,0.6-1.8,0.6l-18,5.3c0,0-0.8-0.4-0.7-1c0.1-0.6,0.7-2.2,1.3-3.9
						c1-2.7,1.2-5.7,0.4-8.6c-0.3-1.2-0.6-2.4-0.8-3.4l-0.5-6.4c-2.5-4.2-8.1-10.2-11-18.8L81.4,41.1z"/>
				</g>
				<g>
					<g>
						<g>
							<g>
								<path fill="#FFBF9D" d="M104.5,42.2c0.4-3.5-2.1-6.7-5.7-7c-3.4-0.3-6.3,2.2-6.8,5.5c-0.4,2.9-0.8,5.9-0.8,6.9
									c0,3.2,1.9,4.5,2.7,4.9c0.2,0.1,0.7,0.2,0.8,0.2l0,0c0,0,0,0,0,0L94,56.4c-0.3,2.4,1,4.6,3.5,4.9c2.4,0.4,4.3-1.5,4.7-3.9
									L104.5,42.2z"/>
							</g>
						</g>
						<g>
							<g>
								<g>
									<g>
										<g>
											<g>
												<g>
													<path fill="#263238" d="M92.6,42.6c0.1,0.1,0.5-0.2,1-0.1c0.5,0.1,0.9,0.4,1,0.4c0,0,0-0.2-0.2-0.3
														c-0.2-0.2-0.4-0.3-0.8-0.4c-0.3,0-0.6,0-0.8,0.1C92.6,42.4,92.5,42.5,92.6,42.6z"/>
												</g>
											</g>
										</g>
									</g>
								</g>
							</g>
						</g>
						<g>
							<g>
								<g>
									<g>
										<g>
											<g>
												<g>
													<path fill="#263238" d="M97.4,43.6c0.1,0.1,0.5-0.2,1-0.1c0.5,0.1,0.9,0.4,1,0.4c0,0,0-0.2-0.2-0.3
														c-0.2-0.2-0.4-0.3-0.8-0.4c-0.3,0-0.6,0-0.8,0.1C97.5,43.5,97.4,43.6,97.4,43.6z"/>
												</g>
											</g>
										</g>
									</g>
								</g>
							</g>
						</g>
						<g>
							<g>
								<g>
									<g>
										<g>
											<g>
												<path fill="#263238" d="M95.5,46.2c0,0-0.3-0.1-0.9-0.3c-0.1,0-0.3-0.1-0.3-0.2c0-0.1,0.1-0.2,0.2-0.4
													c0.2-0.3,0.4-0.7,0.6-1c0.8-1.4,1.4-2.6,1.3-2.6c-0.1,0-0.7,1.1-1.5,2.5c-0.2,0.4-0.4,0.7-0.6,1
													c-0.1,0.2-0.2,0.3-0.2,0.5c0,0.1,0.1,0.2,0.2,0.2c0.1,0,0.2,0.1,0.2,0.1C95.2,46.2,95.5,46.2,95.5,46.2z"/>
											</g>
										</g>
									</g>
								</g>
							</g>
						</g>
						<g>
							<g>
								<g>
									<g>
										<g>
											<path fill="#FF9A6C" d="M94.8,52.7c0,0,2.1,0.5,5-0.7c0,0-1.2,2.7-5.1,1.7L94.8,52.7z"/>
										</g>
									</g>
								</g>
							</g>
						</g>
						<g>
							<g>
								<g>
									<g>
										<g>
											<path fill="#FF4F5B" d="M95.6,47.5c0.2-0.2,0.6-0.3,0.9-0.2c0.2,0.1,0.5,0.2,0.6,0.4c0.1,0.2,0.1,0.5-0.1,0.7
												c-0.2,0.2-0.5,0.2-0.7,0.1c-0.2-0.1-0.4-0.3-0.6-0.5c-0.1-0.1-0.1-0.1-0.1-0.2C95.5,47.7,95.5,47.6,95.6,47.5"/>
										</g>
									</g>
								</g>
							</g>
						</g>
						<g>
							<g>
								<g>
									<g>
										<g>
											<g>
												<path fill="#263238" d="M97.1,46.8c-0.1,0-0.2,0.6-0.7,0.9c-0.6,0.3-1.2,0.2-1.2,0.3c0,0,0.1,0.1,0.4,0.2
													c0.3,0,0.7,0,1-0.2c0.3-0.2,0.5-0.5,0.6-0.8C97.2,47,97.1,46.8,97.1,46.8z"/>
											</g>
										</g>
									</g>
								</g>
							</g>
						</g>
						<g>
							<g>
								<g>
									<g>
										<g>
											<path fill="#263238" d="M97.8,41.8c0,0.2,0.6,0.2,1.2,0.3c0.6,0.2,1.1,0.4,1.2,0.3c0-0.1,0-0.2-0.2-0.4
												c-0.2-0.2-0.5-0.4-0.9-0.5c-0.4-0.1-0.7-0.1-1,0C97.9,41.7,97.8,41.8,97.8,41.8z"/>
										</g>
									</g>
								</g>
							</g>
						</g>
						<g>
							<g>
								<g>
									<g>
										<g>
											<path fill="#263238" d="M93.1,40.9c0.1,0.1,0.5,0.1,0.9,0.1c0.5,0,0.8,0.2,0.9,0.1c0-0.1,0-0.2-0.1-0.3
												c-0.1-0.1-0.4-0.3-0.7-0.3c-0.3,0-0.6,0-0.8,0.1C93.2,40.7,93.1,40.8,93.1,40.9z"/>
										</g>
									</g>
								</g>
							</g>
						</g>
					</g>
				</g>
				<g>
					<path fill="#FF4F5B" d="M93,77c-2.5,0-4.6-2-4.5-4.6c0-2.6,0.8-5.6,0.8-5.6s7,1.5,7,1.5c0,0,0,0,0,0l1.8-3.1
						c0,0,3.9-7.6,7.6-8.1c3.3-0.4,5.2,1.9,4.5,5.2c-0.7,3.3-5.6,9.7-9.8,12.3C98,76.3,95.3,77,93,77z"/>
				</g>
				<g>
					<g>
						<path fill="#263238" d="M106.3,69.1c0,0,0,0.1-0.2,0.3c-0.1,0.2-0.3,0.4-0.5,0.7c-0.4,0.6-1.1,1.4-2,2.4
							c-0.9,0.9-2.1,2-3.5,2.9c-1.5,0.9-3.3,1.6-5.3,1.8c-1,0.1-2,0-2.9-0.2c-0.9-0.2-1.8-0.6-2.5-1.2c-0.7-0.6-1.1-1.3-1.3-2.1
							c-0.2-0.7-0.3-1.5-0.2-2.1c0.1-1.3,0.4-2.3,0.7-3c0.1-0.3,0.2-0.6,0.3-0.8c0.1-0.2,0.1-0.3,0.1-0.3c0,0,0,0.1-0.1,0.3
							c-0.1,0.2-0.1,0.5-0.2,0.8c-0.2,0.7-0.5,1.7-0.6,3c0,0.6,0,1.4,0.2,2.1c0.2,0.7,0.6,1.4,1.3,2c0.6,0.5,1.5,0.9,2.4,1.1
							c0.9,0.2,1.9,0.3,2.9,0.2c2-0.2,3.8-0.9,5.2-1.7c1.5-0.9,2.6-1.9,3.5-2.8c0.9-0.9,1.6-1.8,2-2.3c0.2-0.3,0.4-0.5,0.5-0.7
							C106.2,69.2,106.3,69.1,106.3,69.1z"/>
					</g>
				</g>
				<g>
					<g>
						<path fill="#263238" d="M107,69.4c0,0-0.2,0.6-0.8,1c-0.6,0.4-1.2,0.5-1.2,0.5c0-0.1,0.5-0.2,1.1-0.6
							C106.6,69.8,106.9,69.3,107,69.4z"/>
					</g>
				</g>
				<g>
					<g>
						<path fill="#263238" d="M95.7,71.2c-0.1,0-0.1-0.6,0.1-1.4c0.1-0.8,0.4-1.3,0.4-1.3c0.1,0-0.1,0.6-0.2,1.4
							C95.9,70.6,95.8,71.2,95.7,71.2z"/>
					</g>
				</g>
				<g>
					<g>
						<path fill="#263238" d="M97,71.7c0,0-0.5-0.6-0.7-1.6c-0.3-0.9-0.2-1.7-0.1-1.7c0.1,0,0.1,0.8,0.3,1.7
							C96.7,71,97,71.6,97,71.7z"/>
					</g>
				</g>
				<g>
					<g>
						<path fill="#263238" d="M100.7,61.2c0,0-0.2,0.4-0.6,1.1c-0.4,0.7-1,1.6-1.6,2.6c-0.6,1-1.2,1.9-1.7,2.5c-0.4,0.6-0.7,1-0.7,1
							c0,0,0.2-0.4,0.6-1.1c0.4-0.7,1-1.6,1.6-2.6c0.6-1,1.2-1.9,1.7-2.5C100.4,61.6,100.7,61.2,100.7,61.2z"/>
					</g>
				</g>
				<g>
					<g>
						<path fill="#263238" d="M87.4,73.5c0,0-0.1-0.1-0.2-0.4c-0.1-0.3-0.3-0.7-0.4-1.2c-0.3-1-0.6-2.5-0.6-4.2
							c0-1.7,0.3-3.2,0.6-4.2c0.2-0.5,0.3-0.9,0.4-1.2c0.1-0.3,0.2-0.4,0.2-0.4c0,0-0.2,0.6-0.5,1.7c-0.3,1-0.5,2.5-0.5,4.2
							c0,1.6,0.2,3.1,0.5,4.2C87.2,72.9,87.4,73.5,87.4,73.5z"/>
					</g>
				</g>
				<g>
					<g>
						<path fill="#263238" d="M101.5,79c0,0-0.1,0.2-0.3,0.4c-0.2,0.3-0.5,0.6-0.9,1c-0.4,0.4-1,0.9-1.6,1.4c-0.6,0.5-1.4,1-2.2,1.4
							c-0.8,0.4-1.6,0.8-2.4,1c-0.7,0.3-1.4,0.4-2,0.5c-0.6,0.1-1.1,0.2-1.4,0.2c-0.3,0-0.5,0-0.5,0c0,0,0.7-0.1,1.9-0.4
							c0.6-0.1,1.3-0.3,2-0.6c0.7-0.3,1.5-0.6,2.3-1c0.8-0.4,1.5-0.9,2.1-1.4c0.6-0.5,1.2-0.9,1.6-1.3C101,79.5,101.5,79,101.5,79z"
							/>
					</g>
				</g>
				<g>
					<g>
						
							<ellipse transform="matrix(-0.4038 -0.9149 0.9149 -0.4038 74.7769 206.543)" fill="#263238" cx="104.7" cy="78.9" rx="1.5" ry="0.1"/>
					</g>
				</g>
				<g>
					<g>
						
							<ellipse transform="matrix(0.2302 0.9731 -0.9731 0.2302 178.0883 -13.4641)" fill="#375A64" cx="97.6" cy="105.8" rx="12.8" ry="0.1"/>
					</g>
				</g>
				<g>
					<g>
						<path fill="#375A64" d="M108.5,86.3c0,0-0.1,0.1-0.2,0.3c-0.2,0.2-0.4,0.4-0.8,0.6c-0.7,0.4-1.8,0.9-3.1,1
							c-1.3,0.1-2.4-0.3-3.2-0.7c-0.4-0.2-0.7-0.4-0.8-0.5c-0.2-0.1-0.3-0.2-0.3-0.2c0,0,0.4,0.3,1.2,0.6c0.7,0.3,1.8,0.7,3.1,0.6
							c1.2-0.1,2.3-0.5,3-0.9C108.1,86.6,108.5,86.3,108.5,86.3z"/>
					</g>
				</g>
				<g>
					<g>
						<path fill="#375A64" d="M95.8,99.4c0,0-0.2-0.1-0.4-0.3c-0.2-0.2-0.5-0.6-0.8-1.2c-0.3-0.5-0.5-1.2-0.7-1.9
							c-0.2-0.7-0.5-1.6-0.7-2.4c-0.5-1.7-1-3.3-1.3-4.4c-0.1-0.5-0.3-1-0.4-1.3c-0.1-0.3-0.1-0.5-0.1-0.5c0,0,0.1,0.2,0.2,0.5
							c0.1,0.4,0.3,0.8,0.4,1.3c0.4,1.1,0.8,2.7,1.4,4.4c0.3,0.9,0.5,1.7,0.7,2.4c0.2,0.7,0.4,1.4,0.6,1.9
							C95.3,99,95.9,99.4,95.8,99.4z"/>
					</g>
				</g>
				<g>
					<g>
						<path fill="#375A64" d="M93.3,88c0,0,0.1-0.2,0.4-0.2c0.1,0,0.3,0.1,0.4,0.2c0.1,0.2,0.1,0.4-0.1,0.6
							c-0.1,0.2-0.4,0.3-0.6,0.2c-0.2-0.1-0.3-0.2-0.3-0.4C93.1,88.1,93.2,88,93.3,88c0,0.1-0.1,0.2,0,0.4c0,0.1,0.1,0.2,0.2,0.2
							c0.1,0,0.3,0,0.4-0.1c0.1-0.1,0.1-0.3,0.1-0.4c-0.1-0.1-0.2-0.2-0.3-0.2C93.4,87.9,93.3,88,93.3,88z"/>
					</g>
				</g>
				<g>
					<g>
						<path fill="#375A64" d="M94.4,89.8c0,0,0-0.1,0.1-0.1c0.1,0,0.3,0,0.4,0.1c0.1,0.1,0.2,0.4,0,0.6c-0.1,0.2-0.4,0.3-0.7,0.2
							c-0.3-0.1-0.4-0.3-0.5-0.6c0-0.2,0-0.4,0.1-0.6c0.1-0.1,0.3-0.2,0.4-0.2c0.1,0,0.1,0.1,0.1,0.1c0,0-0.1,0-0.1,0
							c-0.1,0-0.2,0.1-0.2,0.2c-0.1,0.2-0.1,0.8,0.3,0.9c0.2,0.1,0.4,0,0.5-0.1c0.1-0.1,0.1-0.3,0-0.4c-0.1-0.1-0.2-0.1-0.3-0.2
							C94.5,89.8,94.4,89.8,94.4,89.8z"/>
					</g>
				</g>
				<g>
					<g>
						<path fill="#375A64" d="M88.1,89.2c0,0,0.2,0.3,0.2,0.8c0.1,0.5,0.1,1.3-0.2,2.1c-0.2,0.8-0.7,1.4-1,1.8
							c-0.4,0.4-0.7,0.6-0.7,0.6c0,0,0.2-0.2,0.6-0.7c0.3-0.4,0.7-1,1-1.8c0.2-0.8,0.3-1.5,0.2-2C88.1,89.5,88,89.2,88.1,89.2z"/>
					</g>
				</g>
				<g>
					<g>
						
							<ellipse transform="matrix(0.7068 -0.7075 0.7075 0.7068 -50.7164 115.601)" fill="#375A64" cx="114.1" cy="119" rx="2.3" ry="0.1"/>
					</g>
				</g>
				<g>
					<g>
						
							<ellipse transform="matrix(-0.2368 0.9715 -0.9715 -0.2368 258.0086 36.2886)" fill="#375A64" cx="114.8" cy="119.5" rx="1.7" ry="0.1"/>
					</g>
				</g>
				<g opacity="0.3">
					<g>
						<path d="M89.5,75.7c0.3,1.2,1.2,2.2,2.2,2.7c1.1,0.6,2.3,0.7,3.5,0.6c3-0.3,5.8-2.4,6.9-5.2c-1.8,1.3-3.9,2.4-6.1,3
							c-2.2,0.5-4.8,0.2-6.7-1"/>
					</g>
				</g>
				<g>
					<g>
						<g>
							<g>
								<path fill="#FFBF9D" d="M101.8,57.2c0.5-0.4,0.9-0.8,1.4-1.2c0.1-0.1,0.2-0.2,0.4-0.2c0.2,0,0.3,0.3,0.3,0.5
									c0,0.5-0.2,1.1-0.6,1.5"/>
							</g>
							<g>
								<g>
									<path fill="#FF9A6C" d="M103.2,57.7c0,0,0.2-0.2,0.4-0.6c0.1-0.2,0.2-0.4,0.2-0.7c0-0.1,0-0.3,0-0.4c0-0.1-0.1-0.2-0.2-0.2
										c-0.1,0-0.2,0.1-0.3,0.2c-0.1,0.1-0.2,0.2-0.3,0.3c-0.2,0.2-0.4,0.3-0.6,0.5c-0.3,0.3-0.5,0.4-0.5,0.4c0,0,0.2-0.2,0.4-0.5
										c0.2-0.2,0.3-0.3,0.5-0.5c0.1-0.1,0.2-0.2,0.3-0.3c0.1-0.1,0.2-0.2,0.5-0.2c0.1,0,0.2,0.1,0.3,0.2c0.1,0.1,0.1,0.2,0.1,0.2
										c0,0.2,0,0.3,0,0.5c0,0.3-0.1,0.5-0.2,0.7C103.4,57.6,103.2,57.7,103.2,57.7z"/>
								</g>
							</g>
						</g>
						<g>
							<path fill="#FFBF9D" d="M95.6,58.5l-6.1,8.4l6.7,1.5l2.8-7.7l4.8,0.6l3-1l-2.6-2.3l-3.8-1.1C98.6,56.3,96.7,57,95.6,58.5z"/>
						</g>
						<g>
							<g>
								<path fill="#FF9A6C" d="M104.2,58c0,0-0.1,0-0.2,0c-0.1,0-0.3-0.1-0.6-0.2c-0.5-0.1-1.2-0.3-2-0.6c-0.4-0.1-0.9-0.2-1.4-0.3
									c-0.5-0.1-1.1-0.1-1.6,0c-0.6,0.1-1.1,0.3-1.6,0.7c-0.5,0.4-0.9,0.9-1.3,1.4c-1.4,2.3-2.9,4.3-4,5.7c-0.6,0.7-1,1.2-1.4,1.6
									c-0.2,0.2-0.3,0.3-0.4,0.4c-0.1,0.1-0.1,0.1-0.1,0.1c0,0,0.2-0.2,0.5-0.6c0.3-0.4,0.8-0.9,1.3-1.6c1.1-1.4,2.5-3.4,4-5.7
									c0.4-0.6,0.8-1.1,1.3-1.5c0.5-0.4,1.2-0.6,1.7-0.7c0.6-0.1,1.2-0.1,1.7,0c0.5,0.1,1,0.2,1.4,0.3c0.9,0.3,1.5,0.5,2,0.6
									c0.2,0.1,0.4,0.1,0.5,0.2C104.2,57.9,104.2,58,104.2,58z"/>
							</g>
						</g>
						<g>
							<g>
								<path fill="#FF9A6C" d="M99.2,60.1c0.1,0-0.1,0.5-0.3,1.1c-0.2,0.6-0.3,1.1-0.4,1.1c-0.1,0,0-0.5,0.2-1.2
									C98.9,60.5,99.1,60.1,99.2,60.1z"/>
							</g>
						</g>
						<g>
							<g>
								<path fill="#FF9A6C" d="M104.1,61.2c0,0.1-1.2,0.1-2.6,0c-0.7-0.1-1.3-0.2-1.8-0.1c-0.4,0.1-0.7,0.3-0.7,0.3
									c0,0,0.2-0.3,0.6-0.4c0.5-0.1,1.2,0,1.9,0.1C102.9,61.1,104.1,61.1,104.1,61.2z"/>
							</g>
						</g>
					</g>
					<g>
						<g>
							<path fill="#FFBF9D" d="M104.9,55.8c0,0-0.4,0.6,0,1.2c0.4,0.6,0.7,0.6,0.7,0.6l-0.2,0.7l1,0.3l0.5-1.4L104.9,55.8z"/>
						</g>
						<g>
							<g>
								<path fill="#FF9A6C" d="M104.9,55.8c0,0,0.2,0.1,0.6,0.3c0.4,0.2,0.9,0.6,1.5,1l0.1,0l0,0.1c-0.1,0.4-0.3,0.9-0.5,1.4l0,0.1
									l-0.1,0l0,0c-0.3-0.1-0.7-0.2-1-0.4l-0.1,0l0-0.1c0.1-0.2,0.1-0.4,0.2-0.7l0.1,0.1c-0.2-0.1-0.3-0.2-0.4-0.3
									c-0.1-0.1-0.2-0.2-0.3-0.3c-0.2-0.2-0.2-0.5-0.2-0.7C104.7,55.9,104.9,55.8,104.9,55.8c0,0-0.1,0.2-0.1,0.6
									c0,0.2,0.1,0.4,0.2,0.6c0.1,0.1,0.2,0.2,0.3,0.3c0.1,0.1,0.2,0.2,0.4,0.2l0.1,0l0,0.1c0,0.2-0.1,0.4-0.1,0.7l-0.1-0.1
									c0.3,0.1,0.6,0.2,1,0.3l0,0l-0.1,0.1c0.2-0.5,0.3-1,0.5-1.4l0,0.1c-0.6-0.4-1-0.8-1.4-1C105.1,56,104.9,55.8,104.9,55.8z"/>
							</g>
						</g>
					</g>
				</g>
				<g>
					<g>
						<g>
							<path fill="#263238" d="M108.4,61.8c0,0,1.2,0.4,1.3,0.6c0.1,0.2-0.6,23.7-0.6,23.7l-2-2.3L108.4,61.8z"/>
						</g>
						<g>
							<polygon fill="#375A64" points="105.6,60.6 98.7,81.8 107,83.7 108.4,61.8 107.1,62 							"/>
						</g>
						<g>
							<g>
								<path fill="#FAFAFA" d="M108.7,83.1c0,0-0.2-0.2-0.5-0.5c-0.3-0.4-0.7-0.9-1.1-1.5l0.1,0c-0.8-0.1-1.7-0.3-2.6-0.5
									c-1.4-0.3-2.7-0.5-3.6-0.7c-0.5-0.1-0.8-0.2-1.1-0.2c-0.3-0.1-0.4-0.1-0.4-0.1c0,0,0.1,0,0.4,0s0.6,0.1,1.1,0.2
									c0.9,0.2,2.2,0.4,3.6,0.7c0.9,0.2,1.8,0.4,2.6,0.5l0,0l0,0c0.4,0.6,0.8,1.1,1.1,1.5C108.6,82.9,108.7,83.1,108.7,83.1z"/>
							</g>
						</g>
						<g>
							<g>
								<path fill="#FAFAFA" d="M108.7,77.9c0,0-0.1-0.1-0.4-0.4c-0.2-0.3-0.5-0.7-0.9-1.2l0.1,0c-0.7-0.1-1.5-0.3-2.3-0.4
									c-1.2-0.2-2.2-0.4-3-0.6c-0.8-0.2-1.2-0.3-1.2-0.3c0,0,0.5,0,1.3,0.2c0.8,0.1,1.8,0.3,3,0.5c0.8,0.2,1.6,0.3,2.3,0.4l0,0
									l0,0c0.3,0.5,0.6,0.9,0.8,1.2C108.6,77.8,108.7,77.9,108.7,77.9z"/>
							</g>
						</g>
						<g>
							<g>
								<path fill="#FAFAFA" d="M108.6,72.2c0,0-0.4-0.4-0.9-1.1l0.1,0c-0.5-0.1-1.2-0.2-1.9-0.3c-0.9-0.2-1.7-0.3-2.3-0.5
									c-0.6-0.1-1-0.2-1-0.3c0,0,0.4,0,1,0.1c0.6,0.1,1.4,0.2,2.3,0.4c0.7,0.1,1.4,0.3,1.9,0.4l0,0l0,0
									C108.3,71.7,108.6,72.2,108.6,72.2z"/>
							</g>
						</g>
						<g>
							<g>
								<path fill="#FAFAFA" d="M108.7,67.1c0,0-0.3-0.3-0.7-0.8l0.1,0c-0.4-0.1-1-0.2-1.6-0.3c-1.4-0.3-2.6-0.5-2.6-0.6
									c0-0.1,1.2,0.1,2.6,0.4c0.6,0.1,1.2,0.2,1.6,0.3l0,0l0,0C108.5,66.8,108.7,67.1,108.7,67.1z"/>
							</g>
						</g>
						<g>
							<g>
								
									<ellipse transform="matrix(0.9738 0.2275 -0.2275 0.9738 21.5251 -21.2301)" fill="#263238" cx="102.9" cy="82.8" rx="4.2" ry="0.1"/>
							</g>
						</g>
						<g>
							<polygon fill="#375A64" points="101.2,84.7 98.7,81.8 107,83.7 109,86.1 							"/>
						</g>
					</g>
					<g>
						<g>
							<polygon fill="#FF4F5B" points="117.1,84.9 108.7,86.1 108.7,61.9 109.6,62.4 							"/>
						</g>
						<g opacity="0.4">
							<polygon points="117.1,84.9 108.7,86.1 108.7,61.9 109.6,62.4 							"/>
						</g>
						<g>
							<g>
								<path fill="#FAFAFA" d="M114.3,77.8c0,0-0.2,0.1-0.5,0.2c-0.3,0.1-0.8,0.3-1.3,0.6c-0.5,0.3-1.1,0.8-1.4,1.6
									c-0.3,0.7-0.4,1.7,0,2.5c0.1,0.2,0.3,0.4,0.5,0.4c0.2,0.1,0.4,0,0.5-0.1c0.1-0.1,0.1-0.4,0.1-0.6c0-0.2-0.1-0.4-0.2-0.6
									c-0.4-0.7-1.1-1-1.7-1c-0.6,0-1,0.4-1.3,0.6c-0.2,0.3-0.3,0.4-0.3,0.4c0,0,0,0,0.1-0.1c0-0.1,0.1-0.2,0.2-0.3
									c0.2-0.3,0.6-0.7,1.3-0.7c0.6,0,1.5,0.3,1.9,1.1c0.2,0.4,0.4,0.9,0.1,1.3c-0.2,0.2-0.5,0.3-0.7,0.2
									c-0.2-0.1-0.4-0.3-0.6-0.5c-0.5-0.9-0.4-1.9,0-2.7c0.4-0.8,1-1.3,1.5-1.6c0.5-0.3,1-0.5,1.4-0.5
									C114.1,77.8,114.3,77.8,114.3,77.8z"/>
							</g>
						</g>
						<g>
							<g>
								<path fill="#FAFAFA" d="M112.8,74.2c0,0-0.2,0.2-0.5,0.4c-0.4,0.2-0.9,0.3-1.6,0.3c-0.6,0-1.2-0.3-1.5-0.5
									c-0.3-0.2-0.5-0.4-0.5-0.4c0,0,0.2,0.1,0.6,0.3c0.3,0.2,0.9,0.4,1.5,0.4c0.6,0,1.1-0.1,1.5-0.2
									C112.5,74.3,112.7,74.2,112.8,74.2z"/>
							</g>
						</g>
						<g>
							<g>
								<path fill="#FAFAFA" d="M110.6,68.3c0,0-0.3,0.3-0.5,0.8c-0.1,0.3-0.2,0.6-0.2,1c0,0.2,0.1,0.4,0.2,0.5
									c0.1,0.1,0.4,0.1,0.5,0c0.2-0.1,0.2-0.3,0.2-0.5c0-0.2-0.1-0.4-0.3-0.5c-0.3-0.2-0.7-0.3-1-0.2c-0.3,0.1-0.5,0.2-0.7,0.3
									c-0.1,0.1-0.2,0.1-0.2,0.1c0,0,0.1-0.1,0.2-0.2c0.1-0.1,0.4-0.3,0.7-0.3c0.3-0.1,0.8-0.1,1.1,0.2c0.2,0.1,0.3,0.4,0.3,0.6
									c0,0.2-0.1,0.5-0.3,0.7c-0.2,0.2-0.5,0.2-0.8,0c-0.2-0.2-0.3-0.4-0.3-0.6c0-0.4,0.1-0.8,0.3-1.1c0.1-0.3,0.3-0.5,0.5-0.6
									C110.5,68.4,110.5,68.3,110.6,68.3z"/>
							</g>
						</g>
					</g>
					<g>
						<g>
							<g>
								<polygon fill="#FF4F5B" points="124.6,80.1 117.1,84.4 108.7,63.1 111.2,61.8 								"/>
							</g>
							<g>
								<polygon fill="#FF4F5B" points="126.1,78.1 124.6,80.1 111.2,61.8 112.9,60.6 								"/>
							</g>
							<g>
								<g>
									<path fill="#FAFAFA" d="M113.6,65.3c0,0,0,0,0.1-0.1c0.1-0.1,0.2-0.1,0.4-0.2c0.4-0.1,0.9,0,1.5,0.4c0.6,0.3,1.1,1,1.4,1.8
										c0.1,0.4,0.2,0.9,0.1,1.4c-0.1,0.5-0.4,1-0.9,1.2c-0.5,0.2-1,0.3-1.5,0.1c-0.5-0.2-0.8-0.4-1.1-0.8
										c-0.6-0.7-0.8-1.5-0.8-2.1c0-0.7,0.3-1.2,0.5-1.5C113.4,65.4,113.5,65.3,113.6,65.3c0.1-0.1,0.2-0.1,0.2-0.1
										c0,0-0.2,0.1-0.4,0.4c-0.2,0.3-0.4,0.8-0.4,1.4c0,0.6,0.3,1.4,0.8,2c0.3,0.3,0.6,0.6,1.1,0.7c0.4,0.1,0.9,0.1,1.3-0.1
										c0.4-0.2,0.7-0.6,0.8-1c0.1-0.4,0-0.9-0.1-1.3c-0.3-0.8-0.8-1.4-1.3-1.7c-0.5-0.3-1.1-0.4-1.4-0.4
										C113.7,65.2,113.6,65.3,113.6,65.3z"/>
								</g>
							</g>
							<g>
								<g>
									<path fill="#FAFAFA" d="M125.6,77.4c0,0,0,0.1-0.2,0.3c-0.1,0.1-0.4,0.3-0.8,0.4c-0.4,0.1-0.8,0.1-1.3-0.1
										c-0.5-0.2-0.9-0.6-1.2-1c-0.3-0.5-0.5-1-0.6-1.5c-0.1-0.5,0-0.9,0.2-1.3c0.1-0.3,0.3-0.6,0.5-0.7c0.2-0.1,0.3-0.2,0.3-0.2
										c0,0-0.4,0.3-0.6,0.9c-0.1,0.3-0.2,0.7-0.1,1.2c0.1,0.4,0.3,0.9,0.6,1.4c0.3,0.4,0.7,0.8,1.1,1c0.4,0.2,0.8,0.2,1.2,0.1
										C125.3,77.8,125.6,77.4,125.6,77.4z"/>
								</g>
							</g>
							<g>
								<g>
									<path fill="#FAFAFA" d="M115,74.7c0,0,0,0,0.1-0.1c0.1-0.1,0.2-0.1,0.4-0.2c0.4-0.1,0.9,0,1.5,0.4c0.6,0.3,1.1,1,1.4,1.8
										c0.1,0.4,0.2,0.9,0.1,1.4c-0.1,0.5-0.4,1-0.9,1.2c-0.5,0.2-1,0.3-1.5,0.1c-0.5-0.2-0.8-0.4-1.1-0.8
										c-0.6-0.7-0.8-1.5-0.8-2.1c0-0.7,0.3-1.2,0.5-1.5C114.9,74.8,115,74.7,115,74.7c0.1-0.1,0.2-0.1,0.2-0.1
										c0,0-0.2,0.1-0.4,0.4c-0.2,0.3-0.4,0.8-0.4,1.4c0,0.6,0.3,1.4,0.8,2c0.3,0.3,0.6,0.6,1.1,0.7c0.4,0.1,0.9,0.1,1.3-0.1
										c0.4-0.2,0.7-0.6,0.8-1c0.1-0.4,0-0.9-0.1-1.3c-0.3-0.8-0.8-1.4-1.3-1.7c-0.5-0.3-1.1-0.4-1.4-0.4
										C115.2,74.5,115,74.7,115,74.7z"/>
								</g>
							</g>
						</g>
						<g opacity="0.2">
							<polygon points="126.1,78.1 124.6,80.1 111.2,61.8 112.9,60.6 							"/>
						</g>
					</g>
					<g>
						<g>
							<path fill="#375A64" d="M104.9,57.9c0.2-0.2,0.5-0.2,0.8-0.2c0.3,0.1,0.5,0.2,0.7,0.4c1.6,1.2,3.2,2.4,4.8,3.6
								c-0.4,0.2-0.8,0.4-1.2,0.7c-0.6-1.1-1.5-2-2.7-2.5"/>
						</g>
						<g>
							<path fill="#263238" d="M107,62.1c-0.1-1-0.7-2-1.4-2.6c-0.5-0.4-1-0.7-1.3-1.1c-0.1-0.2-0.2-0.4-0.1-0.5
								c0.1-0.1,0.3-0.2,0.4-0.2c0.2,0,0.3,0.1,0.5,0.2c0.8,0.5,1.7,1,2.3,1.7c0.7,0.7,1.1,1.7,1,2.6"/>
						</g>
					</g>
				</g>
				<g>
					<path fill="#263238" d="M95.3,35.4c-1.8,0.5-4.1,2.3-3.2,5c2.2-0.5,4.2-2.1,6-3.5c0.4,2,0.6,3.1,1.7,5c0.4,0.7,3.8,3.7,4.2,3.9
						c0.5,0.2,0.7-2,0.3-2.9C104.2,42.9,102.1,33.7,95.3,35.4z"/>
				</g>
				<g>
					<path fill="#FF4F5B" d="M95.3,35.4c2.1,0.2,4.6,1.5,6,3.2c1.4,1.7,2.6,4.5,2.8,6.7c2-2.5,1.2-7-0.8-9
						C101.2,34.3,97.8,34.1,95.3,35.4"/>
				</g>
				<g>
					<g>
						<path fill="#263238" d="M117.3,39.7c0,0,0.1,0.1,0.1,0.2c0,0.1,0.1,0.4,0,0.7c-0.1,0.3-0.3,0.6-0.6,0.9
							c-0.3,0.3-0.8,0.5-1.3,0.6c-0.5,0.1-1.1,0.2-1.7,0.3c-0.6,0.1-1.3,0.1-2-0.1c-0.7-0.2-1.4-0.5-2-1c-0.6-0.5-0.9-1.3-1.1-2.1
							c-0.2-0.8-0.4-1.5-0.7-2.2c-0.3-0.7-0.8-1.2-1.3-1.6c-1.1-0.8-2.4-1-3.4-1c-1,0-1.9,0.1-2.5,0.2c-0.3,0-0.5,0.1-0.7,0.1
							c-0.2,0-0.2,0-0.2,0c0,0,0.1,0,0.2-0.1c0.2,0,0.4-0.1,0.7-0.1c0.6-0.1,1.4-0.2,2.5-0.2c1,0,2.4,0.2,3.5,1
							c0.6,0.4,1.1,1,1.4,1.7c0.3,0.7,0.5,1.5,0.7,2.2c0.2,0.8,0.6,1.5,1.1,2c0.5,0.5,1.2,0.8,1.9,1c1.3,0.3,2.6,0.1,3.6-0.2
							c0.5-0.1,0.9-0.3,1.3-0.6c0.3-0.3,0.5-0.6,0.6-0.8C117.5,40,117.3,39.7,117.3,39.7z"/>
					</g>
				</g>
				<g>
					<path fill="#263238" d="M101.4,42.7c0,1.4,0.3,2.9,1.1,4c0.8,1.1,2.3,1.9,3.7,1.5c-0.4-0.4-0.7-0.8-1.1-1.2
						c0.8,0.4,1.9,0.4,2.6-0.2c-2.5-0.6-4.8-2.4-6-4.7"/>
				</g>
				<g>
					<g>
						<path fill="#263238" d="M102.5,38.3c0,0,0.3,0.3,0.5,0.9c0.3,0.6,0.6,1.4,0.9,2.3c0.2,0.9,0.3,1.8,0.3,2.5c0,0.6-0.1,1-0.1,1
							c-0.1,0,0-1.6-0.4-3.4C103.2,39.7,102.4,38.3,102.5,38.3z"/>
					</g>
				</g>
				<g>
					<g>
						<path fill="#263238" d="M104.1,39.1c0,0,0.1,0.3,0.2,0.9c0.1,0.5,0.1,1.3,0.1,2.1c0,0.8-0.1,1.6-0.2,2.1
							c-0.1,0.5-0.2,0.9-0.2,0.9c-0.1,0,0.1-1.3,0.1-3C104.3,40.4,104.1,39.1,104.1,39.1z"/>
					</g>
				</g>
				<g>
					<path fill="#FF4F5B" d="M103.8,47.7"/>
				</g>
				<g>
					<g>
						<path fill="#FAFAFA" d="M103.8,37.1c0,0-0.2,0-0.5,0.1c-0.3,0.1-0.7,0.1-1.1,0.3c-0.4,0.1-0.8,0.3-1.1,0.4
							c-0.3,0.1-0.4,0.2-0.4,0.2c0,0,0.2-0.1,0.4-0.2c0.3-0.1,0.6-0.3,1.1-0.4c0.4-0.1,0.8-0.2,1.1-0.3
							C103.6,37.1,103.8,37.1,103.8,37.1z"/>
					</g>
				</g>
				<g>
					<g>
						<path fill="#FAFAFA" d="M101.6,35.2c0,0-0.2,0-0.5,0.1c-0.3,0.1-0.8,0.2-1.2,0.3c-0.5,0.2-0.9,0.4-1.2,0.5
							c-0.3,0.1-0.5,0.3-0.5,0.2c0,0,0,0,0.1-0.1c0.1-0.1,0.2-0.1,0.3-0.2c0.3-0.2,0.7-0.4,1.2-0.5c0.5-0.2,0.9-0.3,1.2-0.3
							c0.2,0,0.3,0,0.4,0C101.6,35.2,101.6,35.2,101.6,35.2z"/>
					</g>
				</g>
				<g>
					<g>
						<path fill="#FAFAFA" d="M97.9,34.6c0,0-0.5,0.2-1.1,0.4c-0.3,0.1-0.6,0.2-0.7,0.3c-0.2,0.1-0.3,0.2-0.3,0.2c0,0,0.4-0.3,1-0.6
							c0.3-0.1,0.6-0.2,0.8-0.3C97.8,34.6,97.9,34.6,97.9,34.6z"/>
					</g>
				</g>
				<g>
					<g>
						<path fill="#FAFAFA" d="M103.3,40.4c0,0-0.2,0.1-0.4,0.1c-0.2,0-0.5,0-0.5,0c0,0,0.2,0,0.4-0.1
							C103.1,40.4,103.3,40.3,103.3,40.4z"/>
					</g>
				</g>
				<g>
					<g>
						
							<ellipse transform="matrix(0.9995 -3.113623e-002 3.113623e-002 0.9995 -1.2278 3.2568)" fill="#FAFAFA" cx="104" cy="41.1" rx="0.3" ry="0"/>
					</g>
				</g>
				<g>
					<g>
						
							<ellipse transform="matrix(0.9948 0.1022 -0.1022 0.9948 4.6533 -10.4881)" fill="#FAFAFA" cx="104.7" cy="40.2" rx="0.4" ry="0"/>
					</g>
				</g>
				<g opacity="0.3">
					<g>
						<path d="M104.1,45.2c0.1-1.7-0.2-3.4-0.7-4.9c-0.1-0.2-0.1-0.4,0-0.6c0.2-0.2,0.6-0.2,0.7,0c0.2,0.2,0.2,0.5,0.2,0.8
							c0-0.2,0.1-0.4,0.3-0.5c0.7,1.6,0.5,3.5-0.4,5"/>
					</g>
				</g>
			</g>
			<g>
				<g>
					<g>
						<g>
							<g>
								<g>
									<g>
										<g>
											<g>
												<path fill="#263238" d="M76.2,23.1l-2-3.7c-0.2-0.4-0.1-1,0.4-1.2l9.3-5c0.4-0.2,1-0.1,1.2,0.4l2,3.7
													c0.2,0.4,0.1,1-0.4,1.2l-9.3,5C77,23.8,76.4,23.6,76.2,23.1z"/>
											</g>
										</g>
										<g>
											<g>
												<path fill="#FAFAFA" d="M86.8,17.5l-0.4-0.7c-0.1-0.1-0.2-0.1-0.3-0.1L86,16.7c-0.1,0.1-0.2,0-0.3-0.1L85,15.3
													c-0.1-0.1,0-0.2,0.1-0.3l0.1-0.1c0.1-0.1,0.1-0.2,0.1-0.3l-0.1-0.3l-0.3-0.6c-0.2-0.3-0.6-0.4-0.9-0.3l-9.1,4.9
													c-0.3,0.2-0.4,0.6-0.3,0.9l2,3.7c0.2,0.3,0.6,0.4,0.9,0.3l9.1-4.9C86.9,18.2,87,17.8,86.8,17.5z"/>
											</g>
										</g>
									</g>
								</g>
							</g>
						</g>
					</g>
					<g>
						<g>
							<g>
								<g>
									<circle fill="#263238" cx="85.9" cy="18.2" r="0"/>
								</g>
							</g>
							<g>
								<g>
									<circle fill="#263238" cx="85.8" cy="18.2" r="0"/>
								</g>
							</g>
							<g>
								<g>
									<circle fill="#263238" cx="85.7" cy="18.3" r="0"/>
								</g>
							</g>
						</g>
					</g>
				</g>
				<g>
					<path fill="#263238" d="M84.7,17.7L84.7,17.7L84.7,17.7L84.7,17.7L84.7,17.7L84.7,17.7L84.7,17.7L84.7,17.7L84.7,17.7z
						 M84.7,17.7L84.7,17.7L84.7,17.7L84.7,17.7z"/>
					<path fill="#263238" d="M84.7,17.7L84.7,17.7c0,0.1,0,0.1,0,0.1C84.7,17.8,84.7,17.8,84.7,17.7L84.7,17.7L84.7,17.7z
						 M84.7,17.8C84.7,17.8,84.7,17.8,84.7,17.8C84.8,17.8,84.8,17.8,84.7,17.8L84.7,17.8L84.7,17.8L84.7,17.8z"/>
					<path fill="#263238" d="M84.8,17.8L84.8,17.8c0,0.1,0,0.1,0,0.1C84.8,17.9,84.7,17.9,84.8,17.8L84.8,17.8L84.8,17.8z
						 M84.7,17.9C84.8,17.9,84.8,17.9,84.7,17.9C84.8,17.9,84.8,17.9,84.7,17.9L84.7,17.9L84.7,17.9L84.7,17.9z"/>
					<path fill="#263238" d="M84.8,18L84.8,18L84.8,18L84.8,18L84.8,18L84.8,18L84.8,18l0-0.1l0,0L84.8,18L84.8,18L84.8,18L84.8,18
						L84.8,18z"/>
					<path fill="#263238" d="M84.9,18C84.9,18,84.9,18,84.9,18C85,18.1,85,18.1,84.9,18C84.9,18.1,84.9,18.1,84.9,18
						C84.8,18.1,84.9,18.1,84.9,18z M84.9,18.1C84.9,18.1,84.9,18.1,84.9,18.1C84.9,18.1,84.9,18.1,84.9,18.1
						C84.9,18.1,84.9,18.1,84.9,18.1C84.9,18.1,84.9,18.1,84.9,18.1z"/>
					<path fill="#263238" d="M84.9,18.2L84.9,18.2L84.9,18.2L84.9,18.2L84.9,18.2L84.9,18.2L84.9,18.2L84.9,18.2
						C85,18.2,85,18.2,84.9,18.2C85,18.2,85,18.2,84.9,18.2L84.9,18.2L84.9,18.2z M85,18.2L85,18.2L85,18.2L85,18.2
						C85,18.2,85,18.2,85,18.2C85,18.2,85,18.2,85,18.2z"/>
					<path fill="#263238" d="M85,18.3L85,18.3L85,18.3L85,18.3L85,18.3L85,18.3L85,18.3L85,18.3L85,18.3L85,18.3L85,18.3L85,18.3
						L85,18.3z"/>
					<path fill="#263238" d="M85,18.4L85,18.4L85,18.4L85,18.4L85,18.4L85,18.4L85,18.4L85,18.4L85,18.4L85,18.4L85,18.4L85,18.4
						L85,18.4z"/>
				</g>
				<g>
					<path fill="#263238" d="M83.6,14.2c0.1,0,0.1,0,0.2,0c0,0,0,0.1,0,0.1l0,0c0,0,0,0,0-0.1C83.7,14.3,83.7,14.2,83.6,14.2
						c0,0.1,0,0.1,0,0.1c0,0,0,0,0,0l0,0c0,0-0.1,0-0.1-0.1C83.6,14.3,83.6,14.2,83.6,14.2z"/>
					<path fill="#263238" d="M83.8,14.6L83.8,14.6l-0.1,0L83.8,14.6c-0.1,0-0.1,0-0.1,0c0,0,0-0.1,0-0.1
						C83.7,14.4,83.7,14.4,83.8,14.6L83.8,14.6C83.8,14.5,83.8,14.5,83.8,14.6c0-0.1,0-0.1,0-0.1l0,0c0,0,0,0,0.1,0.1
						C83.8,14.5,83.8,14.5,83.8,14.6z M83.7,14.5L83.7,14.5L83.7,14.5C83.7,14.5,83.7,14.5,83.7,14.5C83.7,14.5,83.7,14.5,83.7,14.5
						C83.7,14.5,83.7,14.5,83.7,14.5z"/>
					<path fill="#263238" d="M83.9,14.6L83.9,14.6C83.9,14.7,83.9,14.7,83.9,14.6c-0.1,0-0.1,0-0.1,0l-0.1,0l0,0L83.9,14.6
						L83.9,14.6L83.9,14.6C83.9,14.6,83.9,14.6,83.9,14.6z"/>
					<path fill="#263238" d="M84.1,14.8l-0.2,0.1l0,0l0,0c0,0,0,0,0,0c0,0,0-0.1,0-0.1C83.9,14.7,83.9,14.7,84.1,14.8
						C84,14.7,84,14.8,84.1,14.8L84.1,14.8L84.1,14.8z M83.9,14.8C83.9,14.8,84,14.8,83.9,14.8C83.9,14.7,83.9,14.7,83.9,14.8
						C83.9,14.8,83.8,14.8,83.9,14.8C83.9,14.8,83.9,14.8,83.9,14.8z"/>
					<path fill="#263238" d="M83.9,14.9L83.9,14.9C83.9,14.9,83.9,14.9,83.9,14.9C84,15,84,15,83.9,14.9C84,15,83.9,14.9,83.9,14.9
						c0.1-0.1,0.1,0,0.2,0c0,0,0,0,0,0.1l0,0c0,0,0,0,0,0c0,0,0,0,0,0c0,0,0,0.1,0,0.1C84,15,83.9,15,83.9,14.9
						C83.9,15,83.9,14.9,83.9,14.9z"/>
				</g>
				<g>
					<path fill="#263238" d="M78.5,19.1L78.5,19.1L78.5,19.1L78.5,19.1L78.5,19.1L78.5,19.1l-0.1,0.1l0,0L78.5,19.1z"/>
					<path fill="#263238" d="M78.5,19.2c0,0,0.1,0,0.1,0c0,0.1,0,0.1,0,0.1s-0.1,0-0.1,0C78.5,19.3,78.5,19.2,78.5,19.2z M78.6,19.3
						C78.6,19.3,78.6,19.3,78.6,19.3C78.6,19.3,78.6,19.2,78.6,19.3C78.5,19.3,78.5,19.3,78.6,19.3C78.5,19.3,78.6,19.4,78.6,19.3z"
						/>
					<path fill="#263238" d="M78.7,19.4L78.7,19.4L78.7,19.4L78.7,19.4L78.7,19.4L78.7,19.4l-0.1,0.1l0,0L78.7,19.4z"/>
					<path fill="#263238" d="M78.7,19.7L78.7,19.7L78.7,19.7l-0.1-0.1l0.2,0l0,0L78.7,19.7L78.7,19.7L78.7,19.7z M78.7,19.6
						L78.7,19.6L78.7,19.6L78.7,19.6z"/>
					<path fill="#263238" d="M78.9,19.7L78.9,19.7l-0.1,0.1l0,0.1l0,0l-0.1-0.1L78.9,19.7z"/>
				</g>
				<g>
					<path fill="#263238" d="M77.6,19.1L77.6,19.1L77.6,19.1L77.6,19.1c0-0.1,0-0.1,0-0.1l0,0C77.6,19,77.6,19,77.6,19.1l0.1-0.1
						c0-0.1,0-0.1,0-0.1c0,0,0.1,0,0.1,0.1l0,0l0,0l0,0c0,0,0,0.1,0,0.1l0,0c0,0,0-0.1,0-0.1L77.8,19c0,0.1,0,0.1,0,0.1
						C77.7,19.2,77.6,19.2,77.6,19.1z M77.7,19l0.1-0.1C77.8,18.9,77.8,18.9,77.7,19C77.7,18.9,77.7,19,77.7,19z M77.7,19.1
						C77.7,19.1,77.7,19.1,77.7,19.1L77.7,19.1C77.6,19.2,77.7,19.2,77.7,19.1z"/>
					<path fill="#263238" d="M78.1,19.3l-0.3,0.2l0,0L78.1,19.3L78.1,19.3L78.1,19.3L78.1,19.3z"/>
					<path fill="#263238" d="M78,19.7c-0.1,0-0.1,0-0.1-0.1c0-0.1,0-0.1,0-0.2c0,0,0.1,0,0.1,0c0,0,0-0.1,0-0.1c0,0,0.1,0,0.1,0.1
						c0,0.1,0,0.1,0,0.1C78.1,19.6,78.1,19.6,78,19.7C78.1,19.7,78,19.7,78,19.7z M78,19.7c0,0,0-0.1,0-0.1c0-0.1-0.1-0.1-0.1-0.1
						c0,0,0,0.1,0,0.1C77.9,19.7,78,19.7,78,19.7z M78,19.5C78.1,19.6,78.1,19.6,78,19.5c0.1,0,0.1,0,0.1-0.1c0,0-0.1-0.1-0.1,0
						C78,19.5,78,19.5,78,19.5z"/>
					<path fill="#263238" d="M78.1,19.7c0.1-0.1,0.2,0,0.2,0c0,0.1,0,0.1-0.1,0.2c-0.1,0.1-0.2,0-0.2,0C78,19.8,78,19.8,78.1,19.7z
						 M78.2,19.9c0.1,0,0.1-0.1,0.1-0.2c0-0.1-0.1-0.1-0.2,0c-0.1,0-0.1,0.1-0.1,0.2C78.1,19.9,78.1,20,78.2,19.9z"/>
					<path fill="#263238" d="M78.1,20.1C78.1,20.1,78.1,20.1,78.1,20.1L78.1,20.1l-0.1,0L78.1,20.1C78.1,20.1,78.1,20.1,78.1,20.1
						C78.1,20,78.2,20.1,78.1,20.1C78.2,20.1,78.2,20.1,78.1,20.1z"/>
					<path fill="#263238" d="M78.3,20.3L78.3,20.3l-0.1-0.2l0,0l0.2,0.1c0.1,0,0.1,0,0.1,0c0,0,0-0.1,0-0.1c0,0,0-0.1-0.1-0.1l0,0
						c0,0,0.1,0,0.1,0.1c0,0.1,0,0.1,0,0.1c0,0-0.1,0-0.1,0l-0.2,0L78.3,20.3z"/>
					<path fill="#263238" d="M78.4,20.3c0.1-0.1,0.2,0,0.2,0c0,0.1,0,0.1-0.1,0.2c-0.1,0.1-0.2,0-0.2,0
						C78.3,20.4,78.3,20.4,78.4,20.3z M78.5,20.5c0.1,0,0.1-0.1,0.1-0.2c0-0.1-0.1-0.1-0.2,0c-0.1,0-0.1,0.1-0.1,0.2
						C78.4,20.6,78.5,20.6,78.5,20.5z"/>
				</g>
				<g>
					<g>
						<g>
							<path fill="#FF4F5B" d="M77.4,22.2l-1.5-2.9c-0.1-0.3,0-0.6,0.2-0.7l0.1,0c0.3-0.1,0.6,0,0.7,0.2l1.5,2.9
								c0.1,0.3,0,0.6-0.2,0.7l-0.1,0C77.8,22.5,77.5,22.4,77.4,22.2z"/>
						</g>
						<g opacity="0.3">
							<path d="M77.4,22.2l-1.5-2.9c-0.1-0.3,0-0.6,0.2-0.7l0.1,0c0.3-0.1,0.6,0,0.7,0.2l1.5,2.9c0.1,0.3,0,0.6-0.2,0.7l-0.1,0
								C77.8,22.5,77.5,22.4,77.4,22.2z"/>
						</g>
					</g>
					<g>
						<path fill="#FF4F5B" d="M77.3,22l-1.5-2.9c-0.1-0.3,0-0.6,0.2-0.7l0.1,0c0.3-0.1,0.6,0,0.7,0.2l1.5,2.9c0.1,0.3,0,0.6-0.2,0.7
							l-0.1,0C77.7,22.4,77.4,22.3,77.3,22z"/>
					</g>
					<g>
						<path fill="#FFFFFF" d="M77,20.2c-0.1,0-0.1,0-0.1-0.1l0-0.1l-0.1,0l0,0l0.2-0.1l0,0.1C77.1,20.1,77.1,20.2,77,20.2z M77,20.1
							C77,20.1,77,20.1,77,20.1l0-0.2l-0.1,0.1L77,20.1C76.9,20.2,77,20.2,77,20.1z"/>
						<path fill="#FFFFFF" d="M77,20.4L77,20.3l-0.1,0l0,0l0.3,0l0,0L77,20.4L77,20.4L77,20.4z M77,20.4l0.1-0.1l-0.1,0L77,20.4z"/>
						<path fill="#FFFFFF" d="M77.1,20.6L77.1,20.6L77.1,20.6L77.1,20.6l0.1-0.2l0,0L77.1,20.6l0.2,0l0,0L77.1,20.6z"/>
					</g>
				</g>
				<g>
					<g>
						<g>
							<g>
								<path fill="#FF4F5B" d="M79.4,19.7C79.4,19.7,79.4,19.7,79.4,19.7c0.1,0.1,0.1,0.1,0.2,0.1c0,0,0.1,0,0.1,0
									c0,0,0.1,0,0.1-0.1c0.1-0.1,0.2-0.1,0.3-0.2c0.1-0.1,0.2-0.1,0.4-0.2c0,0,0.1,0,0.1-0.1c0,0,0.1,0,0.1-0.1
									c0-0.1,0.1-0.2,0-0.2c-0.2-0.3-0.4-0.7-0.6-1c0-0.1-0.2-0.1-0.2-0.1c0,0,0,0-0.1,0c0,0,0,0-0.1,0c0,0-0.1,0-0.1,0.1
									c-0.2,0.1-0.3,0.2-0.5,0.3c-0.1,0-0.2,0.1-0.2,0.1c0,0-0.1,0-0.1,0.1c0,0,0,0.1,0,0.1c0,0,0,0.1,0,0.1c0,0,0,0.1,0.1,0.1
									c0,0.1,0.1,0.1,0.1,0.2c0.1,0.2,0.2,0.4,0.3,0.6C79.3,19.6,79.4,19.6,79.4,19.7C79.4,19.7,79.4,19.7,79.4,19.7
									C79.4,19.7,79.4,19.7,79.4,19.7C79.4,19.7,79.4,19.7,79.4,19.7C79.4,19.7,79.4,19.7,79.4,19.7c-0.1-0.1-0.1-0.1-0.1-0.2
									c-0.1-0.1-0.2-0.3-0.3-0.6c0-0.1-0.1-0.1-0.1-0.2c0,0,0-0.1-0.1-0.1c0,0,0-0.1,0-0.1c0,0,0-0.1,0-0.1c0,0,0.1-0.1,0.1-0.1
									c0.1,0,0.2-0.1,0.2-0.1c0.2-0.1,0.3-0.2,0.5-0.3c0,0,0.1,0,0.1-0.1c0,0,0,0,0.1,0c0,0,0,0,0.1,0c0.1,0,0.2,0,0.3,0.1
									c0.2,0.4,0.4,0.7,0.6,1c0,0.1,0,0.2,0,0.3c0,0-0.1,0.1-0.1,0.1c0,0-0.1,0-0.1,0.1c-0.1,0.1-0.3,0.1-0.4,0.2
									c-0.1,0.1-0.2,0.1-0.3,0.2c0,0-0.1,0-0.1,0.1c0,0-0.1,0-0.1,0C79.5,19.8,79.5,19.8,79.4,19.7C79.4,19.7,79.4,19.7,79.4,19.7
									z"/>
							</g>
						</g>
					</g>
					<g>
						<g>
							<g>
								<g>
									<g>
										<path fill="#FF4F5B" d="M79.7,19.2C79.7,19.2,79.7,19.2,79.7,19.2C79.7,19.2,79.7,19.2,79.7,19.2c0-0.1-0.1-0.1-0.1-0.1
											c0-0.1-0.1-0.2-0.2-0.3l0,0l0,0c0,0,0,0,0.1,0c0.2-0.1,0.3-0.2,0.4-0.3l0,0c0,0,0-0.1,0-0.1c0,0,0,0,0,0c0,0,0,0,0,0
											s0,0,0,0c0,0,0,0,0,0c0,0,0,0.1,0.1,0.1l0,0l0,0c-0.1,0.1-0.2,0.2-0.4,0.3c0,0,0,0-0.1,0l0,0c0.1,0.1,0.1,0.3,0.2,0.3
											C79.7,19.1,79.7,19.1,79.7,19.2C79.7,19.2,79.7,19.2,79.7,19.2C79.7,19.2,79.7,19.2,79.7,19.2z"/>
									</g>
								</g>
							</g>
							<g>
								<g>
									<g>
										<path fill="#FF4F5B" d="M79.6,18.6C79.6,18.6,79.6,18.6,79.6,18.6C79.6,18.6,79.6,18.6,79.6,18.6
											C79.6,18.6,79.6,18.7,79.6,18.6c0,0.1,0.1,0.1,0.1,0.1c0,0.1,0.1,0.2,0.2,0.4l0,0c0.1,0,0.1,0,0.2-0.1c0,0,0.1,0,0.1,0
											l0,0c-0.1-0.2-0.2-0.3-0.2-0.4c0-0.1-0.1-0.1-0.1-0.1c0,0,0,0,0,0c0,0,0,0,0,0c0,0,0,0,0,0c0,0,0,0,0,0c0,0,0,0,0,0
											c0,0,0,0,0,0c0,0,0,0.1,0.1,0.1c0.1,0.1,0.1,0.3,0.2,0.4l0,0l0,0c0,0-0.1,0-0.1,0c-0.1,0-0.1,0-0.2,0.1l0,0l0,0
											c-0.1-0.1-0.1-0.3-0.2-0.4C79.6,18.7,79.6,18.7,79.6,18.6C79.6,18.7,79.6,18.6,79.6,18.6C79.6,18.6,79.6,18.6,79.6,18.6
											C79.6,18.6,79.6,18.6,79.6,18.6z"/>
									</g>
								</g>
							</g>
							<g>
								<g>
									<g>
										<path fill="#FF4F5B" d="M79.4,18.9C79.4,18.9,79.4,18.9,79.4,18.9C79.4,18.9,79.4,18.9,79.4,18.9
											C79.4,18.8,79.4,18.8,79.4,18.9C79.4,18.8,79.4,18.8,79.4,18.9C79.3,18.8,79.3,18.8,79.4,18.9
											C79.3,18.9,79.3,18.9,79.4,18.9C79.4,18.9,79.4,18.9,79.4,18.9C79.4,18.9,79.4,18.9,79.4,18.9
											C79.4,18.9,79.4,18.9,79.4,18.9C79.4,18.9,79.4,18.9,79.4,18.9C79.3,18.9,79.3,18.9,79.4,18.9c-0.1-0.1-0.1-0.1-0.1-0.1
											C79.4,18.8,79.4,18.8,79.4,18.9C79.4,18.8,79.4,18.8,79.4,18.9C79.4,18.9,79.4,18.9,79.4,18.9
											C79.4,18.9,79.4,18.9,79.4,18.9z"/>
									</g>
								</g>
							</g>
							<g>
								<g>
									<g>
										<path fill="#FF4F5B" d="M79.6,19.2C79.6,19.2,79.6,19.2,79.6,19.2C79.6,19.2,79.6,19.2,79.6,19.2
											C79.6,19.1,79.6,19.1,79.6,19.2C79.6,19.1,79.5,19.1,79.6,19.2C79.5,19.1,79.5,19.1,79.6,19.2
											C79.5,19.2,79.5,19.2,79.6,19.2C79.5,19.2,79.6,19.2,79.6,19.2C79.6,19.2,79.6,19.2,79.6,19.2
											C79.6,19.2,79.6,19.2,79.6,19.2C79.6,19.2,79.5,19.2,79.6,19.2C79.5,19.2,79.5,19.2,79.6,19.2c-0.1-0.1-0.1-0.1-0.1-0.1
											C79.5,19.1,79.6,19.1,79.6,19.2C79.6,19.1,79.6,19.1,79.6,19.2C79.6,19.2,79.6,19.2,79.6,19.2
											C79.6,19.2,79.6,19.2,79.6,19.2z"/>
									</g>
								</g>
							</g>
							<g>
								<g>
									<circle fill="#FF4F5B" cx="80.2" cy="19" r="0.2"/>
								</g>
							</g>
						</g>
						<g>
							<path fill="#FFFFFF" d="M80.2,19L80.1,19l0,0L80.2,19L80.2,19L80.2,19L80.2,19z"/>
						</g>
					</g>
				</g>
				<g>
					<g>
						<g>
							<path fill="#FF4F5B" d="M81.6,18.9l-0.9-1.6c-0.3-0.6-0.1-1.5,0.5-1.8l0.2-0.1c0.6-0.3,1.5-0.1,1.8,0.5l0.9,1.6
								c0.3,0.6,0.1,1.5-0.5,1.8l-0.2,0.1C82.8,19.8,81.9,19.5,81.6,18.9z"/>
						</g>
						<g>
							<path fill="#FFFFFF" d="M82.4,15.7C82.4,15.7,82.3,15.7,82.4,15.7l-0.1-0.1l0.2-0.1l0,0.1C82.5,15.6,82.5,15.7,82.4,15.7
								C82.4,15.7,82.4,15.7,82.4,15.7C82.4,15.7,82.4,15.7,82.4,15.7z M82.4,15.5L82.4,15.5L82.4,15.5
								C82.4,15.6,82.4,15.6,82.4,15.5C82.5,15.6,82.5,15.6,82.4,15.5L82.4,15.5z M82.4,15.7C82.4,15.7,82.4,15.7,82.4,15.7
								L82.4,15.7L82.4,15.7L82.4,15.7C82.3,15.7,82.4,15.7,82.4,15.7z"/>
							<path fill="#FFFFFF" d="M82.5,15.9L82.5,15.9L82.5,15.9l-0.1-0.1l0.2,0l0,0L82.5,15.9L82.5,15.9L82.5,15.9z M82.5,15.9
								L82.5,15.9L82.5,15.9L82.5,15.9z"/>
							<path fill="#FFFFFF" d="M82.7,16.1l-0.2,0.1l0,0l0.1-0.2L82.5,16l0,0l0.2-0.1l0,0l-0.1,0.2L82.7,16.1L82.7,16.1z"/>
							<path fill="#FFFFFF" d="M82.7,16.2L82.7,16.2L82.7,16.2l-0.1,0l0.2-0.1L82.7,16.2L82.7,16.2l0.1,0l0,0L82.7,16.2l0,0.1
								L82.7,16.2L82.7,16.2z"/>
						</g>
						<g>
							<path fill="#FFFFFF" d="M81.6,16.1L81.6,16.1L81.6,16.1L81.6,16.1L81.6,16.1L81.5,16l0,0l0.2,0l0,0l-0.2,0L81.6,16.1
								L81.6,16.1L81.6,16.1L81.6,16.1L81.6,16.1L81.6,16.1z"/>
							<path fill="#FFFFFF" d="M81.7,16.2C81.6,16.3,81.6,16.2,81.7,16.2c-0.1-0.1-0.1-0.1-0.1-0.1l0,0
								C81.6,16.1,81.6,16.2,81.7,16.2C81.6,16.2,81.6,16.2,81.7,16.2C81.7,16.2,81.7,16.2,81.7,16.2L81.7,16.2l0-0.1L81.7,16.2
								l0-0.2l0,0l0.1,0.1l0,0L81.7,16.2C81.7,16.2,81.7,16.2,81.7,16.2z"/>
							<path fill="#FFFFFF" d="M81.7,16.4C81.7,16.4,81.7,16.4,81.7,16.4c-0.1-0.1-0.1-0.1-0.1-0.1l0,0
								C81.7,16.3,81.7,16.3,81.7,16.4C81.7,16.4,81.7,16.4,81.7,16.4C81.8,16.3,81.8,16.3,81.7,16.4l0-0.1l0.1,0l0.1,0.1L81.7,16.4
								l0.1-0.1l-0.1,0L81.7,16.4C81.8,16.3,81.8,16.4,81.7,16.4z"/>
							<path fill="#FFFFFF" d="M81.8,16.5C81.8,16.5,81.8,16.5,81.8,16.5c-0.1-0.1-0.1-0.1,0-0.1c0.1,0,0.1,0,0.1,0c0,0,0,0,0,0
								L81.8,16.5c0.1-0.1,0.1-0.1,0.1-0.1c0,0-0.1,0-0.1,0c0,0,0,0,0,0C81.8,16.4,81.8,16.4,81.8,16.5
								C81.9,16.5,81.9,16.5,81.8,16.5z M81.8,16.5C81.8,16.5,81.8,16.5,81.8,16.5C81.8,16.4,81.8,16.4,81.8,16.5
								C81.7,16.4,81.7,16.5,81.8,16.5C81.8,16.5,81.8,16.5,81.8,16.5z"/>
							<path fill="#FFFFFF" d="M82,16.9L82,16.9L82,16.9l-0.1-0.1L82,16.9l0.1-0.2l0,0L82,16.9l0.1-0.1l0,0L82,16.9L82,16.9L82,16.9
								z"/>
							<path fill="#FFFFFF" d="M82,17L82,17L82,17L82,16.9L82,17l0.1-0.2l0,0L82,17l0.1-0.1l0,0L82,17L82,17L82,17z"/>
							<path fill="#FFFFFF" d="M82.1,17.2L82.1,17.2L82.1,17.2l-0.1-0.1L82.1,17.2l0.1-0.2l0,0L82.1,17.2l0.1-0.1l0,0L82.1,17.2
								L82.1,17.2L82.1,17.2z"/>
							<path fill="#FFFFFF" d="M82.2,17.3L82.2,17.3L82.2,17.3l-0.1-0.1L82.2,17.3l0.1-0.2l0,0L82.2,17.3l0.1-0.1l0,0L82.2,17.3
								L82.2,17.3L82.2,17.3z"/>
							<path fill="#FFFFFF" d="M82.4,17.8L82.4,17.8L82.4,17.8l-0.1-0.1L82.4,17.8l0.1-0.2l0,0L82.4,17.8l0.1-0.1l0,0L82.4,17.8
								L82.4,17.8L82.4,17.8z"/>
							<path fill="#FFFFFF" d="M82.5,17.9L82.5,17.9L82.5,17.9l-0.1-0.1L82.5,17.9l0.1-0.2l0,0L82.5,17.9l0.1-0.1l0,0L82.5,17.9
								L82.5,17.9L82.5,17.9z"/>
							<path fill="#FFFFFF" d="M82.6,18L82.6,18L82.6,18l-0.1-0.1L82.6,18l0.1-0.2l0,0L82.6,18l0.1-0.1l0,0L82.6,18L82.6,18L82.6,18
								z"/>
							<path fill="#FFFFFF" d="M82.6,18.1L82.6,18.1L82.6,18.1L82.6,18L82.6,18.1l0.1-0.2l0,0L82.6,18.1l0.1-0.1l0,0L82.6,18.1
								L82.6,18.1L82.6,18.1z"/>
							<path fill="#FFFFFF" d="M83,18.5l-0.2,0.1l0,0L83,18.5L83,18.5L83,18.5L83,18.5z"/>
							<path fill="#FFFFFF" d="M83,18.7C83,18.7,82.9,18.7,83,18.7c-0.1-0.1-0.1-0.1-0.1-0.1l0,0C82.9,18.6,82.9,18.6,83,18.7
								C82.9,18.7,82.9,18.7,83,18.7C83,18.6,83,18.6,83,18.7L83,18.7l0-0.1L83,18.7l0-0.2l0,0l0.1,0.1l0,0L83,18.7
								C83,18.6,83,18.7,83,18.7z"/>
							<path fill="#FFFFFF" d="M83.1,18.8L83.1,18.8L83.1,18.8L83.1,18.8L83.1,18.8L83,18.7l0,0l0.2,0l0,0l-0.2,0L83.1,18.8
								L83.1,18.8L83.1,18.8L83.1,18.8L83.1,18.8L83.1,18.8z"/>
							<path fill="#FFFFFF" d="M83.1,19L83.1,19L83,18.9l0,0L83.1,19C83.2,18.9,83.2,18.9,83.1,19c0.1-0.1,0.1-0.1,0.1-0.1
								c0,0,0,0,0,0l0,0c0,0,0,0,0.1,0c0,0,0,0.1,0,0.1C83.2,18.9,83.2,18.9,83.1,19L83.1,19L83.1,19z"/>
						</g>
						<g>
							<path fill="#FFFFFF" d="M81.1,16.1C81.1,16.1,81.1,16.1,81.1,16.1C81.1,16.1,81.1,16.1,81.1,16.1L81.1,16.1
								C81.1,16.1,81.1,16.1,81.1,16.1C81.1,16.1,81.1,16.1,81.1,16.1C81.1,16.1,81.1,16.1,81.1,16.1C81.1,16.2,81.1,16.2,81.1,16.1
								L81.1,16.1C81.1,16.2,81.1,16.2,81.1,16.1C81,16.1,81,16.1,81.1,16.1z"/>
							<path fill="#FFFFFF" d="M81.1,16.2L81.1,16.2L81.1,16.2L81.1,16.2L81.1,16.2L81.1,16.2L81.1,16.2L81.1,16.2L81.1,16.2z
								 M81.1,16.2L81.1,16.2L81.1,16.2L81.1,16.2z"/>
							<path fill="#FFFFFF" d="M81.2,16.3L81.2,16.3L81.2,16.3L81.2,16.3L81.2,16.3L81.2,16.3L81.2,16.3L81.2,16.3
								C81.2,16.3,81.2,16.3,81.2,16.3C81.2,16.3,81.2,16.3,81.2,16.3L81.2,16.3L81.2,16.3z M81.2,16.3L81.2,16.3L81.2,16.3
								L81.2,16.3C81.2,16.3,81.2,16.3,81.2,16.3C81.2,16.3,81.2,16.3,81.2,16.3z"/>
							<path fill="#FFFFFF" d="M81.2,16.4L81.2,16.4C81.2,16.4,81.2,16.4,81.2,16.4C81.2,16.4,81.2,16.4,81.2,16.4
								C81.2,16.4,81.2,16.4,81.2,16.4C81.2,16.3,81.3,16.3,81.2,16.4c0.1,0,0.1,0,0.1,0L81.2,16.4C81.3,16.4,81.3,16.4,81.2,16.4
								C81.2,16.4,81.2,16.4,81.2,16.4C81.2,16.4,81.3,16.4,81.2,16.4C81.2,16.4,81.2,16.4,81.2,16.4C81.2,16.4,81.2,16.4,81.2,16.4
								z"/>
							<path fill="#FFFFFF" d="M81.4,16.5L81.4,16.5L81.4,16.5L81.4,16.5L81.4,16.5l-0.1,0l0,0L81.4,16.5L81.4,16.5L81.4,16.5
								L81.4,16.5L81.4,16.5L81.4,16.5z"/>
							<path fill="#FFFFFF" d="M81.3,16.6C81.3,16.5,81.4,16.5,81.3,16.6C81.4,16.6,81.4,16.6,81.3,16.6
								C81.3,16.7,81.3,16.6,81.3,16.6C81.3,16.6,81.3,16.6,81.3,16.6z M81.4,16.6C81.4,16.6,81.4,16.6,81.4,16.6
								C81.4,16.6,81.3,16.6,81.4,16.6C81.3,16.6,81.3,16.6,81.4,16.6C81.3,16.6,81.3,16.6,81.4,16.6z"/>
							<path fill="#FFFFFF" d="M81.4,16.6L81.4,16.6L81.4,16.6L81.4,16.6l0,0.1L81.4,16.6L81.4,16.6z"/>
							<path fill="#FFFFFF" d="M81.5,16.7L81.5,16.7c0,0.1,0,0.1,0,0.1C81.4,16.8,81.4,16.8,81.5,16.7L81.5,16.7L81.5,16.7z
								 M81.4,16.8C81.4,16.8,81.4,16.8,81.4,16.8C81.5,16.8,81.5,16.8,81.4,16.8L81.4,16.8L81.4,16.8L81.4,16.8z"/>
							<path fill="#FFFFFF" d="M81.5,16.9L81.5,16.9L81.5,16.9L81.5,16.9L81.5,16.9L81.5,16.9L81.5,16.9L81.5,16.9L81.5,16.9
								L81.5,16.9L81.5,16.9L81.5,16.9L81.5,16.9z"/>
							<path fill="#FFFFFF" d="M81.5,17L81.5,17L81.5,17L81.5,17L81.5,17L81.5,17L81.5,17L81.5,17C81.6,16.9,81.6,17,81.5,17
								C81.5,17,81.5,17,81.5,17L81.5,17L81.5,17z M81.5,16.9L81.5,16.9L81.5,16.9L81.5,16.9C81.5,16.9,81.5,16.9,81.5,16.9
								C81.6,16.9,81.6,16.9,81.5,16.9z"/>
						</g>
						<g>
							<path fill="#FFFFFF" d="M80.7,16.3L80.7,16.3C80.8,16.3,80.8,16.3,80.7,16.3C80.8,16.3,80.8,16.3,80.7,16.3l0.1,0l0-0.1l0,0
								l0,0.1L80.7,16.3C80.8,16.4,80.8,16.4,80.7,16.3C80.7,16.3,80.7,16.3,80.7,16.3z"/>
							<path fill="#FFFFFF" d="M80.8,16.4C80.8,16.4,80.8,16.4,80.8,16.4C80.9,16.4,80.9,16.4,80.8,16.4
								C80.8,16.4,80.8,16.4,80.8,16.4C80.8,16.4,80.8,16.4,80.8,16.4z"/>
							<path fill="#FFFFFF" d="M81.1,16.6l-0.2,0l0,0l0.1-0.1l-0.1,0l0,0l0.1-0.1l0,0l-0.1,0.1l0.1,0l0,0L81,16.6L81.1,16.6
								L81.1,16.6z"/>
							<path fill="#FFFFFF" d="M81.1,16.6C81.1,16.6,81.1,16.6,81.1,16.6C81.2,16.6,81.2,16.7,81.1,16.6
								C81.1,16.7,81.1,16.7,81.1,16.6C81.1,16.6,81.1,16.6,81.1,16.6z M81.1,16.6L81.1,16.6L81,16.7l0,0L81.1,16.6z"/>
							<path fill="#FFFFFF" d="M81.2,16.7L81.2,16.7L81,16.8l0,0L81.2,16.7z"/>
							<path fill="#FFFFFF" d="M81.2,16.8L81.2,16.8l-0.1,0.1l0,0L81.2,16.8z"/>
							<path fill="#FFFFFF" d="M81.2,16.8C81.2,16.8,81.3,16.8,81.2,16.8C81.3,16.9,81.3,16.9,81.2,16.8
								C81.2,16.9,81.2,16.9,81.2,16.8C81.2,16.8,81.2,16.8,81.2,16.8z M81.2,16.8L81.2,16.8l-0.1,0.1l0,0L81.2,16.8z"/>
							<path fill="#FFFFFF" d="M81.2,17.1L81.2,17.1L81.2,17.1L81.2,17.1c-0.1,0-0.1,0-0.1,0C81.1,17,81.1,17,81.2,17.1
								C81.2,16.9,81.2,17,81.2,17.1L81.2,17.1C81.2,17,81.2,17,81.2,17.1c0-0.1,0-0.1,0-0.1l0,0C81.2,16.9,81.3,16.9,81.2,17.1
								C81.3,17,81.3,17,81.2,17.1z M81.2,17L81.2,17L81.2,17C81.2,17,81.2,17,81.2,17C81.2,17,81.2,17,81.2,17
								C81.2,17,81.2,17,81.2,17z"/>
							<path fill="#FFFFFF" d="M81.4,17.3L81.4,17.3L81.4,17.3L81.4,17.3C81.4,17.2,81.4,17.2,81.4,17.3
								C81.3,17.2,81.3,17.2,81.4,17.3l-0.1,0l0,0l0.1,0c0,0,0,0,0,0c0,0,0,0,0,0l-0.1,0l0,0l0.1-0.1l0,0l0,0c0,0,0,0,0,0
								c0,0,0,0,0,0.1C81.4,17.2,81.4,17.2,81.4,17.3C81.4,17.2,81.4,17.3,81.4,17.3z"/>
							<path fill="#FFFFFF" d="M81.3,17.3L81.3,17.3C81.3,17.3,81.4,17.4,81.3,17.3C81.4,17.4,81.4,17.4,81.3,17.3
								C81.4,17.4,81.3,17.3,81.3,17.3c0.1,0,0.1,0,0.1,0c0,0,0,0,0,0.1l0,0c0,0,0,0,0,0C81.4,17.3,81.4,17.3,81.3,17.3
								C81.4,17.3,81.4,17.4,81.3,17.3C81.4,17.4,81.4,17.4,81.3,17.3C81.3,17.4,81.3,17.4,81.3,17.3z"/>
						</g>
						<g>
							<path fill="#FFFFFF" d="M82.1,18.7c0.1,0,0.1,0,0.1,0c0,0,0,0.1,0,0.1c-0.1,0-0.1,0-0.1,0C82.1,18.8,82.1,18.7,82.1,18.7z
								 M82.2,18.8C82.2,18.8,82.2,18.8,82.2,18.8C82.2,18.7,82.2,18.7,82.2,18.8C82.1,18.8,82.1,18.8,82.2,18.8
								C82.1,18.8,82.2,18.8,82.2,18.8z"/>
							<path fill="#FFFFFF" d="M82.3,19C82.2,19,82.2,19,82.3,19c-0.1-0.1-0.1-0.1,0-0.1c0.1,0,0.1,0,0.1,0
								C82.4,18.9,82.4,18.9,82.3,19L82.3,19C82.3,18.9,82.3,18.9,82.3,19c0-0.1,0-0.1,0-0.1C82.3,18.9,82.3,18.9,82.3,19
								C82.3,19,82.3,19,82.3,19z M82.2,19C82.3,19,82.3,18.9,82.2,19C82.2,18.9,82.2,18.9,82.2,19C82.2,18.9,82.2,18.9,82.2,19
								C82.2,19,82.2,19,82.2,19z"/>
							<path fill="#FFFFFF" d="M82.4,19L82.4,19l-0.2,0.1l0,0L82.4,19z"/>
							<path fill="#FFFFFF" d="M82.4,19.2L82.4,19.2l-0.1-0.1l0,0L82.4,19.2C82.4,19.2,82.4,19.2,82.4,19.2c0.1-0.1,0.1-0.1,0.1-0.1
								c0,0,0,0,0,0l0,0c0,0,0,0,0.1,0C82.5,19.1,82.5,19.2,82.4,19.2C82.4,19.2,82.4,19.2,82.4,19.2L82.4,19.2L82.4,19.2z"/>
							<path fill="#FFFFFF" d="M82.4,19.4L82.4,19.4L82.4,19.4L82.4,19.4L82.4,19.4l-0.1-0.1l0,0l0.1,0l0,0l-0.1,0L82.4,19.4
								L82.4,19.4L82.4,19.4L82.4,19.4L82.4,19.4L82.4,19.4z"/>
						</g>
						<g opacity="0.2">
							<g>
								<path fill="#FFFFFF" d="M83.4,18c0.1-0.1,0.1-0.2,0-0.4c0,0,0-0.1-0.1-0.1c-0.1-0.1-0.2-0.1-0.3,0c-0.1,0.1-0.1,0.2-0.1,0.2
									c0,0.1,0,0.2,0.1,0.2C83.2,18.1,83.3,18.1,83.4,18C83.4,18,83.4,18,83.4,18z"/>
							</g>
						</g>
					</g>
					<g opacity="0.2">
						<g>
							<path fill="#FFFFFF" d="M84.7,18.6l-2-3.7c0-0.1-0.1-0.1-0.2-0.1l-0.7,0.4c0,0.3,0.1,0.7,0.3,0.9c0.3,0.3,0.6,0.5,0.9,0.7
								c0.3,0.2,0.6,0.5,0.7,0.9c0.1,0.3,0.1,0.7,0.1,1.1c0,0.1,0,0.2,0,0.4l0.7-0.4C84.7,18.8,84.7,18.7,84.7,18.6z"/>
						</g>
					</g>
				</g>
			</g>
			<g>
				<g>
					<g>
						<g>
							<path fill="#FFBF9D" d="M80.7,24.4l1.7-1.3c0.7-0.6,1.2-1.4,1.3-2.4l0.1-0.7l-5-1c0,0-0.5,1.5,1.4,1.9
								c-1.7,0.7-2.3,2.2-2.8,3.9L80.7,24.4z"/>
						</g>
					</g>
				</g>
				<g>
					<g>
						<path fill="#FF9A6C" d="M78.6,22.1c0,0,0.1-0.2,0.4-0.5c0.3-0.3,0.8-0.6,1.5-0.6l0.5,0l-0.5-0.2c-0.4-0.1-0.8-0.3-1.2-0.4l0,0
							c-0.4-0.3-0.8-0.7-0.7-1.3c0,0,0-0.1,0-0.1l-0.1,0.1c1.4,0.3,2.7,0.6,3.6,0.8c0.5,0.1,0.8,0.1,1.1,0.2c0.3,0,0.4,0,0.4,0
							c0,0-0.6-0.1-1.5-0.3c-0.9-0.2-2.2-0.5-3.6-0.9l-0.1,0l0,0.1c0,0.1,0,0.1,0,0.2c0,0.3,0,0.7,0.2,0.9c0.2,0.3,0.4,0.5,0.6,0.6
							l0,0l0,0c0.4,0.1,0.8,0.3,1.2,0.4l0-0.2c-0.8,0-1.3,0.4-1.6,0.7C78.7,21.9,78.6,22.1,78.6,22.1z"/>
					</g>
				</g>
			</g>
		</g>
		<g>
			<g>
				<g>
					<g>
						<path fill="#FF4F5B" d="M220.5,141c1.1-5.3-1-11.1-5.1-14.5c0,0-1.2-0.4-1.1,0.9c0.1,0.8-0.7,1.9-1.3,1.4
							c-1.1-0.9-0.8-2.6-1.2-3.9c-0.6-1.5-2.2-2.4-3.7-3c-2.8-1.2-5.6-2.4-8.5-2.9c-3-0.5-6.1-0.4-8.8,0.9c0.7,1.3,1.3,2.6,2,4
							c0.1,0.2,0.2,0.5,0.5,0.7c0.4,0.3,0.9,0.3,1.3,0.2c1.2-0.1,2.4-0.2,3.6-0.3c0.5,0,1.2,0,1.3,0.5c0.2,0.6-0.5,1-1.1,1.2
							c-1.3,0.5-2.5,0.9-3.8,1.4c1.2,1.8,3,3.2,5,4.1c2,1,4.1,1.5,6.2,2.1c0.7,0.2,1.4,0.4,2.1,0.2c1.1-0.4,1.9-1.7,3-1.6
							c-0.1,1.3-0.8,2.5-1.8,3.2C213.5,137.5,216.5,139.6,220.5,141"/>
					</g>
					<g>
						<g>
							<path fill="#263238" d="M224.3,160.8c0,0,0,0,0-0.1c0-0.1,0-0.2-0.1-0.3c-0.1-0.3-0.2-0.8-0.3-1.3c-0.2-1.2-0.6-2.8-1-4.8
								c-0.2-1-0.4-2.1-0.7-3.3c-0.1-0.6-0.2-1.2-0.4-1.9c-0.1-0.3-0.1-0.6-0.2-1c0-0.3-0.1-0.7-0.1-1c-0.4-2.7-0.9-5.7-2.2-8.6
								c-1.3-2.9-3.5-5.1-5.5-6.9c-2.1-1.8-4.1-3.2-5.9-4.3c-1.7-1.1-3.2-2-4.2-2.5c-0.5-0.3-0.9-0.5-1.2-0.7
								c-0.1-0.1-0.2-0.1-0.3-0.2c-0.1,0-0.1-0.1-0.1-0.1c0,0,0,0,0.1,0c0.1,0,0.2,0.1,0.3,0.2c0.3,0.2,0.7,0.4,1.2,0.6
								c1,0.6,2.5,1.4,4.2,2.5c1.8,1.1,3.8,2.5,5.9,4.3c1,0.9,2.1,1.9,3,3.1c1,1.1,1.8,2.5,2.5,3.9c1.3,2.9,1.8,5.9,2.2,8.7
								c0,0.3,0.1,0.7,0.1,1c0.1,0.3,0.1,0.7,0.2,1c0.1,0.6,0.2,1.3,0.4,1.9c0.2,1.2,0.4,2.3,0.6,3.3c0.4,2,0.7,3.7,0.9,4.8
								c0.1,0.6,0.2,1,0.2,1.3c0,0.1,0,0.3,0.1,0.3C224.3,160.7,224.3,160.8,224.3,160.8z"/>
						</g>
					</g>
				</g>
				<g>
					<g>
						<g>
							<path fill="#FF4F5B" d="M231.3,111c-1,1.4-3.7,0.7-3.8-1c-0.2-1.7,2.4-2.9,3.6-1.7c0.4-5-0.1-10.1-1.5-14.9
								c-0.3,1-0.7,2-1.4,2.7c-0.7,0.8-1.8,1.2-2.8,0.9c-1.3-0.5-1.7-2.3-1.1-3.6c0.5-1.3,1.7-2.2,2.8-3c-1.8-3.4-5-5.9-8.7-6.9
								c-1.4,2.3-2.9,4.7-3.6,7.4c-0.6,2.7-0.4,5.7,1.4,7.8c0.8,0.9,1.8,1.6,2.3,2.6c0.6,1,0.5,2.6-0.5,3.1
								c-1.2,0.6-2.6-0.6-3.3-1.8c-0.7-1.2-1.4-2.7-2.8-2.9c-0.8,9.5,4.1,19.2,12.2,24.2l-0.1-0.1
								C227.3,120.1,229.8,115.7,231.3,111z M225.1,100.5c0.8-0.8,1.5-1.1,2.5-1.4c0.4-0.2,0.8,0,1.1,0.3c0.3,0.3,0.3,0.7,0.3,1.1
								c-0.1,0.4-0.3,0.8-0.5,1.1c-0.4,0.5-0.9,1-1.5,1.3c-0.6,0.3-1.3,0.3-1.9,0c-0.4-0.2-0.8-0.6-0.8-1.1
								C224.3,101.3,224.7,100.9,225.1,100.5z"/>
						</g>
					</g>
					<g>
						<g>
							<path fill="#263238" d="M226.1,160.8c0,0,0-0.1,0-0.1c0-0.1,0-0.3,0-0.4c0-0.4,0-1-0.1-1.7c-0.1-1.5-0.1-3.6-0.2-6.2
								c-0.2-5.2-0.6-12.5-1.2-20.4c-0.6-8-1.3-15.2-1.8-20.4c-0.3-2.6-0.5-4.7-0.7-6.2c-0.1-0.7-0.1-1.3-0.2-1.7c0-0.2,0-0.3,0-0.4
								c0-0.1,0-0.1,0-0.1c0,0,0,0,0,0.1c0,0.1,0,0.3,0.1,0.4c0.1,0.4,0.1,1,0.2,1.7c0.2,1.5,0.5,3.6,0.8,6.2
								c0.6,5.2,1.3,12.4,1.9,20.4c0.6,8,0.9,15.2,1.1,20.4c0.1,2.6,0.2,4.7,0.2,6.2c0,0.7,0,1.3,0,1.7c0,0.2,0,0.3,0,0.4
								C226.1,160.7,226.1,160.8,226.1,160.8z"/>
						</g>
					</g>
				</g>
				<g>
					<g>
						<polygon fill="#375A64" points="210.8,151.9 214.6,168.2 234.7,168.2 238.9,151.9 						"/>
					</g>
					<g>
						<path fill="#375A64" d="M217.1,164.8c0,0.3,1.5,9.6,1.5,9.6h12.2l1.3-9.6H217.1z"/>
					</g>
					<g>
						<g>
							<ellipse fill="#263238" cx="224.3" cy="168.1" rx="9.8" ry="0.1"/>
						</g>
					</g>
				</g>
			</g>
			<g>
				<g>
					<ellipse fill="#263238" cx="224.7" cy="161.6" rx="11.5" ry="0.1"/>
				</g>
			</g>
			<g>
				<g>
					<ellipse fill="#263238" cx="224.4" cy="163.8" rx="10.8" ry="0.1"/>
				</g>
			</g>
			<g>
				<g>
					<ellipse fill="#263238" cx="224.8" cy="166.1" rx="10.5" ry="0.1"/>
				</g>
			</g>
			<g>
				<g>
					<ellipse fill="#263238" cx="224.7" cy="159.4" rx="12" ry="0.1"/>
				</g>
			</g>
			<g>
				<g>
					<ellipse fill="#263238" cx="224.9" cy="157.6" rx="12.3" ry="0.1"/>
				</g>
			</g>
		</g>
		<g>
			<g>
				<g>
					<g>
						<path fill="#263238" d="M103.3,0.7c0,0,0.1,0,0.2,0c0.2,0,0.4,0,0.7,0c0.2,0,0.3,0,0.5,0c0.2,0,0.4,0,0.6,0c0.2,0,0.5,0,0.7,0
							c0.3,0,0.5,0.1,0.8,0.1c1.1,0.2,2.5,0.5,4,1.3c1.4,0.7,3,1.9,4.2,3.5c0.2,0.2,0.3,0.4,0.5,0.6c0.1,0.2,0.3,0.4,0.4,0.7
							c0.3,0.4,0.5,1,0.8,1.5c0.4,1,0.8,2.1,1,3.3c0.1,0.6,0.1,1.2,0.2,1.8c0,0.3,0,0.6,0,0.9l0,0.5c0,0.2,0,0.3-0.1,0.5
							c-0.1,1.3-0.5,2.6-1.1,3.8c-1.1,2.5-3.1,4.7-5.7,6.1c-1.3,0.7-2.8,1.2-4.3,1.4c-1.5,0.3-3.1,0.2-4.6-0.1
							c-0.2,0-0.4-0.1-0.6-0.1l0.1,0c-2.1,1.3-4.1,2.6-6.1,3.8l-0.2,0.1l0.1-0.2c0.5-2.1,0.9-4.2,1.4-6.1l0,0.1
							c-1.8-1.4-3.2-3.2-4-5.1c-0.4-1-0.7-2-0.9-2.9c-0.1-0.5-0.2-1-0.2-1.5c0-0.2,0-0.5,0-0.7c0-0.2,0-0.5,0-0.7
							c0.1-1.9,0.6-3.6,1.3-5.1c0.7-1.5,1.7-2.7,2.6-3.7c1-1,2-1.7,3-2.2c1-0.5,1.8-0.8,2.6-1c0.4-0.1,0.7-0.2,1-0.2
							c0.3,0,0.5-0.1,0.7-0.1c0.2,0,0.3,0,0.4-0.1C103.3,0.7,103.3,0.7,103.3,0.7s0,0-0.1,0c-0.1,0-0.2,0-0.4,0.1
							c-0.2,0-0.4,0.1-0.7,0.1c-0.3,0.1-0.6,0.2-1,0.3c-0.7,0.2-1.6,0.5-2.5,1c-0.9,0.5-2,1.2-2.9,2.2c-1,1-1.9,2.2-2.6,3.7
							c-0.7,1.5-1.2,3.2-1.3,5.1c0,0.2,0,0.5,0,0.7c0,0.2,0,0.5,0,0.7c0,0.5,0.1,1,0.2,1.5c0.2,1,0.5,1.9,0.9,2.9
							c0.8,1.9,2.2,3.7,4,5l0.1,0l0,0.1c-0.4,2-0.9,4-1.4,6.1l-0.2-0.1c2-1.2,4-2.5,6.1-3.8l0,0l0,0c0.2,0,0.4,0.1,0.6,0.1
							c1.5,0.3,3.1,0.4,4.6,0.1c1.5-0.2,2.9-0.7,4.2-1.4c2.6-1.4,4.6-3.6,5.7-6c0.6-1.2,0.9-2.5,1.1-3.7c0-0.2,0.1-0.3,0.1-0.5
							l0-0.5c0-0.3,0-0.6,0-0.9c0-0.6,0-1.2-0.2-1.8c-0.2-1.2-0.5-2.3-1-3.3c-0.3-0.5-0.5-1-0.8-1.4c-0.1-0.2-0.3-0.5-0.4-0.7
							c-0.2-0.2-0.3-0.4-0.5-0.6c-1.2-1.6-2.7-2.8-4.2-3.5c-1.4-0.8-2.8-1.1-3.9-1.3c-0.3,0-0.5-0.1-0.8-0.1c-0.3,0-0.5,0-0.7,0
							c-0.2,0-0.4,0-0.6,0c-0.2,0-0.4,0-0.5,0c-0.3,0-0.5,0-0.7,0C103.4,0.7,103.3,0.7,103.3,0.7z"/>
					</g>
				</g>
			</g>
			<g>
				<g>
					<polygon fill="#375A64" points="100.8,7.9 99.3,19.8 110.8,19.8 109.2,7.9 					"/>
				</g>
				<g>
					<g>
						<path fill="#FFFFFF" d="M108.2,9.6c0,0,0,0.1-0.1,0.3c-0.1,0.2-0.2,0.5-0.4,0.9c-0.2,0.3-0.6,0.7-1,1
							c-0.5,0.3-1.1,0.4-1.7,0.4c-0.6,0-1.2-0.1-1.7-0.4c-0.5-0.3-0.8-0.6-1-1c-0.2-0.3-0.3-0.7-0.4-0.9c-0.1-0.2-0.1-0.3,0-0.3
							c0,0,0.1,0.5,0.5,1.1c0.2,0.3,0.5,0.7,1,0.9c0.4,0.2,1,0.4,1.6,0.3c0.6,0,1.1-0.1,1.6-0.4c0.4-0.2,0.8-0.6,1-0.9
							C108.1,10.1,108.2,9.6,108.2,9.6z"/>
					</g>
				</g>
			</g>
		</g>
		<text transform="matrix(1 0 0 1 154.9268 133.8894)" fill="#263238" font-family="'FontAwesome'" font-size="5.7488"></text>
	</g>
</g>
</svg>
