<?xml version="1.0" encoding="utf-8"?>
<!-- Generator: Adobe Illustrator 18.1.1, SVG Export Plug-In . SVG Version: 6.00 Build 0)  -->
<svg version="1.1" id="Layer_1" xmlns="http://www.w3.org/2000/svg" xmlns:xlink="http://www.w3.org/1999/xlink" x="0px" y="0px"
	 viewBox="0 0 278.9 175" enable-background="new 0 0 278.9 175" xml:space="preserve">
<g>
	<g>
		<g>
			<path fill="#ECECEC" d="M197.7,111.2c0,0-3.2-2.3-7.6,5.5c-4.4,7.8-6.1,12.3-6.1,12.3s-1.1,1.6-2.2,0.5c-1.1-1.1-2.5-4.3-4.5-3.8
				c-2,0.5-2.8,2.7-2.6,6.1c0.2,3.3,0.5,10.7,0.5,11.3c0,0.6-0.4,1.6-1.3,0.9c-0.9-0.7-5.8-6.6-8.5-4.1c-2.7,2.5-0.5,11.7-0.3,12.7
				c0.2,1,0,1.4-0.5,1.7c-0.5,0.2-2-1.9-3.4-3.6c-1.5-1.6-3.5-3.3-4.9-1.7c-1.4,1.6-2.2,8.4,3.9,19.7l3.1,5.1l6-0.1
				c12.8-1,18.1-5.2,18.7-7.2c0.6-2.1-1.9-2.9-4.1-3.2c-2.2-0.4-4.8-0.5-4.9-1c-0.1-0.5,0.2-0.9,1.1-1.3c1-0.3,9.9-3.4,10.6-7
				c0.7-3.6-7-4.6-8-5c-1-0.4-0.4-1.2,0.1-1.6c0.6-0.3,6.9-4,9.9-5.6c2.9-1.6,4.4-3.4,3.8-5.4c-0.7-1.9-4.1-1.5-5.6-1.8
				c-1.6-0.3-0.8-2.2-0.8-2.2s2.9-3.9,7.2-11.8C201.5,112.7,197.7,111.2,197.7,111.2"/>
		</g>
		<g>
			<g>
				<path fill="#E0E0E0" d="M162.3,174.6c3.1-5.8,8.9-15.9,13.8-24.7c4.9-8.8,9.3-16.7,12.5-22.4c1.6-2.9,2.9-5.2,3.8-6.8
					c0.4-0.8,0.8-1.4,1-1.9c0.1-0.2,0.2-0.4,0.3-0.5c0.1-0.1,0.1-0.2,0.1-0.2s0,0.1-0.1,0.2c-0.1,0.1-0.1,0.3-0.3,0.5
					c-0.2,0.4-0.6,1.1-1,1.9c-0.9,1.6-2.1,4-3.7,6.9c-3.1,5.8-7.6,13.7-12.5,22.5c-4.9,8.8-10.7,18.9-13.9,24.7"/>
			</g>
		</g>
		<g>
			<g>
				<path fill="#E0E0E0" d="M179.1,130.2c0,0,0.1,0.1,0.1,0.4c0.1,0.3,0.2,0.7,0.3,1.1c0.2,1,0.5,2.3,0.8,3.8
					c0.3,1.5,0.5,2.8,0.7,3.8c0.1,0.5,0.2,0.8,0.2,1.1c0.1,0.3,0.1,0.4,0.1,0.4c0,0-0.1-0.1-0.1-0.4c-0.1-0.3-0.2-0.7-0.3-1.1
					c-0.2-1-0.5-2.3-0.8-3.8c-0.3-1.5-0.5-2.8-0.7-3.8c-0.1-0.5-0.2-0.8-0.2-1.1C179.1,130.3,179,130.2,179.1,130.2z"/>
			</g>
		</g>
		<g>
			<g>
				
					<ellipse transform="matrix(-0.9718 0.236 -0.236 -0.9718 403.5049 230.6958)" fill="#E0E0E0" cx="187.9" cy="139.5" rx="6.3" ry="0.1"/>
			</g>
		</g>
		<g>
			<g>
				<path fill="#E0E0E0" d="M173.7,154.1c0,0,0.2,0,0.4,0c0.3,0,0.7,0,1.2,0.1c1,0,2.4,0.1,3.9,0.1c1.5,0,2.9,0,3.9-0.1
					c0.5,0,0.9,0,1.2,0c0.3,0,0.4,0,0.4,0c0,0-0.2,0-0.4,0.1c-0.3,0-0.7,0.1-1.2,0.1c-1,0.1-2.4,0.1-3.9,0.1c-1.5,0-2.9-0.1-3.9-0.2
					c-0.5,0-0.9-0.1-1.2-0.1C173.9,154.1,173.7,154.1,173.7,154.1z"/>
			</g>
		</g>
		<g>
			<g>
				<path fill="#E0E0E0" d="M169,144.9c0,0,0.1,0.1,0.2,0.3c0.1,0.3,0.3,0.6,0.5,1c0.4,0.8,1,2,1.7,3.2c0.7,1.3,1.2,2.4,1.7,3.2
					c0.2,0.4,0.4,0.7,0.5,1c0.1,0.2,0.2,0.4,0.2,0.4c0,0-0.1-0.1-0.2-0.3c-0.1-0.3-0.3-0.6-0.5-1c-0.4-0.8-1-2-1.7-3.2
					c-0.7-1.3-1.2-2.4-1.7-3.2c-0.2-0.4-0.4-0.7-0.5-1C169.1,145,169,144.9,169,144.9z"/>
			</g>
		</g>
		<g>
			<g>
				<path fill="#E0E0E0" d="M160.4,155.5c0,0,0.1,0.2,0.3,0.4c0.2,0.3,0.4,0.7,0.7,1.2c0.6,1,1.4,2.5,2.2,4.1
					c0.9,1.6,1.6,3.1,2.2,4.1c0.3,0.5,0.5,0.9,0.6,1.3c0.1,0.3,0.2,0.5,0.2,0.5c0,0-0.1-0.2-0.3-0.4c-0.2-0.3-0.4-0.7-0.7-1.2
					c-0.6-1-1.4-2.5-2.2-4.1c-0.9-1.6-1.6-3.1-2.2-4.1c-0.3-0.5-0.5-0.9-0.6-1.3C160.5,155.7,160.4,155.5,160.4,155.5z"/>
			</g>
		</g>
		<g>
			<g>
				<path fill="#E0E0E0" d="M166.5,166.8c0,0,0.2,0,0.6,0c0.4,0,0.9,0,1.5,0c1.3,0,3,0,5,0c2,0,3.7-0.1,5-0.2c0.6,0,1.1-0.1,1.5-0.1
					c0.4,0,0.6,0,0.6,0c0,0-0.2,0-0.6,0.1c-0.4,0-0.9,0.1-1.5,0.1c-1.3,0.1-3,0.2-5,0.3c-2,0-3.7,0-5,0c-0.6,0-1.2,0-1.5-0.1
					C166.7,166.9,166.5,166.9,166.5,166.8z"/>
			</g>
		</g>
	</g>
	<g>
		<g>
			<g>
				<g>
					<g>
						<path fill="#ECECEC" d="M113.9,174.3c7.4-4.6,9.5-13.8,9.6-22.2c0-1.4,0.2-2.9-0.4-4.1c-0.6-1.3-2.1-2.2-3.4-1.6
							c-1.1,0.4-1.6,1.6-2.2,2.6c-0.8,1.3-2,2.3-3.4,3c-0.9,0.4-2,0.6-2.9,0.1c-1.2-0.7-1.2-2.4-1.1-3.8c0.1-2.6,0.3-5.2,0.4-7.7
							c0.1-1.4,0.2-2.8-0.2-4.1c-0.4-1.3-1.3-2.6-2.6-3c-1.3-0.4-3,0.2-3.3,1.6c-0.1,0.6-0.1,1.1-0.1,1.7c-0.1,0.6-0.4,1.2-0.9,1.3
							c-0.6,0.1-1.1-0.3-1.5-0.7c-1.4-1.5-2.2-3.3-3.1-5.2c-0.8-1.8-1.6-3.7-2.8-5.3c-1.2-1.6-3-2.9-4.9-3.1c-2-0.2-4.2,0.9-4.8,2.8
							c-0.6,1.9,0.4,4,1.6,5.6c1.7,2.4,3.8,4.6,6.1,6.5c0.4,0.3,0.9,0.7,1,1.2c0.3,0.9-0.7,1.8-1.6,2.1c-1,0.3-2.2,0.1-3.3,0.2
							c-1.1,0.1-2.3,0.5-2.7,1.5c-0.6,1.4,0.5,2.9,1.6,4c2.2,2.1,4.8,3.7,7.6,4.9c1,0.4,2.1,0.8,2.8,1.6c0.8,0.8,1.2,2,0.7,3
							c-0.5,1-1.8,1.2-2.9,0.9c-1.1-0.3-2-0.9-3-1.3c-1.9-0.8-4.3-0.8-5.6,0.8c-0.9,1-1,2.5-0.7,3.9c0.3,1.3,1.1,2.5,1.9,3.5
							c2.9,3.7,6.6,6.8,11,8.6C105.3,175,109.4,175.6,113.9,174.3"/>
					</g>
				</g>
			</g>
		</g>
		<g>
			<g>
				<g>
					<g>
						<g>
							<path fill="#E0E0E0" d="M112,168.9c-1-4.3-2.5-8.9-4.3-13.6c-0.4-1.2-0.9-2.4-1.3-3.5c-0.4-1.2-0.9-2.3-1.3-3.4
								c-1-2.2-2.1-4.2-3.1-6.1c-1.1-1.9-2.2-3.7-3.3-5.3c-1.1-1.6-2.1-3.1-3-4.5c-1.9-2.7-3.8-4.6-5.1-5.9
								c-0.7-0.7-1.2-1.1-1.5-1.5c-0.2-0.2-0.3-0.3-0.4-0.4c-0.1-0.1-0.1-0.1-0.1-0.1c0,0,0,0.1,0.1,0.1c0.1,0.1,0.2,0.2,0.4,0.4
								c0.3,0.3,0.9,0.8,1.5,1.5c1.3,1.3,3.1,3.3,5,6c1,1.3,2,2.8,3,4.5c1,1.6,2.1,3.4,3.2,5.3c1.1,1.9,2.2,3.9,3.1,6.1
								c0.5,1.1,0.9,2.2,1.3,3.4c0.4,1.2,0.9,2.3,1.3,3.5c1.7,4.7,3.2,9.3,4.3,13.6"/>
						</g>
					</g>
				</g>
			</g>
		</g>
		<g>
			<g>
				<g>
					<g>
						<g>
							<path fill="#E0E0E0" d="M105,148.4c0,0,0.1-0.2,0.2-0.6c0.1-0.4,0.2-0.9,0.3-1.6c0.3-1.4,0.6-3.3,0.9-5.4
								c0.3-2.1,0.7-4,0.9-5.4c0.1-0.7,0.3-1.2,0.3-1.6c0.1-0.4,0.1-0.6,0.1-0.6c0,0-0.1,0.2-0.2,0.6c-0.1,0.4-0.3,0.9-0.4,1.6
								c-0.3,1.4-0.7,3.3-1,5.4c-0.3,2.1-0.6,3.9-0.8,5.4c-0.1,0.6-0.2,1.2-0.3,1.6C105,148.2,105,148.4,105,148.4z"/>
						</g>
					</g>
				</g>
			</g>
		</g>
		<g>
			<g>
				<g>
					<g>
						<g>
							<path fill="#E0E0E0" d="M87.4,144.2c0,0,0.3,0.1,0.7,0.1c0.5,0.1,1.1,0.2,1.9,0.3c1.6,0.3,3.9,0.7,6.3,1.3
								c2.4,0.6,4.6,1.2,6.2,1.7c0.8,0.2,1.4,0.5,1.9,0.6c0.4,0.1,0.7,0.2,0.7,0.2c0,0-0.2-0.1-0.7-0.3c-0.4-0.2-1-0.4-1.8-0.7
								c-1.6-0.5-3.7-1.2-6.2-1.8c-2.4-0.6-4.7-1-6.3-1.2c-0.8-0.1-1.5-0.2-1.9-0.2C87.6,144.2,87.4,144.2,87.4,144.2z"/>
						</g>
					</g>
				</g>
			</g>
		</g>
		<g>
			<g>
				<g>
					<g>
						<g>
							<path fill="#E0E0E0" d="M111.8,168.6c0,0,0.1-0.1,0.1-0.2c0.1-0.2,0.2-0.4,0.3-0.6c0.3-0.5,0.7-1.4,1.2-2.3
								c1-2,2.2-4.8,3.5-7.9c1.3-3.1,2.5-5.9,3.5-7.9c0.4-1,0.8-1.8,1.1-2.4c0.1-0.3,0.2-0.5,0.3-0.7c0.1-0.1,0.1-0.2,0.1-0.2
								c0,0-0.1,0.1-0.1,0.2c-0.1,0.2-0.2,0.4-0.3,0.6c-0.3,0.5-0.7,1.4-1.2,2.3c-1,2-2.2,4.8-3.5,7.9c-1.3,3.1-2.5,5.9-3.5,7.9
								c-0.4,1-0.8,1.8-1.1,2.4c-0.1,0.3-0.2,0.5-0.3,0.7C111.8,168.5,111.8,168.6,111.8,168.6z"/>
						</g>
					</g>
				</g>
			</g>
		</g>
		<g>
			<g>
				<g>
					<g>
						<g>
							<path fill="#E0E0E0" d="M88.5,159.8c0,0,0.1,0,0.2,0.1c0.2,0.1,0.4,0.2,0.7,0.3c0.6,0.2,1.5,0.6,2.5,0.9
								c2.1,0.8,5,1.9,8.2,3.2c3.2,1.3,6.1,2.4,8.2,3.1c1.1,0.4,1.9,0.7,2.5,0.9c0.3,0.1,0.5,0.2,0.7,0.2c0.2,0,0.2,0.1,0.2,0.1
								c0,0-0.1,0-0.2-0.1c-0.2-0.1-0.4-0.2-0.7-0.3c-0.6-0.2-1.5-0.6-2.5-0.9c-2.1-0.8-5-1.9-8.2-3.2c-3.2-1.3-6.1-2.4-8.2-3.1
								c-1.1-0.4-1.9-0.7-2.5-0.9c-0.3-0.1-0.5-0.2-0.7-0.2C88.6,159.8,88.5,159.8,88.5,159.8z"/>
						</g>
					</g>
				</g>
			</g>
		</g>
	</g>
	<g>
		<g>
			<g>
				<path fill="#E0E0E0" d="M216.5,97c1,1.6-0.3,3.5-2.2,3.1c-0.5-0.1-1-0.4-1.2-0.8c-1-1.6,0.3-3.5,2.2-3.1
					C215.8,96.2,216.3,96.5,216.5,97z"/>
			</g>
		</g>
		<g>
			<g>
				<g>
					<path fill="#E0E0E0" d="M216.4,97.1c-0.1,0.1-1.7-1.3-3.3-3.4c-1.6-2-2.9-3.7-2.8-3.8c0.1-0.1,1.6,1.5,3.2,3.5
						C215,95.5,216.5,97,216.4,97.1z"/>
				</g>
			</g>
		</g>
		<g>
			<g>
				<g>
					<path fill="#E0E0E0" d="M213.5,87.1c0.1,0-0.1,1.1-1.1,2.1c-1,0.9-2.1,1.1-2.1,1c0-0.1,0.9-0.5,1.8-1.3
						C213,88,213.4,87,213.5,87.1z"/>
				</g>
			</g>
		</g>
		<g>
			<g>
				<g>
					<path fill="#E0E0E0" d="M214.7,88.8c0.1,0-0.1,1.1-1.1,2c-1,0.9-2.2,0.8-2.1,0.7c0-0.1,1-0.3,1.9-1
						C214.3,89.7,214.6,88.8,214.7,88.8z"/>
				</g>
			</g>
		</g>
	</g>
	<g>
		<g>
			<g>
				<path fill="#E0E0E0" d="M211.9,9.8c-1.1,1.5-3.3,1-3.7-0.8c-0.1-0.5,0-1,0.3-1.5c1.1-1.5,3.3-1,3.7,0.8
					C212.4,8.9,212.2,9.4,211.9,9.8z"/>
			</g>
		</g>
		<g>
			<g>
				<g>
					<path fill="#E0E0E0" d="M211.8,9.8c-0.1,0,0.6-2.1,1.8-4.4c1.3-2.3,2.3-4.1,2.4-4.1c0.1,0.1-0.7,2-2,4.3
						C212.7,7.9,211.9,9.8,211.8,9.8z"/>
				</g>
			</g>
		</g>
		<g>
			<g>
				<g>
					<path fill="#E0E0E0" d="M219.9,3.2c0,0.1-1.1,0.3-2.3-0.2c-1.2-0.5-1.8-1.5-1.7-1.6c0.1-0.1,0.8,0.7,1.9,1.2
						C218.9,3.1,219.9,3.1,219.9,3.2z"/>
				</g>
			</g>
		</g>
		<g>
			<g>
				<g>
					<path fill="#E0E0E0" d="M218.8,5c0,0.1-1.1,0.4-2.2-0.2c-1.2-0.6-1.6-1.7-1.5-1.7c0.1-0.1,0.6,0.8,1.7,1.3
						C217.8,4.9,218.8,4.9,218.8,5z"/>
				</g>
			</g>
		</g>
	</g>
	<g>
		<g>
			<g>
				<path fill="#FF4F5B" d="M196.3,149.9c1.1,0.5,1.9,1.5,2.4,2.7c0.4,1.1,0.4,2.4,0.3,3.6c-0.3,2.3-1.6,4.7-3,6.6
					c-2-1.7-2.4-4.7-2.6-6.3C193.2,154,194.3,149.5,196.3,149.9"/>
			</g>
		</g>
		<g>
			<g>
				<path fill="#FF4F5B" d="M198.2,166.6c-0.3-1.3,0.2-2.8,1.3-3.7c1-0.9,2.4-1.3,3.8-1.2c0.6,0,1.3,0.2,1.7,0.7
					c0.3,0.5,0.3,1.2,0,1.7c-0.3,0.5-0.7,0.9-1.2,1.2C202,166.5,200.2,167.2,198.2,166.6"/>
			</g>
		</g>
		<g>
			<g>
				<g>
					<path fill="#263238" d="M195.7,173.8c0,0,0-0.2,0.1-0.5c0.1-0.3,0.1-0.8,0.2-1.3c0.2-1.1,0.5-2.6,1.3-4.2c0.8-1.5,2-2.6,3-3.2
						c0.5-0.3,0.9-0.5,1.2-0.5c0.1-0.1,0.3-0.1,0.4-0.1c0.1,0,0.1,0,0.1,0c0,0-0.7,0.2-1.6,0.7c-0.9,0.6-2.1,1.7-2.9,3.1
						c-0.8,1.5-1.1,3-1.4,4.1c-0.1,0.5-0.2,1-0.3,1.3C195.8,173.6,195.7,173.8,195.7,173.8z"/>
				</g>
			</g>
		</g>
		<g>
			<g>
				<g>
					<path fill="#263238" d="M195.8,153.4c0,0,0,0.1,0,0.2c0,0.2,0,0.4,0,0.6c0,0.5,0.1,1.3,0.1,2.2c0.1,1.9,0.1,4.5,0.1,7.3
						c0,2.9-0.1,5.5-0.2,7.3c0,0.9-0.1,1.7-0.1,2.2c0,0.2,0,0.4,0,0.6c0,0.1,0,0.2,0,0.2c0,0,0-0.1,0-0.2c0-0.2,0-0.4,0-0.6
						c0-0.5,0-1.3,0.1-2.2c0-1.9,0.1-4.5,0.1-7.3c0-2.9,0-5.5,0-7.3c0-0.9,0-1.7,0-2.2c0-0.2,0-0.4,0-0.6
						C195.8,153.5,195.8,153.4,195.8,153.4z"/>
				</g>
			</g>
		</g>
		<g>
			<g>
				<path fill="#FF4F5B" d="M194.8,168c-0.4-2.8-2.4-5.4-4.9-6.6c-0.7-0.3-1.5-0.5-2.1,0c-0.5,0.5-0.4,1.4-0.2,2.1
					c1.1,2.8,4.1,4.8,7.1,4.8"/>
			</g>
		</g>
		<g>
			<g>
				<g>
					<path fill="#263238" d="M190.2,163.6c0,0,0.2,0.1,0.4,0.2c0.1,0.1,0.3,0.1,0.5,0.3c0.2,0.1,0.4,0.2,0.6,0.4
						c0.2,0.2,0.5,0.3,0.7,0.5c0.2,0.2,0.5,0.4,0.7,0.7c0.5,0.5,1,1.1,1.4,1.8c0.4,0.7,0.7,1.4,0.9,2.1c0.1,0.3,0.2,0.7,0.2,1
						c0.1,0.3,0.1,0.6,0.1,0.9c0,0.3,0,0.5,0,0.7c0,0.2,0,0.4,0,0.5c0,0.3,0,0.5-0.1,0.5c0,0,0-0.7-0.1-1.7c0-0.3-0.1-0.5-0.1-0.8
						c-0.1-0.3-0.1-0.6-0.2-0.9c-0.2-0.7-0.5-1.4-0.9-2c-0.4-0.7-0.9-1.3-1.4-1.8c-0.2-0.2-0.5-0.5-0.7-0.7
						c-0.2-0.2-0.5-0.4-0.7-0.5C190.8,163.9,190.2,163.7,190.2,163.6z"/>
				</g>
			</g>
		</g>
	</g>
	<g>
		<path fill="#FF4F5B" d="M191.1,56.4c-0.6-1.5-1.5-3.5-2.6-4.6c-0.9-0.9-2.4-1.2-3.5-0.7c-0.5,0.2-0.8,0.6-0.9,1.1
			c-0.3,1.2-1.8,2.4-2.8,2.9c-1.2,0.6-2.5,0.9-3.4,1.9c-2.6,2.7,0,7.9-2.4,10.8c-1.4,1.7-3.9,1.8-6,1.6c-2.7-0.2-5.6-0.7-7.7,1.6
			c-1.1,1.2-1.5,2.8-1.3,4.5c0.4,3.6,3.3,6.1,6.5,7.4c7,2.9,15.7,0.6,20.7-5C192.5,72,193.8,63.5,191.1,56.4z"/>
		<g opacity="0.8">
			<path fill="#FFFFFF" d="M191.1,56.4c-0.6-1.5-1.5-3.5-2.6-4.6c-0.9-0.9-2.4-1.2-3.5-0.7c-0.5,0.2-0.8,0.6-0.9,1.1
				c-0.3,1.2-1.8,2.4-2.8,2.9c-1.2,0.6-2.5,0.9-3.4,1.9c-2.6,2.7,0,7.9-2.4,10.8c-1.4,1.7-3.9,1.8-6,1.6c-2.7-0.2-5.6-0.7-7.7,1.6
				c-1.1,1.2-1.5,2.8-1.3,4.5c0.4,3.6,3.3,6.1,6.5,7.4c7,2.9,15.7,0.6,20.7-5C192.5,72,193.8,63.5,191.1,56.4z"/>
		</g>
	</g>
	<g>
		<path fill="#FF4F5B" d="M185.7,14.3c-3.4-1.4-7.5-1.2-10.5-3.4c-1.7-1.3-2.8-3.2-3.9-4.9c-1.2-1.8-2.6-3.5-4.7-4.1
			c-0.9-0.3-2-0.2-2.9,0.1c-1.5,0.6-2.1,2.5-1.1,3.8c1,1.4,2.4,3.7,2.3,5.5c-0.2,2.8-0.9,5.9,0.7,8.3c2,3.1,6.7,3.2,9.5,5.6
			c5.1,4.5,1.9,14.4,7.4,18.3c3.3,2.3,8.3,0.8,10.7-2.4c2.4-3.2,2.8-7.6,2.3-11.6C194.8,23.2,191.6,16.6,185.7,14.3z"/>
		<g opacity="0.8">
			<path fill="#FFFFFF" d="M185.7,14.3c-3.4-1.4-7.5-1.2-10.5-3.4c-1.7-1.3-2.8-3.2-3.9-4.9c-1.2-1.8-2.6-3.5-4.7-4.1
				c-0.9-0.3-2-0.2-2.9,0.1c-1.5,0.6-2.1,2.5-1.1,3.8c1,1.4,2.4,3.7,2.3,5.5c-0.2,2.8-0.9,5.9,0.7,8.3c2,3.1,6.7,3.2,9.5,5.6
				c5.1,4.5,1.9,14.4,7.4,18.3c3.3,2.3,8.3,0.8,10.7-2.4c2.4-3.2,2.8-7.6,2.3-11.6C194.8,23.2,191.6,16.6,185.7,14.3z"/>
		</g>
	</g>
	<g>
		<path fill="#FF4F5B" d="M131.6,5c-3.1-0.6-6.5,1.5-7.4,4.5c-0.9,3.1,0.9,6.6,3.8,7.9c2.9,1.2,6.7,0,8.4-2.7c1-1.6,1-4.1,0.2-5.8
			C135.7,7.2,133.9,4.9,131.6,5"/>
		<g opacity="0.8">
			<path fill="#FFFFFF" d="M131.6,5c-3.1-0.6-6.5,1.5-7.4,4.5c-0.9,3.1,0.9,6.6,3.8,7.9c2.9,1.2,6.7,0,8.4-2.7c1-1.6,1-4.1,0.2-5.8
				C135.7,7.2,133.9,4.9,131.6,5"/>
		</g>
	</g>
	<g>
		<g>
			<g>
				<path fill="#263238" d="M156.8,15.4c-0.5,1.3-2.2,1.5-2.9,0.4c-0.2-0.4-0.3-0.9-0.2-1.3c0.5-1.3,2.2-1.5,2.9-0.4
					C156.9,14.5,156.9,15,156.8,15.4z"/>
			</g>
		</g>
		<g>
			<g>
				<g>
					<path fill="#263238" d="M156.7,15.4c-0.1,0-0.1-1.7,0.3-3.7c0.4-2,0.7-3.6,0.8-3.6c0.1,0-0.1,1.7-0.5,3.7
						C156.9,13.7,156.8,15.4,156.7,15.4z"/>
				</g>
			</g>
		</g>
		<g>
			<g>
				<g>
					<path fill="#263238" d="M161.2,8.5c0,0.1-0.7,0.5-1.8,0.4c-1.1-0.1-1.8-0.7-1.7-0.8c0.1-0.1,0.8,0.3,1.7,0.4
						C160.4,8.7,161.2,8.4,161.2,8.5z"/>
				</g>
			</g>
		</g>
		<g>
			<g>
				<g>
					<path fill="#263238" d="M160.8,10.1c0.1,0.1-0.7,0.5-1.7,0.4c-1-0.2-1.6-0.9-1.5-0.9c0.1-0.1,0.7,0.4,1.6,0.6
						C160,10.3,160.8,10,160.8,10.1z"/>
				</g>
			</g>
		</g>
	</g>
	<g>
		<g>
			<g>
				<g>
					<g>
						<circle fill="#263238" cx="115.6" cy="24.7" r="1.2"/>
					</g>
				</g>
				<g>
					<g>
						<g>
							<path fill="#263238" d="M116.4,25.4c-0.1,0,0.3-1.2,1.1-2.5c0.8-1.3,1.4-2.3,1.5-2.2c0.1,0.1-0.4,1.2-1.2,2.4
								C117.1,24.4,116.5,25.4,116.4,25.4z"/>
						</g>
					</g>
				</g>
				<g>
					<g>
						<g>
							<path fill="#263238" d="M121.9,23.2c0,0.1-1,0-1.9-0.7c-0.5-0.3-0.8-0.8-0.9-1.2c-0.1-0.4-0.1-0.6,0-0.6
								c0.1,0,0.1,0.2,0.3,0.5c0.2,0.3,0.5,0.6,0.9,1C121,22.8,121.9,23.1,121.9,23.2z"/>
						</g>
					</g>
				</g>
			</g>
			<g>
				<g>
					<circle fill="#263238" cx="118.4" cy="27.3" r="1.2"/>
				</g>
			</g>
			<g>
				<g>
					<g>
						<path fill="#263238" d="M119.2,27.9c-0.1,0,0.3-1.2,1.1-2.5c0.8-1.3,1.4-2.3,1.5-2.2c0.1,0.1-0.4,1.2-1.2,2.4
							C119.9,26.9,119.4,27.9,119.2,27.9z"/>
					</g>
				</g>
			</g>
			<g>
				<g>
					<g>
						<path fill="#263238" d="M121.5,23.9c0,0.1-0.9,0.1-1.8-0.5c-0.9-0.6-1.2-1.5-1.2-1.5c0.1-0.1,0.6,0.6,1.4,1.2
							C120.7,23.6,121.5,23.8,121.5,23.9z"/>
					</g>
				</g>
			</g>
		</g>
	</g>
	<g>
		<g>
			<g>
				<g>
					<g>
						<circle fill="#263238" cx="191.7" cy="83.8" r="0.6"/>
					</g>
				</g>
				<g>
					<g>
						<g>
							<path fill="#263238" d="M192.1,84.2c-0.1,0,0.1-0.6,0.5-1.2c0.4-0.6,0.7-1.1,0.7-1.1c0.1,0-0.2,0.6-0.6,1.2
								C192.4,83.6,192.2,84.2,192.1,84.2z"/>
						</g>
					</g>
				</g>
				<g>
					<g>
						<g>
							<path fill="#263238" d="M194.8,83c0,0-0.5,0-1-0.3c-0.2-0.2-0.4-0.4-0.5-0.6c-0.1-0.2,0-0.3,0-0.3c0,0,0.1,0.1,0.1,0.2
								c0.1,0.1,0.2,0.3,0.5,0.5C194.4,82.9,194.8,83,194.8,83z"/>
						</g>
					</g>
				</g>
			</g>
			<g>
				<g>
					<circle fill="#263238" cx="193.1" cy="85.1" r="0.6"/>
				</g>
			</g>
			<g>
				<g>
					<g>
						<path fill="#263238" d="M193.5,85.4c-0.1,0,0.1-0.6,0.5-1.2c0.4-0.6,0.7-1.1,0.7-1.1c0.1,0-0.2,0.6-0.6,1.2
							C193.8,84.9,193.6,85.4,193.5,85.4z"/>
					</g>
				</g>
			</g>
			<g>
				<g>
					<g>
						<path fill="#263238" d="M194.6,83.4c0,0.1-0.5,0.1-0.9-0.3c-0.5-0.3-0.6-0.7-0.6-0.7c0.1,0,0.3,0.3,0.7,0.6
							C194.2,83.2,194.6,83.3,194.6,83.4z"/>
					</g>
				</g>
			</g>
		</g>
	</g>
	<g>
		<g>
			<g>
				<path fill="#FFBF9D" d="M199.3,37.5l-0.7-11.3l2-2.9l4-4.7c0,0,0.8-0.2,0.5,1.4c-0.4,1.6-2.5,4.5-2.5,4.5l2.4-2l1.3-0.1l2.1,3.9
					c0,0-1.3,0.6-2.1,0.1l-0.9,1.5l1.4-0.1l1.7,0.7l-0.8,2.1l-0.9,2.4c0,0-0.1,4.8-1,5.4c-0.9,0.6-0.9,0.6-0.9,0.6L199.3,37.5z"/>
				<path fill="#FFBF9D" d="M152.2,57.2c0,0,10.5-1.9,11.3-1.8c0.8,0.1,10.6,4.1,11.5,4.4c0.9,0.4,16,2.6,16,2.6l8.5-25.5l6.9,0.2
					c0,0-4.1,25.5-5.4,29.1c-1.3,3.6-1.5,6-2.9,6.7c-1.4,0.7-5.5,1.7-9.3,1.4c-3.8-0.2-19.7-3.5-19.7-3.5L152.2,57.2z"/>
			</g>
			<g>
				<path fill="#FF9A6C" d="M207.7,25c0,0,0,0.1-0.1,0.2c-0.1,0.1-0.3,0.3-0.6,0.4c-0.3,0.1-0.7,0-1-0.3c-0.3-0.2-0.5-0.6-0.7-1
					l0.2,0c-0.1,0.1-0.2,0.1-0.2,0.2c-0.6,0.7-1.2,1.3-1.6,1.7c-0.4,0.4-0.7,0.7-0.7,0.7c0,0,0.2-0.3,0.6-0.8
					c0.4-0.5,0.9-1.1,1.6-1.8c0.1-0.1,0.2-0.2,0.2-0.2l0.1-0.1l0.1,0.1c0.2,0.4,0.4,0.7,0.7,0.9c0.3,0.2,0.6,0.3,0.8,0.3
					c0.3,0,0.4-0.2,0.5-0.3C207.7,25.1,207.7,25,207.7,25z"/>
			</g>
			<g>
				<path fill="#FF9A6C" d="M206,29.3c0,0,0.2-0.1,0.6-0.3l0.2-0.1l-0.1,0.2c-0.1,0.2-0.2,0.5-0.2,0.9c0,0.4,0.2,0.7,0.5,0.8
					c0.2,0.1,0.4,0,0.4,0.1c0,0-0.2,0.2-0.5,0.1c-0.1,0-0.3-0.2-0.4-0.3c-0.1-0.2-0.2-0.4-0.2-0.6c0-0.4,0.2-0.7,0.3-0.9l0.1,0.1
					C206.3,29.3,206,29.4,206,29.3z"/>
			</g>
			<g>
				<path fill="#FF9A6C" d="M203.6,36.3c0,0,0.1-0.3,0.2-0.8c0.1-0.5,0.2-1.2,0-2.1c-0.1-0.4-0.2-0.9-0.5-1.4
					c-0.3-0.5-0.6-0.9-1-1.3c-0.4-0.4-0.9-0.9-1.2-1.5c-0.3-0.6-0.3-1.3-0.6-1.9c-0.2-0.5-0.7-1-1.2-1l0.1-0.1
					c0.2,2.3,0.3,4.4,0.4,5.9c0,0.7,0.1,1.3,0.1,1.7c0,0.4,0,0.6,0,0.6c0,0,0-0.2-0.1-0.6c0-0.4-0.1-1-0.2-1.7
					c-0.1-1.5-0.3-3.5-0.5-5.9l0-0.1l0.1,0c0.3,0,0.6,0.1,0.9,0.3c0.2,0.2,0.4,0.5,0.6,0.8c0.3,0.7,0.3,1.4,0.6,1.9
					c0.3,0.6,0.7,1,1.2,1.4c0.4,0.4,0.8,0.9,1.1,1.4c0.3,0.5,0.4,1,0.5,1.4c0.2,0.9,0.1,1.7-0.1,2.2c-0.1,0.2-0.1,0.4-0.2,0.6
					C203.6,36.3,203.6,36.3,203.6,36.3z"/>
			</g>
			<g>
				
					<ellipse transform="matrix(0.5908 -0.8068 0.8068 0.5908 62.2265 177.0518)" fill="#FF9A6C" cx="205.7" cy="27.2" rx="1.2" ry="0.1"/>
			</g>
		</g>
		<polygon fill="#FFBF9D" points="165.2,128.1 162.2,174.1 143,174.1 140.1,143.3 		"/>
		<path fill="#FFBF9D" d="M115.1,120.6c0,0-3.1,10.5-2.1,22.8c0.6,8.1,5.1,30.6,5.1,30.6h18.3l3.7-29.6L116.6,133L115.1,120.6z"/>
		<path fill="#263238" d="M137.3,60.6c0.4-3.2-2.7-10.7-3.6-13.8c-1.3,1-3,1.4-4.6,1.2c-0.3,2.7-0.7,5.5-1,8.2
			c-0.1,0.8-1,5.8-1.6,6.3"/>
		<path fill="#FF4F5B" d="M128.6,37.8c0-0.4-0.8-1.5-0.3-3.4c0.6-2.4,1.2-4.7,2.9-6.5c1.7-1.8,2.8-3.2,4.6-4.1
			c1.7-0.8,3.3-0.9,3.3-0.9c0.1-0.4,0.3-0.8,0.8-1.3c0,0-3.8-0.8-7.6,1.9c-3.3,2.5-6.3,6.3-7.2,11c-0.6,3.5,0.8,6.4,0.8,6.4
			L128.6,37.8z"/>
		<g>
			<path fill="#375A64" d="M162.6,111.3l-38-7.3c0,0-7.4,4.9-11.2,20.8c-1.7,7,0,31,0,31l51.1,0.7
				C164.5,156.5,167.2,117.6,162.6,111.3z"/>
			<path fill="#F5F5F5" d="M147,121c-0.2-0.4-0.7-0.5-1.1-0.4c-0.6,0.1-1.3,0.5-1.6,1.1c-0.3,0.6-0.1,1.4,0.5,1.7
				c0.4,0.2,0.9,0.2,1.3-0.1c0.4-0.2,0.7-0.6,0.8-1C147.1,121.9,147.2,121.4,147,121z"/>
			<path fill="#F5F5F5" d="M146.6,130.1c-0.2-0.4-0.7-0.5-1.1-0.4c-0.6,0.1-1.3,0.5-1.6,1.1c-0.3,0.6-0.1,1.4,0.5,1.7
				c0.4,0.2,0.9,0.2,1.3-0.1c0.4-0.2,0.7-0.6,0.8-1C146.8,131,146.8,130.5,146.6,130.1z"/>
			<path fill="#F5F5F5" d="M145.8,139.6c-0.2-0.4-0.7-0.5-1.1-0.4c-0.6,0.1-1.3,0.5-1.6,1.1c-0.3,0.6-0.1,1.4,0.5,1.7
				c0.4,0.2,0.9,0.2,1.3-0.1c0.4-0.2,0.7-0.6,0.8-1C145.9,140.5,146,140,145.8,139.6z"/>
			<path fill="#F5F5F5" d="M144.8,148.9c-0.2-0.4-0.7-0.5-1.1-0.4c-0.6,0.1-1.3,0.5-1.6,1.1c-0.3,0.6-0.1,1.4,0.5,1.7
				c0.4,0.2,0.9,0.2,1.3-0.1c0.4-0.2,0.7-0.6,0.8-1C144.9,149.8,145,149.3,144.8,148.9z"/>
			<g>
				<g>
					
						<ellipse transform="matrix(-8.431989e-002 0.9964 -0.9964 -8.431989e-002 272.9518 -12.0888)" fill="#263238" cx="142" cy="119.4" rx="1" ry="0.1"/>
				</g>
				<g>
					
						<ellipse transform="matrix(-8.431847e-002 0.9964 -0.9964 -8.431847e-002 276.5664 -7.4196)" fill="#263238" cx="141.7" cy="123.4" rx="1" ry="0.1"/>
				</g>
				<g>
					
						<ellipse transform="matrix(-8.431989e-002 0.9964 -0.9964 -8.431989e-002 280.1813 -2.7501)" fill="#263238" cx="141.4" cy="127.4" rx="1" ry="0.1"/>
				</g>
				<g>
					
						<ellipse transform="matrix(-8.431989e-002 0.9964 -0.9964 -8.431989e-002 283.7961 1.9193)" fill="#263238" cx="141" cy="131.4" rx="1" ry="0.1"/>
				</g>
				<g>
					
						<ellipse transform="matrix(-8.430006e-002 0.9964 -0.9964 -8.430006e-002 287.4084 6.5858)" fill="#263238" cx="140.7" cy="135.4" rx="1" ry="0.1"/>
				</g>
				<g>
					
						<ellipse transform="matrix(-8.430006e-002 0.9964 -0.9964 -8.430006e-002 291.0232 11.2551)" fill="#263238" cx="140.3" cy="139.3" rx="1" ry="0.1"/>
				</g>
				<g>
					
						<ellipse transform="matrix(-8.431989e-002 0.9964 -0.9964 -8.431989e-002 294.6405 15.9275)" fill="#263238" cx="140" cy="143.3" rx="1" ry="0.1"/>
				</g>
				<g>
					
						<ellipse transform="matrix(-8.430006e-002 0.9964 -0.9964 -8.430006e-002 298.2527 20.5937)" fill="#263238" cx="139.7" cy="147.3" rx="1" ry="0.1"/>
				</g>
				<g>
					
						<ellipse transform="matrix(-8.430006e-002 0.9964 -0.9964 -8.430006e-002 301.8676 25.263)" fill="#263238" cx="139.3" cy="151.3" rx="1" ry="0.1"/>
				</g>
			</g>
			<g>
				<path fill="#263238" d="M146.2,152.8c0,0,0-0.1,0-0.4c0-0.3,0.1-0.6,0.1-1c0.1-0.9,0.2-2.2,0.4-3.8c0.3-3.2,0.7-7.6,1.1-12.5
					c0.3-4.9,0.6-9.3,0.7-12.5c0.1-1.6,0.1-2.9,0.2-3.8c0-0.4,0-0.8,0.1-1c0-0.2,0-0.4,0-0.4c0,0,0,0.1,0,0.4c0,0.3,0,0.6,0,1
					c0,0.9-0.1,2.2-0.1,3.8c-0.1,3.2-0.3,7.6-0.7,12.5c-0.3,4.9-0.8,9.3-1.1,12.5c-0.2,1.6-0.3,2.9-0.4,3.8c-0.1,0.4-0.1,0.8-0.1,1
					C146.3,152.6,146.2,152.8,146.2,152.8z"/>
			</g>
			<g>
				<path fill="#263238" d="M140.2,152.7c0,0,0-0.1,0-0.4c0-0.3,0-0.6,0.1-1c0.1-0.9,0.2-2.2,0.3-3.7c0.3-3.2,0.6-7.5,1-12.3
					c0.4-4.8,0.8-9.1,1.1-12.3c0.1-1.6,0.3-2.8,0.4-3.7c0-0.4,0.1-0.8,0.1-1c0-0.2,0-0.4,0.1-0.4c0,0,0,0.1,0,0.4c0,0.3,0,0.6-0.1,1
					c-0.1,0.9-0.2,2.2-0.3,3.7c-0.3,3.2-0.6,7.5-1,12.3c-0.4,4.8-0.8,9.1-1.1,12.3c-0.1,1.6-0.3,2.8-0.4,3.7c0,0.4-0.1,0.8-0.1,1
					C140.3,152.6,140.3,152.7,140.2,152.7z"/>
			</g>
			<g>
				<path fill="#263238" d="M129.5,117.4c0,0-0.1,0.2-0.4,0.5c-0.1,0.2-0.3,0.4-0.5,0.6c-0.2,0.2-0.4,0.5-0.7,0.8
					c-0.1,0.1-0.3,0.3-0.4,0.4c-0.1,0.1-0.3,0.3-0.5,0.4c-0.3,0.3-0.7,0.6-1.1,0.9c-0.8,0.6-1.8,1.1-2.9,1.5
					c-1.1,0.4-2.2,0.7-3.1,0.9c-0.5,0.1-1,0.1-1.4,0.1c-0.2,0-0.4,0-0.6,0c-0.2,0-0.4,0-0.6,0c-0.4,0-0.7-0.1-1-0.1
					c-0.3,0-0.6-0.1-0.8-0.1c-0.4-0.1-0.6-0.1-0.6-0.1c0,0,0.9,0.2,2.4,0.2c0.2,0,0.4,0,0.6,0c0.2,0,0.4,0,0.6,0
					c0.4,0,0.9-0.1,1.4-0.2c1-0.2,2-0.4,3.1-0.9c1.1-0.4,2-1,2.8-1.5c0.4-0.3,0.8-0.5,1.1-0.8c0.2-0.1,0.3-0.3,0.5-0.4
					c0.1-0.1,0.3-0.3,0.4-0.4C128.9,118.2,129.4,117.4,129.5,117.4z"/>
			</g>
			<g>
				<g>
					
						<ellipse transform="matrix(0.9999 1.103975e-002 -1.103975e-002 0.9999 1.6917 -1.2482)" fill="#263238" cx="113.9" cy="152.6" rx="0.5" ry="0.1"/>
				</g>
				<g>
					
						<ellipse transform="matrix(1 9.872735e-003 -9.872735e-003 1 1.5128 -1.1511)" fill="#263238" cx="117.3" cy="152.6" rx="1" ry="0.1"/>
				</g>
				<g>
					
						<ellipse transform="matrix(1 9.012703e-003 -9.012703e-003 1 1.381 -1.0867)" fill="#263238" cx="121.3" cy="152.7" rx="1" ry="0.1"/>
				</g>
				<g>
					
						<ellipse transform="matrix(1 8.807885e-003 -8.807885e-003 1 1.35 -1.0966)" fill="#263238" cx="125.2" cy="152.7" rx="1" ry="0.1"/>
				</g>
				<g>
					
						<ellipse transform="matrix(1 9.217532e-003 -9.217532e-003 1 1.4135 -1.1834)" fill="#263238" cx="129.1" cy="152.8" rx="1" ry="0.1"/>
				</g>
				<g>
					
						<ellipse transform="matrix(0.9999 1.032415e-002 -1.032415e-002 0.9999 1.5845 -1.365)" fill="#263238" cx="133" cy="152.8" rx="1" ry="0.1"/>
				</g>
				<g>
					
						<ellipse transform="matrix(0.9999 1.208631e-002 -1.208631e-002 0.9999 1.8572 -1.6437)" fill="#263238" cx="136.9" cy="152.8" rx="1" ry="0.1"/>
				</g>
				<g>
					
						<ellipse transform="matrix(0.9999 1.450370e-002 -1.450370e-002 0.9999 2.2323 -2.0265)" fill="#263238" cx="140.8" cy="152.9" rx="1" ry="0.1"/>
				</g>
				<g>
					
						<ellipse transform="matrix(0.9998 1.757709e-002 -1.757709e-002 0.9998 2.7108 -2.5206)" fill="#263238" cx="144.7" cy="153" rx="1" ry="0.1"/>
				</g>
				<g>
					
						<ellipse transform="matrix(0.9998 2.126437e-002 -2.126437e-002 0.9998 3.2876 -3.1266)" fill="#263238" cx="148.7" cy="153" rx="1" ry="0.1"/>
				</g>
				<g>
					
						<ellipse transform="matrix(0.9997 2.552447e-002 -2.552447e-002 0.9997 3.958 -3.8445)" fill="#263238" cx="152.6" cy="153.1" rx="1" ry="0.1"/>
				</g>
				<g>
					
						<ellipse transform="matrix(0.9995 3.033688e-002 -3.033688e-002 0.9995 4.7205 -4.6768)" fill="#263238" cx="156.5" cy="153.2" rx="1" ry="0.1"/>
				</g>
				<g>
					
						<ellipse transform="matrix(0.9994 3.564112e-002 -3.564112e-002 0.9994 5.5677 -5.6195)" fill="#263238" cx="160.4" cy="153.4" rx="1" ry="0.1"/>
				</g>
				<g>
					
						<ellipse transform="matrix(0.9992 4.067887e-002 -4.067887e-002 0.9992 6.3793 -6.5378)" fill="#263238" cx="163.8" cy="153.5" rx="0.5" ry="0.1"/>
				</g>
			</g>
			<g>
				<path fill="#263238" d="M164.6,124.9c0,0-0.2,0-0.4-0.1c-0.3-0.1-0.7-0.2-1.2-0.4c-1-0.4-2.3-1-3.6-1.9c-1.3-0.9-2.3-2-3-2.8
					c-0.3-0.4-0.6-0.7-0.7-1c-0.2-0.2-0.2-0.4-0.2-0.4c0,0,0.4,0.5,1.1,1.3c0.7,0.8,1.7,1.8,3,2.7c1.3,0.9,2.6,1.6,3.5,1.9
					C164,124.7,164.6,124.9,164.6,124.9z"/>
			</g>
			<g>
				<path fill="#263238" d="M118,165c0,0-0.1-0.1-0.1-0.3c-0.1-0.2-0.1-0.6-0.2-1c-0.2-0.8-0.4-2-0.6-3.2c-0.2-1.3-0.3-2.4-0.3-3.3
					c0-0.4,0-0.8,0-1c0-0.2,0-0.4,0-0.4c0,0,0.1,0.5,0.2,1.3c0.1,0.8,0.2,2,0.4,3.3c0.2,1.3,0.4,2.4,0.5,3.2
					C117.9,164.5,118,165,118,165z"/>
			</g>
			<g>
				<path fill="#263238" d="M118.7,155.8c0.1,0-0.3,1.4-0.4,3.2c-0.1,1.8,0.2,3.2,0.1,3.3c0,0-0.1-0.3-0.2-0.9
					c-0.1-0.6-0.2-1.4-0.1-2.3c0-0.9,0.2-1.7,0.3-2.3C118.5,156.1,118.6,155.8,118.7,155.8z"/>
			</g>
			<g>
				<path fill="#263238" d="M120.9,165.1c0,0,0.1-0.5,0.2-1.3c0.1-0.8,0.1-2-0.1-3.2c-0.2-1.3-0.4-2.4-0.6-3.2
					c-0.2-0.8-0.3-1.3-0.3-1.3c0,0,0.2,0.5,0.4,1.3c0.2,0.8,0.5,1.9,0.6,3.2c0.2,1.3,0.1,2.4,0,3.3c-0.1,0.4-0.1,0.7-0.2,1
					C120.9,165,120.9,165.1,120.9,165.1z"/>
			</g>
			<g>
				<path fill="#263238" d="M122.7,159.8c0,0-0.5-0.8-0.8-1.9c-0.3-1.1-0.3-2-0.2-2c0.1,0,0.1,0.9,0.4,2
					C122.4,159,122.7,159.8,122.7,159.8z"/>
			</g>
			<g>
				<path fill="#263238" d="M124.9,156c0.1,0,0.2,1,0.2,2.4c0,0.7-0.1,1.3-0.2,1.7c-0.1,0.4-0.3,0.6-0.3,0.6c0,0,0.1-0.3,0.2-0.7
					c0.1-0.4,0.2-1,0.1-1.6C124.9,157.1,124.9,156,124.9,156z"/>
			</g>
			<g>
				<path fill="#263238" d="M127.2,166c0,0-0.1-0.1-0.2-0.4c0-0.1-0.1-0.3-0.1-0.4c0-0.2-0.1-0.4-0.1-0.6c-0.2-0.9-0.2-2.2-0.1-3.6
					c0-0.7,0-1.4,0-2c0-0.6-0.1-1.1-0.2-1.6c-0.2-0.9-0.4-1.4-0.4-1.4c0,0,0.1,0.1,0.2,0.3c0.1,0.1,0.1,0.3,0.2,0.4
					c0.1,0.2,0.1,0.4,0.2,0.6c0.1,0.4,0.2,1,0.2,1.6c0,0.6,0,1.3,0,2c0,1.4-0.1,2.6,0.1,3.5C127.1,165.5,127.3,166,127.2,166z"/>
			</g>
			<g>
				<path fill="#263238" d="M128.9,161.7c0,0,0.1-0.3,0.1-0.8c0-0.5,0-1.2-0.1-2c-0.1-0.8-0.1-1.5,0-2c0.1-0.5,0.3-0.8,0.3-0.8
					c0,0-0.1,0.3-0.1,0.8c-0.1,0.5,0,1.2,0.1,2c0.1,0.8,0.2,1.5,0.1,2C129.1,161.5,129,161.8,128.9,161.7z"/>
			</g>
			<g>
				<path fill="#263238" d="M130.7,163.9c0,0,0.1-0.4,0.2-1.1c0.1-0.7,0.1-1.7,0-2.8c-0.1-1.1,0-2.1,0.1-2.8
					c0.1-0.4,0.1-0.6,0.2-0.8c0.1-0.2,0.1-0.3,0.1-0.3c0,0-0.1,0.4-0.2,1.1c-0.1,0.7-0.1,1.7,0,2.8c0.1,1.1,0,2.1-0.1,2.8
					c-0.1,0.4-0.1,0.6-0.2,0.8C130.7,163.8,130.7,163.9,130.7,163.9z"/>
			</g>
			<g>
				<path fill="#263238" d="M133.9,163.3c0,0-0.2-0.4-0.4-1c-0.2-0.6-0.4-1.5-0.5-2.5c-0.1-1-0.1-1.9,0-2.5c0-0.6,0.1-1,0.1-1
					c0,0,0,0.4,0,1c0,0.6,0,1.5,0.1,2.5c0.1,1,0.3,1.9,0.4,2.5C133.8,162.9,133.9,163.3,133.9,163.3z"/>
			</g>
			<g>
				<path fill="#263238" d="M135.4,155.6c0.1,0-0.2,0.8-0.3,1.8c-0.1,1,0,1.8,0,1.8c0,0-0.3-0.8-0.2-1.8
					C135,156.3,135.4,155.6,135.4,155.6z"/>
			</g>
			<g>
				<path fill="#263238" d="M136.2,164.6c0,0,0.5-0.2,0.9-0.9c0.2-0.3,0.3-0.8,0.4-1.3c0-0.5,0-1.1-0.2-1.7
					c-0.1-0.6-0.3-1.2-0.4-1.7c-0.1-0.5-0.2-1-0.2-1.4c0-0.4,0-0.7,0.1-1c0.1-0.2,0.1-0.3,0.1-0.3c0,0-0.1,0.5,0,1.3
					c0,0.4,0.1,0.9,0.3,1.4c0.1,0.5,0.3,1.1,0.4,1.7c0.1,0.6,0.2,1.2,0.2,1.8c-0.1,0.5-0.2,1-0.4,1.4c-0.2,0.4-0.5,0.6-0.7,0.7
					C136.4,164.6,136.2,164.6,136.2,164.6z"/>
			</g>
			<g>
				<path fill="#263238" d="M140.2,163.6c0,0-0.2-0.4-0.5-1c-0.3-0.7-0.6-1.6-0.8-2.6c-0.3-1-0.4-2-0.5-2.7
					c-0.1-0.7-0.1-1.1-0.1-1.1c0,0,0.1,0.4,0.2,1.1c0.1,0.7,0.3,1.6,0.6,2.7c0.3,1,0.6,2,0.8,2.6
					C140.1,163.2,140.2,163.6,140.2,163.6z"/>
			</g>
			<g>
				<path fill="#263238" d="M142.9,163.1c0,0-0.1-0.4-0.3-1c-0.2-0.6-0.6-1.4-1-2.3c-0.4-0.9-0.7-1.7-0.7-2.4c-0.1-0.6,0-1,0-1
					c0,0,0,0.4,0.1,1c0.1,0.6,0.4,1.4,0.8,2.3c0.4,0.9,0.8,1.7,0.9,2.3C142.9,162.7,143,163.1,142.9,163.1z"/>
			</g>
			<g>
				<path fill="#263238" d="M145,164.7c0,0,0.2-0.5,0.4-1.3c0.2-0.8,0.1-2-0.4-3.1c-0.3-0.6-0.5-1.1-0.8-1.6c-0.2-0.5-0.4-1-0.5-1.4
					c-0.1-0.4-0.1-0.8,0-1c0-0.2,0.1-0.4,0.1-0.4c0,0-0.1,0.5,0.1,1.3c0.1,0.4,0.3,0.9,0.5,1.3c0.2,0.5,0.5,1,0.8,1.6
					c0.3,0.6,0.4,1.2,0.5,1.7c0,0.6,0,1.1-0.1,1.5c-0.1,0.4-0.2,0.7-0.3,0.9C145.1,164.6,145,164.7,145,164.7z"/>
			</g>
			<g>
				<path fill="#263238" d="M147.5,160c0,0-0.6-0.7-0.9-1.7c-0.3-1-0.2-1.9-0.1-1.9c0.1,0,0,0.9,0.3,1.9
					C147.1,159.3,147.6,160,147.5,160z"/>
			</g>
			<g>
				<path fill="#263238" d="M148.6,156.1c0,0,0,0.3,0.2,0.8c0.1,0.2,0.2,0.5,0.4,0.7c0.2,0.3,0.4,0.6,0.5,1c0.2,0.7,0.1,1.4,0.1,1.9
					c0,0.5,0,0.8-0.1,0.8c0,0-0.1-0.3-0.1-0.8c0-0.5,0-1.2-0.2-1.8c-0.1-0.3-0.3-0.6-0.4-0.9c-0.2-0.3-0.3-0.6-0.3-0.8
					C148.5,156.4,148.5,156.1,148.6,156.1z"/>
			</g>
			<g>
				<path fill="#263238" d="M152.9,162.2c0,0,0.2-0.3,0.1-0.9c0-0.3-0.2-0.6-0.4-0.9c-0.2-0.3-0.4-0.6-0.6-1
					c-0.4-0.8-0.6-1.6-0.6-2.2c0-0.6,0.1-0.9,0.1-0.9c0,0,0,0.4,0,0.9c0,0.6,0.2,1.3,0.6,2.1c0.2,0.4,0.4,0.7,0.6,1
					c0.2,0.3,0.3,0.7,0.3,1C153.2,161.9,152.9,162.2,152.9,162.2z"/>
			</g>
			<g>
				<path fill="#263238" d="M156.6,161.3c0,0-0.3-0.1-0.7-0.5c-0.4-0.4-0.9-0.9-1.3-1.6c-0.4-0.7-0.6-1.4-0.7-1.9
					c-0.1-0.5-0.1-0.9-0.1-0.9c0.1,0,0.2,1.3,1,2.7C155.5,160.5,156.6,161.2,156.6,161.3z"/>
			</g>
			<g>
				<path fill="#263238" d="M159.4,162.4c0,0,0.1-0.4-0.1-1.1c-0.1-0.3-0.3-0.7-0.6-1c-0.3-0.3-0.7-0.7-1.1-1
					c-0.4-0.3-0.8-0.6-1.2-0.9c-0.3-0.3-0.6-0.7-0.8-1c-0.2-0.3-0.2-0.6-0.3-0.8c0-0.2,0-0.3,0-0.3c0,0,0,0.4,0.4,1
					c0.2,0.3,0.4,0.6,0.8,0.9c0.3,0.3,0.8,0.6,1.2,0.9c0.4,0.3,0.8,0.7,1.1,1c0.3,0.4,0.5,0.8,0.6,1.1c0.1,0.3,0.1,0.6,0.1,0.8
					C159.4,162.3,159.4,162.4,159.4,162.4z"/>
			</g>
			<g>
				<path fill="#263238" d="M161,160.3c0,0-0.9-0.6-1.4-1.8c-0.5-1.2-0.4-2.3-0.4-2.3c0.1,0,0,1,0.6,2.2
					C160.2,159.6,161,160.2,161,160.3z"/>
			</g>
			<g>
				<path fill="#263238" d="M162.7,162.9c0,0,0.2-0.3,0.4-0.9c0.2-0.6,0.3-1.5-0.1-2.3c-0.2-0.4-0.5-0.8-0.7-1.1
					c-0.2-0.3-0.4-0.7-0.6-0.9c-0.3-0.6-0.2-1-0.1-1c0,0,0,0.4,0.3,0.9c0.1,0.3,0.3,0.6,0.6,0.9c0.2,0.3,0.5,0.7,0.7,1.1
					c0.4,0.9,0.3,1.8,0.1,2.4c-0.1,0.3-0.3,0.5-0.4,0.7C162.8,162.8,162.7,162.9,162.7,162.9z"/>
			</g>
			<g>
				<path fill="#263238" d="M166.8,160.3c0,0-1.1-0.4-1.9-1.5c-0.8-1.1-0.9-2.2-0.9-2.2c0.1,0,0.3,1.1,1.1,2.1
					C165.9,159.7,166.8,160.3,166.8,160.3z"/>
			</g>
			<g>
				<path fill="#263238" d="M113.5,160.8c-0.1,0,0.7-1,0.8-2.5c0.2-1.4-0.3-2.6-0.2-2.6c0,0,0.2,0.3,0.3,0.7
					c0.1,0.5,0.2,1.1,0.1,1.9c-0.1,0.7-0.3,1.4-0.6,1.8C113.7,160.6,113.5,160.8,113.5,160.8z"/>
			</g>
		</g>
		<g>
			<path fill="#FFBF9D" d="M132.4,61.4l3.8-1l13.7-2.5l6.8,1.9c0,0-6.8,7.1-9.6,7.7C140.8,68.6,132.4,61.4,132.4,61.4z"/>
			<path fill="#FF4F5B" d="M163.6,54.9l-11.8,2.1c0,0-2.2,14.5-18.7,4.3c0,0-7.8-0.4-10.6,3.5c-2.1,2.8-7.5,17.1-7.5,17.1l10.9,9.1
				l1.4,7c0,0-6,5.5-5.7,9.4c0,0,15,11.8,25.3,10.4c10.3-1.4,15.7-6.5,15.7-6.5l4.6-40.1l8.5,2.4l1.2-13.9L163.6,54.9z"/>
			<g>
				<path fill="#263238" d="M136.5,104.4c0,0-0.2,0-0.4-0.1c-0.3-0.1-0.6-0.3-1.1-0.5c-0.9-0.4-2.2-1.1-3.5-2
					c-1.3-0.9-2.3-1.8-3.1-2.5c-0.4-0.4-0.6-0.7-0.8-0.9c-0.2-0.2-0.3-0.3-0.3-0.3c0,0,0.5,0.4,1.2,1.1c0.7,0.7,1.8,1.6,3.1,2.5
					c1.3,0.9,2.5,1.6,3.4,2C136,104.2,136.5,104.4,136.5,104.4z"/>
			</g>
			<g>
				<path fill="#263238" d="M144.3,89.3c0,0-0.1,0.2-0.3,0.4c-0.2,0.3-0.5,0.7-1,1.1c-0.9,0.8-2.4,1.8-4.3,2.1
					c-1.9,0.3-3.6,0-4.8-0.5c-0.6-0.2-1-0.5-1.3-0.6c-0.3-0.2-0.4-0.3-0.4-0.3c0,0,0.6,0.4,1.8,0.8c1.1,0.4,2.8,0.7,4.7,0.4
					c1.8-0.3,3.3-1.2,4.2-2C143.9,89.9,144.3,89.2,144.3,89.3z"/>
			</g>
			<g opacity="0.3">
				<path d="M127.3,98c0.8,1.4,2.1,2.2,3.4,3.1c1.9,1.4,4,2.8,6.4,3.2c0.4,0.1,0.8,0.1,1.2,0c0.4-0.1,0.7-0.4,0.8-0.8
					c0.1-0.5-0.3-1-0.8-1.2c-0.5-0.2-1-0.2-1.5-0.2C133.1,101.9,129.8,99.9,127.3,98"/>
			</g>
			<g opacity="0.3">
				<path d="M132.9,92c1.2,1.1,2.6,2.2,4.1,2.7c1.5,0.6,3.4,0.7,4.8-0.2c1.4-0.8,2.3-2.7,1.6-4.3c-2.9,2.5-6.7,2.9-10.4,1.7"/>
			</g>
			<g>
				
					<ellipse transform="matrix(-0.176 -0.9844 0.9844 -0.176 62.364 224.0345)" fill="#263238" cx="124.9" cy="85.9" rx="6.4" ry="0.1"/>
			</g>
			<g>
				
					<ellipse transform="matrix(0.9266 -0.3761 0.3761 0.9266 -22.1173 61.5991)" fill="#263238" cx="146.7" cy="87.4" rx="1.2" ry="0.1"/>
			</g>
			<g opacity="0.3">
				<path d="M147.9,63.9c-0.4,2.7-0.8,5.4-0.7,8.1c0.1,2.7,0.9,5.5,2.5,7.6c1.3,1.7,3.1,2.9,4.7,4.2c1.6,1.4,3.2,3,3.7,5.1
					c0.3,1.3,0.2,2.7,0.2,4c0,0.5,0.2,1.3,0.7,1.2c0.2,0,0.3-0.1,0.5-0.2c2.6-1.8,4.4-4.7,5-7.8c0.6-3.1-0.1-6.5-1.9-9.1
					c-2.9-4.3-8.4-6.6-10.3-11.4"/>
			</g>
			<g>
				
					<ellipse transform="matrix(0.1019 -0.9948 0.9948 0.1019 82.9568 227.5378)" fill="#263238" cx="167.5" cy="67.8" rx="4.6" ry="0.1"/>
			</g>
			<g>
				<path fill="#FAFAFA" d="M167.1,71.6c0,0,0,0.1-0.1,0.3c-0.1,0.2-0.2,0.5-0.5,0.8c-0.6,0.6-1.7,1.3-3.3,1.4
					c-1.6,0.1-3.5-0.2-5.7,0.3c-2.1,0.5-4.5,1.7-6.3,3.9c-1.7,2.2-2.8,5.3-2.4,8.5c0.1,0.8,0.3,1.6,0.6,2.4c0.3,0.8,0.9,1.5,1.6,2
					c0.7,0.5,1.6,0.6,2.5,0.5c0.9-0.1,1.7-0.5,2.5-1c1.5-1.1,2.5-2.8,2.9-4.7c0.4-1.9,0.1-4-0.9-5.7c-0.5-0.8-1.2-1.6-2.1-2.2
					c-0.8-0.6-1.8-1-2.8-1.3c-1-0.3-2.1-0.3-3.1-0.2c-0.5,0.1-1,0.2-1.5,0.4c-0.5,0.2-1,0.4-1.4,0.7c-1.8,1.1-3.3,2.6-4.8,4
					c-1.5,1.4-3.1,2.8-5,3.5c-0.9,0.4-2,0.6-3,0.6c-1,0-2-0.3-2.8-0.9c-1.7-1.1-2.8-2.8-3.2-4.6c-0.9-3.6,0.6-7.6,3.4-9.4
					c0.7-0.4,1.5-0.7,2.4-0.6c0.8,0.1,1.6,0.4,2.1,1c0.3,0.3,0.5,0.7,0.5,1c0.1,0.4,0.1,0.8,0,1.1c-0.2,0.7-0.6,1.4-1.2,1.8
					c-0.6,0.4-1.2,0.7-1.9,0.8c-0.3,0.1-0.7,0.1-1,0.2c-0.3,0-0.6,0-1,0c-1.3,0-2.5-0.2-3.5-0.6c-1.1-0.4-2-0.8-2.8-1.4
					c-0.8-0.5-1.5-1.1-2-1.7c-1.1-1.1-1.7-2.2-2-3c-0.2-0.4-0.3-0.7-0.4-0.9c-0.1-0.2-0.1-0.3-0.1-0.3s0,0.1,0.1,0.3
					c0.1,0.2,0.2,0.5,0.4,0.9c0.3,0.7,1,1.8,2.1,2.9c0.5,0.6,1.2,1.1,2,1.7c0.8,0.5,1.7,1,2.8,1.3c1,0.4,2.2,0.6,3.5,0.6
					c0.3,0,0.6,0,1,0c0.3,0,0.6-0.1,1-0.2c0.6-0.1,1.3-0.4,1.8-0.8c0.5-0.4,1-1,1.2-1.7c0.1-0.3,0.1-0.7,0-1.1
					c-0.1-0.4-0.3-0.7-0.5-1c-0.5-0.6-1.2-0.9-2-1c-0.8-0.1-1.6,0.2-2.3,0.6c-2.8,1.7-4.3,5.6-3.3,9.2c0.5,1.8,1.5,3.5,3.2,4.5
					c0.8,0.5,1.8,0.8,2.7,0.8c1,0,2-0.2,2.9-0.5c1.9-0.8,3.5-2.1,5-3.5c1.5-1.4,3-3,4.9-4.1c0.5-0.3,1-0.5,1.5-0.7
					c0.5-0.2,1-0.3,1.6-0.4c1.1-0.2,2.1-0.1,3.2,0.2c1,0.3,2,0.7,2.8,1.3c0.8,0.6,1.6,1.4,2.1,2.2c1.1,1.7,1.3,3.9,0.9,5.8
					c-0.4,1.9-1.4,3.7-3,4.8c-0.8,0.5-1.6,0.9-2.6,1.1c-0.9,0.1-1.9,0-2.6-0.5c-0.8-0.5-1.3-1.2-1.6-2c-0.4-0.8-0.5-1.6-0.6-2.5
					c-0.4-3.3,0.7-6.5,2.5-8.7c1.8-2.2,4.2-3.4,6.4-3.9c2.2-0.5,4.2-0.1,5.7-0.3c1.6-0.1,2.7-0.7,3.3-1.3
					C167,72,167.1,71.6,167.1,71.6z"/>
			</g>
			<g>
				<path fill="#FAFAFA" d="M170.8,57.8c0,0-0.1,0.1-0.4,0.4c-0.3,0.2-0.7,0.5-1.3,0.8c-1.2,0.6-3,1.1-5,0.8c-2-0.3-3.7-1.2-4.6-2
					c-0.5-0.4-0.9-0.8-1.1-1.1c-0.2-0.3-0.3-0.5-0.3-0.5c0,0,0.5,0.6,1.5,1.5c1,0.8,2.6,1.7,4.6,2c2,0.2,3.7-0.2,4.9-0.8
					C170.2,58.3,170.8,57.7,170.8,57.8z"/>
			</g>
			<g>
				<path fill="#FAFAFA" d="M176.7,65.3c0,0-0.5,0.2-1.2,0.7c-0.4,0.2-0.8,0.5-1.2,0.9c-0.4,0.4-0.8,0.8-1.2,1.3
					c-0.4,0.5-0.7,1-0.9,1.5c-0.2,0.5-0.4,1-0.5,1.4c-0.2,0.8-0.3,1.3-0.3,1.3c0,0,0-0.1,0-0.4c0-0.1,0-0.3,0-0.4
					c0-0.2,0-0.4,0.1-0.6c0.1-0.4,0.2-0.9,0.5-1.4c0.2-0.5,0.5-1.1,0.9-1.6c0.4-0.5,0.8-1,1.2-1.3c0.4-0.4,0.8-0.6,1.2-0.9
					c0.2-0.1,0.4-0.2,0.5-0.3c0.2-0.1,0.3-0.1,0.4-0.2C176.6,65.4,176.7,65.3,176.7,65.3z"/>
			</g>
			<g>
				<path fill="#FAFAFA" d="M119.9,86.3c0,0-0.1-0.5-0.2-1.3c-0.1-0.8-0.4-1.9-0.9-3.1c-0.5-1.2-1.1-2.2-1.5-2.8
					c-0.5-0.7-0.8-1.1-0.8-1.1c0,0,0.1,0.1,0.3,0.3c0.2,0.2,0.4,0.4,0.6,0.8c0.5,0.7,1.1,1.7,1.6,2.9c0.5,1.2,0.7,2.3,0.8,3.2
					c0.1,0.4,0.1,0.8,0.1,1C119.9,86.2,119.9,86.3,119.9,86.3z"/>
			</g>
			<g>
				<path fill="#FAFAFA" d="M163.1,102.2c0,0-0.1-0.1-0.5-0.4c-0.3-0.2-0.8-0.5-1.5-0.7c-0.7-0.1-1.6-0.1-2.6,0.1
					c-1,0.3-2,0.9-3.1,1.7c-1,0.8-2.1,1.8-3.4,2.7c-0.6,0.4-1.4,0.8-2.1,1.1c-0.8,0.3-1.7,0.4-2.5,0.3c-1.8-0.1-3.6-1-4.7-2.6
					c-1.1-1.6-1.4-3.8-0.8-5.7c0.3-1,0.9-1.9,1.8-2.4c0.4-0.3,0.9-0.4,1.4-0.4c0.5,0,1,0.3,1.3,0.6c0.3,0.4,0.6,0.9,0.5,1.4
					c-0.1,0.5-0.4,0.9-0.9,1.1c-0.9,0.4-1.8,0.4-2.6,0.5c-3.5,0.2-6.7-0.2-9.2-1c-2.5-0.7-4.5-1.7-5.7-2.4c-0.6-0.4-1.1-0.7-1.4-0.9
					c-0.2-0.1-0.3-0.2-0.4-0.3c-0.1-0.1-0.1-0.1-0.1-0.1s0,0,0.1,0.1c0.1,0.1,0.2,0.1,0.4,0.2c0.3,0.2,0.8,0.5,1.5,0.9
					c1.3,0.7,3.2,1.6,5.7,2.4c2.5,0.7,5.7,1.2,9.1,0.9c0.9-0.1,1.8-0.1,2.6-0.5c0.4-0.2,0.7-0.6,0.8-1c0.1-0.4-0.1-0.9-0.4-1.2
					c-0.3-0.3-0.7-0.6-1.2-0.6c-0.5,0-0.9,0.1-1.3,0.4c-0.8,0.5-1.3,1.4-1.7,2.3c-0.6,1.9-0.3,4,0.8,5.5c1.1,1.5,2.8,2.4,4.5,2.6
					c0.9,0.1,1.7,0,2.5-0.3c0.8-0.3,1.5-0.7,2.1-1.1c1.3-0.9,2.3-1.9,3.4-2.6c1.1-0.8,2.1-1.4,3.1-1.7c1-0.3,2-0.3,2.7-0.1
					c0.7,0.2,1.2,0.5,1.5,0.7c0.2,0.1,0.3,0.2,0.3,0.3C163.1,102.2,163.1,102.2,163.1,102.2z"/>
			</g>
			<g>
				<path fill="#FAFAFA" d="M132.8,113.5c0,0-0.1-0.2-0.2-0.6c-0.1-0.4-0.2-0.9-0.5-1.6c-0.4-1.3-1.2-3-2.5-4.7
					c-0.6-0.8-1.3-1.6-1.9-2.2c-0.7-0.6-1.3-1.1-1.9-1.5c-0.6-0.3-1.1-0.5-1.5-0.6c-0.4-0.1-0.6,0-0.6-0.1c0,0,0.1,0,0.2,0
					c0.1,0,0.3,0,0.4,0c0.4,0,0.9,0.2,1.6,0.5c0.6,0.3,1.3,0.8,1.9,1.5c0.7,0.6,1.4,1.4,2,2.2c1.3,1.7,2,3.5,2.4,4.8
					c0.2,0.7,0.3,1.2,0.4,1.6C132.8,113.2,132.9,113.4,132.8,113.5z"/>
			</g>
			<g>
				<path fill="#FAFAFA" d="M161.8,112.1c0,0-0.8,0-2.1,0c-0.7,0-1.4,0.1-2.3,0.3c-0.8,0.2-1.8,0.5-2.7,0.8
					c-0.9,0.4-1.8,0.8-2.5,1.3c-0.7,0.5-1.4,0.9-1.9,1.3c-1,0.8-1.5,1.5-1.6,1.4c0,0,0.1-0.2,0.4-0.4c0.1-0.1,0.3-0.3,0.5-0.5
					c0.2-0.2,0.4-0.4,0.6-0.6c0.5-0.4,1.1-0.9,1.9-1.4c0.7-0.5,1.6-0.9,2.5-1.3c0.9-0.4,1.9-0.6,2.7-0.8c0.9-0.2,1.6-0.3,2.3-0.3
					c0.3,0,0.6,0,0.9,0c0.3,0,0.5,0,0.7,0C161.6,112.1,161.8,112.1,161.8,112.1z"/>
			</g>
		</g>
		<g>
			<path fill="#FFBF9D" d="M105.4,58.2c0,0,3.2,2.7,3.6,4.8c0.2,0.9,1.8,8.1,1.8,8.1l-7.2,2.4c0,0-0.3-1.7-1.8-2.6
				c-1.4-0.9-5.2-3.5-5.2-3.5l-1.2-9.2l3.2-2.8l0.1-4.7c0,0,1.2,0,1.4,1.4c0.2,1.4,1.6,3.8,1.6,3.8L105.4,58.2z"/>
			<path fill="#FFBF9D" d="M103.7,73.4c0,0,3.7,27.7,4.7,30.9c1,3.4,3.7,5.6,6.6,5.4c2.9-0.2,5.1-2.2,6-4.6
				c0.8-2.2,4.6-14.5,4.6-14.5l-9-7.6l-2.2,6.1l-3.5-18.1L103.7,73.4z"/>
			<g>
				<path fill="#FF9A6C" d="M106.5,66.6c0,0-0.9-0.7-1.3-2c-0.2-0.6-0.3-1.2-0.4-1.6c0-0.4,0-0.7,0-0.7c0.1,0,0.1,1.1,0.5,2.3
					C105.8,65.8,106.5,66.5,106.5,66.6z"/>
			</g>
			<g>
				<g>
					<polygon fill="#263238" points="99.6,50 98.6,63.6 104,67.2 104.5,66.9 105.4,54 100.5,50 					"/>
					<polygon fill="#FFFFFF" points="101.1,51.6 100.8,56.3 104.1,58.8 104.4,54.4 					"/>
					<g>
						<path fill="#375A64" d="M100.2,60.1c0,0,0,0,0-0.1c0-0.1,0.1-0.2,0.2-0.3c0.2-0.3,0.6-0.6,1.2-0.7c0.6-0.2,1.3,0,1.9,0.5
							c0.3,0.3,0.5,0.6,0.6,1.1c0.1,0.4,0.1,0.9-0.1,1.3c-0.2,0.4-0.5,0.8-0.9,1c-0.4,0.2-0.8,0.2-1.2,0.2c-0.8-0.1-1.4-0.5-1.7-1.1
							c-0.2-0.5-0.3-1-0.2-1.3C100.1,60.3,100.2,60.1,100.2,60.1c0,0-0.1,0.2-0.1,0.5c0,0.3,0,0.8,0.3,1.3c0.2,0.5,0.8,0.9,1.6,0.9
							c0.4,0,0.7,0,1.1-0.2c0.3-0.2,0.6-0.5,0.8-0.9c0.1-0.4,0.2-0.8,0.1-1.2c-0.1-0.4-0.3-0.7-0.5-1c-0.5-0.5-1.2-0.7-1.7-0.5
							c-0.5,0.1-0.9,0.4-1.1,0.6C100.3,60,100.3,60.2,100.2,60.1z"/>
					</g>
				</g>
				<g>
					<path fill="#375A64" d="M104.5,66.9c0,0-0.1-0.1-0.4-0.2c-0.3-0.2-0.6-0.4-1-0.7c-0.9-0.6-2.1-1.5-3.6-2.5l0,0l0-0.1
						c0.1-1.1,0.2-2.4,0.2-3.7c0.2-2.7,0.4-5.1,0.5-6.9c0.1-0.9,0.1-1.6,0.2-2.1c0-0.2,0-0.4,0.1-0.6c0-0.1,0-0.2,0-0.2
						c0,0,0,0.1,0,0.2c0,0.2,0,0.3,0,0.6c0,0.5-0.1,1.2-0.1,2.1c-0.1,1.8-0.3,4.2-0.4,6.9c-0.1,1.3-0.2,2.6-0.3,3.7l0-0.1
						c1.4,1,2.6,1.9,3.5,2.5c0.4,0.3,0.7,0.5,1,0.7C104.4,66.8,104.5,66.8,104.5,66.9z"/>
				</g>
			</g>
			<path fill="#FFBF9D" d="M98.7,55.3l4.1-0.2c0,0,0.2,1.6-0.8,1.8l-3.3,0.1l2.1,0.5l3.1,2.6c0,0-0.8,1-1.5,0.8
				c-0.7-0.2-2.1-1.3-2.1-1.3l-1.7,0.8l2.6,0.3l2.3,3.2c0,0-1.2,0.5-1.8,0.1c-0.6-0.4-1.2-1.4-1.2-1.4L98.9,63l-0.1,4l-2.1,0.3
				l-1.2-5.9l0.4-1l-0.4-2.2L98.7,55.3z"/>
			<g>
				<path fill="#FF9A6C" d="M100.9,57.7c0,0-0.7-0.1-1.7-0.4l0.1,0c-0.4,0.4-0.8,0.9-1.2,1.4c-0.7,0.7-1.3,1.4-1.7,1.9
					c-0.5,0.5-0.7,0.7-0.8,0.7c0,0,0.2-0.3,0.7-0.8c0.4-0.5,1-1.2,1.7-1.9c0.5-0.5,0.9-0.9,1.3-1.4l0,0l0.1,0
					C100.2,57.4,100.9,57.6,100.9,57.7z"/>
			</g>
			<g>
				<path fill="#FF9A6C" d="M96.3,62.9c0,0,0-0.2,0.2-0.5c0.2-0.3,0.4-0.7,0.7-1.1c0.2-0.2,0.3-0.4,0.4-0.6c0.2-0.2,0.4-0.3,0.5-0.3
					c0.2,0,0.3,0,0.4,0.1c0.1,0.1,0.1,0.1,0.1,0.1c0,0-0.2-0.1-0.5,0c-0.3,0.1-0.6,0.4-0.9,0.9C96.7,62.2,96.3,62.9,96.3,62.9z"/>
			</g>
			<g>
				<path fill="#FF9A6C" d="M114.4,96.4c0,0-0.1-0.4-0.1-1c0-0.7,0-1.5,0-2.5c0-1,0-1.8,0-2.5c0-0.6,0-1.1,0-1.1c0,0,0.1,0.4,0.1,1
					c0,0.7,0,1.5,0,2.5c0,1,0,1.8,0,2.5C114.4,96,114.4,96.4,114.4,96.4z"/>
			</g>
		</g>
		<g>
			<path fill="#263238" d="M139.4,22c0,0-0.1,0-0.2,0c-0.2,0-0.4,0-0.7,0c-0.6,0.1-1.5,0.1-2.5,0.4c-1,0.3-2.2,0.8-3.4,1.7
				c-0.6,0.4-1.1,0.9-1.7,1.5c-0.6,0.5-1.1,1.1-1.6,1.8c-1,1.3-1.8,2.7-2.4,4c-0.3,0.7-0.5,1.3-0.7,1.9c-0.1,0.6-0.2,1.2-0.2,1.7
				c0,1.1,0.1,1.9,0.3,2.5c0.1,0.3,0.2,0.5,0.2,0.6c0.1,0.1,0.1,0.2,0.1,0.2c0,0-0.2-0.3-0.4-0.8c-0.2-0.6-0.3-1.5-0.4-2.5
				c0-0.5,0-1.2,0.2-1.8c0.1-0.6,0.4-1.3,0.6-1.9c0.6-1.3,1.4-2.7,2.4-4c0.5-0.7,1-1.3,1.6-1.8c0.6-0.5,1.1-1.1,1.7-1.5
				c1.2-0.9,2.4-1.4,3.4-1.7c1.1-0.3,1.9-0.3,2.5-0.4c0.3,0,0.5,0,0.7,0C139.4,22,139.4,22,139.4,22z"/>
		</g>
		<g>
			
				<ellipse transform="matrix(0.9905 -0.1376 0.1376 0.9905 -3.4716 21.4338)" fill="#FF4F5B" cx="153.3" cy="35.8" rx="4.4" ry="5.7"/>
			<g>
				<path fill="#FFFFFF" d="M156.6,38.2c0,0,0.2-0.5,0.3-1.3c0.1-0.8,0.1-2-0.3-3.1c-0.4-1.2-1.2-2-1.9-2.5
					c-0.7-0.5-1.2-0.6-1.2-0.6c0,0,0.1,0,0.4,0.1c0.2,0.1,0.5,0.2,0.9,0.4c0.7,0.4,1.6,1.3,2,2.5c0.5,1.2,0.4,2.4,0.2,3.2
					c-0.1,0.4-0.2,0.7-0.3,0.9C156.7,38.1,156.6,38.2,156.6,38.2z"/>
			</g>
		</g>
		<g>
			<path fill="#263238" d="M158.4,56.9c0,0,0.1-0.2,0.4-0.6c0.3-0.4,0.6-1,1-1.7c0.4-0.8,0.7-1.7,0.8-2.8c0.1-1.1-0.2-2.3-0.8-3.5
				c-0.6-1.1-1.4-2.1-2.1-2.9c-0.7-0.9-1.3-1.7-1.8-2.4c-0.4-0.7-0.6-1.4-0.7-1.9c0-0.2-0.1-0.4-0.1-0.5c0-0.1,0-0.2,0-0.2
				c0,0,0.1,0.3,0.2,0.7c0.1,0.5,0.3,1.1,0.8,1.8c0.4,0.7,1.1,1.5,1.8,2.4c0.7,0.9,1.5,1.8,2.2,3c0.6,1.2,0.9,2.4,0.8,3.6
				c-0.1,1.1-0.5,2.1-0.9,2.9c-0.4,0.8-0.8,1.3-1.1,1.7c-0.1,0.2-0.3,0.3-0.3,0.4C158.5,56.8,158.4,56.9,158.4,56.9z"/>
		</g>
		<g>
			<g>
				<path fill="#263238" d="M129.4,58.2c-0.3,3.1,2.2,5.6,3.2,8.5c1.2,3.6-0.2,7.9-3.3,10.1c3,0.5,6.1-1.4,7.5-4.1
					c1.4-2.7,1.1-6,0.3-8.9c-0.8-2.9-1-3.9-1-3.9"/>
				<g>
					<path fill="#263238" d="M139,23.1c0,0,0.4-2.6,3-2.1c2.7,0.5,6.9,1.5,9.1,5.9c2.3,4.4,4.7,15.6,4.7,16.1
						c0.1,0.5,2.7,18.4,4.2,20.6c1.3,2.1,3.1,2.5,3.1,2.5s-2.7,1.9-5.6-0.7s-8.4-13.5-8.4-13.5L139,23.1z"/>
					<g>
						<g>
							<g>
								<path fill="#FFBF9D" d="M129.6,32.6l-0.5-2l11.8-5.1c3.7-1.3,8.7,1.6,9.8,5.4c1.2,4.2,2.5,9.3,2.8,12.6
									c0.4,6.6-4.3,8.5-4.3,8.5l1.4,6.3l-14,3.3L129.6,32.6z"/>
							</g>
						</g>
						<g>
							<g>
								<g>
									<g>
										<g>
											<g>
												<g>
													<g>
														<g>
															<g>
																<g>
																	<path fill="#263238" d="M150.4,35.3c-0.1,0.1-0.8-0.2-1.7,0c-0.9,0.2-1.4,0.8-1.5,0.7c-0.1,0,0-0.3,0.2-0.5
																		c0.2-0.3,0.7-0.6,1.2-0.7c0.5-0.1,1.1,0,1.4,0.1C150.3,35.1,150.4,35.2,150.4,35.3z"/>
																</g>
															</g>
														</g>
													</g>
												</g>
											</g>
										</g>
									</g>
								</g>
							</g>
						</g>
						<g>
							<g>
								<g>
									<g>
										<g>
											<g>
												<g>
													<g>
														<g>
															<g>
																<g>
																	<path fill="#263238" d="M141.6,37.8c-0.1,0.1-0.8-0.2-1.7,0c-0.9,0.2-1.4,0.8-1.5,0.7c-0.1,0,0-0.3,0.2-0.5
																		c0.2-0.3,0.7-0.6,1.2-0.7c0.5-0.1,1.1,0,1.4,0.1C141.5,37.6,141.7,37.8,141.6,37.8z"/>
																</g>
															</g>
														</g>
													</g>
												</g>
											</g>
										</g>
									</g>
								</g>
							</g>
						</g>
						<g>
							<g>
								<g>
									<g>
										<g>
											<g>
												<g>
													<g>
														<g>
															<g>
																<path fill="#263238" d="M146,41.7c0,0,0.5-0.3,1.4-0.6c0.2-0.1,0.4-0.2,0.4-0.3c0-0.2-0.1-0.4-0.3-0.6
																	c-0.3-0.5-0.7-1-1-1.6c-1.5-2.2-2.6-4.1-2.5-4.1c0.1-0.1,1.4,1.7,2.8,3.9c0.4,0.6,0.7,1.1,1,1.6
																	c0.1,0.2,0.4,0.5,0.3,0.9c0,0.2-0.2,0.3-0.3,0.4c-0.1,0.1-0.3,0.1-0.4,0.1C146.5,41.6,146,41.8,146,41.7z"/>
															</g>
														</g>
													</g>
												</g>
											</g>
										</g>
									</g>
								</g>
							</g>
						</g>
						<g>
							<g>
								<g>
									<g>
										<g>
											<g>
												<g>
													<g>
														<g>
															<path fill="#FF9A6C" d="M149.1,51.9c0,0-4.4,1.3-9.3-0.3c0,0,3.2,4,9.6,1.9L149.1,51.9z"/>
														</g>
													</g>
												</g>
											</g>
										</g>
									</g>
								</g>
							</g>
						</g>
						<g>
							<g>
								<g>
									<g>
										<g>
											<g>
												<g>
													<g>
														<g>
															<path fill="#FF4F5B" d="M146.1,43.9c-0.4-0.3-1-0.5-1.6-0.3c-0.4,0.1-0.7,0.4-0.9,0.8c-0.2,0.4-0.1,0.8,0.2,1.1
																c0.3,0.3,0.8,0.2,1.2,0c0.4-0.2,0.7-0.6,1-0.9c0.1-0.1,0.2-0.2,0.2-0.3C146.2,44.1,146.2,44,146.1,43.9"/>
														</g>
													</g>
												</g>
											</g>
										</g>
									</g>
								</g>
							</g>
						</g>
						<g>
							<g>
								<g>
									<g>
										<g>
											<g>
												<g>
													<g>
														<g>
															<g>
																<path fill="#263238" d="M143.5,42.9c0.1,0,0.4,0.9,1.3,1.4c1,0.5,2,0.2,2,0.3c0,0.1-0.2,0.2-0.6,0.3
																	c-0.4,0.1-1.1,0.1-1.7-0.2c-0.6-0.3-0.9-0.8-1.1-1.2C143.4,43.2,143.5,42.9,143.5,42.9z"/>
															</g>
														</g>
													</g>
												</g>
											</g>
										</g>
									</g>
								</g>
							</g>
						</g>
						<g>
							<g>
								<g>
									<g>
										<g>
											<g>
												<path fill="#263238" d="M140.8,33.2c0,0.3-0.9,0.3-1.9,0.7c-1,0.3-1.8,0.8-2,0.6c-0.1-0.1,0-0.3,0.3-0.7
													c0.3-0.3,0.8-0.6,1.4-0.9c0.6-0.2,1.2-0.2,1.6-0.2C140.6,33,140.8,33.1,140.8,33.2z"/>
											</g>
										</g>
									</g>
								</g>
							</g>
						</g>
						<g>
							<g>
								<g>
									<g>
										<g>
											<g>
												<path fill="#263238" d="M149,31.3c-0.1,0.2-0.8,0.2-1.5,0.3c-0.7,0.1-1.3,0.4-1.5,0.3c-0.1-0.1,0-0.3,0.2-0.6
													c0.2-0.2,0.6-0.5,1.1-0.6c0.5-0.1,1,0,1.3,0.1C148.9,31,149.1,31.2,149,31.3z"/>
											</g>
										</g>
									</g>
								</g>
							</g>
						</g>
					</g>
					<path fill="#263238" d="M133.4,40c3.4-2.8,5.1-8.6,6.9-12.7c0.4-0.9,0.8-1.9,0.5-2.8c-0.3-1-1.3-1.6-2.4-1.7
						c-1-0.1-2,0.2-3,0.7c-3.9,1.8-6.9,5.3-8.1,9.4c-0.4,1.3-0.1,4.1,0.9,4.9c1.2,0.9,2.6,0.1,3.8,1"/>
					<path fill="#263238" d="M152,49.4c2.3,2.6,4.1,6.6,4.1,10c0,3.2-1.1,6.7,0.4,9.5c1.4,2.5,4.5,3.6,6.5,5.7
						c2.3,2.4,3,6.1,2.2,9.3c-0.8,3.2-2.9,6-5.4,8.2c1.2-3.2,0.2-7.1-2.4-9.3c-1.6-1.4-3.7-2.1-5.4-3.5c-2.4-2-3.6-5.1-4-8.2
						c-0.3-3.1,0.1-6.2,0.5-9.3s0.8-6.7,0.2-9.8C150,51.9,151.2,50.8,152,49.4z"/>
					<g>
						<path fill="#263238" d="M141,23.6c0,0,0,0.2,0.1,0.7c0,0.2,0,0.5,0,0.8c0,0.3,0,0.7,0,1.1c0,0.2,0,0.4,0,0.6
							c0,0.2-0.1,0.5-0.1,0.7c0,0.5-0.2,1-0.3,1.5c-0.3,1.1-0.6,2.2-1.1,3.3c-0.5,1.1-1.1,2.2-1.8,3c-0.3,0.4-0.6,0.8-1,1.2
							c-0.2,0.2-0.3,0.4-0.5,0.5c-0.2,0.2-0.3,0.3-0.5,0.4c-0.3,0.3-0.6,0.5-0.8,0.7c-0.2,0.2-0.5,0.4-0.7,0.5
							c-0.4,0.3-0.6,0.4-0.6,0.4c0,0,0.2-0.2,0.5-0.5c0.2-0.1,0.4-0.3,0.6-0.5c0.2-0.2,0.5-0.5,0.8-0.7c0.1-0.1,0.3-0.3,0.4-0.5
							c0.2-0.2,0.3-0.3,0.5-0.5c0.3-0.4,0.6-0.8,0.9-1.2c0.6-0.9,1.2-1.9,1.7-3c0.5-1.1,0.9-2.2,1.1-3.3c0.1-0.5,0.2-1,0.3-1.5
							c0-0.2,0.1-0.5,0.1-0.7c0-0.2,0-0.4,0.1-0.6c0-0.4,0-0.8,0-1.1c0-0.3,0-0.6,0-0.8C140.9,23.8,140.9,23.6,141,23.6z"/>
					</g>
				</g>
				<g>
					<path fill="#263238" d="M138,73.3c0,0,0-0.1,0.1-0.3c0-0.2,0.1-0.4,0.2-0.8c0.2-0.7,0.4-1.6,0.6-2.9c0.4-2.4,0.3-6-1.1-9.5
						c-0.7-1.8-1.6-3.3-2.3-4.8c-0.8-1.5-1.4-2.8-1.8-4c-0.4-1.2-0.6-2.2-0.6-2.9c0-0.3,0-0.6,0-0.8c0-0.2,0-0.3,0-0.3
						c0,0,0,0.4,0.1,1.1c0.1,0.7,0.3,1.7,0.7,2.8c0.4,1.2,1.1,2.5,1.8,3.9c0.8,1.5,1.7,3,2.4,4.8c1.4,3.6,1.4,7.2,1,9.6
						c-0.2,1.2-0.5,2.2-0.7,2.9c-0.1,0.3-0.2,0.6-0.3,0.8C138,73.2,138,73.3,138,73.3z"/>
				</g>
			</g>
			<g>
				<path fill="#375A64" d="M131.2,37.7c0,0,0.2-0.2,0.5-0.4c0.2-0.1,0.3-0.3,0.5-0.5c0.2-0.2,0.5-0.4,0.7-0.7
					c0.5-0.5,1.1-1.2,1.7-1.9c0.6-0.8,1.2-1.6,1.8-2.6c0.6-1,1.1-1.9,1.5-2.8c0.4-0.9,0.7-1.7,0.9-2.4c0.1-0.3,0.2-0.7,0.3-0.9
					c0.1-0.3,0.2-0.5,0.2-0.7c0.1-0.4,0.2-0.6,0.2-0.6c0,0,0,0.2-0.1,0.6c0,0.2-0.1,0.4-0.2,0.7c-0.1,0.3-0.2,0.6-0.3,1
					c-0.2,0.7-0.5,1.5-0.9,2.4c-0.4,0.9-0.9,1.8-1.5,2.8c-0.6,1-1.2,1.8-1.8,2.6c-0.6,0.8-1.2,1.4-1.7,1.9c-0.3,0.3-0.5,0.5-0.7,0.7
					c-0.2,0.2-0.4,0.4-0.6,0.5C131.4,37.5,131.2,37.7,131.2,37.7z"/>
			</g>
			<g>
				<path fill="#375A64" d="M128.5,37.1c0,0,0-0.1,0-0.2c0-0.1,0-0.3,0-0.5c0.1-0.4,0.4-1,0.9-1.6c0.6-0.6,1.4-1,2.2-1.5
					c0.9-0.6,1.7-1.2,2.6-2c1.7-1.6,3-3.3,3.7-4.7c0.4-0.7,0.7-1.2,0.8-1.6c0.2-0.4,0.3-0.6,0.3-0.6c0,0-0.1,0.2-0.2,0.6
					c-0.2,0.4-0.4,1-0.8,1.7c-0.7,1.4-2,3.2-3.7,4.8c-0.9,0.8-1.8,1.5-2.6,2c-0.9,0.6-1.7,1-2.2,1.5c-0.6,0.5-0.9,1.1-1,1.5
					C128.4,36.9,128.5,37.1,128.5,37.1z"/>
			</g>
			<g>
				<path fill="#375A64" d="M131.7,76.7c0,0,0.1-0.1,0.2-0.2c0.1-0.1,0.2-0.1,0.3-0.2c0.1-0.1,0.2-0.2,0.3-0.3
					c0.5-0.5,1.2-1.4,1.6-2.6c0.5-1.2,0.8-2.8,0.7-4.5c-0.1-1.7-0.5-3.6-1.2-5.5c-0.6-1.9-1.4-3.7-1.9-5.4c-0.5-1.7-0.8-3.2-1-4.6
					c-0.1-1.3,0-2.4,0.1-3.1c0.1-0.4,0.1-0.6,0.2-0.8c0.1-0.2,0.1-0.3,0.1-0.3c0,0-0.1,0.4-0.2,1.1c-0.1,0.7-0.2,1.8-0.1,3.1
					c0.1,1.3,0.5,2.9,1,4.5c0.5,1.7,1.2,3.5,1.9,5.4c0.6,1.9,1.1,3.8,1.2,5.6c0.1,1.8-0.2,3.4-0.8,4.6c-0.5,1.2-1.2,2.1-1.7,2.6
					c-0.1,0.1-0.3,0.2-0.4,0.3c-0.1,0.1-0.2,0.2-0.3,0.2C131.8,76.7,131.7,76.7,131.7,76.7z"/>
			</g>
			<g>
				<path fill="#375A64" d="M128,61c0,0,0-0.2,0.1-0.5c0.1-0.4,0.2-0.8,0.3-1.3c0.3-1.1,0.6-2.6,0.9-4.3c0.3-1.7,0.5-3.3,0.7-4.4
					c0.1-0.5,0.1-1,0.2-1.3c0-0.3,0.1-0.5,0.1-0.5s0,0.2,0,0.5c0,0.3-0.1,0.8-0.1,1.3c-0.1,1.1-0.3,2.7-0.6,4.4
					c-0.3,1.7-0.7,3.2-0.9,4.3c-0.1,0.5-0.3,1-0.4,1.3C128,60.8,128,61,128,61z"/>
			</g>
		</g>
		<g>
			<g>
				<path fill="#FF4F5B" d="M134.3,42.4c0.4,3.1-1.2,5.9-3.6,6.2c-1.8,0.3-3.5-1.1-4.5-3c-0.3-0.6-0.5-1.3-0.7-2
					c-0.7-3.1,1.2-5.9,3.6-6.2C131.6,37.1,133.9,39.3,134.3,42.4z"/>
				
					<ellipse transform="matrix(0.9649 -0.2625 0.2625 0.9649 -6.8981 35.253)" fill="#FF4F5B" cx="128.5" cy="43.4" rx="2.9" ry="5.2"/>
				
					<ellipse transform="matrix(0.9649 -0.2625 0.2625 0.9649 -6.8981 35.253)" opacity="0.3" cx="128.5" cy="43.4" rx="2.9" ry="5.2"/>
				<g>
					<path fill="#263238" d="M130.5,37.4c0,0-0.4-0.1-1.1,0c-0.7,0.1-1.6,0.4-2.4,1c-0.8,0.6-1.2,1.6-1.3,2.3
						c-0.2,0.7-0.2,1.1-0.2,1.1c0,0,0-0.1,0-0.3c0-0.2,0-0.5,0.1-0.8c0.1-0.3,0.2-0.8,0.4-1.2c0.2-0.4,0.5-0.9,1-1.2
						c0.9-0.6,1.8-1,2.6-1c0.4,0,0.6,0,0.8,0.1C130.4,37.4,130.5,37.4,130.5,37.4z"/>
				</g>
				<g>
					<path fill="#263238" d="M126.5,38.7c0,0,0,0,0.1-0.1c0.1-0.1,0.2-0.1,0.4-0.2c0.3-0.1,0.9-0.1,1.5,0.2c0.6,0.3,1.2,0.8,1.7,1.6
						c0.5,0.7,0.9,1.6,1.2,2.6c0.3,1,0.4,1.9,0.3,2.8c-0.1,0.9-0.4,1.6-0.8,2.2c-0.4,0.6-0.9,0.8-1.3,0.8c-0.2,0-0.3,0-0.4,0
						c-0.1,0-0.1,0-0.1-0.1c0,0,0.2,0.1,0.6,0c0.3-0.1,0.9-0.3,1.2-0.8c0.3-0.5,0.6-1.3,0.7-2.1c0.1-0.8,0-1.8-0.3-2.7
						c-0.3-0.9-0.7-1.8-1.1-2.5c-0.4-0.7-1-1.3-1.6-1.5c-0.6-0.3-1.1-0.3-1.4-0.2C126.7,38.6,126.5,38.8,126.5,38.7z"/>
				</g>
			</g>
			<g>
				<path fill="#FFFFFF" d="M133.7,45.3c0,0,0.1-0.5,0.2-1.3c0.1-0.8,0-1.9-0.4-3.1c-0.4-1.1-1.2-2-1.8-2.6c-0.6-0.5-1-0.8-1-0.8
					c0,0,0.1,0,0.3,0.2c0.2,0.1,0.5,0.3,0.8,0.6c0.6,0.5,1.4,1.4,1.9,2.6c0.5,1.2,0.5,2.4,0.4,3.2c-0.1,0.4-0.1,0.7-0.2,0.9
					C133.7,45.2,133.7,45.3,133.7,45.3z"/>
			</g>
		</g>
		<g>
			
				<ellipse transform="matrix(0.9997 2.484037e-002 -2.484037e-002 0.9997 1.1533 -2.9067)" fill="#263238" cx="117.6" cy="45" rx="3.1" ry="0.1"/>
		</g>
		<g>
			
				<ellipse transform="matrix(0.8381 -0.5455 0.5455 0.8381 -7.3123 72.5278)" fill="#263238" cx="118.5" cy="48.6" rx="2" ry="0.1"/>
		</g>
		<g>
			
				<ellipse transform="matrix(0.4144 -0.9101 0.9101 0.4144 24.7892 139.8881)" fill="#263238" cx="121.1" cy="50.7" rx="2.7" ry="0.1"/>
		</g>
		<g>
			<path fill="#263238" d="M170.7,28.5c0,0-0.5,0.2-1.2,0.4c-0.8,0.2-1.8,0.5-3,0.9c-1.1,0.4-2.2,0.7-2.9,1
				c-0.7,0.3-1.2,0.4-1.2,0.4c0,0,0.4-0.2,1.2-0.5c0.7-0.3,1.8-0.7,2.9-1c1.2-0.4,2.2-0.6,3-0.8C170.2,28.6,170.7,28.5,170.7,28.5z"
				/>
		</g>
		<g>
			
				<ellipse transform="matrix(0.5067 -0.8621 0.8621 0.5067 56.8891 153.0208)" fill="#263238" cx="162.2" cy="26.8" rx="2.8" ry="0.1"/>
		</g>
		<g>
			
				<ellipse transform="matrix(0.9895 0.1447 -0.1447 0.9895 6.6827 -23.5649)" fill="#263238" cx="165.4" cy="34.2" rx="2.3" ry="0.1"/>
		</g>
	</g>
	<g>
		<g>
			<g>
				<g>
					<g>
						<path fill="#FAFAFA" d="M206.4,64.3L210,58c-1.6-2.6-2.5-5.7-2.5-8.9c0-9.4,7.6-17.1,17.1-17.1c9.4,0,17.1,7.6,17.1,17.1
							c0,9.4-7.6,17.1-17.1,17.1c-3.9,0-7.6-1.3-10.5-3.6l0,0L206.4,64.3z"/>
					</g>
					<g>
						<g>
							<path fill="#263238" d="M206.4,64.3c0.5-0.1,2.9-0.7,7.7-1.7l0.1,0l-0.1-0.1c0,0,0,0,0,0l-0.1,0.1c1.9,1.5,4.7,3,8.2,3.5
								c0.9,0.1,1.8,0.2,2.7,0.1c0.5,0,0.9,0,1.4-0.1c0.5-0.1,1-0.1,1.4-0.2c1.9-0.4,3.9-1.1,5.8-2.3c1.8-1.1,3.6-2.7,4.9-4.6
								c1.4-1.9,2.4-4.2,2.9-6.6c0.5-2.5,0.4-5.1-0.2-7.6c-0.6-2.5-1.9-5-3.7-7c-1.8-2.1-4.1-3.7-6.6-4.7c-2.5-1-5.1-1.4-7.7-1.2
								c-2.5,0.2-5,0.9-7.1,2.1c-2.1,1.2-3.9,2.7-5.2,4.5c-1.4,1.7-2.3,3.7-2.9,5.6c-0.6,1.9-0.7,3.8-0.7,5.6
								c0.1,3.5,1.3,6.4,2.6,8.5l0-0.1C207.7,62,206.7,63.9,206.4,64.3c0.3-0.5,1.4-2.4,3.7-6.3l0,0l0,0c-1.2-2-2.4-4.9-2.5-8.4
								c0-1.7,0.2-3.6,0.8-5.5c0.6-1.9,1.5-3.8,2.9-5.5c1.3-1.7,3.1-3.2,5.1-4.4c2.1-1.1,4.4-1.9,6.9-2c2.5-0.2,5.1,0.2,7.5,1.2
								c2.5,1,4.7,2.6,6.5,4.6c1.8,2,3,4.4,3.6,6.9c0.6,2.5,0.7,5.1,0.2,7.5c-0.5,2.4-1.5,4.6-2.8,6.5c-1.3,1.9-3,3.4-4.8,4.5
								c-1.8,1.1-3.8,1.9-5.7,2.3c-0.5,0.1-1,0.1-1.4,0.2c-0.5,0-0.9,0.1-1.4,0.1c-0.9,0-1.8,0-2.7-0.1c-3.5-0.5-6.2-1.9-8.1-3.4
								l-0.2,0l0.1,0.1c0,0,0,0,0,0l0-0.1C209.3,63.6,206.9,64.2,206.4,64.3z"/>
						</g>
					</g>
				</g>
			</g>
		</g>
		<g>
			<path fill="#FF4F5B" d="M218.4,38.3c0,0-1.3,9-1.3,9.5c0,0.6,1,5,1,5l-1,7.1h14.2l-1.2-7.1c0,0,1.3-5.2,1.4-6.1
				c0.1-0.9-0.7-8-0.7-8l-0.9-0.4c0,0-1.8,7-5.1,6.9c-2.7,0-5-4.8-5.4-6.9H218.4z"/>
			<g>
				<g opacity="0.3">
					<g>
						<g>
							<path fill="#375A64" d="M223,47.4c-0.4-0.1-0.9,0.1-1.1,0.5c-0.1,0.1-0.1,0.3-0.2,0.4c-0.1,0.1-0.2,0.2-0.2,0.3
								c-0.1,0.1-0.1,0.3,0,0.3c0.2,0.1,0.4,0,0.6,0c0.1,0,0.2,0.1,0.3,0.2c0.2,0.1,0.5,0,0.7-0.2c0.2-0.2,0.3-0.4,0.4-0.7
								c-0.2,0.1-0.3,0.2-0.5,0.3c-0.1,0-0.2,0.1-0.2,0c-0.1,0-0.1-0.2,0-0.2c-0.1,0-0.2,0.1-0.3,0.1c-0.1,0-0.2-0.2-0.1-0.3
								c0.1-0.1,0.2-0.1,0.2-0.1C222.8,48,223,47.5,223,47.4"/>
						</g>
					</g>
					<g>
						<g>
							<path fill="#375A64" d="M225.3,53.4c0.1,0.4,0.4,0.8,0.9,0.8c0.1,0,0.3,0,0.4,0c0.1,0,0.2,0.1,0.4,0.1c0.1,0,0.3-0.1,0.3-0.2
								c0.1-0.2-0.2-0.4-0.2-0.6c0-0.1,0-0.2,0-0.4c0-0.3-0.2-0.5-0.4-0.6c-0.2-0.1-0.5-0.1-0.8-0.1c0.2,0.1,0.3,0.2,0.5,0.4
								c0.1,0.1,0.1,0.1,0.1,0.2c0,0.1-0.1,0.1-0.2,0.1c0.1,0.1,0.2,0.2,0.2,0.3c0,0.1-0.1,0.2-0.2,0.2c-0.1,0-0.1-0.1-0.2-0.2
								C225.8,53.3,225.3,53.4,225.3,53.4"/>
						</g>
					</g>
					<g>
						<g>
							<path fill="#375A64" d="M224,47.5c-0.1,0-0.3-0.1-0.4,0c-0.1,0-0.3,0.1-0.4,0.2c-0.1,0.1-0.1,0.3,0,0.4
								c0.1,0.1,0.2,0.2,0.1,0.3c0,0,0,0.1-0.1,0.1c0,0,0,0.1,0,0.1c0,0,0.1,0,0.1,0c0.1-0.1,0.3-0.3,0.4-0.4
								c0.1-0.1,0.2-0.2,0.2-0.3C224.1,47.7,224.1,47.5,224,47.5"/>
						</g>
					</g>
					<g>
						<g>
							<path fill="#375A64" d="M225.6,47.5c-0.2-0.1-0.1-0.1-0.3-0.2c-0.1-0.1-0.3-0.1-0.5-0.1c-0.2,0.1-0.2,0.3-0.3,0.5
								c-0.1,0.3-0.1,0.5-0.2,0.8c0,0.2-0.1,0.4,0,0.5c0.1,0.2,0.3,0.3,0.6,0.3c0.2,0,0.4-0.1,0.6-0.2c0.2-0.1,0.3-0.2,0.4-0.4
								c0.1-0.2,0-0.4-0.2-0.4c-0.1,0-0.2,0.1-0.4,0.1c-0.1,0.1-0.3,0.1-0.4,0c-0.1-0.1,0-0.3,0.1-0.4c0.1-0.1,0.3-0.1,0.4-0.2
								C225.7,47.8,225.8,47.7,225.6,47.5"/>
						</g>
					</g>
					<g>
						<g>
							<path fill="#375A64" d="M222,50.1c-0.1-0.1-0.2-0.1-0.3-0.2c-0.1-0.1-0.3-0.1-0.5-0.1c-0.2,0.1-0.2,0.3-0.3,0.5
								c-0.1,0.3-0.1,0.5-0.2,0.8c0,0.2-0.1,0.4,0,0.5c0.1,0.2,0.3,0.3,0.6,0.3c0.2,0,0.4-0.1,0.6-0.2c0.2-0.1,0.3-0.2,0.4-0.4
								c0.1-0.2,0-0.4-0.2-0.4c-0.1,0-0.2,0.1-0.4,0.1c-0.1,0.1-0.3,0.1-0.4,0c-0.1-0.1,0-0.3,0.1-0.4c0.1-0.1,0.3-0.1,0.4-0.2
								C222,50.3,222.1,50.2,222,50.1"/>
						</g>
					</g>
					<g>
						<g>
							<path fill="#375A64" d="M227.2,49.4c-0.2,0-0.2,0-0.3,0c-0.2,0-0.3,0.1-0.4,0.2c-0.1,0.2,0,0.4,0.1,0.6
								c0.1,0.3,0.2,0.5,0.4,0.8c0.1,0.2,0.2,0.3,0.3,0.4c0.2,0.1,0.5,0.1,0.6-0.1c0.2-0.1,0.3-0.4,0.4-0.6c0.1-0.2,0.1-0.4,0.1-0.5
								c-0.1-0.2-0.3-0.3-0.4-0.2c-0.1,0.1-0.2,0.2-0.2,0.3c-0.1,0.1-0.2,0.2-0.3,0.2c-0.1,0-0.2-0.2-0.2-0.4c0-0.1,0.1-0.3,0.2-0.4
								C227.4,49.7,227.4,49.5,227.2,49.4"/>
						</g>
					</g>
					<g>
						<g>
							<path fill="#375A64" d="M227.7,47.7c-0.1,0-0.3,0-0.4,0s-0.3,0-0.4,0c-0.1,0-0.2,0.1-0.3,0.2c0,0.1,0,0.2,0,0.4
								c0,0.1,0,0.2,0,0.3c0,0.1,0,0.2,0.1,0.3c0.1,0.1,0.2,0.1,0.3,0.1c0.2,0,0.3,0.1,0.5,0c0.1-0.1,0.1-0.2,0.1-0.3
								c0.1-0.3,0.2-0.6,0.3-0.8L227.7,47.7z"/>
						</g>
					</g>
					<g>
						<g>
							<path fill="#375A64" d="M221.7,52.4c-0.1,0-0.2,0-0.3,0c-0.1,0-0.2,0-0.3,0c-0.1,0-0.2,0.1-0.2,0.2c0,0.1,0,0.2,0,0.3
								c0,0.1,0,0.2,0,0.2c0,0.1,0,0.2,0.1,0.2c0.1,0.1,0.2,0.1,0.2,0.1c0.1,0,0.3,0,0.4,0c0.1-0.1,0.1-0.1,0.1-0.2
								c0.1-0.2,0.1-0.5,0.2-0.7L221.7,52.4z"/>
						</g>
					</g>
					<g>
						<g>
							<path fill="#375A64" d="M223.4,52c-0.3-0.2-0.7-0.2-1,0c-0.3,0.2-0.3,0.6-0.2,0.9c0.1,0.1,0.1,0.2,0.2,0.3
								c0.1,0.2,0.2,0.5,0.3,0.7c0.2,0.3,0.7,0.2,1,0c0.3-0.2,0.5-0.5,0.6-0.8c0.1-0.1,0.1-0.2,0.1-0.3c0-0.2-0.1-0.3-0.3-0.5
								c-0.1-0.1-0.1-0.1-0.2-0.2c-0.1,0-0.2,0-0.3,0.1c-0.1,0.1,0,0.3,0.1,0.4c0.1,0.2-0.1,0.5-0.3,0.6c-0.2,0.1-0.5-0.1-0.5-0.4
								C223,52.5,223.5,52.3,223.4,52"/>
						</g>
					</g>
					<g>
						<g>
							<path fill="#375A64" d="M226,51.7c-0.2,0.1-0.5,0.2-0.7,0.1c-0.1,0-0.2-0.1-0.3-0.2c0-0.1,0.1-0.2,0.2-0.2
								c0.1-0.1,0.2-0.3,0.2-0.5c0-0.2-0.1-0.3-0.3-0.4c-0.2-0.1-0.4,0-0.4,0.2c0,0.1,0,0.2,0.1,0.4c0,0.1,0,0.3-0.1,0.3
								c-0.1,0.1-0.2,0-0.3,0c-0.1-0.1-0.1-0.2-0.1-0.3c-0.1-0.4-0.1-0.8,0.1-1.1c0.2-0.2,0.5-0.3,0.8-0.3c0.1,0,0.2,0,0.3,0
								c0.1,0.1,0.2,0.2,0.2,0.3c0.1,0.2,0.2,0.5,0.1,0.7c-0.1,0.1-0.2,0.2-0.1,0.3C225.7,51.4,226,51.5,226,51.7"/>
						</g>
					</g>
					<g>
						<g>
							<path fill="#375A64" d="M222.7,50.4c0.1,0.1,0.2,0.2,0.2,0.3c0.1,0.1,0.1,0.2,0.1,0.3c0,0.1,0.1,0.3,0.2,0.3
								c0.1,0.1,0.3,0,0.4-0.2c0.1-0.1,0.1-0.3,0.2-0.4c0-0.2,0.1-0.4,0-0.5c-0.1-0.1-0.2-0.2-0.4-0.2c-0.2,0-0.4,0-0.6,0.1
								c-0.1,0-0.1,0.1-0.1,0.1C222.6,50.3,222.6,50.4,222.7,50.4"/>
						</g>
					</g>
					<g>
						<g>
							<path fill="#375A64" d="M225.4,53.2c0-0.1,0.1-0.2,0.2-0.2c0.1,0,0.2,0,0.3,0c0.1,0,0.2-0.1,0.2-0.1c0-0.1,0-0.2-0.1-0.3
								c-0.1-0.1-0.2-0.1-0.3-0.1c-0.1,0-0.2-0.1-0.3,0c-0.1,0.1-0.1,0.2-0.2,0.3c0,0.1,0,0.3,0.1,0.4c0,0,0,0.1,0.1,0.1
								C225.3,53.2,225.4,53.2,225.4,53.2"/>
						</g>
					</g>
				</g>
			</g>
		</g>
	</g>
	<g>
		<g>
			<g>
				<g>
					<g>
						<path fill="#FAFAFA" d="M101.5,44.8l-3.3-5.9c1.5-2.4,2.3-5.2,2.3-8.2c0-8.7-7-15.7-15.7-15.7c-8.7,0-15.7,7-15.7,15.7
							c0,8.7,7,15.7,15.7,15.7c3.6,0,6.9-1.2,9.6-3.3l0,0L101.5,44.8z"/>
					</g>
					<g>
						<g>
							<path fill="#263238" d="M101.5,44.8c-0.5-0.1-2.7-0.6-7.1-1.6l-0.1,0l0.1-0.1c0,0,0,0,0,0l0.1,0.1c-1.8,1.4-4.3,2.7-7.5,3.2
								c-0.8,0.1-1.6,0.2-2.5,0.1c-0.4,0-0.9,0-1.3-0.1c-0.4-0.1-0.9-0.1-1.3-0.2c-1.8-0.3-3.6-1-5.3-2.1c-1.7-1-3.3-2.5-4.5-4.2
								c-1.3-1.7-2.2-3.8-2.7-6.1c-0.4-2.2-0.4-4.7,0.2-7c0.6-2.3,1.7-4.6,3.4-6.5c1.7-1.9,3.8-3.4,6.1-4.3c2.3-0.9,4.7-1.3,7-1.1
								c2.3,0.2,4.6,0.8,6.5,1.9c1.9,1.1,3.5,2.5,4.8,4.1c1.3,1.6,2.1,3.3,2.7,5.1c0.5,1.8,0.7,3.5,0.7,5.1
								c-0.1,3.2-1.2,5.9-2.4,7.8l0-0.1C100.3,42.6,101.3,44.4,101.5,44.8c-0.2-0.4-1.3-2.2-3.4-5.8l0,0l0,0
								c1.1-1.9,2.2-4.5,2.3-7.7c0-1.6-0.2-3.3-0.7-5c-0.5-1.7-1.4-3.4-2.7-5c-1.2-1.6-2.8-3-4.7-4c-1.9-1.1-4.1-1.7-6.4-1.9
								c-2.3-0.2-4.7,0.2-6.9,1.1c-2.3,0.9-4.3,2.4-5.9,4.2c-1.6,1.8-2.7,4.1-3.3,6.3c-0.6,2.3-0.6,4.7-0.2,6.9
								c0.4,2.2,1.4,4.3,2.6,6c1.2,1.7,2.8,3.1,4.4,4.2c1.7,1,3.5,1.7,5.2,2.1c0.4,0.1,0.9,0.1,1.3,0.2c0.4,0,0.9,0,1.3,0.1
								c0.8,0,1.7,0,2.5-0.1c3.2-0.4,5.7-1.7,7.5-3.1l0.2,0l-0.1,0.1c0,0,0,0,0,0l0-0.1C98.9,44.1,101,44.7,101.5,44.8z"/>
						</g>
					</g>
				</g>
			</g>
		</g>
		<g>
			<path fill="#FF4F5B" d="M89.5,21.2c0,0,5.1,10.3,5.2,16.5c0,0-0.7-0.1-1.3,0c-0.6,0.1-1,0.9-1.8,1c-0.7,0.1-0.9-0.5-1.5-0.6
				c-0.6-0.1-0.5,0.7-1.2,0.6c-0.7-0.1-0.8-0.9-1.5-0.7c-0.7,0.1-0.3,0.6-1.5,0.8c-1.1,0.2-1.5-0.8-2.1-0.6
				c-0.6,0.2-0.4,0.9-1.4,0.6s-0.9-0.9-1.6-0.8s-0.6,1.4-1.6,0.8c-0.9-0.5-0.9-1.5-1.7-1.2c-0.8,0.3-0.6,0.7-1.3,0.4
				c-0.6-0.3-1.1-0.3-1.1-0.3s1.4-12.5,4.1-16.7l5.3,0.2L89.5,21.2z"/>
			<g>
				<path fill="#375A64" d="M90.9,30.4c0,0,0-0.1,0-0.4c0-0.2-0.1-0.6-0.1-1c-0.1-0.8-0.4-2-0.7-3.3c-0.3-1.3-0.7-2.4-1-3.2
					c-0.1-0.4-0.3-0.7-0.4-0.9c-0.1-0.2-0.1-0.3-0.2-0.3c0,0,0,0.1,0.1,0.4c0.1,0.3,0.2,0.6,0.3,1c0.3,0.8,0.6,1.9,0.9,3.2
					c0.3,1.3,0.6,2.4,0.7,3.2c0.1,0.4,0.1,0.7,0.2,1C90.9,30.3,90.9,30.4,90.9,30.4z"/>
			</g>
			<g>
				
					<ellipse transform="matrix(-1.376077e-002 -0.9999 0.9999 -1.376077e-002 54.6224 126.5457)" fill="#375A64" cx="89.7" cy="36.3" rx="1.7" ry="0.1"/>
			</g>
			<g>
				<path fill="#375A64" d="M87.1,29.9c0,0,0,0.1,0,0.3c0,0.2,0.1,0.5,0.1,0.9c0.1,0.7,0.2,1.8,0.3,2.9c0.1,1.1,0.2,2.2,0.2,2.9
					c0,0.4,0,0.6,0.1,0.9c0,0.2,0,0.3,0,0.3c0,0,0-0.1,0-0.3c0-0.2,0-0.5,0-0.9c0-0.8-0.1-1.8-0.2-2.9c-0.1-1.1-0.3-2.2-0.4-2.9
					c-0.1-0.4-0.1-0.7-0.2-0.9C87.1,30,87.1,29.9,87.1,29.9z"/>
			</g>
			<g>
				<path fill="#375A64" d="M84.1,25.5c0,0,0.1-0.2,0.1-0.6c0.1-0.4,0.1-1,0.2-1.6c0-0.6,0.1-1.2,0.1-1.6c0-0.4,0-0.7,0-0.7
					c0,0,0,0.2-0.1,0.7c0,0.5-0.1,1-0.1,1.6c-0.1,0.6-0.1,1.1-0.1,1.6C84.1,25.3,84.1,25.5,84.1,25.5z"/>
			</g>
			<g>
				<path fill="#375A64" d="M83.3,27.2c0,0,0-0.4,0-0.9c0-0.6,0.1-1.4,0.2-2.2c0.1-0.9,0.3-1.6,0.4-2.2c0.1-0.6,0.2-0.9,0.2-0.9
					c0,0,0,0.1-0.1,0.2c-0.1,0.2-0.1,0.4-0.2,0.7c-0.2,0.6-0.3,1.3-0.4,2.2c-0.1,0.9-0.1,1.7-0.1,2.3c0,0.3,0,0.5,0,0.7
					C83.3,27.1,83.3,27.2,83.3,27.2z"/>
			</g>
			<g>
				
					<ellipse transform="matrix(3.743020e-002 -0.9993 0.9993 3.743020e-002 45.2743 117.7777)" fill="#375A64" cx="83.8" cy="35.4" rx="2.8" ry="0.1"/>
			</g>
			<g>
				<path fill="#375A64" d="M80.6,38.2c0,0,0-0.1,0.1-0.4c0-0.3,0.1-0.6,0.1-1c0.1-0.8,0.2-1.9,0.4-3.2c0.2-1.2,0.3-2.4,0.5-3.2
					c0.1-0.4,0.1-0.7,0.2-1c0-0.2,0.1-0.4,0-0.4c0,0,0,0.1-0.1,0.3c-0.1,0.2-0.1,0.5-0.2,1c-0.2,0.8-0.3,1.9-0.5,3.2
					c-0.2,1.2-0.3,2.4-0.3,3.2c0,0.4,0,0.7-0.1,1C80.6,38.1,80.6,38.2,80.6,38.2z"/>
			</g>
			<g>
				<path fill="#375A64" d="M78.4,26.8c0,0,0.1-0.3,0.3-0.8c0.2-0.5,0.4-1.2,0.7-2c0.3-0.8,0.5-1.5,0.7-2c0.2-0.5,0.3-0.8,0.3-0.8
					c0,0-0.2,0.3-0.4,0.8c-0.2,0.5-0.5,1.2-0.8,2c-0.3,0.8-0.5,1.5-0.7,2C78.4,26.5,78.3,26.8,78.4,26.8z"/>
			</g>
			<g>
				<path fill="#375A64" d="M77.7,37.4c0,0,0-0.1,0-0.2c0-0.1,0.1-0.3,0.1-0.5c0.1-0.4,0.2-1,0.4-1.7c0.3-1.5,0.7-3.5,1.3-5.7
					c0.5-2.2,1.1-4.2,1.5-5.7c0.2-0.7,0.4-1.3,0.5-1.7c0.1-0.2,0.1-0.3,0.1-0.5c0-0.1,0-0.2,0-0.2c0,0,0,0.1-0.1,0.2
					c0,0.1-0.1,0.3-0.1,0.5c-0.1,0.4-0.3,1-0.5,1.7c-0.4,1.4-1,3.4-1.5,5.7c-0.5,2.2-0.9,4.3-1.2,5.7c-0.1,0.7-0.2,1.3-0.3,1.7
					c0,0.2-0.1,0.4-0.1,0.5C77.7,37.3,77.7,37.4,77.7,37.4z"/>
			</g>
			<circle fill="#F5F5F5" cx="91.4" cy="28.4" r="0.2"/>
			<circle fill="#F5F5F5" cx="83.4" cy="29.4" r="0.2"/>
			<circle fill="#F5F5F5" cx="82.1" cy="36.7" r="0.2"/>
			<circle fill="#F5F5F5" cx="79.2" cy="35.4" r="0.2"/>
			<circle fill="#F5F5F5" cx="80.4" cy="29.7" r="0.2"/>
			<circle fill="#F5F5F5" cx="82.3" cy="22.6" r="0.2"/>
			<circle fill="#F5F5F5" cx="77.7" cy="28.5" r="0.2"/>
			<circle fill="#F5F5F5" cx="76.9" cy="34" r="0.2"/>
			<circle fill="#F5F5F5" cx="88.6" cy="33.3" r="0.2"/>
			<circle fill="#F5F5F5" cx="86.5" cy="24.5" r="0.2"/>
			<circle fill="#F5F5F5" cx="91.6" cy="32.1" r="0.2"/>
			<circle fill="#F5F5F5" cx="91.4" cy="36.9" r="0.2"/>
			<circle fill="#F5F5F5" cx="92.9" cy="34.6" r="0.2"/>
			<circle fill="#F5F5F5" cx="86.2" cy="28" r="0.2"/>
			<circle fill="#F5F5F5" cx="85.1" cy="32.6" r="0.2"/>
			<circle fill="#F5F5F5" cx="86.5" cy="36.7" r="0.2"/>
			<path fill="#F5F5F5" d="M88.5,24c0.1,0,0.2-0.1,0.2-0.2s-0.1-0.2-0.2-0.2"/>
			<path fill="#F5F5F5" d="M87.8,36c0.1,0,0.2-0.1,0.2-0.2c0-0.1-0.1-0.2-0.2-0.2"/>
			<path fill="#F5F5F5" d="M89.1,29.7c0.1,0,0.2-0.1,0.2-0.2c0-0.1-0.1-0.2-0.2-0.2"/>
			<path fill="#F5F5F5" d="M83.4,25.3c0.1,0,0.2-0.1,0.2-0.2c0-0.1-0.1-0.2-0.2-0.2"/>
			<path fill="#F5F5F5" d="M79,24.8c0.1,0,0.2,0,0.3-0.1s0-0.2-0.1-0.3"/>
			<path fill="#F5F5F5" d="M81.1,33.5c0.1,0,0.2-0.1,0.2-0.2c0-0.1-0.1-0.2-0.2-0.2"/>
			<g>
				<path fill="#375A64" d="M89.2,31.8c0,0,0-0.2,0-0.4c0-0.3,0-0.7-0.1-1.1c-0.1-1-0.2-2.3-0.3-3.8c-0.1-1.5-0.3-2.8-0.5-3.7
					c-0.1-0.5-0.1-0.9-0.2-1.1c0-0.3-0.1-0.4-0.1-0.4c0,0,0,0.2,0,0.4c0,0.3,0.1,0.7,0.1,1.1c0.1,1,0.3,2.3,0.4,3.7
					c0.1,1.5,0.3,2.8,0.3,3.8c0,0.5,0.1,0.8,0.1,1.1C89.1,31.7,89.2,31.8,89.2,31.8z"/>
			</g>
		</g>
	</g>
	<g>
		<g>
			<g>
				<g>
					<g>
						<path fill="#FAFAFA" d="M87.6,88.6l-2.5-4.5c1.1-1.8,1.8-3.9,1.8-6.2c0-6.6-5.3-11.9-11.9-11.9C68.3,66,63,71.4,63,77.9
							c0,6.6,5.3,11.9,11.9,11.9c2.7,0,5.3-0.9,7.3-2.5l0,0L87.6,88.6z"/>
					</g>
					<g>
						<g>
							<path fill="#263238" d="M87.6,88.6c-0.4-0.1-2-0.5-5.4-1.2l-0.1,0l0.1-0.1c0,0,0,0,0,0l0.1,0.1c-1.3,1.1-3.3,2.1-5.7,2.4
								c-0.6,0.1-1.2,0.1-1.9,0.1c-0.3,0-0.7,0-1-0.1c-0.3,0-0.7-0.1-1-0.2c-1.4-0.3-2.7-0.8-4-1.6c-1.3-0.8-2.5-1.9-3.4-3.2
								c-1-1.3-1.7-2.9-2-4.6c-0.3-1.7-0.3-3.5,0.1-5.3c0.5-1.8,1.3-3.5,2.6-4.9c1.3-1.5,2.9-2.6,4.6-3.3c1.7-0.7,3.6-1,5.4-0.8
								c1.8,0.1,3.5,0.6,4.9,1.5c1.5,0.8,2.7,1.9,3.6,3.1c1,1.2,1.6,2.5,2,3.9c0.4,1.3,0.5,2.7,0.5,3.9c-0.1,2.5-0.9,4.5-1.8,5.9
								l0-0.1C86.7,87,87.4,88.3,87.6,88.6c-0.2-0.3-1-1.6-2.6-4.4l0,0l0,0c0.9-1.4,1.7-3.4,1.7-5.9c0-1.2-0.1-2.5-0.5-3.8
								c-0.4-1.3-1.1-2.6-2-3.8c-0.9-1.2-2.1-2.2-3.6-3c-1.4-0.8-3.1-1.3-4.8-1.4c-1.7-0.1-3.6,0.1-5.3,0.8
								c-1.7,0.7-3.3,1.8-4.5,3.2c-1.2,1.4-2.1,3.1-2.5,4.8c-0.4,1.7-0.5,3.5-0.1,5.2c0.3,1.7,1,3.2,2,4.5c0.9,1.3,2.1,2.4,3.4,3.2
								c1.3,0.8,2.6,1.3,4,1.6c0.3,0.1,0.7,0.1,1,0.2c0.3,0,0.7,0,1,0.1c0.6,0,1.3,0,1.9-0.1c2.4-0.3,4.3-1.3,5.7-2.4l0.1,0
								l-0.1,0.1c0,0,0,0,0,0l0-0.1C85.6,88.1,87.2,88.5,87.6,88.6z"/>
						</g>
					</g>
				</g>
			</g>
		</g>
		<g>
			<path fill="#FF4F5B" d="M82.8,80c0,0-2.5-6.8-3.1-7.2c-0.6-0.4-3.2-1.1-3.2-1.1l-1.9,6.2l-2.3-6.3c0,0-2.4,0.7-3.1,1.8
				c-0.7,1.1-2.4,6.6-2.4,6.6l3.8,1.4l-0.5,2.3l9.5-0.1l-0.6-2L82.8,80z"/>
			<g opacity="0.3">
				<path d="M77.6,75.9c0.6-1.1,1-2.3,1-3.6l1,0.4c0,1.3-0.4,2.5-1.1,3.6c-0.1,0.2-0.2,0.3-0.4,0.4c-0.2,0.1-0.4,0.1-0.5-0.1
					C77.3,76.4,77.5,76.1,77.6,75.9z"/>
			</g>
			<g opacity="0.3">
				<path d="M76.4,79.6c0.1-0.1,0.2-0.2,0.3-0.2l0,0c0.2,0,0.4,0.1,0.5,0.3c0.1,0.2,0.1,0.4,0,0.6c-0.1,0.2-0.3,0.3-0.6,0.3
					c-0.1,0-0.2-0.1-0.3-0.2c-0.1-0.1-0.1-0.2-0.1-0.3C76.4,79.9,76.4,79.7,76.4,79.6z"/>
			</g>
			<g opacity="0.3">
				<path d="M70.6,81.9c0.4,0.4,0.8,0.7,1.3,1c0.5,0.2,1.1,0.3,1.6,0c0.2-0.1,0.4-0.3,0.7-0.3c0.2,0,0.4,0.2,0.5,0.1
					c0.1,0,0.2-0.1,0.2-0.2c0-0.2-0.1-0.4-0.3-0.5c-0.2-0.1-0.4-0.1-0.6-0.1c-0.2,0-0.4,0.1-0.6,0.1c-0.8,0.1-1.8-0.5-2.4-1.2
					l-0.4-0.5l0.2,1.2L70.6,81.9z"/>
			</g>
			<g>
				
					<ellipse transform="matrix(-0.2035 -0.9791 0.9791 -0.2035 6.4919 164.9269)" fill="#263238" cx="70.3" cy="79.8" rx="1.6" ry="0"/>
			</g>
			<g>
				<path fill="#FFFFFF" d="M70.1,72.7c0,0,0,0.1,0,0.2c0,0.1,0.1,0.2,0.2,0.4c0.2,0.3,0.5,0.8,1.1,1c0.5,0.3,1.1,0.3,1.5,0.3
					c0.2,0,0.3-0.1,0.4-0.1c0.1,0,0.2-0.1,0.2-0.1c0,0-0.2,0.1-0.6,0.1c-0.4,0-0.9,0-1.4-0.3c-0.5-0.3-0.9-0.7-1-1
					C70.2,72.9,70.1,72.7,70.1,72.7z"/>
			</g>
			<g>
				<path fill="#FFFFFF" d="M69.4,73.3c0,0,0,0.1,0.1,0.2c0.1,0.1,0.2,0.3,0.3,0.5c0.3,0.4,0.8,0.8,1.4,1c0.7,0.2,1.3,0.2,1.8,0.2
					c0.2,0,0.4-0.1,0.5-0.1c0.1,0,0.2-0.1,0.2-0.1c0,0-0.3,0.1-0.7,0.2c-0.4,0.1-1.1,0.1-1.7-0.2c-0.6-0.2-1.1-0.7-1.4-1
					C69.5,73.6,69.4,73.3,69.4,73.3z"/>
			</g>
			<g>
				<path fill="#FFFFFF" d="M75,77.2c0,0,0.1,0,0.2,0.1c0.1,0,0.3,0.1,0.5,0.2c0.4,0.2,1.1,0.5,1.7,0.9c0.6,0.4,1.1,0.9,1.4,1.2
					c0.2,0.2,0.3,0.3,0.4,0.4c0.1,0.1,0.1,0.2,0.1,0.2c0,0,0-0.1-0.1-0.2c-0.1-0.1-0.2-0.3-0.4-0.4c-0.3-0.4-0.8-0.8-1.4-1.3
					c-0.6-0.4-1.2-0.7-1.7-0.9c-0.2-0.1-0.4-0.2-0.5-0.2C75.1,77.2,75,77.2,75,77.2z"/>
			</g>
			<g>
				<path fill="#FFFFFF" d="M75.1,76.5c0,0,0.1,0,0.2,0.1c0.1,0,0.3,0.1,0.5,0.2c0.5,0.1,1.1,0.4,1.7,0.7c0.7,0.3,1.2,0.6,1.6,0.9
					c0.2,0.1,0.4,0.2,0.5,0.3c0.1,0.1,0.2,0.1,0.2,0.1c0,0-0.1-0.1-0.2-0.1c-0.1-0.1-0.3-0.2-0.5-0.3c-0.4-0.3-1-0.6-1.6-0.9
					c-0.7-0.3-1.3-0.5-1.7-0.7c-0.2-0.1-0.4-0.1-0.5-0.1C75.2,76.5,75.1,76.5,75.1,76.5z"/>
			</g>
			<g>
				<path fill="#FFFFFF" d="M68.3,80.4c0,0,0.3-0.4,0.9-0.7c0.5-0.3,1-0.4,1-0.5c0,0-0.1,0-0.3,0.1c-0.2,0.1-0.5,0.2-0.7,0.3
					c-0.3,0.2-0.5,0.3-0.6,0.5C68.4,80.3,68.3,80.4,68.3,80.4z"/>
			</g>
			<g>
				<path fill="#FFFFFF" d="M81.4,80.4c0,0,0.3-0.4,0.5-1c0.2-0.6,0.3-1.1,0.3-1.1c0,0-0.1,0.5-0.4,1C81.6,80,81.4,80.4,81.4,80.4z"
					/>
			</g>
			<g>
				<path fill="#FFFFFF" d="M77.5,83.6c0,0,0.5-0.2,1-0.5c0.5-0.3,0.9-0.6,0.9-0.6c0,0-0.4,0.2-0.9,0.5
					C77.9,83.4,77.5,83.6,77.5,83.6z"/>
			</g>
			<g>
				<path fill="#263238" d="M75,79.2c0,0,0-0.1,0.1-0.3c0.1-0.2,0.2-0.4,0.3-0.8c0.2-0.7,0.5-1.6,0.8-2.6c0.3-1,0.6-1.9,0.8-2.6
					c0.1-0.3,0.2-0.6,0.2-0.8c0-0.2,0.1-0.3,0.1-0.3c0,0,0,0.1-0.1,0.3c-0.1,0.2-0.1,0.5-0.2,0.8c-0.2,0.7-0.5,1.6-0.8,2.6
					c-0.3,1-0.6,1.9-0.8,2.6c-0.1,0.3-0.2,0.6-0.2,0.8C75,79.1,75,79.2,75,79.2z"/>
			</g>
			<g>
				<ellipse fill="#263238" cx="74.6" cy="79.2" rx="0.4" ry="0"/>
			</g>
			<g>
				
					<ellipse transform="matrix(-0.3014 -0.9535 0.9535 -0.3014 23.0632 167.7901)" fill="#263238" cx="73" cy="75.4" rx="4" ry="0"/>
			</g>
			<g>
				
					<ellipse transform="matrix(-0.2278 0.9737 -0.9737 -0.2278 175.3804 20.5235)" fill="#263238" cx="79.6" cy="79.8" rx="1.9" ry="0"/>
			</g>
		</g>
	</g>
	<g>
		<g>
			<g>
				<g>
					<g>
						<path fill="#FAFAFA" d="M100.1,141.5L97,136c1.4-2.2,2.2-4.9,2.2-7.7c0-8.1-6.6-14.7-14.7-14.7c-8.1,0-14.7,6.6-14.7,14.7
							c0,8.1,6.6,14.7,14.7,14.7c3.4,0,6.5-1.1,9-3.1l0,0L100.1,141.5z"/>
					</g>
					<g>
						<g>
							<path fill="#263238" d="M100.1,141.5c-0.5-0.1-2.5-0.6-6.6-1.5l-0.1,0l0.1-0.1c0,0,0,0,0,0l0.1,0.1c-1.7,1.3-4,2.6-7,3
								c-0.7,0.1-1.5,0.2-2.3,0.1c-0.4,0-0.8,0-1.2-0.1c-0.4-0.1-0.8-0.1-1.2-0.2c-1.7-0.3-3.4-1-5-1.9c-1.6-1-3.1-2.3-4.2-4
								c-1.2-1.6-2.1-3.6-2.5-5.7c-0.4-2.1-0.4-4.4,0.2-6.5c0.6-2.2,1.6-4.3,3.2-6c1.6-1.8,3.5-3.2,5.7-4c2.1-0.8,4.4-1.2,6.6-1
								c2.2,0.2,4.3,0.8,6,1.8c1.8,1,3.3,2.3,4.5,3.8c1.2,1.5,2,3.1,2.5,4.8c0.5,1.6,0.6,3.3,0.6,4.8c-0.1,3-1.1,5.5-2.2,7.3l0-0.1
								C99,139.5,99.9,141.1,100.1,141.5c-0.2-0.4-1.2-2-3.2-5.4l0,0l0,0c1.1-1.7,2.1-4.2,2.1-7.2c0-1.5-0.1-3.1-0.6-4.7
								c-0.5-1.6-1.3-3.2-2.5-4.7c-1.2-1.5-2.6-2.8-4.4-3.7c-1.8-1-3.8-1.6-5.9-1.7c-2.1-0.2-4.4,0.2-6.5,1c-2.1,0.8-4,2.2-5.6,4
								c-1.5,1.7-2.5,3.8-3.1,5.9c-0.5,2.1-0.6,4.4-0.2,6.4c0.4,2.1,1.3,4,2.4,5.6c1.2,1.6,2.6,2.9,4.2,3.9c1.6,1,3.2,1.6,4.9,1.9
								c0.4,0.1,0.8,0.1,1.2,0.2c0.4,0,0.8,0,1.2,0.1c0.8,0,1.6,0,2.3-0.1c3-0.4,5.3-1.6,7-2.9l0.2,0l-0.1,0.1c0,0,0,0,0,0l0-0.1
								C97.7,140.9,99.7,141.4,100.1,141.5z"/>
						</g>
					</g>
				</g>
			</g>
		</g>
		<g>
			<path fill="#375A64" d="M90.6,124.1c0,0,3,6.8,2.8,10.5l-7.7,2.3l-1.3-2.5l-1.1,2.5c0,0-5.9-1.5-7.6-2.9c0,0,1.6-8,2.8-9.9
				c0,0-0.8-1.6-0.2-1.7c0.6-0.1,1.6,0.1,2.3,0s1,0.1,1.9,0c0.9-0.1,0.8,1,1.9,0.7c1.1-0.2,1.1-0.5,2.2-0.8c1.1-0.3,1.8,0.6,2.5,0.4
				c0.4-0.1,1.1-0.3,1.6-0.3c0.4-0.1,0.8,0.2,0.9,0.6c0,0.2,0,0.3-0.2,0.4C90.9,123.6,90.6,124.1,90.6,124.1z"/>
			<g>
				<path fill="#263238" d="M80.2,122.6c0,0-0.1,0.4,0.2,0.9c0.2,0.5,0.5,0.7,0.6,0.7c0,0-0.3-0.3-0.5-0.7
					C80.2,122.9,80.2,122.5,80.2,122.6z"/>
			</g>
			<g>
				<path fill="#FAFAFA" d="M84.5,127.7c0,0,0,0,0.1-0.1c0.1-0.1,0.2-0.2,0.3-0.4c0.3-0.3,0.7-0.8,1.1-1.3H86
					c0.4,0.5,0.9,1.2,1.5,1.9l0-0.1c0,0,0,0,0,0c-0.5,0.7-1,1.3-1.5,1.9h0.1c-0.4-0.6-0.8-1-1.1-1.4c-0.1-0.2-0.2-0.3-0.3-0.4
					C84.6,127.8,84.5,127.7,84.5,127.7c0,0,0,0,0.1,0.1c0.1,0.1,0.2,0.2,0.3,0.4c0.3,0.4,0.6,0.8,1.1,1.4l0,0l0,0
					c0.4-0.6,0.9-1.2,1.5-1.9c0,0,0,0,0,0l0,0l0,0c-0.6-0.7-1.1-1.3-1.5-1.8l0,0l0,0c-0.4,0.6-0.8,1-1.1,1.4
					c-0.1,0.2-0.2,0.3-0.3,0.4C84.6,127.7,84.5,127.7,84.5,127.7z"/>
			</g>
			<g>
				<path fill="#FAFAFA" d="M78.9,126.5c0,0,0,0,0.1-0.1c0.1-0.1,0.2-0.2,0.3-0.4c0.3-0.3,0.7-0.8,1.1-1.3h-0.1
					c0.4,0.5,0.9,1.2,1.5,1.9l0-0.1c0,0,0,0,0,0c-0.5,0.7-1,1.3-1.5,1.9h0.1c-0.4-0.6-0.8-1-1.1-1.4c-0.1-0.2-0.2-0.3-0.3-0.4
					C79,126.6,78.9,126.5,78.9,126.5c0,0,0,0,0.1,0.1c0.1,0.1,0.2,0.2,0.3,0.4c0.3,0.4,0.6,0.8,1.1,1.4l0,0l0,0
					c0.4-0.6,0.9-1.2,1.5-1.9c0,0,0,0,0,0l0,0l0,0c-0.6-0.7-1.1-1.3-1.5-1.8l0,0l0,0c-0.4,0.6-0.8,1-1.1,1.4
					c-0.1,0.2-0.2,0.3-0.3,0.4C79,126.5,78.9,126.5,78.9,126.5z"/>
			</g>
			<g>
				<path fill="#FAFAFA" d="M83.1,122.6c0,0-0.4,0.5-1,1.1c0.2,0,0,0,0.1,0l0,0l0,0l0,0l0,0l0,0l0,0l0,0l0-0.1c0,0-0.1-0.1-0.1-0.1
					c-0.1-0.1-0.1-0.1-0.2-0.2c-0.1-0.1-0.2-0.2-0.3-0.4c-0.2-0.2-0.3-0.3-0.3-0.3c0,0,0.1,0.1,0.2,0.4c0.1,0.1,0.2,0.2,0.3,0.4
					c0.1,0.1,0.1,0.1,0.2,0.2c0,0,0.1,0.1,0.1,0.1l0,0.1l0,0l0,0l0,0l0,0l0,0l0,0l0,0c0,0-0.1,0,0.1,0
					C82.7,123.1,83.1,122.6,83.1,122.6z"/>
			</g>
			<g>
				<path fill="#FAFAFA" d="M88.6,124.1c0,0,0.1-0.1,0.3-0.3c0.2-0.2,0.4-0.5,0.7-0.9c0,0,0-0.1,0.1-0.1l-0.1,0
					c0.2,0.4,0.4,0.7,0.5,0.9c0.1,0.2,0.2,0.4,0.3,0.4c0,0-0.1-0.2-0.2-0.4c-0.1-0.2-0.3-0.6-0.5-0.9l0-0.1l0,0.1c0,0,0,0.1-0.1,0.1
					c-0.3,0.3-0.5,0.7-0.7,0.9C88.6,124,88.5,124.1,88.6,124.1z"/>
			</g>
			<g>
				<path fill="#FAFAFA" d="M80.8,132.4c0,0,0,0,0.1-0.1c0.1-0.1,0.2-0.2,0.3-0.4c0.3-0.3,0.7-0.8,1.1-1.3h-0.1
					c0.4,0.5,0.9,1.2,1.5,1.9l0-0.1c0,0,0,0,0,0c-0.5,0.7-1,1.3-1.5,1.9h0.1c-0.4-0.6-0.8-1-1.1-1.4c-0.1-0.2-0.2-0.3-0.3-0.4
					C80.8,132.5,80.8,132.4,80.8,132.4c0,0,0,0,0.1,0.1c0.1,0.1,0.2,0.2,0.3,0.4c0.3,0.4,0.6,0.8,1.1,1.4l0,0l0,0
					c0.4-0.6,0.9-1.2,1.5-1.9c0,0,0,0,0,0l0,0l0,0c-0.6-0.7-1.1-1.3-1.5-1.8l0,0l0,0c-0.4,0.6-0.8,1-1.1,1.4
					c-0.1,0.2-0.2,0.3-0.3,0.4C80.8,132.4,80.8,132.4,80.8,132.4z"/>
			</g>
			<g>
				<path fill="#FAFAFA" d="M87.4,134c0,0,0,0,0.1-0.1c0.1-0.1,0.2-0.2,0.3-0.4c0.3-0.3,0.7-0.8,1.1-1.3h-0.1
					c0.4,0.5,0.9,1.2,1.5,1.9l0-0.1c0,0,0,0,0,0c-0.5,0.7-1,1.3-1.5,1.9h0.1c-0.4-0.6-0.8-1-1.1-1.4c-0.1-0.2-0.2-0.3-0.3-0.4
					C87.4,134.1,87.4,134,87.4,134c0,0,0,0,0.1,0.1c0.1,0.1,0.2,0.2,0.3,0.4c0.3,0.4,0.6,0.8,1.1,1.4l0,0l0,0
					c0.4-0.6,0.9-1.2,1.5-1.9c0,0,0,0,0,0l0,0l0,0c-0.6-0.7-1.1-1.3-1.5-1.8l0,0l0,0c-0.4,0.6-0.8,1-1.1,1.4
					c-0.1,0.2-0.2,0.3-0.3,0.4C87.4,134,87.4,134,87.4,134z"/>
			</g>
			<g>
				<path fill="#FAFAFA" d="M92.9,130.7c0,0-0.1-0.1-0.2-0.1c-0.1-0.1-0.3-0.2-0.4-0.4c-0.4-0.3-0.9-0.7-1.5-1.1
					c-0.1-0.1-0.1-0.1-0.2-0.2l0,0.1c0.3-0.6,0.6-1.1,0.8-1.5c0.2-0.4,0.3-0.6,0.3-0.6c0,0-0.1,0.2-0.4,0.6
					c-0.2,0.4-0.5,0.9-0.8,1.5l0,0l0,0c0.1,0.1,0.1,0.1,0.2,0.2c0.6,0.4,1.1,0.8,1.5,1.1c0.2,0.1,0.4,0.3,0.5,0.3
					C92.8,130.7,92.9,130.7,92.9,130.7z"/>
			</g>
			<g>
				<path fill="#FAFAFA" d="M76.2,132.2c0,0,0.1,0,0.2-0.1c0.1-0.1,0.2-0.2,0.4-0.4c0.4-0.3,0.8-0.8,1.4-1.3l0,0l0,0l0,0
					c-0.2-0.7-0.5-1.3-0.6-1.8c-0.1-0.2-0.2-0.4-0.2-0.5c-0.1-0.1-0.1-0.2-0.1-0.2c0,0,0,0.1,0,0.2c0,0.1,0.1,0.3,0.2,0.5
					c0.1,0.5,0.4,1.1,0.6,1.8l0,0l0-0.1c-0.5,0.5-1,1-1.3,1.3c-0.2,0.2-0.3,0.3-0.4,0.4C76.2,132.2,76.2,132.2,76.2,132.2z"/>
			</g>
			<g>
				<path fill="#263238" d="M78.5,124.1c0,0,0,0,0.1,0c0.1,0,0.2,0,0.3,0.1c0.3,0,0.8,0.1,1.3,0.1c0.6,0,1.2-0.1,1.9-0.2
					c0.7-0.1,1.5-0.2,2.3-0.2c0.8,0,1.6,0.1,2.3,0.2c0.7,0.1,1.4,0.1,1.9,0.1c0.5,0,1,0,1.3,0c0.2,0,0.3,0,0.4,0c0.1,0,0.1,0,0.1,0
					c0,0,0,0-0.1,0c-0.1,0-0.2,0-0.4,0c-0.3,0-0.7,0-1.3,0c-0.5,0-1.2-0.1-1.9-0.2c-0.7-0.1-1.5-0.2-2.4-0.2c-0.8,0-1.6,0.1-2.4,0.2
					c-0.7,0.1-1.4,0.2-1.9,0.2c-0.5,0-1,0-1.3,0C78.7,124.1,78.5,124.1,78.5,124.1z"/>
			</g>
			<g>
				<path fill="#263238" d="M89.7,129.6c0,0,0-0.1,0-0.2c0-0.1,0-0.3-0.1-0.6c-0.1-0.5-0.2-1.2-0.3-2c-0.2-0.8-0.4-1.4-0.5-1.9
					c-0.1-0.2-0.1-0.4-0.2-0.6c-0.1-0.1-0.1-0.2-0.1-0.2c0,0,0,0.1,0.1,0.2c0,0.2,0.1,0.4,0.2,0.6c0.1,0.5,0.3,1.2,0.5,1.9
					c0.2,0.8,0.3,1.5,0.4,2c0,0.2,0.1,0.4,0.1,0.6C89.7,129.6,89.7,129.6,89.7,129.6z"/>
			</g>
			<g>
				
					<ellipse transform="matrix(0.1672 0.9859 -0.9859 0.1672 197.6493 17.7264)" fill="#263238" cx="88.3" cy="125.9" rx="1.7" ry="0.1"/>
			</g>
			<g>
				<path fill="#263238" d="M79.5,132.6c0,0,0.1-0.1,0.1-0.3c0.1-0.2,0.2-0.5,0.3-0.9c0.3-0.7,0.6-1.8,0.8-3
					c0.2-1.2,0.4-2.3,0.4-3.1c0-0.4,0-0.7,0-0.9c0-0.2,0-0.3,0-0.3c0,0,0,0.1,0,0.3c0,0.2,0,0.5-0.1,0.9c-0.1,0.8-0.2,1.9-0.4,3
					c-0.2,1.2-0.5,2.2-0.8,3c-0.1,0.4-0.2,0.7-0.3,0.9C79.5,132.5,79.5,132.6,79.5,132.6z"/>
			</g>
			<g>
				<path fill="#263238" d="M79.7,127.3c0,0,0.1-0.2,0.2-0.4c0.1-0.3,0.2-0.7,0.3-1.1c0.1-0.4,0.2-0.8,0.2-1.1
					c0.1-0.3,0.1-0.5,0.1-0.5c0,0-0.1,0.2-0.1,0.4c-0.1,0.3-0.2,0.7-0.3,1.1c-0.1,0.4-0.2,0.8-0.3,1.1
					C79.8,127.1,79.7,127.3,79.7,127.3z"/>
			</g>
			<g>
				<path fill="#263238" d="M85.3,136.2C85.3,136.2,85.4,136.2,85.3,136.2c0.1,0,0.2,0,0.3-0.1c0.2,0,0.5-0.1,0.9-0.2
					c0.7-0.2,1.7-0.7,2.8-1.2c1.1-0.5,2.1-0.9,2.8-1c0.4-0.1,0.7-0.1,0.9-0.1c0.2,0,0.3,0,0.3,0c0,0,0,0-0.1,0c-0.1,0-0.1,0-0.3,0
					c-0.2,0-0.5,0-0.9,0.1c-0.8,0.1-1.8,0.5-2.9,1c-1.1,0.5-2,1-2.8,1.3c-0.4,0.1-0.7,0.2-0.9,0.3C85.4,136.1,85.3,136.2,85.3,136.2
					z"/>
			</g>
			<g>
				<path fill="#263238" d="M76,133c0,0,0.1,0.1,0.3,0.2c0.2,0.1,0.4,0.3,0.8,0.4c0.7,0.4,1.6,0.8,2.6,1.3c1.1,0.4,2.1,0.7,2.8,0.9
					c0.4,0.1,0.7,0.2,0.9,0.2c0.2,0,0.3,0.1,0.3,0.1c0,0-0.1,0-0.3-0.1c-0.2-0.1-0.5-0.1-0.9-0.2c-0.7-0.2-1.7-0.5-2.8-1
					c-1.1-0.4-2-0.9-2.6-1.2c-0.3-0.2-0.6-0.3-0.8-0.4C76.1,133.1,76,133,76,133z"/>
			</g>
			<g>
				<path fill="#263238" d="M79.5,123.2c0,0,0.1,0.3,0.3,0.5c0.2,0.3,0.5,0.4,0.5,0.4c0,0-0.2-0.2-0.4-0.4
					C79.7,123.4,79.5,123.2,79.5,123.2z"/>
			</g>
			<g>
				<path fill="#263238" d="M87.9,122.7c0,0-0.1,0.3-0.2,0.7c-0.1,0.4-0.3,0.6-0.3,0.7c0,0,0.3-0.2,0.4-0.6
					C88,123,87.9,122.6,87.9,122.7z"/>
			</g>
		</g>
	</g>
	<g>
		<g>
			<g>
				<g>
					<g>
						<path fill="#FAFAFA" d="M203.1,137.3l3.9-6.9c-1.7-2.8-2.7-6.1-2.7-9.7c0-10.2,8.3-18.5,18.5-18.5c10.2,0,18.5,8.3,18.5,18.5
							c0,10.2-8.3,18.5-18.5,18.5c-4.3,0-8.2-1.5-11.3-3.9l0,0L203.1,137.3z"/>
					</g>
					<g>
						<g>
							<path fill="#263238" d="M203.1,137.3c0.6-0.1,3.1-0.7,8.4-1.9l0.1,0l-0.1-0.1c0,0,0,0,0,0l-0.1,0.1c2.1,1.6,5.1,3.2,8.9,3.8
								c0.9,0.1,1.9,0.2,2.9,0.2c0.5,0,1,0,1.5-0.1c0.5-0.1,1-0.2,1.6-0.2c2.1-0.4,4.3-1.2,6.3-2.5c2-1.2,3.9-2.9,5.4-5
								c1.5-2.1,2.6-4.5,3.1-7.2c0.5-2.7,0.5-5.5-0.2-8.3c-0.7-2.8-2-5.4-4-7.6c-2-2.3-4.5-4.1-7.2-5.1c-2.7-1.1-5.6-1.5-8.3-1.3
								c-2.8,0.2-5.4,1-7.6,2.3c-2.3,1.3-4.2,2.9-5.7,4.8c-1.5,1.9-2.5,4-3.2,6c-0.6,2.1-0.8,4.1-0.8,6c0.1,3.8,1.4,7,2.8,9.2l0-0.1
								C204.6,134.7,203.4,136.8,203.1,137.3c0.3-0.5,1.5-2.6,4-6.9l0,0l0,0c-1.3-2.2-2.6-5.3-2.7-9.1c0-1.9,0.2-3.9,0.8-6
								c0.6-2,1.7-4.1,3.1-5.9c1.5-1.8,3.3-3.5,5.6-4.7c2.2-1.2,4.8-2,7.5-2.2c2.7-0.2,5.5,0.2,8.2,1.3c2.7,1,5.1,2.8,7,5
								c1.9,2.2,3.2,4.8,3.9,7.5c0.7,2.7,0.7,5.5,0.2,8.1c-0.5,2.6-1.6,5-3.1,7.1c-1.5,2-3.3,3.7-5.3,4.9c-2,1.2-4.1,2-6.2,2.4
								c-0.5,0.1-1,0.2-1.5,0.2c-0.5,0-1,0.1-1.5,0.1c-1,0.1-2,0-2.9-0.1c-3.7-0.5-6.7-2.1-8.8-3.7l-0.2,0l0.1,0.1c0,0,0,0,0,0
								l0-0.1C206.3,136.5,203.7,137.1,203.1,137.3z"/>
						</g>
					</g>
				</g>
			</g>
		</g>
		<g>
			<g>
				<g>
					<g>
						<g>
							<g>
								<g>
									<g>
										<path fill="#FF4F5B" d="M213.6,114.4l2.9,6.2c0,0-5.6,5.5-4.9,6.9l12.5-5.7l-2.1-3.5l-2.2-6.5L213.6,114.4z"/>
									</g>
								</g>
							</g>
						</g>
					</g>
				</g>
			</g>
			<g>
				<g>
					<g>
						<g>
							<g>
								<g>
									<g>
										<path fill="#375A64" d="M224.1,122l-0.6-1.1l-11.8,5.8c0,0-0.2,0.5-0.1,0.9L224.1,122z"/>
									</g>
								</g>
							</g>
						</g>
					</g>
				</g>
			</g>
			<g>
				<g>
					<g>
						<g>
							<g>
								<g>
									<g>
										<g>
											<path fill="#FF4F5B" d="M216.3,121c0,0.1,0.4-0.1,0.7,0c0.4,0,0.7,0.2,0.7,0.2c0.1,0-0.2-0.4-0.7-0.4
												C216.6,120.7,216.2,120.9,216.3,121z"/>
										</g>
									</g>
								</g>
							</g>
						</g>
					</g>
				</g>
			</g>
			<g>
				<g>
					<g>
						<g>
							<g>
								<g>
									<g>
										<g>
											<path fill="#FF4F5B" d="M215.2,122.1c0,0.1,0.3,0,0.7,0.2c0.3,0.2,0.5,0.4,0.6,0.4c0.1,0-0.1-0.4-0.5-0.6
												C215.5,121.9,215.2,122,215.2,122.1z"/>
										</g>
									</g>
								</g>
							</g>
						</g>
					</g>
				</g>
			</g>
			<g>
				<g>
					<g>
						<g>
							<g>
								<g>
									<g>
										<g>
											<path fill="#FF4F5B" d="M215.2,124c0.1,0,0-0.4-0.3-0.6c-0.3-0.3-0.7-0.3-0.7-0.2c0,0.1,0.3,0.2,0.5,0.4
												C215,123.8,215.1,124.1,215.2,124z"/>
										</g>
									</g>
								</g>
							</g>
						</g>
					</g>
				</g>
			</g>
			<g>
				<g>
					<g>
						<g>
							<g>
								<g>
									<g>
										<g>
											<path fill="#FF4F5B" d="M215.7,119.4c0.1,0,0.3-0.2,0.7-0.3c0.4-0.1,0.7-0.1,0.7-0.2c0-0.1-0.4-0.2-0.8,0
												C215.9,119.1,215.7,119.4,215.7,119.4z"/>
										</g>
									</g>
								</g>
							</g>
						</g>
					</g>
				</g>
			</g>
			<g>
				<path fill="#263238" d="M216.2,119.2c0,0-0.1-0.1-0.2-0.2c-0.1-0.2-0.2-0.4-0.2-0.8c0-0.1,0-0.2,0-0.3c0-0.1,0.1-0.2,0.2-0.3
					c0.1-0.1,0.3-0.1,0.4,0c0.1,0.1,0.1,0.2,0.1,0.3c0,0.2,0,0.4-0.1,0.7l0,0.2l0,0.1c0,0,0,0.1-0.1,0.1
					C216.2,119.2,216.2,119.1,216.2,119.2l-0.1-0.1l-0.2,0c-0.2-0.1-0.5-0.1-0.7-0.2c-0.1,0-0.2-0.1-0.3-0.1c-0.1,0-0.2-0.1-0.3-0.2
					c0,0-0.1-0.1-0.1-0.2c0-0.1,0.1-0.1,0.1-0.2c0.1-0.1,0.2-0.1,0.3,0c0.2,0,0.4,0.1,0.5,0.2c0.3,0.2,0.5,0.4,0.5,0.5
					C216.1,119,216.1,119.1,216.2,119.2c-0.1-0.1-0.1-0.2-0.2-0.3c-0.1-0.1-0.3-0.3-0.5-0.5c-0.1-0.1-0.3-0.1-0.5-0.1
					c-0.1,0-0.2,0-0.2,0c-0.1,0-0.1,0.1,0,0.2c0.1,0.1,0.1,0.1,0.2,0.2c0.1,0,0.2,0.1,0.3,0.1c0.2,0.1,0.4,0.2,0.7,0.2l0.2,0l0.1,0
					c0,0,0,0,0,0c0,0,0,0,0,0c0,0,0,0,0,0c0,0,0,0,0,0l0-0.1l0-0.2c0-0.2,0.1-0.4,0.1-0.7c0-0.1,0-0.2,0-0.2c0,0-0.1,0-0.2,0
					c-0.1,0.1-0.1,0.3-0.2,0.4c0,0.3,0,0.6,0.1,0.7C216.1,119.1,216.2,119.2,216.2,119.2z"/>
			</g>
			<path fill="#FFFFFF" d="M220.6,114.4c-0.3,0.3-0.7,0.3-1.1,0.2c-0.4,0-0.8,0-1,0.3c-0.1,0.1-0.1,0.3-0.2,0.4
				c-0.2,0.2-0.5,0.2-0.7,0.2c-0.4,0-0.8,0.2-1.2,0.5c-0.1,0.1-0.1,0.1-0.1,0.2c0,0.1,0.1,0.2,0.2,0.2c0.4,0,0.7-0.3,1.1-0.3
				c0.3,0,0.6,0.2,0.9,0.1c0.3-0.1,0.4-0.5,0.7-0.6c0.2-0.1,0.4,0,0.6,0c0.4,0,0.9-0.2,1.1-0.5L220.6,114.4"/>
			<path fill="#FFFFFF" d="M216.1,119.9c0.2-0.2,0.5-0.3,0.8-0.3c0.2,0.1,0.4,0.2,0.5,0.1c0.1-0.1,0.1-0.4,0.2-0.5
				c0.1-0.1,0.3-0.1,0.4-0.2c0.3-0.2,0.2-0.7,0.5-0.9c0.2-0.1,0.4-0.1,0.6-0.2c0.1-0.1,0.2-0.2,0.3-0.3c0.1-0.1,0.2-0.2,0.3-0.3
				c0.1,0,0.3,0.1,0.2,0.2c0,0.1-0.1,0.1-0.1,0.1c-0.2,0.1-0.4,0.4-0.4,0.6c0,0.2,0,0.5-0.2,0.7c-0.1,0.1-0.4,0.1-0.5,0.3
				c-0.1,0.2,0,0.4-0.1,0.6c-0.1,0.1-0.4,0.1-0.6,0.2c-0.1,0.1-0.2,0.2-0.3,0.3c-0.1,0.1-0.3,0.1-0.4,0c-0.1,0-0.3-0.1-0.4-0.1
				c-0.2,0-0.3,0.1-0.4,0.2"/>
			<path fill="#FFFFFF" d="M222.5,119.6c0-0.2-0.3-0.2-0.4-0.1c-0.1,0.1-0.2,0.3-0.2,0.4c-0.1,0.1-0.1,0.3-0.3,0.3
				c-0.1,0-0.2,0-0.3,0c-0.1,0.1-0.2,0.3-0.3,0.3c-0.2,0.1-0.4,0-0.5,0c-0.2,0.1-0.3,0.3-0.4,0.4c-0.2,0.2-0.6,0.1-0.9,0.2
				c-0.3,0.1-0.4,0.5-0.7,0.6c-0.2,0-0.3,0-0.5,0c-0.2,0-0.3,0.1-0.4,0.2c0,0.1,0.1,0.3,0.3,0.3c0.1,0,0.3-0.1,0.4-0.1
				c0.1-0.1,0.3-0.2,0.4-0.2c0.2,0,0.3,0,0.5,0c0.2,0,0.4-0.2,0.6-0.2c0.2,0,0.4,0.1,0.5,0.1c0.1-0.1,0.1-0.2,0.2-0.3
				c0.2-0.1,0.4,0,0.6-0.1c0.1-0.1,0.1-0.2,0.2-0.2c0.1-0.1,0.2-0.2,0.3-0.2c0.4-0.2,0.9-0.5,1.3-0.6"/>
			<path fill="#FFFFFF" d="M212.9,124.8c0-0.1,0.2-0.2,0.3-0.1c0.1,0,0.2,0.1,0.3,0.2c0.1,0.1,0.2,0.1,0.3,0.1
				c0.2-0.1,0.2-0.3,0.4-0.4c0.2-0.1,0.3,0,0.5,0c0.1,0,0.2-0.1,0.4-0.2c0.2-0.1,0.4-0.3,0.6-0.4c0.1-0.1,0.2-0.2,0.4-0.2
				c0.1,0,0.3,0,0.4,0.2c0,0.2-0.1,0.3-0.2,0.4c-0.1,0.1-0.3,0.1-0.4,0.2c-0.2,0.1-0.3,0.3-0.5,0.4c-0.2,0.1-0.4,0-0.6,0.1
				c-0.2,0.1-0.3,0.2-0.5,0.3c-0.1,0.1-0.3,0.1-0.4,0.1c-0.1,0.1-0.2,0.2-0.3,0.3c-0.5,0.5-1.1,0.7-1.8,1
				C211.9,125.9,212.3,125.2,212.9,124.8"/>
			<path fill="#FFFFFF" d="M214.3,116c0.3,0.1,0.6,0,0.7-0.3c0-0.1,0-0.2,0.1-0.3c0.1-0.1,0.2-0.1,0.4-0.1c0.1,0,0.3,0,0.4,0
				c0.2-0.1,0.2-0.4,0.4-0.5c0.1,0,0.2,0,0.3,0c0.2-0.1,0.3-0.4,0.4-0.5c0.1-0.1,0.2-0.1,0.3-0.2c0.1-0.1,0.2-0.2,0.2-0.3
				c0-0.1-0.1-0.2-0.2-0.2c-0.1,0-0.2,0-0.3,0c-0.4,0.1-0.7,0.5-1.1,0.5c-0.2,0-0.3-0.1-0.5,0c-0.1,0.1-0.2,0.3-0.3,0.4
				c-0.2,0.2-0.6,0.1-0.8,0.2c-0.1,0.1-0.1,0.2-0.2,0.2c-0.1,0-0.1,0-0.2-0.1c-0.1,0-0.1,0-0.1,0.1"/>
			<g>
				<g>
					<g>
						<path fill="#FF4F5B" d="M223.6,116.5l2.9,6.2c0,0-5.6,5.5-4.9,6.9l12.5-5.7l-2.1-3.5l-2.2-6.5L223.6,116.5z"/>
					</g>
				</g>
			</g>
			<g>
				<g>
					<g>
						<g>
							<g>
								<g>
									<g>
										<path fill="#375A64" d="M234.2,124.1l-0.6-1.1l-11.8,5.8c0,0-0.2,0.5-0.1,0.9L234.2,124.1z"/>
									</g>
								</g>
							</g>
						</g>
					</g>
				</g>
			</g>
			<g>
				<g>
					<g>
						<g>
							<g>
								<g>
									<g>
										<g>
											<path fill="#263238" d="M226.4,123c0,0.1,0.3-0.1,0.7,0c0.4,0,0.7,0.2,0.7,0.2c0.1,0-0.2-0.4-0.7-0.4
												C226.7,122.8,226.3,123,226.4,123z"/>
										</g>
									</g>
								</g>
							</g>
						</g>
					</g>
				</g>
			</g>
			<g>
				<g>
					<g>
						<g>
							<g>
								<g>
									<g>
										<g>
											<path fill="#263238" d="M225.3,124.2c0,0.1,0.3,0,0.7,0.2c0.3,0.2,0.5,0.4,0.6,0.4c0.1,0-0.1-0.4-0.5-0.6
												C225.6,124,225.3,124.1,225.3,124.2z"/>
										</g>
									</g>
								</g>
							</g>
						</g>
					</g>
				</g>
			</g>
			<g>
				<g>
					<g>
						<g>
							<g>
								<g>
									<g>
										<g>
											<path fill="#263238" d="M225.2,126.1c0.1,0,0-0.4-0.3-0.6c-0.3-0.3-0.7-0.3-0.7-0.2c0,0.1,0.3,0.2,0.5,0.4
												C225.1,125.9,225.2,126.1,225.2,126.1z"/>
										</g>
									</g>
								</g>
							</g>
						</g>
					</g>
				</g>
			</g>
			<g>
				<g>
					<g>
						<g>
							<g>
								<g>
									<g>
										<g>
											<path fill="#263238" d="M225.8,121.5c0.1,0,0.3-0.2,0.7-0.3c0.4-0.1,0.7-0.1,0.7-0.2c0-0.1-0.4-0.2-0.8,0
												C225.9,121.1,225.7,121.5,225.8,121.5z"/>
										</g>
									</g>
								</g>
							</g>
						</g>
					</g>
				</g>
			</g>
			<g>
				<path fill="#263238" d="M226.3,121.3c0,0-0.1-0.1-0.2-0.2c-0.1-0.2-0.2-0.4-0.2-0.8c0-0.1,0-0.2,0-0.3c0-0.1,0.1-0.2,0.2-0.3
					c0.1-0.1,0.3-0.1,0.4,0c0.1,0.1,0.1,0.2,0.1,0.3c0,0.2,0,0.4-0.1,0.7l0,0.2l0,0.1c0,0,0,0.1-0.1,0.1
					C226.3,121.2,226.3,121.2,226.3,121.3l-0.1-0.1l-0.2,0c-0.2-0.1-0.5-0.1-0.7-0.2c-0.1,0-0.2-0.1-0.3-0.1c-0.1,0-0.2-0.1-0.3-0.2
					c0,0-0.1-0.1-0.1-0.2c0-0.1,0.1-0.1,0.1-0.2c0.1-0.1,0.2-0.1,0.3,0c0.2,0,0.4,0.1,0.5,0.2c0.3,0.2,0.5,0.4,0.5,0.5
					C226.2,121.1,226.2,121.2,226.3,121.3c-0.1-0.1-0.1-0.2-0.2-0.3c-0.1-0.1-0.3-0.3-0.5-0.5c-0.1-0.1-0.3-0.1-0.5-0.1
					c-0.1,0-0.2,0-0.2,0c-0.1,0-0.1,0.1,0,0.2c0.1,0.1,0.1,0.1,0.2,0.2c0.1,0,0.2,0.1,0.3,0.1c0.2,0.1,0.4,0.2,0.7,0.2l0.2,0l0.1,0
					c0,0,0,0,0,0c0,0,0,0,0,0c0,0,0,0,0,0c0,0,0,0,0,0l0-0.1l0-0.2c0-0.2,0.1-0.4,0.1-0.7c0-0.1,0-0.2,0-0.2c0,0-0.1,0-0.2,0
					c-0.1,0.1-0.1,0.3-0.2,0.4c0,0.3,0,0.6,0.1,0.7C226.2,121.2,226.3,121.3,226.3,121.3z"/>
			</g>
			<path fill="#FFFFFF" d="M230.7,116.5c-0.3,0.3-0.7,0.3-1.1,0.2c-0.4,0-0.8,0-1,0.3c-0.1,0.1-0.1,0.3-0.2,0.4
				c-0.2,0.2-0.5,0.2-0.7,0.2c-0.4,0-0.8,0.2-1.2,0.5c-0.1,0.1-0.1,0.1-0.1,0.2c0,0.1,0.1,0.2,0.2,0.2c0.4,0,0.7-0.3,1.1-0.3
				c0.3,0,0.6,0.2,0.9,0.1c0.3-0.1,0.4-0.5,0.7-0.6c0.2-0.1,0.4,0,0.6,0c0.4,0,0.9-0.2,1.1-0.5L230.7,116.5"/>
			<path fill="#FFFFFF" d="M226.2,122c0.2-0.2,0.5-0.3,0.8-0.3c0.2,0.1,0.4,0.2,0.5,0.1c0.1-0.1,0.1-0.4,0.2-0.5
				c0.1-0.1,0.3-0.1,0.4-0.2c0.3-0.2,0.2-0.7,0.5-0.9c0.2-0.1,0.4-0.1,0.6-0.2c0.1-0.1,0.2-0.2,0.3-0.3c0.1-0.1,0.2-0.2,0.3-0.3
				c0.1,0,0.3,0.1,0.2,0.2c0,0.1-0.1,0.1-0.1,0.1c-0.2,0.1-0.4,0.4-0.4,0.6c0,0.2,0,0.5-0.2,0.7c-0.1,0.1-0.4,0.1-0.5,0.3
				c-0.1,0.2,0,0.4-0.1,0.6c-0.1,0.1-0.4,0.1-0.6,0.2c-0.1,0.1-0.2,0.2-0.3,0.3c-0.1,0.1-0.3,0.1-0.4,0c-0.1,0-0.3-0.1-0.4-0.1
				c-0.2,0-0.3,0.1-0.4,0.2"/>
			<path fill="#FFFFFF" d="M232.6,121.6c0-0.2-0.3-0.2-0.4-0.1c-0.1,0.1-0.2,0.3-0.2,0.4c-0.1,0.1-0.1,0.3-0.3,0.3
				c-0.1,0-0.2,0-0.3,0c-0.1,0.1-0.2,0.3-0.3,0.3c-0.2,0.1-0.4,0-0.5,0c-0.2,0.1-0.3,0.3-0.4,0.4c-0.2,0.2-0.6,0.1-0.9,0.2
				c-0.3,0.1-0.4,0.5-0.7,0.6c-0.2,0-0.3,0-0.5,0s-0.3,0.1-0.4,0.2c0,0.1,0.1,0.3,0.3,0.3c0.1,0,0.3-0.1,0.4-0.1
				c0.1-0.1,0.3-0.2,0.4-0.2c0.2,0,0.3,0,0.5,0c0.2,0,0.4-0.2,0.6-0.2c0.2,0,0.4,0.1,0.5,0.1c0.1-0.1,0.1-0.2,0.2-0.3
				c0.2-0.1,0.4,0,0.6-0.1c0.1-0.1,0.1-0.2,0.2-0.2c0.1-0.1,0.2-0.2,0.3-0.2c0.4-0.2,0.9-0.5,1.3-0.6"/>
			<path fill="#FFFFFF" d="M222.9,126.8c0-0.1,0.2-0.2,0.3-0.1c0.1,0,0.2,0.1,0.3,0.2c0.1,0.1,0.2,0.1,0.3,0.1
				c0.2-0.1,0.2-0.3,0.4-0.4c0.2-0.1,0.3,0,0.5,0c0.1,0,0.2-0.1,0.4-0.2c0.2-0.1,0.4-0.3,0.6-0.4c0.1-0.1,0.2-0.2,0.4-0.2
				c0.1,0,0.3,0,0.4,0.2c0,0.2-0.1,0.3-0.2,0.4c-0.1,0.1-0.3,0.1-0.4,0.2c-0.2,0.1-0.3,0.3-0.5,0.4c-0.2,0.1-0.4,0-0.6,0.1
				c-0.2,0.1-0.3,0.2-0.5,0.3c-0.1,0.1-0.3,0.1-0.4,0.1c-0.1,0.1-0.2,0.2-0.3,0.3c-0.5,0.5-1.1,0.7-1.8,1
				C222,128,222.4,127.3,222.9,126.8"/>
			<path fill="#FFFFFF" d="M224.4,118.1c0.3,0.1,0.6,0,0.7-0.3c0-0.1,0-0.2,0.1-0.3c0.1-0.1,0.2-0.1,0.4-0.1c0.1,0,0.3,0,0.4,0
				c0.2-0.1,0.2-0.4,0.4-0.5c0.1,0,0.2,0,0.3,0c0.2-0.1,0.3-0.4,0.4-0.5c0.1-0.1,0.2-0.1,0.3-0.2c0.1-0.1,0.2-0.2,0.2-0.3
				c0-0.1-0.1-0.2-0.2-0.2c-0.1,0-0.2,0-0.3,0c-0.4,0.1-0.7,0.5-1.1,0.5c-0.2,0-0.3-0.1-0.5,0c-0.1,0.1-0.2,0.3-0.3,0.4
				c-0.2,0.2-0.6,0.1-0.8,0.2c-0.1,0.1-0.1,0.2-0.2,0.2c-0.1,0-0.1,0-0.2-0.1c-0.1,0-0.1,0-0.1,0.1"/>
		</g>
	</g>
</g>
</svg>
