<?xml version="1.0" encoding="utf-8"?>
<!-- Generator: Adobe Illustrator 18.1.1, SVG Export Plug-In . SVG Version: 6.00 Build 0)  -->
<svg version="1.1" id="Layer_1" xmlns="http://www.w3.org/2000/svg" xmlns:xlink="http://www.w3.org/1999/xlink" x="0px" y="0px"
	 viewBox="0 0 278.9 175" enable-background="new 0 0 278.9 175" xml:space="preserve">
<g>
	<g opacity="0.11">
		<polygon fill="none" stroke="#000000" stroke-miterlimit="10" points="118,46.7 115,41.5 112,46.7 109.1,51.9 115,51.9 121,51.9 
					"/>
		<polygon fill="none" stroke="#000000" stroke-miterlimit="10" points="141.9,119.4 138.9,114.3 136,119.4 133,124.6 138.9,124.6 
			144.9,124.6 		"/>
		<polygon fill="none" stroke="#000000" stroke-miterlimit="10" points="93.7,156.8 95.2,151 89.5,152.6 83.7,154.1 87.9,158.3 
			92.2,162.5 		"/>
		<path fill="none" stroke="#000000" stroke-miterlimit="10" d="M140.4,173.8c0-2.5,2-4.5,4.5-4.5c2.5,0,4.5,2,4.5,4.5"/>
		<path fill="none" stroke="#000000" stroke-miterlimit="10" d="M75.4,171.5c-2.5,0-4.5-2-4.5-4.5c0-2.5,2-4.5,4.5-4.5"/>
		<circle fill="none" stroke="#000000" stroke-miterlimit="10" cx="73.2" cy="124" r="4.5"/>
		<circle fill="none" stroke="#000000" stroke-miterlimit="10" cx="212.6" cy="129.1" r="4.5"/>
		<rect x="204.6" y="64.2" fill="none" stroke="#000000" stroke-miterlimit="10" width="9" height="9"/>
		<rect x="204.6" y="162.5" fill="none" stroke="#000000" stroke-miterlimit="10" width="9" height="9"/>
		<rect x="177" y="9.7" fill="none" stroke="#000000" stroke-miterlimit="10" width="9" height="9"/>
		<g>
			<path fill="none" stroke="#000000" stroke-miterlimit="10" d="M177.9,175c-2,0-1.6-3.5-4.1-3.5"/>
			<path fill="none" stroke="#000000" stroke-miterlimit="10" d="M186.2,175c-2,0-1.6-3.5-4.1-3.5"/>
			<path fill="none" stroke="#000000" stroke-miterlimit="10" d="M177.9,175c2,0,1.6-3.5,4.1-3.5"/>
			<path fill="none" stroke="#000000" stroke-miterlimit="10" d="M190.3,171.5"/>
			<path fill="none" stroke="#000000" stroke-miterlimit="10" d="M186.2,175c2,0,1.6-3.5,4.1-3.5"/>
		</g>
		<g>
			<path fill="none" stroke="#000000" stroke-miterlimit="10" d="M179.5,77.3c-2,0-1.6-3.5-4.1-3.5"/>
			<path fill="none" stroke="#000000" stroke-miterlimit="10" d="M187.7,77.3c-2,0-1.6-3.5-4.1-3.5"/>
			<path fill="none" stroke="#000000" stroke-miterlimit="10" d="M179.5,77.3c2,0,1.6-3.5,4.1-3.5"/>
			<path fill="none" stroke="#000000" stroke-miterlimit="10" d="M191.9,73.8"/>
			<path fill="none" stroke="#000000" stroke-miterlimit="10" d="M187.7,77.3c2,0,1.6-3.5,4.1-3.5"/>
		</g>
		<g>
			<path fill="none" stroke="#000000" stroke-miterlimit="10" d="M74.3,77.3c-2,0-1.6-3.5-4.1-3.5"/>
			<path fill="none" stroke="#000000" stroke-miterlimit="10" d="M82.6,77.3c-2,0-1.6-3.5-4.1-3.5"/>
			<path fill="none" stroke="#000000" stroke-miterlimit="10" d="M74.3,77.3c2,0,1.6-3.5,4.1-3.5"/>
			<path fill="none" stroke="#000000" stroke-miterlimit="10" d="M86.7,73.9"/>
			<path fill="none" stroke="#000000" stroke-miterlimit="10" d="M82.6,77.3c2,0,1.6-3.5,4.1-3.5"/>
		</g>
		<g>
			<path fill="none" stroke="#000000" stroke-miterlimit="10" d="M158.3,12.2c0,2-3.5,1.6-3.5,4.1"/>
			<path fill="none" stroke="#000000" stroke-miterlimit="10" d="M158.3,3.9c0,2-3.5,1.6-3.5,4.1"/>
			<path fill="none" stroke="#000000" stroke-miterlimit="10" d="M158.3,12.2c0-2-3.5-1.6-3.5-4.1"/>
			<path fill="none" stroke="#000000" stroke-miterlimit="10" d="M158.3,3.9c0-2-3.5-1.6-3.5-4.1"/>
		</g>
		<g>
			<path fill="none" stroke="#000000" stroke-miterlimit="10" d="M198.4,142.9c0,2-3.5,1.6-3.5,4.1"/>
			<path fill="none" stroke="#000000" stroke-miterlimit="10" d="M198.4,134.7c0,2-3.5,1.6-3.5,4.1"/>
			<path fill="none" stroke="#000000" stroke-miterlimit="10" d="M198.4,142.9c0-2-3.5-1.6-3.5-4.1"/>
			<path fill="none" stroke="#000000" stroke-miterlimit="10" d="M194.9,130.6"/>
			<path fill="none" stroke="#000000" stroke-miterlimit="10" d="M198.4,134.7c0-2-3.5-1.6-3.5-4.1"/>
		</g>
		<line fill="none" stroke="#000000" stroke-miterlimit="10" x1="164.3" y1="119.4" x2="174.5" y2="119.4"/>
		<line fill="none" stroke="#000000" stroke-miterlimit="10" x1="64.1" y1="90" x2="74.3" y2="90"/>
		<line fill="none" stroke="#000000" stroke-miterlimit="10" x1="205.2" y1="19.6" x2="215.4" y2="19.6"/>
		<line fill="none" stroke="#000000" stroke-miterlimit="10" x1="130.9" y1="151.8" x2="138.1" y2="144.6"/>
		<line fill="none" stroke="#000000" stroke-miterlimit="10" x1="203.1" y1="93" x2="210.3" y2="85.8"/>
	</g>
	<g>
		<g>
			<g>
				<path fill="#375A64" d="M118.3,59.1v23.4h31.4V59.1H118.3z M122.3,60.6c0.6,0,1,0.5,1,1c0,0.6-0.5,1-1,1c-0.6,0-1-0.5-1-1
					C121.3,61.1,121.7,60.6,122.3,60.6z M125.3,60.6c0.6,0,1,0.5,1,1c0,0.6-0.4,1-1,1c-0.6,0-1-0.5-1-1
					C124.3,61.1,124.8,60.6,125.3,60.6z M128.4,60.6c0.6,0,1,0.5,1,1c0,0.6-0.4,1-1,1c-0.6,0-1-0.5-1-1
					C127.4,61.1,127.8,60.6,128.4,60.6z M119.3,81.5V64.8h29.2v16.7H119.3z"/>
				<g>
					<g>
						<path fill="#375A64" d="M137,68.6l7.2,3.6v1.8l-7.2,3.6v-2.4l4.4-2.2L137,71V68.6z"/>
						<path fill="#375A64" d="M130.9,71l-4.4,2.1l4.4,2.2v2.4l-7.2-3.6v-1.8l7.2-3.6V71z"/>
					</g>
					<polygon fill="#375A64" points="133.2,79.4 131.1,79.4 134.7,67 136.8,67 					"/>
				</g>
			</g>
			<g>
				<g>
					<g>
						<path fill="#375A64" d="M95.4,101.4c0-0.2,0-0.4,0-0.6c0-0.3,0-0.5-0.1-0.7l-1.3,0.6L95.4,101.4z"/>
						<path fill="#375A64" d="M92.9,102.5c-0.5,0.8-1.5,1.3-2.5,1.3c-1.7,0-3-1.4-3-3c0-1.7,1.4-3,3-3c0.3,0,0.6,0,0.9,0.1l1.3-1.5
							c0,0,0.1-0.1,0.1-0.1c-0.7-0.3-1.4-0.5-2.2-0.5c-2.8,0-5.1,2.3-5.1,5.1c0,2.8,2.3,5.1,5.1,5.1c2.2,0,4-1.4,4.7-3.3L92.9,102.5
							z"/>
						<path fill="#375A64" d="M93.3,98.5l1.3-0.6c-0.3-0.4-0.6-0.8-1-1.1L93.3,98.5z"/>
					</g>
					<path fill="#375A64" d="M97.6,99.1c0.1,0.5,0.2,1.1,0.2,1.7c0,4.1-3.3,7.4-7.4,7.4s-7.4-3.3-7.4-7.4c0-4.1,3.3-7.4,7.4-7.4
						c2.7,0,5,1.4,6.3,3.6l2.1-0.9c-1.6-2.9-4.8-4.9-8.4-4.9c-5.3,0-9.6,4.3-9.6,9.6c0,5.3,4.3,9.6,9.6,9.6c5.3,0,9.6-4.3,9.6-9.6
						c0-0.9-0.1-1.8-0.4-2.6L97.6,99.1z"/>
					<path fill="#375A64" d="M101.7,97.2c0.3,1.1,0.5,2.3,0.5,3.5c0,6.6-5.3,11.9-11.9,11.9c-6.6,0-11.9-5.3-11.9-11.9
						c0-6.6,5.3-11.9,11.9-11.9c4.5,0,8.5,2.5,10.5,6.2l1.9-0.9c-2.3-4.5-7-7.5-12.4-7.5c-7.7,0-14,6.3-14,14c0,7.7,6.3,14,14,14
						s14-6.3,14-14c0-1.5-0.3-3-0.7-4.4L101.7,97.2z"/>
					<g>
						
							<rect x="99.2" y="88.9" transform="matrix(0.4055 0.9141 -0.9141 0.4055 147.8496 -33.5308)" fill-rule="evenodd" clip-rule="evenodd" fill="#375A64" width="1.1" height="16"/>
						<polygon fill-rule="evenodd" clip-rule="evenodd" fill="#375A64" points="95.4,102 92.4,100.2 93,96.7 88.9,101.7 						"/>
						<polygon fill-rule="evenodd" clip-rule="evenodd" fill="#375A64" points="109.1,94.7 107.3,93.6 107.7,91.4 105.3,92.5 
							104.9,94.6 106.7,95.7 						"/>
					</g>
				</g>
				<g>
					<path fill="#375A64" d="M177,85.7c-8,0-14.5,6.5-14.5,14.5c0,8,6.5,14.5,14.5,14.5c8,0,14.5-6.5,14.5-14.5
						C191.5,92.3,185,85.7,177,85.7z M181.8,107c-0.9,1.5-2,2.9-3.5,4.2v-5.5C179.5,105.9,180.6,106.3,181.8,107z M178.3,94.7V89
						c0.6,0.5,1.3,1.1,1.9,1.9c0.7,0.8,1.3,1.7,1.8,2.6C180.9,94.1,179.6,94.6,178.3,94.7z M178.3,99.1v-2.2
						c1.7-0.1,3.2-0.6,4.7-1.4c0.4,1.2,0.7,2.4,0.7,3.6H178.3z M178.3,103.5v-2.1h5.4c-0.1,1.2-0.4,2.4-0.9,3.6
						C181.3,104.1,179.8,103.6,178.3,103.5z M183.6,108.3c0.4,0.4,0.9,0.8,1.3,1.3c-1.2,1-2.6,1.8-4.1,2.3
						C181.9,110.8,182.8,109.6,183.6,108.3z M183.9,92.1c-0.7-1.2-1.5-2.3-2.5-3.3c1.3,0.5,2.5,1.2,3.5,2.1
						C184.7,91.2,184.3,91.7,183.9,92.1z M189.2,101.4c-0.2,2.4-1.2,4.8-2.8,6.7c-0.6-0.6-1.2-1.2-1.8-1.7c0.7-1.6,1.2-3.3,1.3-5
						H189.2z M186,99.1c-0.1-1.7-0.5-3.4-1.1-5c0.6-0.5,1.1-1.1,1.6-1.7c1.6,1.9,2.5,4.2,2.7,6.6H186z M168.4,101.4
						c0.1,1.6,0.5,3.2,1.2,4.8c-0.9,0.7-1.5,1.5-2,2.1c-1.7-1.9-2.7-4.3-2.9-6.9H168.4z M176.1,101.4v2.1c-1.6,0.1-3.2,0.6-4.6,1.4
						c-0.5-1.1-0.7-2.3-0.9-3.5H176.1z M176.1,96.9v2.2h-5.4c0.1-1.3,0.4-2.6,0.8-3.8C172.9,96.2,174.5,96.8,176.1,96.9z
						 M170.6,91.9c-0.4-0.4-0.8-0.8-1.2-1.3c1.1-0.9,2.4-1.6,3.8-2C172.2,89.6,171.3,90.7,170.6,91.9z M164.7,99.1
						c0.2-2.6,1.3-5,3-7c0.6,0.7,1.2,1.3,1.8,1.8c-0.7,1.6-1.1,3.4-1.2,5.2H164.7z M170.7,108.1c0.8,1.4,1.9,2.7,3.1,4
						c-1.7-0.4-3.2-1.2-4.6-2.3C169.5,109.4,170,108.8,170.7,108.1z M172.4,93.3c0.5-0.8,1.1-1.7,1.7-2.4c0.7-0.8,1.4-1.4,1.9-1.9
						v5.7C174.8,94.5,173.6,94,172.4,93.3z M176.1,105.7v5.5c-1.5-1.4-2.7-2.9-3.6-4.4C173.6,106.2,174.8,105.8,176.1,105.7z"/>
				</g>
			</g>
			<path fill="#375A64" d="M166.2,155.9c0,1.6-1.3,2.8-2.8,2.8h-58.9c-1.6,0-2.8-1.3-2.8-2.8v-40.3c0-1.6,1.3-2.8,2.8-2.8h58.9
				c1.6,0,2.8,1.3,2.8,2.8V155.9z"/>
			<path fill="#FF4F5B" d="M105.3,154.3c-0.3,0-0.5-0.2-0.5-0.5v-36.2c0-0.3,0.2-0.5,0.5-0.5h57.2c0.3,0,0.5,0.2,0.5,0.5v36.2
				c0,0.3-0.2,0.5-0.5,0.5H105.3z"/>
			<path fill="#FFFFFF" d="M162.5,117.6v36.2h-57.2v-36.2H162.5 M162.5,116.6h-57.2c-0.6,0-1,0.5-1,1v36.2c0,0.6,0.5,1,1,1h57.2
				c0.6,0,1-0.5,1-1v-36.2C163.6,117.1,163.1,116.6,162.5,116.6L162.5,116.6z"/>
			<path fill="#375A64" d="M95.9,156.8v4.2c0,1.3,1.1,2.4,2.4,2.4h71.3c1.3,0,2.4-1.1,2.4-2.4v-4.2H95.9z"/>
			<rect x="124.5" y="156.8" fill="#6D6E70" width="18.9" height="3.3"/>
			<circle fill="#A6A8AB" cx="133.9" cy="114.7" r="0.9"/>
			<g>
				<g>
					<path fill="#FFFFFF" d="M115,143.7c0,1,0.8,1.9,1.9,1.9H151c1,0,1.9-0.8,1.9-1.9V90.4c0-1-0.8-1.9-1.9-1.9h-34.1
						c-1,0-1.9,0.8-1.9,1.9V143.7z"/>
					<path fill="#A6A8AB" d="M116.9,88.5H151c1,0,1.9,0.8,1.9,1.9v2.2H115v-2.2C115,89.3,115.9,88.5,116.9,88.5z"/>
					<rect x="118.5" y="94.2" fill="#A6A8AB" width="30.8" height="1.2"/>
					<rect x="123.5" y="96" fill="#A6A8AB" width="21" height="1.2"/>
					<g>
						<g>
							<g>
								<rect x="134.7" y="101.5" fill="#FFFFFF" width="14.8" height="22.5"/>
								<path fill="#808184" d="M134.6,101.4h15.1v22.8h-15.1V101.4z M149.4,101.6h-14.6V124h14.6V101.6z"/>
							</g>
							<g>
								<polygon fill="#808184" points="134.8,124.1 149.6,101.6 149.5,101.5 134.6,124 								"/>
							</g>
							<g>
								<polygon fill="#808184" points="149.5,124.1 149.6,124 134.8,101.5 134.6,101.6 								"/>
							</g>
						</g>
						<g>
							<g>
								<rect x="118.3" y="125.1" fill="#FFFFFF" width="14.4" height="14.4"/>
								<path fill="#808184" d="M118.2,125h14.6v14.6h-14.6V125z M132.6,125.2h-14.1v14.1h14.1V125.2z"/>
							</g>
						</g>
						<g>
							<rect x="118.2" y="102.1" fill="#BBBDBF" width="14.5" height="0.9"/>
							<rect x="118.2" y="104.5" fill="#BBBDBF" width="14.5" height="0.9"/>
							<rect x="118.2" y="106.9" fill="#BBBDBF" width="14.5" height="0.9"/>
							<rect x="118.2" y="109.4" fill="#BBBDBF" width="14.5" height="0.9"/>
							<rect x="118.2" y="111.8" fill="#BBBDBF" width="14.5" height="0.9"/>
							<rect x="118.2" y="114.2" fill="#BBBDBF" width="14.5" height="0.9"/>
							<rect x="118.2" y="116.6" fill="#BBBDBF" width="14.5" height="0.9"/>
							<rect x="118.2" y="119" fill="#BBBDBF" width="14.5" height="0.9"/>
							<rect x="118.2" y="121.5" fill="#BBBDBF" width="14.5" height="0.9"/>
						</g>
						<g>
							<rect x="134.9" y="125.8" fill="#BBBDBF" width="14.5" height="0.9"/>
							<rect x="134.9" y="128.2" fill="#BBBDBF" width="14.5" height="0.9"/>
							<rect x="134.9" y="130.6" fill="#BBBDBF" width="14.5" height="0.9"/>
							<rect x="134.9" y="133" fill="#BBBDBF" width="14.5" height="0.9"/>
							<rect x="134.9" y="135.4" fill="#BBBDBF" width="14.5" height="0.9"/>
							<rect x="134.9" y="137.9" fill="#BBBDBF" width="14.5" height="0.9"/>
						</g>
					</g>
					<g>
						<rect x="134.3" y="89.7" fill="#FFFFFF" width="16.3" height="1.9"/>
						<path fill="#FFFFFF" d="M132.5,90.5l-0.5,1l0.3,0.1l0.5-1c0.3,0.1,0.6-0.1,0.8-0.4c0.2-0.3,0-0.8-0.3-0.9
							c-0.3-0.2-0.8,0-0.9,0.3C132.2,90,132.3,90.3,132.5,90.5z M132.7,89.9c0.1-0.2,0.3-0.3,0.5-0.2c0.2,0.1,0.3,0.3,0.2,0.5
							c-0.1,0.2-0.3,0.3-0.5,0.2C132.7,90.3,132.6,90,132.7,89.9z"/>
					</g>
				</g>
				<g>
					<g>
						<g>
							<path fill="#EE3E29" d="M131.7,131.4C131.7,131.4,131.8,131.3,131.7,131.4c0.1-0.1,0.1-0.2,0.1-0.2l-1.8-1.3c0,0,0,0-0.1,0
								H128l-0.7-1.6c0,0-0.1-0.1-0.1-0.1h-1.4l-0.9-1.4c0,0-0.1-0.1-0.1-0.1h-1.7c0,0-0.1,0-0.1,0.1l-0.7,1.1l-1.8,0
								c-0.1,0-0.1,0-0.1,0.1c0,0.1,0,0.1,0.1,0.1l1.8,0c0,0,0.1,0,0.1-0.1l0.7-1.1h1.6l0.9,1.4c0,0,0.1,0.1,0.1,0.1h1.4l0.7,1.6
								c0,0,0.1,0.1,0.1,0.1h2L131.7,131.4C131.7,131.3,131.7,131.4,131.7,131.4z"/>
						</g>
						<g>
							<circle fill="#004060" cx="124.8" cy="126.8" r="0.3"/>
						</g>
						<g>
							<circle fill="#004060" cx="123.2" cy="126.8" r="0.3"/>
						</g>
						<g>
							<circle fill="#004060" cx="122.4" cy="127.9" r="0.3"/>
						</g>
						<g>
							<circle fill="#004060" cx="120.4" cy="127.9" r="0.3"/>
						</g>
						<g>
							<circle fill="#004060" cx="125.8" cy="128.3" r="0.3"/>
						</g>
						<g>
							<circle fill="#004060" cx="127.2" cy="128.3" r="0.3"/>
						</g>
						<g>
							<circle fill="#004060" cx="127.9" cy="129.9" r="0.3"/>
						</g>
						<g>
							<circle fill="#004060" cx="129.9" cy="129.9" r="0.3"/>
						</g>
					</g>
					<g>
						<g>
							<rect x="129.7" y="131.1" fill="#004060" width="1.1" height="7"/>
						</g>
						<g>
							<rect x="127.6" y="130.4" fill="#004060" width="1.1" height="7.7"/>
						</g>
						<g>
							<rect x="125.6" y="129.4" fill="#004060" width="1.1" height="8.7"/>
						</g>
						<g>
							<rect x="123.6" y="127.6" fill="#004060" width="1.1" height="10.5"/>
						</g>
						<g>
							<rect x="121.5" y="129" fill="#004060" width="1.1" height="9.1"/>
						</g>
						<g>
							<rect x="119.5" y="128.7" fill="#004060" width="1.1" height="9.4"/>
						</g>
					</g>
				</g>
			</g>
		</g>
		<g>
			<path fill="#F5F5F5" d="M207.1,51.3c0.3-0.6,0.4-1.2,0.4-1.9c0-2.3-1.6-4.3-3.8-4.8c-0.3-2.9-2.7-5.1-5.7-5.1
				c-1.7,0-3.2,0.7-4.2,1.9c-1.5-2.2-4.1-3.7-7-3.7c-4.7,0-8.5,3.8-8.5,8.5c0,1.3,0.3,2.5,0.8,3.6c-2.6,0.9-4.4,3.3-4.4,6.1
				c0,3.6,2.9,6.5,6.5,6.5h21.4c3.6,0,6.5-2.9,6.5-6.5C209,54.1,208.3,52.5,207.1,51.3z"/>
			<circle fill="#FF4F5B" cx="191" cy="39" r="14.8"/>
			<circle fill="#FFFFFF" cx="191" cy="39" r="12.6"/>
			<circle fill="#FF4F5B" cx="191" cy="39" r="10.2"/>
			<circle fill="#FFFFFF" cx="191" cy="39" r="7.8"/>
			<circle fill="#FF4F5B" cx="191" cy="39" r="5.4"/>
			<circle fill="#FFFFFF" cx="191" cy="39" r="3.2"/>
			
				<rect x="201.7" y="26" transform="matrix(0.4046 0.9145 -0.9145 0.4046 151.7734 -164.5316)" fill-rule="evenodd" clip-rule="evenodd" fill="#375A64" width="1.1" height="16.6"/>
			<polygon fill-rule="evenodd" clip-rule="evenodd" fill="#375A64" points="197.7,39.6 194.7,37.7 195.3,34.1 191,39.3 			"/>
			<polygon fill-rule="evenodd" clip-rule="evenodd" fill="#FF4F5B" points="212,32 210.2,30.8 210.6,28.6 208.1,29.7 207.7,31.9 
				209.5,33.1 			"/>
			<g>
				<path fill="#FF4F5B" d="M160.5,33.5h-6.8v-2.1c0-1-0.1-1.6-0.3-1.9c-0.2-0.3-0.5-0.4-0.9-0.4c-0.4,0-0.8,0.2-1,0.5
					c-0.2,0.4-0.3,0.9-0.3,1.6c0,0.9,0.1,1.6,0.4,2.1c0.2,0.5,0.9,1,2.1,1.7c3.2,1.9,5.3,3.5,6.1,4.7c0.8,1.2,1.3,3.2,1.3,6
					c0,2-0.2,3.5-0.7,4.4c-0.5,0.9-1.4,1.7-2.7,2.4c-1.3,0.6-2.9,1-4.7,1c-2,0-3.6-0.4-5-1.1c-1.4-0.7-2.3-1.7-2.7-2.8
					c-0.4-1.1-0.6-2.8-0.6-4.9V43h6.8v3.4c0,1.1,0.1,1.7,0.3,2c0.2,0.3,0.5,0.5,1,0.5c0.5,0,0.8-0.2,1.1-0.6
					c0.2-0.4,0.4-0.9,0.4-1.7c0-1.7-0.2-2.7-0.7-3.2c-0.5-0.5-1.6-1.4-3.4-2.5c-1.8-1.2-3-2.1-3.6-2.6c-0.6-0.5-1.1-1.3-1.5-2.3
					c-0.4-1-0.6-2.2-0.6-3.7c0-2.1,0.3-3.7,0.8-4.7c0.5-1,1.4-1.8,2.7-2.3c1.2-0.6,2.7-0.8,4.4-0.8c1.9,0,3.5,0.3,4.8,0.9
					c1.3,0.6,2.2,1.4,2.7,2.3c0.4,0.9,0.6,2.5,0.6,4.7V33.5z"/>
				<path fill="#FF4F5B" d="M163.4,25h12.2v5.6h-4.9v5.3h4.6v5.3h-4.6v6.2h5.4V53h-12.6V25z"/>
			</g>
			<path fill="#F5F5F5" d="M207.4,53.9c0.2-0.5,0.3-1,0.3-1.5c0-1.8-1.3-3.3-2.9-3.7c-0.2-2.2-2.1-3.9-4.4-3.9
				c-1.3,0-2.4,0.6-3.2,1.4c-1.2-1.7-3.1-2.8-5.4-2.8c-3.6,0-6.5,2.9-6.5,6.5c0,1,0.2,1.9,0.6,2.7c-2,0.7-3.4,2.5-3.4,4.7
				c0,2.7,2.2,5,5,5h16.4c2.7,0,5-2.2,5-5C208.9,56,208.3,54.8,207.4,53.9z"/>
		</g>
	</g>
</g>
</svg>
