<?xml version="1.0" encoding="utf-8"?>
<!-- Generator: Adobe Illustrator 18.1.1, SVG Export Plug-In . SVG Version: 6.00 Build 0)  -->
<svg version="1.1" id="Layer_1" xmlns="http://www.w3.org/2000/svg" xmlns:xlink="http://www.w3.org/1999/xlink" x="0px" y="0px"
	 viewBox="0 0 278.9 175" enable-background="new 0 0 278.9 175" xml:space="preserve">
<g>
	<g>
		<g>
			<path fill="#F5F5F5" d="M13.1,38.3c0,0-4.9,1.9,0.5,12.3C19,61,22.7,66.2,22.7,66.2s1,2.4-1.1,2.8c-2,0.4-6.5-0.3-7.4,2.2
				c-0.9,2.6,1,5,4.8,7.2c3.8,2.1,12,7.1,12.8,7.6c0.7,0.4,1.5,1.6,0.1,2.1c-1.3,0.5-11.4,1.6-10.6,6.3c0.8,4.8,12.4,8.9,13.7,9.4
				c1.3,0.5,1.6,1,1.5,1.7c-0.1,0.7-3.5,0.7-6.4,1.2c-2.9,0.4-6.1,1.4-5.4,4.1c0.7,2.7,7.6,8.4,24.3,10l7.8,0.2l4.2-6.6
				c8.2-14.7,7.4-23.5,5.6-25.7s-4.5,0-6.5,2.1c-2,2.1-4,4.9-4.6,4.6c-0.6-0.3-0.9-0.9-0.6-2.2c0.3-1.3,3.5-13.3,0-16.6
				c-3.5-3.4-10.1,4.3-11.3,5.2c-1.2,0.8-1.7-0.4-1.6-1.3c0-0.9,0.6-10.4,1-14.8c0.4-4.4-0.5-7.3-3.2-8c-2.6-0.7-4.5,3.4-6,4.9
				c-1.5,1.5-2.9-0.7-2.9-0.7s-2.1-6-7.7-16.3C17.4,35.3,13,38.3,13.1,38.3"/>
		</g>
		<g>
			<g>
				<path fill="#E0E0E0" d="M57,122.7c-4-7.6-11-21.2-17.1-32.9c-6-11.7-11.5-22.2-15.5-29.8c-2-3.8-3.6-6.9-4.8-9
					c-0.6-1.1-1-1.9-1.3-2.5c-0.1-0.3-0.3-0.5-0.3-0.6c-0.1-0.1-0.1-0.2-0.1-0.2s0,0.1,0.1,0.2c0.1,0.2,0.2,0.4,0.4,0.6
					c0.3,0.6,0.8,1.4,1.3,2.4c1.2,2.1,2.8,5.2,4.8,9c4,7.6,9.5,18.1,15.6,29.8c6,11.7,13,25.3,17,32.9"/>
			</g>
		</g>
		<g>
			<g>
				<path fill="#E0E0E0" d="M20.4,72.4c0,0,0.2,0,0.5,0.1c0.3,0.1,0.8,0.3,1.4,0.5c1.2,0.4,2.9,1.1,4.7,1.8c1.8,0.7,3.4,1.4,4.7,1.9
					c0.6,0.2,1,0.4,1.4,0.6c0.3,0.1,0.5,0.2,0.5,0.2c0,0-0.2,0-0.5-0.1c-0.3-0.1-0.8-0.3-1.4-0.5c-1.2-0.5-2.9-1.1-4.7-1.9
					c-1.8-0.7-3.4-1.4-4.7-1.9c-0.6-0.2-1-0.4-1.4-0.6C20.6,72.5,20.4,72.4,20.4,72.4z"/>
			</g>
		</g>
		<g>
			<g>
				
					<ellipse transform="matrix(-0.3376 0.9413 -0.9413 -0.3376 114.804 57.9661)" fill="#E0E0E0" cx="37" cy="69.4" rx="8.2" ry="0.1"/>
			</g>
		</g>
		<g>
			<g>
				<path fill="#E0E0E0" d="M42.7,95.5c0,0,0.1-0.2,0.3-0.5c0.2-0.3,0.6-0.8,0.9-1.3c0.8-1.1,1.8-2.5,2.9-4.2
					c1.1-1.7,2.1-3.2,2.8-4.4c0.3-0.5,0.6-1,0.8-1.3c0.2-0.3,0.3-0.5,0.3-0.5c0,0-0.1,0.2-0.2,0.5c-0.2,0.3-0.4,0.8-0.7,1.4
					c-0.6,1.2-1.6,2.7-2.7,4.4c-1.1,1.7-2.2,3.2-3,4.2c-0.4,0.5-0.7,0.9-1,1.2C42.8,95.3,42.7,95.5,42.7,95.5z"/>
			</g>
		</g>
		<g>
			<g>
				<path fill="#E0E0E0" d="M29.2,93.9c0,0,0.2,0,0.5,0c0.4,0,0.9,0.1,1.4,0.1c1.2,0.1,2.9,0.3,4.7,0.5c1.9,0.2,3.5,0.4,4.7,0.5
					c0.6,0.1,1,0.1,1.4,0.2c0.3,0,0.5,0.1,0.5,0.1c0,0-0.2,0-0.5,0c-0.4,0-0.9-0.1-1.4-0.1c-1.2-0.1-2.9-0.3-4.7-0.5
					c-1.9-0.2-3.5-0.4-4.7-0.5c-0.6-0.1-1-0.1-1.4-0.2C29.4,94,29.2,93.9,29.2,93.9z"/>
			</g>
		</g>
		<g>
			<g>
				<path fill="#E0E0E0" d="M34.7,111c0,0,0.2,0,0.7,0c0.5,0,1.1,0.1,1.8,0.1c1.6,0.1,3.7,0.3,6.1,0.5c2.4,0.2,4.5,0.4,6.1,0.6
					c0.7,0.1,1.4,0.2,1.8,0.2c0.4,0.1,0.7,0.1,0.7,0.1c0,0-0.2,0-0.7,0c-0.5,0-1.1-0.1-1.8-0.1c-1.6-0.1-3.7-0.3-6.1-0.5
					c-2.4-0.2-4.5-0.4-6.1-0.6c-0.7-0.1-1.4-0.2-1.8-0.2C34.9,111.1,34.7,111.1,34.7,111z"/>
			</g>
		</g>
		<g>
			<g>
				<path fill="#E0E0E0" d="M51.5,112.5c0,0,0.1-0.2,0.4-0.6c0.3-0.4,0.7-1,1.1-1.6c0.9-1.4,2.2-3.3,3.6-5.5
					c1.4-2.2,2.5-4.2,3.4-5.6c0.4-0.7,0.7-1.3,1-1.7c0.2-0.4,0.4-0.6,0.4-0.6c0,0-0.1,0.2-0.3,0.7c-0.2,0.4-0.5,1-0.9,1.8
					c-0.8,1.5-2,3.5-3.3,5.6c-1.4,2.2-2.7,4.1-3.6,5.5c-0.5,0.7-0.9,1.2-1.2,1.6C51.6,112.3,51.5,112.5,51.5,112.5z"/>
			</g>
		</g>
	</g>
	<g>
		<g>
			<g>
				<g>
					<g>
						<path fill="#F5F5F5" d="M201.1,136.9c-11.2-7.3-14.2-21.5-14.1-34.3c0-2.1-0.3-4.4,0.7-6.3c1-1.9,3.3-3.3,5.2-2.4
							c1.6,0.7,2.4,2.5,3.3,4c1.2,2,3.1,3.6,5.2,4.6c1.4,0.7,3.1,1,4.4,0.3c1.8-1.1,1.9-3.6,1.9-5.8c-0.1-4-0.3-7.9-0.4-11.9
							c-0.1-2.1-0.2-4.3,0.4-6.3c0.6-2,2-4,4-4.6c2-0.6,4.5,0.5,5,2.5c0.2,0.9,0.1,1.8,0.1,2.6c0.1,0.9,0.5,1.8,1.4,2.1
							c0.9,0.2,1.7-0.4,2.3-1c2.1-2.2,3.5-5,4.8-7.8c1.3-2.8,2.6-5.6,4.5-8c1.9-2.4,4.6-4.3,7.6-4.6c3-0.3,6.3,1.5,7.2,4.5
							c0.9,3-0.8,6.1-2.6,8.5c-2.7,3.7-5.9,7-9.6,9.7c-0.7,0.5-1.4,1-1.6,1.8c-0.4,1.4,1,2.8,2.4,3.2c1.6,0.5,3.3,0.3,5,0.4
							c1.7,0.1,3.5,0.8,4.2,2.4c0.9,2.1-0.8,4.5-2.5,6c-3.5,3.1-7.5,5.6-11.8,7.3c-1.5,0.6-3.2,1.2-4.4,2.3
							c-1.2,1.1-1.9,3.1-1.1,4.5c0.8,1.5,2.8,1.9,4.4,1.5c1.6-0.4,3.1-1.3,4.6-1.9c2.9-1.2,6.7-1.1,8.6,1.4c1.3,1.6,1.5,3.9,0.9,5.9
							c-0.6,2-1.8,3.7-3.1,5.4c-4.5,5.6-10.4,10.2-17.1,12.8C214.2,138.3,207.9,139.2,201.1,136.9"/>
					</g>
				</g>
			</g>
		</g>
		<g>
			<g>
				<g>
					<g>
						<g>
							<path fill="#E0E0E0" d="M204.2,128.8c1.7-6.5,4.1-13.5,6.9-20.7c0.7-1.8,1.4-3.6,2.1-5.3c0.7-1.8,1.4-3.5,2.2-5.1
								c1.5-3.3,3.3-6.4,5-9.3c1.7-2.9,3.5-5.5,5.1-8c1.7-2.5,3.2-4.8,4.8-6.8c3.1-4,5.9-7,8-9c1-1,1.8-1.7,2.4-2.2
								c0.3-0.2,0.5-0.4,0.6-0.6c0.1-0.1,0.2-0.2,0.2-0.2c0,0-0.1,0.1-0.2,0.2c-0.2,0.1-0.4,0.3-0.6,0.6c-0.5,0.5-1.3,1.3-2.3,2.3
								c-2,2-4.8,5-7.8,9c-1.5,2-3.1,4.3-4.7,6.8c-1.6,2.5-3.4,5.1-5.1,8c-1.7,2.9-3.4,5.9-5,9.2c-0.8,1.6-1.4,3.4-2.1,5.1
								c-0.7,1.8-1.4,3.5-2.1,5.3c-2.8,7.2-5.2,14.2-6.9,20.7"/>
						</g>
					</g>
				</g>
			</g>
		</g>
		<g>
			<g>
				<g>
					<g>
						<g>
							<path fill="#E0E0E0" d="M215.4,97.6c0,0-0.1-0.3-0.2-0.9c-0.1-0.6-0.3-1.4-0.5-2.5c-0.4-2.1-0.8-5-1.2-8.3
								c-0.4-3.2-0.9-6.1-1.3-8.2c-0.2-1-0.4-1.9-0.5-2.5c-0.1-0.6-0.2-0.9-0.1-0.9c0,0,0.1,0.3,0.3,0.9c0.2,0.6,0.4,1.4,0.6,2.5
								c0.5,2.1,1,5,1.4,8.2c0.4,3.2,0.8,6.1,1.1,8.3c0.1,1,0.3,1.8,0.3,2.5C215.4,97.2,215.5,97.6,215.4,97.6z"/>
						</g>
					</g>
				</g>
			</g>
		</g>
		<g>
			<g>
				<g>
					<g>
						<g>
							<path fill="#E0E0E0" d="M242.6,91.6c0,0-0.4,0.1-1.1,0.2c-0.7,0.1-1.7,0.2-3,0.4c-2.5,0.3-5.9,0.9-9.7,1.8
								c-3.8,0.8-7.1,1.7-9.5,2.5c-1.2,0.4-2.2,0.7-2.9,0.9c-0.7,0.2-1,0.3-1.1,0.3c0,0,0.4-0.2,1-0.4c0.7-0.3,1.6-0.6,2.8-1
								c2.4-0.8,5.8-1.7,9.5-2.6c3.8-0.8,7.2-1.4,9.7-1.7c1.3-0.1,2.3-0.2,3-0.3C242.2,91.6,242.6,91.6,242.6,91.6z"/>
						</g>
					</g>
				</g>
			</g>
		</g>
		<g>
			<g>
				<g>
					<g>
						<g>
							<path fill="#E0E0E0" d="M204.5,128.3c0,0-0.1-0.1-0.2-0.3c-0.1-0.3-0.3-0.6-0.5-1c-0.4-0.8-1-2.1-1.7-3.6
								c-1.4-3.1-3.2-7.4-5.2-12.2c-1.9-4.8-3.7-9.1-5.1-12.3c-0.7-1.5-1.2-2.8-1.6-3.7c-0.2-0.4-0.3-0.7-0.4-1
								c-0.1-0.2-0.1-0.4-0.1-0.4c0,0,0.1,0.1,0.2,0.3c0.1,0.3,0.3,0.6,0.5,1c0.4,0.8,1,2.1,1.7,3.6c1.4,3.1,3.2,7.4,5.2,12.2
								c1.9,4.8,3.7,9.1,5.1,12.3c0.7,1.5,1.2,2.8,1.6,3.7c0.2,0.4,0.3,0.7,0.4,1C204.4,128.2,204.5,128.3,204.5,128.3z"/>
						</g>
					</g>
				</g>
			</g>
		</g>
		<g>
			<g>
				<g>
					<g>
						<g>
							<path fill="#E0E0E0" d="M240.4,115.5c0,0-0.1,0.1-0.4,0.2c-0.3,0.1-0.6,0.2-1,0.4c-1,0.3-2.3,0.8-3.8,1.4
								c-3.2,1.2-7.7,2.8-12.7,4.7c-4.9,1.8-9.4,3.5-12.7,4.6c-1.6,0.6-3,1-3.9,1.3c-0.4,0.1-0.8,0.2-1.1,0.3
								c-0.2,0.1-0.4,0.1-0.4,0.1c0,0,0.1-0.1,0.4-0.2c0.3-0.1,0.6-0.2,1-0.4c1-0.3,2.3-0.8,3.8-1.4c3.2-1.2,7.7-2.8,12.7-4.7
								c4.9-1.8,9.4-3.5,12.7-4.6c1.6-0.6,3-1,3.9-1.3c0.4-0.1,0.8-0.2,1.1-0.3C240.3,115.5,240.4,115.4,240.4,115.5z"/>
						</g>
					</g>
				</g>
			</g>
		</g>
	</g>
	<g>
		<path fill="#ECECEC" d="M44.6,20.8c0.3-2.5-3.1-4.5-5.7-4.7c-1.2-0.1-2.5,0.1-3.7-0.3c-2.6-0.9-3.6-4.2-6.1-5.2
			c-1.9-0.8-4-0.1-5.8,0.8c-1.8,0.9-3.6,2.1-5.6,2.2c-1.8,0.1-3.7-0.5-5.2,0.3c-1.1,0.6-1.7,2-2.8,2.7c-1,0.8-2.4,0.9-3.7,1
			s-2.6,0.1-3.8,0.6c-1.2,0.5-2.1,1.8-1.9,3L44.6,20.8z"/>
	</g>
	<g>
		<path fill="#F5F5F5" d="M218.4,43.3c0.4-2.5-3.2-4.6-5.9-4.9c-1.3-0.1-2.6,0.1-3.8-0.3c-2.6-0.9-3.7-4.3-6.3-5.4
			c-1.9-0.8-4.2-0.1-6,0.9c-1.9,0.9-3.7,2.1-5.8,2.3c-1.8,0.1-3.8-0.6-5.4,0.3c-1.2,0.7-1.8,2-2.9,2.8c-1.1,0.8-2.5,1-3.8,1
			c-1.3,0.1-2.7,0.1-3.9,0.6c-1.2,0.6-2.2,1.8-2,3.1L218.4,43.3z"/>
	</g>
	<g>
		<path fill="#F5F5F5" d="M272.3,54.5c0.2-1.6-2-2.9-3.7-3c-0.8-0.1-1.6,0.1-2.4-0.2c-1.6-0.6-2.3-2.7-3.9-3.3
			c-1.2-0.5-2.6-0.1-3.7,0.5c-1.2,0.6-2.3,1.3-3.6,1.4c-1.1,0.1-2.3-0.3-3.3,0.2c-0.7,0.4-1.1,1.2-1.8,1.7c-0.7,0.5-1.5,0.6-2.3,0.6
			c-0.8,0-1.7,0.1-2.4,0.4c-0.7,0.3-1.4,1.1-1.2,1.9L272.3,54.5z"/>
	</g>
	<g>
		<path fill="#ECECEC" d="M264.3,18.7c0.4-2.9-3.6-5.2-6.7-5.4c-1.4-0.1-2.9,0.1-4.3-0.4c-3-1-4.1-4.9-7-6.1c-2.2-0.9-4.7-0.1-6.7,1
			c-2.1,1.1-4.2,2.4-6.5,2.5c-2,0.1-4.2-0.6-6,0.4c-1.3,0.7-2,2.3-3.2,3.2c-1.2,0.9-2.8,1.1-4.2,1.2c-1.5,0.1-3,0.1-4.4,0.7
			c-1.4,0.6-2.5,2.1-2.2,3.5L264.3,18.7z"/>
	</g>
	<g>
		<path fill="#263238" d="M98.5,29.1c1.2-0.5,2.4,0.6,3,1.6c0.6,1.1,1.1,2.4,2.3,2.9c0.9,0.4,1.9,0.2,2.9,0.2c3,0.1,5.3,2.7,6.7,5.4
			c0.8,1.7,1.5,3.6,0.9,5.4c-0.5,1.6-1.8,2.7-3.2,3.6c-2.8,1.8-6.1,2.9-9.4,2.7s-6.6-1.7-8.7-4.2c-1.6-2-2.5-4.5-2.9-7
			c-0.4-2.5-0.3-5.1-0.2-7.7"/>
		<g>
			<path fill="#375A64" d="M111.5,42.4c0,0,0-0.3,0-0.7c-0.1-0.5-0.2-1.2-0.6-1.9c-0.4-0.8-1-1.6-1.9-2.3c-0.9-0.7-2.1-1.2-3.4-1.4
				c-1.3-0.2-2.6-0.1-3.7-0.4c-1.2-0.2-2.1-0.8-2.7-1.4c-0.7-0.6-1.1-1.1-1.4-1.5c-0.1-0.2-0.2-0.4-0.3-0.5
				c-0.1-0.1-0.1-0.2-0.1-0.2c0,0,0.2,0.2,0.5,0.6c0.3,0.4,0.7,0.9,1.4,1.5c0.7,0.5,1.5,1.1,2.7,1.3c1.1,0.2,2.4,0.1,3.7,0.3
				c1.3,0.2,2.5,0.8,3.4,1.5c0.9,0.7,1.6,1.6,1.9,2.4c0.4,0.8,0.5,1.5,0.5,2c0,0.2,0,0.4,0,0.6C111.5,42.3,111.5,42.4,111.5,42.4z"
				/>
		</g>
	</g>
	<g>
		<path fill="#FF4F5B" d="M123.2,36.9l-4.4,16.6l-9-9.7c-4.1-2.7-9-4-14-3.8l0,0l-14-0.6l-7.7,2.8c-1.9,0.7-3.6,1.5-5.3,2.6
			l-15,10.4c-3.2,2.3-5.8,4.1-6.4,7.6c-0.8,4.6,1.5,9.8,6.4,10.7L75,73.6l0.7,13.5l33.5-3.1l-0.9-20.3c6.8,5.3,10,7.3,15.2,6.3
			c1.7-0.3,4.2-2.1,5-4.8c2.8-9.5,3.3-24.5,3.3-24.5L123.2,36.9z M70.7,60.7l1.9-0.5l0.1,0.7L70.7,60.7z"/>
		<g>
			<path fill="#263238" d="M53.4,73.4c0,0,0.1,0,0.2,0c0.1,0,0.3,0,0.5,0c0.5,0,1.2,0,2,0c1.8,0,4.3,0,7.5,0c6.3,0,15.1,0,24.8,0
				l-0.1,0.1c0-0.2,0-0.5,0-0.8c0.2-3.3,0.3-6.6,0.4-9.6l0.1,0.1c-7.5-0.7-14-1.8-18.6-2.4c-2.3-0.3-4.1-0.5-5.4-0.7
				c-0.6-0.1-1.1-0.1-1.4-0.2c-0.2,0-0.3,0-0.4,0c-0.1,0-0.1,0-0.1,0c0,0,0,0,0.1,0c0.1,0,0.2,0,0.4,0c0.3,0,0.8,0.1,1.5,0.1
				c1.3,0.1,3.1,0.3,5.4,0.6c4.6,0.5,11.1,1.6,18.6,2.3l0.1,0l0,0.1c-0.1,3-0.3,6.2-0.4,9.6c0,0.3,0,0.5,0,0.8l0,0.1l-0.1,0
				c-9.7,0-18.4-0.1-24.8-0.1c-3.2,0-5.7,0-7.5,0c-0.9,0-1.6,0-2,0c-0.2,0-0.4,0-0.5,0C53.5,73.4,53.4,73.4,53.4,73.4z"/>
		</g>
		<g>
			<path fill="#263238" d="M53.9,59c0,0,0.1-0.1,0.3-0.2c0.2-0.1,0.6-0.2,1-0.3c0.8-0.2,2.1-0.4,3.4-0.3c1.3,0.1,2.5,0.5,3.3,0.9
				c0.4,0.2,0.7,0.4,0.9,0.5c0.2,0.1,0.3,0.2,0.3,0.2c0,0-0.5-0.3-1.3-0.6c-0.8-0.3-1.9-0.7-3.2-0.8c-1.3-0.1-2.5,0-3.3,0.2
				C54.4,58.8,53.9,59,53.9,59z"/>
		</g>
		<g>
			<path fill="#263238" d="M58.5,55.1c0,0,0.4,0.1,0.9,0.5c0.5,0.3,1.3,0.8,2,1.5c0.7,0.6,1.4,1.3,1.7,1.9c0.1,0.3,0.2,0.6,0.2,0.8
				c0,0.2-0.1,0.3-0.1,0.3c0,0,0.1-0.4-0.2-1c-0.3-0.6-1-1.1-1.7-1.8c-0.7-0.6-1.4-1.2-2-1.5C58.8,55.4,58.5,55.1,58.5,55.1z"/>
		</g>
		<g>
			<path fill="#263238" d="M73,60.9c0,0-0.2-0.5-0.4-1.3c-0.2-0.8-0.5-1.9-0.8-3.2c-0.3-1.2-0.7-2.3-1-3.1c-0.3-0.8-0.5-1.3-0.5-1.3
				c0,0,0.1,0.1,0.2,0.3c0.1,0.2,0.3,0.5,0.4,0.9c0.3,0.8,0.7,1.9,1.1,3.1c0.3,1.2,0.6,2.4,0.8,3.2C72.9,60.4,73,60.9,73,60.9z"/>
		</g>
		<g>
			
				<ellipse transform="matrix(3.807907e-002 0.9993 -0.9993 3.807907e-002 165.8577 -48.7444)" fill="#263238" cx="108.2" cy="61.8" rx="11.3" ry="0.1"/>
		</g>
		<g opacity="0.3">
			<path d="M108,52.8c0.3,2.2,1.3,4.2,2,6.3c0.7,2.1,1.3,4.3,0.8,6.5c-0.8-0.7-1.7-1.3-2.5-2"/>
		</g>
		<g>
			<path fill="#263238" d="M121,62.4c0,0-0.1-0.1-0.2-0.3c-0.1-0.2-0.3-0.5-0.4-0.9c-0.3-0.8-0.7-1.9-1-3.2
				c-0.3-1.3-0.5-2.4-0.5-3.3c0-0.4,0-0.8,0-1c0-0.2,0-0.4,0-0.4c0,0,0.1,0.5,0.2,1.4c0.1,0.8,0.3,2,0.6,3.2c0.3,1.3,0.7,2.4,1,3.1
				C120.8,61.9,121,62.4,121,62.4z"/>
		</g>
		<polygon opacity="0.3" points="70.9,53.4 71.5,60.5 72.7,60.1 		"/>
		<g>
			<path fill="#FAFAFA" d="M107.2,53.3c0,0,0,0-0.1,0c-0.1,0-0.2-0.1-0.3-0.2c-0.3-0.1-0.7-0.3-1.2-0.5c-1.1-0.3-2.8-0.7-4.8-0.2
				c-1,0.2-2.1,0.6-3.1,1.3c-1,0.6-2.1,1.4-3.2,2.2c-1.1,0.8-2.4,1.5-3.9,1.8c-1.5,0.4-3.1,0.4-4.6,0.2c-0.8-0.1-1.6-0.3-2.3-0.6
				c-0.7-0.3-1.4-0.6-2-1c-0.6-0.4-1.2-0.9-1.7-1.4c-0.5-0.5-1-1.1-1.4-1.6c-0.8-1.1-1.5-2.2-2.3-3.2c-0.7-1-1.5-1.9-2.2-2.5
				c-0.8-0.7-1.6-1.2-2.4-1.5c-0.8-0.3-1.5-0.4-2-0.5c-1.2,0-1.8,0.3-1.8,0.3c0,0,0,0,0.1,0c0.1,0,0.2-0.1,0.3-0.1
				c0.1,0,0.3-0.1,0.6-0.1c0.2,0,0.5-0.1,0.8,0c0.6,0,1.3,0.1,2.1,0.4c0.8,0.3,1.6,0.8,2.4,1.4c0.8,0.7,1.6,1.5,2.3,2.5
				c0.7,1,1.4,2.1,2.3,3.2c0.4,0.5,0.9,1.1,1.4,1.6c0.5,0.5,1.1,1,1.7,1.4c0.6,0.4,1.3,0.7,2,1c0.7,0.3,1.5,0.5,2.2,0.6
				c1.6,0.2,3.1,0.2,4.5-0.2c1.4-0.3,2.7-1.1,3.9-1.8c1.1-0.8,2.2-1.5,3.3-2.1c1.1-0.6,2.1-1.1,3.2-1.3c2.1-0.4,3.8-0.1,4.9,0.3
				c0.6,0.2,1,0.4,1.2,0.5C107,53.2,107.1,53.2,107.2,53.3C107.2,53.3,107.2,53.3,107.2,53.3z"/>
		</g>
		<g>
			<path fill="#FAFAFA" d="M115.4,49.9c0,0,0,0.2,0,0.5c0,0.3,0,0.8-0.1,1.4c-0.1,0.6-0.3,1.3-0.7,2c-0.3,0.7-0.8,1.5-1.4,2.2
				c-1.1,1.5-2.6,2.4-3.6,2.9c-0.5,0.3-1,0.4-1.3,0.5c-0.3,0.1-0.5,0.1-0.5,0.1c0,0,0.7-0.2,1.8-0.8c1.1-0.5,2.4-1.5,3.5-2.9
				c0.6-0.7,1-1.4,1.4-2.1c0.4-0.7,0.6-1.4,0.7-1.9C115.5,50.6,115.4,49.9,115.4,49.9z"/>
		</g>
		<g>
			<path fill="#FAFAFA" d="M120.5,70c0,0-0.1,0-0.2-0.1c-0.1-0.1-0.3-0.2-0.4-0.3c-0.4-0.3-0.9-0.7-1.4-1.4c-1-1.3-1.9-3.5-1.9-6
				c0-2.5,0.6-4.7,1.1-6.3c0.2-0.8,0.5-1.4,0.6-1.8c0.2-0.4,0.2-0.7,0.3-0.7c0,0-0.1,0.2-0.2,0.7c-0.1,0.5-0.3,1.1-0.5,1.8
				c-0.4,1.6-1,3.8-1,6.2c0,2.5,0.8,4.6,1.8,5.9C119.7,69.4,120.6,69.9,120.5,70z"/>
		</g>
		<g>
			<path fill="#FAFAFA" d="M130.4,51.1c0,0-0.1,0.1-0.4,0.2c-0.3,0.1-0.7,0.3-1.2,0.5c-1,0.4-2.4,0.8-4.1,0.7
				c-1.6-0.1-3-0.7-3.9-1.4c-0.4-0.3-0.7-0.7-0.9-0.9c-0.2-0.2-0.3-0.4-0.2-0.4c0,0,0.4,0.5,1.2,1.2c0.8,0.6,2.2,1.2,3.8,1.3
				c1.6,0.1,3-0.3,4-0.6C129.8,51.4,130.4,51.1,130.4,51.1z"/>
		</g>
		<g>
			<path fill="#FAFAFA" d="M67.9,60.4c0,0-0.2-0.7-0.6-1.7c-0.4-1-1-2.4-2-3.8c-0.9-1.4-2-2.5-2.8-3.3c-0.8-0.8-1.4-1.2-1.3-1.2
				c0,0,0.2,0.1,0.4,0.3c0.3,0.2,0.6,0.5,1,0.8c0.8,0.7,1.9,1.9,2.9,3.3c0.9,1.4,1.6,2.8,1.9,3.9c0.2,0.5,0.3,1,0.4,1.3
				C67.9,60.2,67.9,60.4,67.9,60.4z"/>
		</g>
		<g>
			<path fill="#FAFAFA" d="M72.8,61.1c0,0,0,0.1-0.1,0.2c-0.1,0.1-0.2,0.3-0.4,0.6c-0.4,0.5-1.1,1.1-2,1.7c-1,0.5-2.3,1-3.7,1.2
				c-1.5,0.3-3.1,0.3-4.7,0.6c-0.8,0.1-1.6,0.3-2.4,0.6c-0.7,0.3-1.4,0.6-2,1c-1.2,0.8-2.1,1.8-2.8,2.7c-0.6,0.9-1,1.7-1.2,2.3
				c-0.2,0.6-0.3,0.9-0.3,0.9c0,0,0-0.1,0-0.2c0-0.2,0.1-0.4,0.2-0.7c0.2-0.6,0.6-1.4,1.2-2.4c0.6-0.9,1.5-1.9,2.8-2.7
				c0.6-0.4,1.3-0.8,2.1-1c0.8-0.3,1.6-0.5,2.4-0.6c1.7-0.3,3.3-0.4,4.7-0.6c1.4-0.2,2.7-0.6,3.7-1.2c1-0.5,1.6-1.1,2-1.6
				C72.6,61.4,72.8,61.1,72.8,61.1z"/>
		</g>
		<g>
			<path fill="#FAFAFA" d="M81.8,62.3c0,0,0.1,0.1,0.1,0.4c0.1,0.3,0.2,0.7,0.2,1.2c0.1,0.5,0.1,1.1,0.1,1.8c0,0.7-0.1,1.4-0.3,2.2
				c-0.2,0.8-0.4,1.5-0.7,2.1c-0.3,0.6-0.6,1.1-0.8,1.6c-0.3,0.4-0.5,0.7-0.7,1c-0.2,0.2-0.3,0.3-0.3,0.3c0,0,0.4-0.5,0.9-1.4
				c0.3-0.4,0.5-1,0.8-1.6c0.2-0.6,0.5-1.3,0.6-2c0.2-0.7,0.2-1.5,0.3-2.1c0-0.7,0-1.3-0.1-1.7C81.9,62.9,81.7,62.3,81.8,62.3z"/>
		</g>
		<g>
			<path fill="#FAFAFA" d="M108,68.7c0,0.1-1.2-0.6-2.8-0.8c-1.6-0.2-2.9,0.2-2.9,0.1c0,0,0.3-0.2,0.8-0.3c0.5-0.1,1.3-0.2,2.1-0.1
				c0.8,0.1,1.6,0.3,2,0.6C107.7,68.4,108,68.6,108,68.7z"/>
		</g>
	</g>
	<polygon fill="#FFBF9D" points="127.6,26.5 123.4,37 131.3,40.5 133.4,31.6 	"/>
	<path fill="#FFBF9D" d="M123.6,36.3l0.3-2.1l0.2-5.5l-0.2-3.8c0,0,1.3,0.1,2,1.7c0.7,1.7,0.7,4.2,0.7,4.2s5.3,2.1,3.5,7.1"/>
	<g>
		<path fill="#FFBF9D" d="M130.9,28c0-0.4,0-0.9-0.2-1.2c-0.3-0.4-0.7-0.7-1.2-0.7s-0.8-0.1-1.3,0l1,1.4c-0.2,1-0.3,1.6-0.4,2.6
			c-0.1,0.4-0.1,1,0.3,1.2c0.3,0.2,0.7,0,1-0.2c0.2-0.3,0.4-0.6,0.5-1C130.6,29.3,130.8,28.6,130.9,28z"/>
		<path fill="#FFBF9D" d="M132.4,29.6c0-0.4,0-0.9-0.2-1.2c-0.3-0.4-0.7-0.7-1.2-0.7c-0.5-0.1-0.8-0.1-1.3,0l1,1.4
			c-0.2,1-0.3,1.6-0.4,2.6c-0.1,0.4-0.1,1,0.3,1.2c0.3,0.2,0.7,0,1-0.2c0.2-0.3,0.4-0.6,0.5-1C132.1,30.9,132.3,30.3,132.4,29.6z"/>
		<path fill="#FFBF9D" d="M134,31.2c0-0.4,0-0.9-0.2-1.2c-0.3-0.4-0.7-0.7-1.2-0.7c-0.5-0.1-0.8-0.1-1.3,0l1,1.4
			c-0.2,1-0.3,1.6-0.4,2.6c-0.1,0.4-0.1,1,0.3,1.2c0.3,0.2,0.7,0,1-0.2c0.2-0.3,0.4-0.6,0.5-1C133.7,32.5,133.9,31.8,134,31.2z"/>
		<g>
			<path fill="#FF9A6C" d="M130.8,27c0.1,0,0.2,0.8,0.1,1.9c-0.1,1-0.5,1.8-0.6,1.8c-0.1,0,0.2-0.8,0.4-1.8
				C130.8,27.8,130.7,27,130.8,27z"/>
		</g>
		<g>
			<path fill="#FF9A6C" d="M132.4,29.2c0.1,0,0.2,0.7,0,1.6c-0.2,0.9-0.6,1.5-0.7,1.5c-0.1,0,0.3-0.7,0.5-1.5
				C132.3,29.9,132.3,29.2,132.4,29.2z"/>
		</g>
	</g>
	<g>
		<path fill="#FF9A6C" d="M126,27c0,0,0.1,0.4,0.2,1.1c0.1,0.7,0.3,1.7,0.5,2.8l-0.1-0.1c0.7,0.2,1.4,0.7,2.1,1.3
			c0.7,0.6,1.1,1.4,1.4,2.1c0.3,0.7,0.4,1.4,0.4,2c0,0.6-0.1,1.1-0.1,1.4c-0.1,0.3-0.1,0.5-0.1,0.5c0,0,0.2-0.7,0.1-1.9
			c0-0.6-0.2-1.2-0.5-1.9c-0.3-0.7-0.7-1.4-1.4-2c-0.6-0.6-1.3-1-2-1.2l-0.1,0l0-0.1c-0.2-1.2-0.3-2.2-0.4-2.9
			C126,27.4,125.9,27,126,27z"/>
	</g>
	<g>
		<g>
			<g>
				<path fill="#FFBF9D" d="M88.9,64.6c0,0,5.2-1.4,6.1-1.5c0.7,0,4.7,0.6,6.5,1c0.7,0.1,1.2,0.8,1.1,1.5c0,0,0,0.1,0,0.1
					c-0.3,0.7-1,0.8-1,0.8s0.9,0.4,0.8,1.5c-0.1,1-1.4,1.1-1.4,1.1s0.1,0.1,0.2,0.2c0.6,0.8,0.1,1.9-0.9,2l-0.6,0
					c0,0,0.7,0.4,0.6,1.1c-0.2,1.4-3.3,1.2-3.3,1.2l-8.3-0.2L88.9,64.6z"/>
			</g>
			<g>
				<path fill="#FFBF9D" d="M101,62.4c-0.1,0.4-0.4,1.4-1.2,1.7l-4.2-0.8c0,0,3.3-0.6,3.8-1.1c0.2-0.2,0.4-0.4,0.7-0.5
					C100.6,61.5,101.2,61.9,101,62.4z"/>
			</g>
		</g>
		<g>
			<g>
				<path fill="#FF9A6C" d="M97.7,63.5c0,0.1,0.8,0.3,1.9,0.4c1.1,0.1,1.9,0.2,1.9,0.2c0-0.1-0.8-0.3-1.9-0.4
					C98.5,63.6,97.7,63.5,97.7,63.5z"/>
			</g>
		</g>
		<g>
			<g>
				<path fill="#FF9A6C" d="M98.3,66c0,0.1,0.7,0.3,1.6,0.4c0.9,0.1,1.7,0,1.7,0c0-0.1-0.7-0.1-1.7-0.2C99,66.1,98.3,66,98.3,66z"/>
			</g>
		</g>
		<g>
			<g>
				<path fill="#FF9A6C" d="M96.2,65.4c-0.1,0,0,0.3,0.2,0.5c0.2,0.2,0.5,0.2,0.5,0.1c0-0.1-0.1-0.2-0.3-0.3
					C96.4,65.5,96.2,65.4,96.2,65.4z"/>
			</g>
		</g>
		<g>
			<g>
				<path fill="#FF9A6C" d="M97.4,68.6c0,0.1,0.8,0.2,1.8,0.4c1,0.1,1.8,0.2,1.8,0.1c0-0.1-0.8-0.2-1.8-0.4
					C98.2,68.6,97.4,68.6,97.4,68.6z"/>
			</g>
		</g>
		<g>
			<g>
				<path fill="#FF9A6C" d="M95.1,67.1c0,0-0.1,0.1-0.2,0.2c0,0.2,0,0.4,0.1,0.6c0.1,0.2,0.3,0.4,0.5,0.4c0.2,0,0.3,0,0.3,0
					c0-0.1-0.3-0.2-0.5-0.5C95.1,67.5,95.2,67.2,95.1,67.1z"/>
			</g>
		</g>
		<g>
			<g>
				
					<ellipse transform="matrix(-0.9996 -2.813198e-002 2.813198e-002 -0.9996 193.9566 145.1448)" fill="#FF9A6C" cx="98" cy="71.2" rx="1.7" ry="0.1"/>
			</g>
		</g>
		<g>
			<g>
				<path fill="#FF9A6C" d="M94.2,69.5c0,0-0.1,0.1-0.1,0.2c0,0.2,0,0.4,0.1,0.6c0.3,0.4,0.6,0.6,0.6,0.6c0.1-0.1-0.2-0.3-0.4-0.7
					C94.2,69.8,94.3,69.5,94.2,69.5z"/>
			</g>
		</g>
	</g>
	<path fill="#263238" d="M72.5,23.2c-0.2-1.3-1.6-2.3-3-2.1c-1.3,0.2-2.4,1.3-2.8,2.7c-0.4,1.3-0.1,2.7,0.4,4c0.4,1,1.2,1.9,2.2,2.2
		c1,0.2,2-0.3,2.6-1c0.7-0.7,1-1.7,1.4-2.6L72.5,23.2z"/>
	<path fill="#FF4F5B" d="M74.2,22.9c-0.4-0.3-1-0.1-1.3,0.3c-0.3,0.4-0.4,0.9-0.4,1.4c0,0.8,0.1,1.7,0.5,2.4
		c0.1,0.2,0.2,0.5,0.5,0.6c0.2,0.1,0.5-0.1,0.6-0.2c0.2-0.2,0.2-0.4,0.3-0.7c0.3-1.4,0.3-2.9-0.2-4.2"/>
	<g>
		<path fill="#FF4F5B" d="M98,16.4c2.4-1.2,3.7-2.4,3.5-3.3c-0.2-1-5-2.5-6.1-2.9c-2.6-1-5.1,1.3-9.3,2.2
			c-8.1,1.6-14.3,4.6-13.9,6.6c0.2,1,1.9,1.6,4.5,1.7"/>
	</g>
	<g opacity="0.4">
		<path d="M96.6,16.6c2.1-1,3.4-2.1,3.1-3c-0.6-2.4-6.4-2.1-13.6-0.6C79,14.4,73.5,17,73.9,18.8c0.2,0.9,1.7,1.4,4,1.5"/>
	</g>
	<g>
		<g>
			<g>
				<g>
					<g>
						<g>
							<g>
								<g>
									<g>
										<g>
											<g>
												<path fill="#FFBF9D" d="M77.9,19.6c-1-5.6,2.8-10.9,8.4-11.7c5.3-0.8,10.3,2.9,11.4,8.2c1,4.6,1.8,9.3,1.9,11
													c0.2,5.2-2.7,7.3-3.9,8c-0.3,0.2-1,0.3-1.3,0.4l0,0c0,0,0,0,0,0l1.5,5.9c0.7,3.9-1.3,7.4-5.1,8.2
													c-3.9,0.8-7.1-2-7.9-5.9L77.9,19.6z"/>
											</g>
											<g>
												<g>
													<g>
														<g>
															<g>
																<path fill="#263238" d="M96.1,19.3c0.1,0.4-0.2,0.9-0.6,1c-0.4,0.1-0.9-0.1-1-0.6c-0.1-0.4,0.2-0.9,0.6-1
																	C95.6,18.6,96,18.9,96.1,19.3z"/>
															</g>
														</g>
													</g>
												</g>
												<g>
													<g>
														<g>
															<g>
																<g>
																	<path fill="#263238" d="M96.6,17.6c-0.1,0.1-0.8-0.2-1.6,0c-0.9,0.2-1.4,0.7-1.5,0.7c-0.1,0,0-0.2,0.2-0.5
																		c0.2-0.3,0.7-0.5,1.2-0.7c0.5-0.1,1,0,1.3,0.2C96.5,17.3,96.6,17.5,96.6,17.6z"/>
																</g>
															</g>
														</g>
													</g>
												</g>
											</g>
											<g>
												<g>
													<g>
														<g>
															<g>
																<path fill="#263238" d="M87.6,21c0.1,0.4-0.2,0.9-0.6,1c-0.4,0.1-0.9-0.1-1-0.6c-0.1-0.4,0.2-0.9,0.6-1
																	C87.1,20.3,87.5,20.6,87.6,21z"/>
															</g>
														</g>
													</g>
												</g>
												<g>
													<g>
														<g>
															<g>
																<g>
																	<path fill="#263238" d="M88.1,19.4c-0.1,0.1-0.8-0.2-1.6,0c-0.9,0.2-1.4,0.7-1.5,0.7c-0.1,0,0-0.2,0.2-0.5
																		c0.2-0.3,0.7-0.5,1.2-0.7c0.5-0.1,1,0,1.3,0.2C88,19.2,88.1,19.4,88.1,19.4z"/>
																</g>
															</g>
														</g>
													</g>
												</g>
											</g>
											<g>
												<g>
													<g>
														<g>
															<g>
																<path fill="#263238" d="M92.5,25.2c0,0,0.5-0.2,1.4-0.5c0.2-0.1,0.4-0.2,0.4-0.3c0-0.2-0.1-0.4-0.3-0.6
																	c-0.3-0.5-0.6-1-1-1.6c-1.4-2.2-2.4-4.1-2.4-4.1c0.1-0.1,1.3,1.7,2.7,3.9c0.3,0.5,0.7,1.1,1,1.6
																	c0.1,0.2,0.3,0.5,0.3,0.8c0,0.2-0.2,0.3-0.3,0.4c-0.1,0.1-0.3,0.1-0.4,0.1C93.1,25.2,92.6,25.3,92.5,25.2z"/>
															</g>
														</g>
													</g>
												</g>
											</g>
											<g>
												<g>
													<g>
														<g>
															<path fill="#FF9A6C" d="M94.3,35.5c0,0-3.3,0.9-8-0.7c0,0,2.2,4.2,8.4,2.3L94.3,35.5z"/>
														</g>
													</g>
												</g>
											</g>
											<g>
												<g>
													<g>
														<g>
															<path fill="#FF9A6C" d="M92.6,27.4c-0.4-0.3-1-0.5-1.5-0.3c-0.4,0.1-0.7,0.4-0.9,0.7c-0.2,0.4-0.1,0.8,0.1,1
																c0.3,0.3,0.8,0.3,1.2,0.1c0.4-0.2,0.7-0.5,1-0.9c0.1-0.1,0.2-0.2,0.2-0.3C92.7,27.6,92.7,27.5,92.6,27.4"/>
														</g>
													</g>
												</g>
											</g>
											<g>
												<g>
													<g>
														<g>
															<g>
																<path fill="#263238" d="M90.1,26.3c0.1,0,0.3,0.9,1.3,1.4c0.9,0.5,1.9,0.2,2,0.3c0,0.1-0.2,0.2-0.6,0.3
																	c-0.4,0.1-1,0.1-1.6-0.2c-0.6-0.3-0.9-0.8-1-1.2C90,26.6,90,26.3,90.1,26.3z"/>
															</g>
														</g>
													</g>
												</g>
											</g>
										</g>
									</g>
								</g>
								<g>
									<g>
										<g>
											<g>
												<path fill="#263238" d="M87.9,16.6c0,0.3-0.9,0.3-1.9,0.6c-1,0.3-1.8,0.8-1.9,0.6c-0.1-0.1,0-0.3,0.3-0.6
													c0.3-0.3,0.8-0.6,1.4-0.8c0.6-0.2,1.2-0.2,1.6-0.1C87.7,16.4,87.9,16.5,87.9,16.6z"/>
											</g>
										</g>
									</g>
								</g>
								<g>
									<g>
										<g>
											<g>
												<path fill="#263238" d="M95.8,15.4c-0.1,0.2-0.8,0.1-1.5,0.3c-0.7,0.1-1.3,0.4-1.5,0.2c-0.1-0.1,0-0.3,0.2-0.5
													c0.2-0.2,0.6-0.5,1.1-0.6c0.5-0.1,1,0,1.3,0.2C95.8,15.1,95.9,15.3,95.8,15.4z"/>
											</g>
										</g>
									</g>
								</g>
							</g>
						</g>
					</g>
				</g>
			</g>
		</g>
	</g>
	<g>
		<path fill="#263238" d="M90.1,11.3c-0.6,1.5-2,2.7-3.6,3.2c-1,0.3-2.3,0.4-3,1.2C83,16.4,83,17.2,82.9,18
			c-0.2,1.2,0.1,2.6-0.8,3.4c-0.7,0.6-1.4,0.6-1.8,1.4c-0.5,0.9-0.4,2-0.2,3c0.2,1,0.4,2.5-0.4,3.1c-0.7-3.6-2.7-7.3-3.4-10.9
			c-0.1-0.5-0.2-1.1-0.1-1.6c0.2-1.2,1.4-2,2.5-2.5c3.1-1.5,6.5-2.3,9.9-3.1"/>
	</g>
	<g>
		<g>
			<g>
				<path fill="#FF4F5B" d="M99.2,13.1c0,0-3.8-8.2-4.1-8.5c-0.3-0.4-3.5-3.6-9.5-3.5l-4.8,1c0,0-6.4,3.6-7.3,5.5
					c-0.9,1.9,0.2,10.1,0.2,10.1l13-5.7l9.7,0.4L99.2,13.1z"/>
			</g>
			<g>
				<path fill="#FF4F5B" d="M83.8,0.3L85.2,0c0.5-0.1,1.1,0.1,1.4,0.6c0.2,0.3,0.4,0.7,0.6,1.3C87.6,3.4,90,13.6,90,13.6l-6.1,0.9
					L81.5,1.8l-2,0.9l0-0.4c0-0.2,0-0.5,0.1-0.7l0,0c0.2-0.3,0.4-0.5,0.7-0.6L83.8,0.3z"/>
			</g>
			<g>
				<path fill="#375A64" d="M97.7,14.3l-1.2-2.9l-10.1-1L75.7,16l0.7,3.4C76.3,19.3,85.1,13.6,97.7,14.3z"/>
			</g>
			<g>
				<path fill="#FF4F5B" d="M95.3,10.7l0.5,0.3l3.7,1.7c0,0-6.6-0.9-13.1,0.5c-6.5,1.4-13.5,5.1-13.5,5.1l3.8-3.5l0,0
					c1.1-1.7,2.8-3,4.8-3.4l8.2-1.8C91.6,9.2,93.6,9.6,95.3,10.7z"/>
			</g>
			<g>
				<g>
					<path fill="#263238" d="M98.6,13c0,0-0.1-0.1-0.2-0.1c-0.2-0.1-0.4-0.2-0.7-0.3c-0.7-0.2-1.6-0.4-2.9-0.4
						c-2.4-0.1-5.9,0.3-9.4,1.3c-1.8,0.5-3.5,0.9-5,1.5c-1.5,0.6-2.8,1.2-3.9,1.7c-0.5,0.3-1,0.6-1.4,0.8c-0.4,0.3-0.8,0.5-0.9,0.8
						c-0.2,0.3-0.2,0.6-0.2,0.8c0,0.2,0.1,0.3,0.1,0.3c0,0-0.2-0.4,0.2-1c0.2-0.3,0.5-0.5,0.9-0.7c0.4-0.2,0.9-0.5,1.4-0.8
						c1.1-0.5,2.4-1.1,3.9-1.6c1.5-0.5,3.2-0.9,5-1.4c3.6-1.1,6.9-1.4,9.3-1.4c1.2,0,2.2,0.1,2.8,0.3C98.2,12.9,98.6,13.1,98.6,13z"
						/>
				</g>
			</g>
		</g>
	</g>
	<g>
		<path fill="#263238" d="M97.4,12.1"/>
		<path fill="#263238" d="M97.8,13.6c1.2,2.6,5.2,6.3,1.3,9.9c0,0-1.2-5.9-2.2-8.1c-0.3-0.6-0.6-1.3-1.1-1.8"/>
	</g>
	<path fill="#263238" d="M77.8,18.5c-2.7,0.4-4.7,3.3-4.2,5.9c0.1,0.7,0.4,1.4,0.3,2.1c-0.1,0.7-0.5,1.3-0.6,2
		c-0.3,1.3-0.4,3.5,0,4.8c1.1,3.1,5,6.9,8.5,6.1"/>
	<path fill="#263238" d="M80.4,36.8c0.7,0.2,1.5-0.1,2.1-0.6c0.5-0.5,0.9-1.2,1.1-1.9c0.7-2.3,0.2-4.9-1.4-6.8
		c1.8-3.1,1.8-7.2,0.1-10.4l-4.9,1.5L80.4,36.8z"/>
	<g>
		<path fill="#375A64" d="M72.6,26.2c0,0-0.2,0.4-0.8,0.7c-0.5,0.4-1.5,0.7-2.5,0.5c-1-0.1-1.8-0.6-2.3-1.1
			c-0.5-0.5-0.5-0.9-0.5-0.9c0,0,0.1,0.4,0.6,0.8c0.4,0.4,1.2,0.9,2.2,1c1,0.1,1.8-0.2,2.4-0.5C72.2,26.5,72.5,26.2,72.6,26.2z"/>
	</g>
	<g>
		<path fill="#375A64" d="M72.2,25.5c0,0-0.3,0.2-0.9,0.3c-0.6,0.1-1.4,0.1-2.2-0.1c-0.8-0.3-1.5-0.8-1.9-1.2
			c-0.4-0.4-0.5-0.8-0.5-0.8c0,0,0.2,0.3,0.6,0.7c0.4,0.4,1,0.8,1.8,1.1c0.8,0.3,1.6,0.3,2.1,0.2C71.8,25.6,72.2,25.5,72.2,25.5z"/>
	</g>
	<g>
		<path fill="#375A64" d="M82.9,18.5c0,0,0,0.2,0,0.5c0,0.3-0.1,0.8-0.3,1.3c-0.4,1.1-1.2,2.5-2.6,3.6c-1.4,1.1-3.1,1.4-4.2,1.5
			c-0.6,0-1,0-1.4-0.1c-0.3-0.1-0.5-0.1-0.5-0.1c0,0,0.7,0.1,1.8,0.1c1.1-0.1,2.7-0.4,4.1-1.5c1.4-1,2.2-2.4,2.6-3.5
			C82.8,19.2,82.9,18.5,82.9,18.5z"/>
	</g>
	<g>
		<path fill="#375A64" d="M83.1,25.9c0,0-0.1,0.1-0.2,0.3c-0.2,0.2-0.5,0.4-0.8,0.6c-0.8,0.5-2,0.8-3.3,0.8c-1.3,0-2.5-0.3-3.4-0.5
			c-0.4-0.1-0.8-0.2-1-0.3c-0.2-0.1-0.4-0.1-0.4-0.1c0,0,0.5,0.1,1.4,0.3c0.8,0.2,2,0.4,3.3,0.5c1.3,0,2.5-0.3,3.2-0.8
			C82.7,26.3,83,25.9,83.1,25.9z"/>
	</g>
	<g>
		<path fill="#263238" d="M99.5,25.8c0-0.1,1,0.1,2.5-0.6c0.7-0.3,1.6-0.8,2.2-1.7c0.6-0.8,0.8-2.1,0.5-3.2c-0.3-1.2-1-2.2-1.9-2.7
			c-0.9-0.5-1.8-0.8-2.6-1.1c-0.7-0.3-1.3-0.8-1.6-1.1c-0.1-0.2-0.2-0.3-0.3-0.4c-0.1-0.1-0.1-0.2-0.1-0.2c0,0,0.1,0.2,0.4,0.5
			c0.3,0.3,0.8,0.7,1.6,1c0.7,0.3,1.7,0.6,2.6,1.1c0.9,0.5,1.7,1.6,2,2.8c0.3,1.2,0.1,2.5-0.6,3.4c-0.7,0.9-1.5,1.4-2.3,1.7
			c-0.7,0.3-1.4,0.4-1.9,0.5c-0.2,0-0.4,0-0.5,0C99.5,25.9,99.5,25.9,99.5,25.8z"/>
	</g>
	<g>
		<path fill="#263238" d="M68,24.2C68,24.2,68,24.2,68,24.2c-0.2-0.1-0.2-0.2-0.3-0.3c-0.2-0.2-0.4-0.6-0.5-1.2
			c-0.1-0.5,0-1.2,0.3-1.8c0.4-0.6,1.1-1.1,1.9-1.2c0.8-0.1,1.6,0.1,2.2,0.6c0.5,0.5,0.8,1.1,0.9,1.6c0.1,0.5,0,1-0.1,1.2
			c-0.1,0.1-0.1,0.2-0.1,0.3c0,0.1-0.1,0.1-0.1,0.1c0,0,0.1-0.2,0.1-0.4c0.1-0.3,0.1-0.7,0-1.2c-0.1-0.5-0.3-1.1-0.8-1.5
			c-0.5-0.4-1.3-0.7-2-0.5C68.7,20,68,20.4,67.7,21c-0.3,0.6-0.4,1.2-0.4,1.7c0.1,0.5,0.2,0.9,0.4,1.1C67.9,24,68,24.2,68,24.2z"/>
	</g>
	<g>
		<path fill="#263238" d="M81.1,38.7c0,0-0.1,0-0.2,0.1c-0.1,0-0.3,0.1-0.5,0.1c-0.5,0.1-1.1,0.2-1.9,0.3c-0.8,0-1.9,0-2.9-0.4
			c-1-0.4-2-1.3-2.6-2.4c-0.6-1.1-0.9-2.4-0.9-3.5c0-1.1,0.2-2.1,0.4-2.9c0.2-0.8,0.5-1.4,0.7-1.8c0.1-0.2,0.2-0.4,0.2-0.5
			c0.1-0.1,0.1-0.2,0.1-0.2c0,0-0.1,0.2-0.3,0.7c-0.2,0.4-0.4,1.1-0.6,1.9c-0.2,0.8-0.4,1.8-0.4,2.9c0,1.1,0.3,2.3,0.9,3.4
			c0.6,1.1,1.5,1.9,2.5,2.4c1,0.4,2,0.5,2.8,0.5c0.8,0,1.5-0.1,1.9-0.2C80.8,38.7,81.1,38.7,81.1,38.7z"/>
	</g>
	<g>
		<path fill="#263238" d="M72.1,28.3c0,0,0,0.1-0.1,0.2c0,0.1-0.1,0.3-0.3,0.5c-0.3,0.4-0.9,1-1.8,1.3c-0.4,0.1-1,0.2-1.5,0.1
			c-0.5-0.1-1.1-0.4-1.6-0.7c-0.5-0.4-0.9-0.9-1.2-1.5c-0.3-0.6-0.4-1.3-0.4-2c0-1.4,0.5-2.8,1.3-3.7c0.8-1,1.9-1.5,2.8-1.4
			c0.9,0,1.6,0.4,2,0.8c0.4,0.4,0.4,0.7,0.4,0.7c0,0-0.1-0.3-0.5-0.6c-0.4-0.3-1.1-0.7-1.9-0.7c-0.9,0-1.9,0.5-2.7,1.4
			c-0.7,0.9-1.3,2.2-1.2,3.6c0,0.7,0.1,1.3,0.4,1.9c0.3,0.6,0.7,1.1,1.1,1.4c0.5,0.4,1,0.6,1.5,0.7c0.5,0.1,1,0.1,1.4,0
			c0.9-0.2,1.4-0.8,1.7-1.2C72,28.6,72.1,28.3,72.1,28.3z"/>
	</g>
	<g>
		<g>
			<g>
				<g>
					<g>
						<g>
							<g>
								<g>
									<g>
										<g>
											<path fill="#375A64" d="M183.9,172.4h-120c-8,0-14.6-6.5-14.6-14.6V88.3c0-8,6.5-14.6,14.6-14.6h120
												c8,0,14.6,6.5,14.6,14.6v69.5C198.4,165.8,191.9,172.4,183.9,172.4z"/>
										</g>
									</g>
								</g>
							</g>
							<g>
								<g>
									<g>
										<g>
											<path fill="#375A64" d="M196.4,174.6H52.1c-4.8,0-8.6-3.9-8.6-8.6l0,0H205l0,0C205,170.8,201.2,174.6,196.4,174.6z"/>
										</g>
									</g>
								</g>
							</g>
							<g>
								<g>
									<g>
										<g>
											<rect x="53.3" y="77.7" fill="#263238" width="140.7" height="83.3"/>
										</g>
									</g>
								</g>
							</g>
							<g>
								<g>
									<g>
										<g>
											<polygon fill="#263238" points="109.2,165.1 111.2,168.3 139.4,168.3 141.2,165.1 											"/>
										</g>
									</g>
								</g>
							</g>
						</g>
						<g>
							<g>
								<g>
									<g>
										<g>
											<g>
												<g>
													<g>
														<path fill="#ECECEC" d="M188.1,160.7H59.5c-1.8,0-3.3-1.5-3.3-3.3V83.8c0-1.8,1.5-3.3,3.3-3.3h128.6
															c1.8,0,3.3,1.5,3.3,3.3v73.6C191.4,159.2,189.9,160.7,188.1,160.7z"/>
													</g>
												</g>
											</g>
										</g>
									</g>
									<g>
										<g>
											<g>
												<g>
													<g>
														<polygon fill="#FAFAFA" points="191.2,160.8 56.1,160.8 56.2,86.5 191.2,86.5 														"/>
													</g>
												</g>
											</g>
										</g>
									</g>
									<g>
										<g>
											<g>
												<g>
													<g>
														<circle fill="#263238" cx="66.2" cy="83.6" r="1.1"/>
													</g>
												</g>
											</g>
										</g>
									</g>
									<g>
										<g>
											<g>
												<g>
													<g>
														<circle fill="#263238" cx="59.7" cy="83.6" r="1.1"/>
													</g>
												</g>
											</g>
										</g>
									</g>
									<g>
										<g>
											<g>
												<g>
													<g>
														<circle fill="#263238" cx="62.8" cy="83.6" r="1.1"/>
													</g>
												</g>
											</g>
										</g>
									</g>
								</g>
							</g>
						</g>
						<g>
							<g>
								<g>
									<g>
										<path fill="#263238" d="M197.1,165.1c0,0.1-33.1,0.1-73.9,0.1c-40.8,0-73.9,0-73.9-0.1c0-0.1,33.1-0.1,73.9-0.1
											C164,165,197.1,165,197.1,165.1z"/>
									</g>
								</g>
							</g>
						</g>
					</g>
				</g>
			</g>
		</g>
		<g>
			<ellipse fill="#E0E0E0" cx="123" cy="146.3" rx="18.1" ry="0.1"/>
		</g>
		<g>
			<g>
				<g>
					<g>
						
							<rect x="59.3" y="127.2" transform="matrix(-1 8.913595e-004 -8.913595e-004 -1 159.1582 284.7442)" fill="#F5F5F5" width="40.3" height="30.3"/>
					</g>
				</g>
			</g>
			<g>
				<g>
					<g>
						<polygon fill="#E0E0E0" points="59.4,157.6 73.4,138.7 82.2,150.5 88.1,144.2 99.7,157.5 						"/>
					</g>
				</g>
			</g>
			<g>
				<g>
					<g>
						<g>
							<g>
								<circle fill="#E0E0E0" cx="82.7" cy="136.4" r="3.2"/>
							</g>
						</g>
					</g>
				</g>
			</g>
		</g>
		<g>
			<g>
				<g>
					<g>
						
							<rect x="146.4" y="127.3" transform="matrix(-1 8.923132e-004 -8.923132e-004 -1 333.2244 284.7563)" fill="#F5F5F5" width="40.3" height="30.3"/>
					</g>
				</g>
			</g>
			<g>
				<g>
					<g>
						<polygon fill="#E0E0E0" points="146.4,157.6 160.5,138.8 169.2,150.6 175.1,144.2 186.7,157.6 						"/>
					</g>
				</g>
			</g>
			<g>
				<g>
					<g>
						<g>
							<g>
								<circle fill="#E0E0E0" cx="169.7" cy="136.5" r="3.2"/>
							</g>
						</g>
					</g>
				</g>
			</g>
		</g>
		<g>
			<g>
				<path fill="#E0E0E0" d="M180.3,121.3c0,0,0.4-0.1,1.1-0.1c0.7,0,1.7,0,2.7,0c0.4,0,0.8,0,1.2,0l-0.1,0.1c0-0.8,0-1.4,0-1.9
					c0-0.5,0-0.8,0.1-0.8c0,0,0,0.3,0.1,0.8c0,0.5,0,1.1,0,1.9l0,0.1l-0.1,0c-0.4,0-0.8,0-1.2,0c-1.1,0-2,0-2.7,0
					C180.8,121.3,180.3,121.3,180.3,121.3z"/>
			</g>
			<g>
				<ellipse fill="#E0E0E0" cx="172.8" cy="121.3" rx="2.5" ry="0.1"/>
			</g>
			<g>
				<ellipse fill="#E0E0E0" cx="162.7" cy="121.3" rx="2.5" ry="0.1"/>
			</g>
			<g>
				<ellipse fill="#E0E0E0" cx="152.6" cy="121.3" rx="2.5" ry="0.1"/>
			</g>
			<g>
				<ellipse fill="#E0E0E0" cx="142.5" cy="121.3" rx="2.5" ry="0.1"/>
			</g>
			<g>
				<ellipse fill="#E0E0E0" cx="132.4" cy="121.3" rx="2.5" ry="0.1"/>
			</g>
			<g>
				<ellipse fill="#E0E0E0" cx="122.3" cy="121.3" rx="2.5" ry="0.1"/>
			</g>
			<g>
				<ellipse fill="#E0E0E0" cx="112.2" cy="121.3" rx="2.5" ry="0.1"/>
			</g>
			<g>
				<ellipse fill="#E0E0E0" cx="102.1" cy="121.3" rx="2.5" ry="0.1"/>
			</g>
			<g>
				<ellipse fill="#E0E0E0" cx="92" cy="121.3" rx="2.5" ry="0.1"/>
			</g>
			<g>
				<ellipse fill="#E0E0E0" cx="81.9" cy="121.3" rx="2.5" ry="0.1"/>
			</g>
			<g>
				<ellipse fill="#E0E0E0" cx="71.9" cy="121.3" rx="2.5" ry="0.1"/>
			</g>
			<g>
				<path fill="#E0E0E0" d="M59.2,121.3C59.2,121.3,59.2,121.3,59.2,121.3L59.2,121.3c0-0.1,1.1-0.1,2.5-0.1c1.4,0,2.5,0,2.5,0.1
					c0,0.1-1.1,0.1-2.5,0.1C60.4,121.4,59.3,121.3,59.2,121.3L59.2,121.3C59.2,121.3,59.2,121.3,59.2,121.3z"/>
			</g>
			<g>
				<ellipse fill="#E0E0E0" cx="59.2" cy="113.7" rx="0.1" ry="2.5"/>
			</g>
			<g>
				<ellipse fill="#E0E0E0" cx="59.2" cy="103.6" rx="0.1" ry="2.5"/>
			</g>
			<g>
				<ellipse fill="#E0E0E0" cx="59.2" cy="93.5" rx="0.1" ry="2.5"/>
			</g>
			<g>
				<ellipse fill="#E0E0E0" cx="65.5" cy="89.7" rx="2.5" ry="0.1"/>
			</g>
			<g>
				<ellipse fill="#E0E0E0" cx="75.6" cy="89.7" rx="2.5" ry="0.1"/>
			</g>
			<g>
				<ellipse fill="#E0E0E0" cx="85.7" cy="89.7" rx="2.5" ry="0.1"/>
			</g>
			<g>
				<ellipse fill="#E0E0E0" cx="95.7" cy="89.7" rx="2.5" ry="0.1"/>
			</g>
			<g>
				<ellipse fill="#E0E0E0" cx="105.8" cy="89.7" rx="2.5" ry="0.1"/>
			</g>
			<g>
				<ellipse fill="#E0E0E0" cx="115.9" cy="89.7" rx="2.5" ry="0.1"/>
			</g>
			<g>
				<ellipse fill="#E0E0E0" cx="126" cy="89.7" rx="2.5" ry="0.1"/>
			</g>
			<g>
				<ellipse fill="#E0E0E0" cx="136.1" cy="89.7" rx="2.5" ry="0.1"/>
			</g>
			<g>
				<ellipse fill="#E0E0E0" cx="146.2" cy="89.7" rx="2.5" ry="0.1"/>
			</g>
			<g>
				<ellipse fill="#E0E0E0" cx="156.3" cy="89.7" rx="2.5" ry="0.1"/>
			</g>
			<g>
				<ellipse fill="#E0E0E0" cx="166.4" cy="89.7" rx="2.5" ry="0.1"/>
			</g>
			<g>
				<ellipse fill="#E0E0E0" cx="176.5" cy="89.7" rx="2.5" ry="0.1"/>
			</g>
			<g>
				<path fill="#E0E0E0" d="M185.4,93.4c-0.1,0-0.1-1.1-0.1-2.5c0-0.4,0-0.8,0-1.2l0.1,0.1c-0.8,0-1.3-0.1-1.3-0.1
					c0,0,0.5-0.1,1.3-0.1l0.1,0l0,0.1c0,0.4,0,0.8,0,1.2C185.5,92.2,185.4,93.4,185.4,93.4z"/>
			</g>
			<g>
				<ellipse fill="#E0E0E0" cx="185.4" cy="100.9" rx="0.1" ry="2.5"/>
			</g>
			<g>
				<ellipse fill="#E0E0E0" cx="185.4" cy="111" rx="0.1" ry="2.5"/>
			</g>
		</g>
		<g>
			<ellipse fill="#E0E0E0" cx="123" cy="156.5" rx="18.1" ry="0.1"/>
		</g>
		<g>
			<ellipse fill="#E0E0E0" cx="123" cy="151.8" rx="18.1" ry="0.1"/>
		</g>
	</g>
	<g>
		<g>
			<g>
				<g>
					<g>
						
							<rect x="76.8" y="93.9" transform="matrix(0.9968 -8.009249e-002 8.009249e-002 0.9968 -8.5105 11.4626)" fill="#FFFFFF" width="123.8" height="35.9"/>
						<g>
							<path fill="#263238" d="M201.8,124.8c0-0.5-1.1-13.2-2.9-35.8l0.1,0.1c-28.6,2.3-73.3,5.9-123.4,10l0,0l0.1-0.1
								c1,12.4,2,24.4,2.9,35.8l-0.1-0.1c35.4-2.8,66.2-5.3,88.2-7C188.5,125.8,201.2,124.8,201.8,124.8c0,0-0.2,0-0.6,0.1
								c-0.4,0-1,0.1-1.8,0.2c-1.6,0.1-3.9,0.3-6.9,0.6c-6,0.5-14.8,1.2-25.8,2.1c-22,1.8-52.9,4.3-88.2,7.1l-0.1,0l0-0.1
								c-0.9-11.4-1.9-23.5-2.9-35.8l0-0.1l0.1,0l0,0c50.1-4,94.7-7.6,123.4-9.9l0.1,0l0,0.1C200.7,111.5,201.7,124.3,201.8,124.8z"
								/>
						</g>
					</g>
					<g>
						<g>
							<g>
								<g>
									
										<rect x="79.7" y="100.7" transform="matrix(-0.9975 7.096773e-002 -7.096773e-002 -0.9975 206.3832 223.3565)" fill="#FF4F5B" width="39" height="29.3"/>
								</g>
							</g>
						</g>
						<g>
							<g>
								<g>
									<g>
										<g>
											<path fill="#E0E0E0" d="M166.2,124.8c0,0.1-1.1,0.2-2.5,0.3c-0.2-0.2-0.1-0.1-0.1-0.1l0,0l0,0l0,0l0,0l0,0l0,0l0-0.1
												l0-0.1c0-0.1,0-0.2,0-0.2c0-0.2,0-0.3,0-0.5c0-0.3,0-0.5,0-0.8c0-0.5,0-0.7,0-0.7c0,0,0.1,0.3,0.1,0.7
												c0,0.3,0.1,0.5,0.1,0.8c0,0.2,0,0.3,0,0.5c0,0.1,0,0.2,0,0.2l0,0.1l0,0.1l0,0l0,0l0,0l0,0l0,0l0,0
												c-0.1,0,0.1,0.1-0.1-0.1C165.1,124.7,166.2,124.7,166.2,124.8z"/>
										</g>
										<g>
											
												<ellipse transform="matrix(0.9965 -8.413939e-002 8.413939e-002 0.9965 -9.8164 15.148)" fill="#E0E0E0" cx="174.8" cy="124" rx="2.9" ry="0.1"/>
										</g>
										<g>
											
												<ellipse transform="matrix(0.9965 -8.413865e-002 8.413865e-002 0.9965 -9.6948 16.1046)" fill="#E0E0E0" cx="186.2" cy="123.1" rx="2.9" ry="0.1"/>
										</g>
										<g>
											<path fill="#E0E0E0" d="M197.1,119.6c0.1,0,0.2,1.1,0.3,2.5c-0.2,0.2-0.1,0.1-0.1,0.1l0,0l0,0l0,0l0,0l0,0l0,0l-0.1,0
												l-0.1,0c-0.1,0-0.2,0-0.2,0c-0.2,0-0.3,0-0.5,0c-0.3,0-0.5,0-0.8,0c-0.5,0-0.7,0-0.7,0c0,0,0.3-0.1,0.7-0.1
												c0.3,0,0.5-0.1,0.8-0.1c0.2,0,0.3,0,0.5,0c0.1,0,0.2,0,0.2,0l0.1,0l0.1,0l0,0l0,0l0,0l0,0l0,0l0,0c0,0.1,0.1-0.1-0.1,0.1
												C197.1,120.8,197,119.6,197.1,119.6z"/>
										</g>
										<g>
											
												<ellipse transform="matrix(-8.414183e-002 -0.9965 0.9965 -8.414183e-002 100.8507 317.8205)" fill="#E0E0E0" cx="196.5" cy="112.6" rx="2.4" ry="0.1"/>
										</g>
										<g>
											
												<ellipse transform="matrix(-8.414100e-002 -0.9965 0.9965 -8.414100e-002 109.3679 306.8242)" fill="#E0E0E0" cx="195.7" cy="103.2" rx="2.4" ry="0.1"/>
										</g>
										<g>
											<path fill="#E0E0E0" d="M192.4,93.8c0-0.1,1.1-0.2,2.5-0.3c0.2,0.2,0.1,0.1,0.1,0.1l0,0l0,0l0,0l0,0l0,0l0,0l0,0.1l0,0.1
												c0,0.1,0,0.2,0,0.2c0,0.2,0,0.3,0,0.5c0,0.3,0,0.5,0,0.8c0,0.5,0,0.7,0,0.7c0,0-0.1-0.3-0.1-0.7c0-0.3-0.1-0.5-0.1-0.8
												c0-0.2,0-0.3,0-0.5c0-0.1,0-0.2,0-0.2l0-0.1l0-0.1l0,0l0,0l0,0l0,0l0,0l0,0c0.1,0-0.1-0.1,0.1,0.1
												C193.5,93.8,192.4,93.9,192.4,93.8z"/>
										</g>
										<g>
											
												<ellipse transform="matrix(-0.9965 8.414598e-002 -8.414598e-002 -0.9965 374.9149 173.2241)" fill="#E0E0E0" cx="183.8" cy="94.5" rx="2.9" ry="0.1"/>
										</g>
										<g>
											
												<ellipse transform="matrix(-0.9965 8.414598e-002 -8.414598e-002 -0.9965 352.2134 176.1081)" fill="#E0E0E0" cx="172.4" cy="95.5" rx="2.9" ry="0.1"/>
										</g>
										<g>
											<path fill="#E0E0E0" d="M161.5,98.9c-0.1,0-0.2-1.1-0.3-2.5c0.2-0.2,0.1-0.1,0.1-0.1l0,0l0,0l0,0l0,0l0,0l0,0l0.1,0
												l0.1,0c0.1,0,0.2,0,0.2,0c0.2,0,0.3,0,0.5,0c0.3,0,0.5,0,0.8,0c0.5,0,0.7,0,0.7,0c0,0-0.3,0.1-0.7,0.1
												c-0.3,0-0.5,0.1-0.8,0.1c-0.2,0-0.3,0-0.5,0c-0.1,0-0.2,0-0.2,0l-0.1,0l-0.1,0l0,0l0,0l0,0l0,0l0,0l0,0
												c0-0.1-0.1,0.1,0.1-0.1C161.5,97.8,161.6,98.9,161.5,98.9z"/>
										</g>
										<g>
											
												<ellipse transform="matrix(8.414175e-002 0.9965 -0.9965 8.414175e-002 254.0982 -64.4894)" fill="#E0E0E0" cx="162.1" cy="106" rx="2.4" ry="0.1"/>
										</g>
										<g>
											
												<ellipse transform="matrix(8.414103e-002 0.9965 -0.9965 8.414103e-002 264.2051 -56.6609)" fill="#E0E0E0" cx="162.9" cy="115.4" rx="2.4" ry="0.1"/>
										</g>
									</g>
								</g>
							</g>
						</g>
						<g>
							<g>
								<g>
									<polygon fill="#FF4F5B" points="80.8,131.3 93.1,112.2 102.3,123 107.6,116.5 119.7,128.6 									"/>
								</g>
							</g>
						</g>
						<g>
							<g>
								<g>
									<g>
										<g>
											<circle fill="#FF4F5B" cx="101.9" cy="109.4" r="3.1"/>
										</g>
									</g>
								</g>
							</g>
						</g>
						<g opacity="0.2">
							<g>
								<g>
									<polygon points="80.8,131.3 93.1,112.2 102.3,123 107.6,116.5 119.7,128.6 									"/>
								</g>
							</g>
						</g>
						<g opacity="0.2">
							<g>
								<g>
									<g>
										<g>
											<circle cx="101.9" cy="109.4" r="3.1"/>
										</g>
									</g>
								</g>
							</g>
						</g>
					</g>
					<g>
						<g>
							
								<ellipse transform="matrix(0.9958 -9.191104e-002 9.191104e-002 0.9958 -9.14 13.4306)" fill="#263238" cx="141.2" cy="105.9" rx="17" ry="0.1"/>
						</g>
						<g>
							
								<ellipse transform="matrix(0.9958 -9.191173e-002 9.191173e-002 0.9958 -9.6548 13.5271)" fill="#263238" cx="142" cy="111.6" rx="17.1" ry="0.1"/>
						</g>
						<g>
							
								<ellipse transform="matrix(0.9958 -9.191150e-002 9.191150e-002 0.9958 -10.1693 13.624)" fill="#263238" cx="142.8" cy="117.2" rx="17.3" ry="0.1"/>
						</g>
						<g>
							
								<ellipse transform="matrix(0.9958 -9.191193e-002 9.191193e-002 0.9958 -10.6808 13.6643)" fill="#263238" cx="143" cy="122.8" rx="17.3" ry="0.1"/>
						</g>
						
							<rect x="123.6" y="101.4" transform="matrix(0.9968 -8.009182e-002 8.009182e-002 0.9968 -7.7509 10.9445)" fill="#FF4F5B" width="17.8" height="1.4"/>
					</g>
				</g>
				<g>
					<g>
						
							<ellipse transform="matrix(8.623552e-002 0.9963 -0.9963 8.623552e-002 272.4601 -79.007)" fill="#E0E0E0" cx="179.3" cy="109" rx="4.7" ry="0.1"/>
					</g>
					<g>
						
							<ellipse transform="matrix(0.998 -6.321648e-002 6.321648e-002 0.998 -6.5379 11.5418)" fill="#E0E0E0" cx="179.1" cy="109.1" rx="4.5" ry="0.1"/>
					</g>
				</g>
			</g>
			<g>
				<path fill="#263238" d="M198.9,89c0,0-0.1,0-0.3-0.1c-0.2-0.1-0.5-0.2-0.9-0.3c-0.8-0.3-1.9-0.7-3.3-1.3
					c-2.9-1.1-7.1-2.8-12.2-4.8c-10.4-4.1-24.8-9.8-40.9-16.1l0.1,0c-1.6,0.8-3.4,1.7-5.2,2.6c-16.7,8.3-31.9,15.8-42.9,21.2
					c-5.5,2.7-9.9,4.9-13,6.4c-1.5,0.8-2.7,1.3-3.5,1.7c-0.4,0.2-0.7,0.3-0.9,0.4c-0.2,0.1-0.3,0.1-0.3,0.1s0.1-0.1,0.3-0.2
					c0.2-0.1,0.5-0.3,0.9-0.5c0.8-0.4,2-1,3.5-1.8c3.1-1.5,7.5-3.7,13-6.5c11-5.5,26.1-13,42.9-21.3c1.8-0.9,3.5-1.8,5.2-2.6l0,0
					l0,0c16.1,6.4,30.5,12.1,40.9,16.2c5.2,2.1,9.3,3.7,12.2,4.9c1.4,0.6,2.5,1,3.3,1.3c0.4,0.2,0.7,0.3,0.9,0.3
					C198.8,88.9,198.9,89,198.9,89z"/>
			</g>
		</g>
		<g>
			<path fill="#263238" d="M173.8,30.2c-0.6-1.4-2.3-2-3.7-1.4c-0.6,0.3-1.1,0.8-1.4,1.4l-4.4,0.4l4.4,8.8l2.8-5.1
				c0.3,0,0.6-0.1,0.9-0.2C173.8,33.3,174.4,31.6,173.8,30.2z"/>
		</g>
		<path fill="#263238" d="M148.4,17.5l2.9-1.2l-6.9-1.7c-0.4-0.7-1.1-1.2-2-1.3c-1.5-0.2-3,0.9-3.2,2.4c-0.2,1.5,0.9,3,2.4,3.2
			c0.8,0.1,1.5-0.1,2.1-0.6l6.6,4L148.4,17.5z"/>
		<g>
			<path fill="#263238" d="M203.8,103.5L203.8,103.5l-47.5-88.5l-0.3-0.5l-7.5,3.4l35.8,94.4l0,0.1l21.3,33.9l0.4-0.1l0.5-0.1
				l0.4-0.1l-4.4-7l2.6-6.6l6.8,2.5l3,9.9l0.4-0.1l0.5-0.1l0.4-0.1L203.8,103.5z M206.8,117.8l-8.5-2.2l4.9-9.6L206.8,117.8z
				 M197.6,115.4l-10.5-2.7l15.5-7L197.6,115.4z M201.5,101.8l-10.9-3l4.5-9L201.5,101.8z M189.9,98.6l-9.6-2.6l14.1-6.4L189.9,98.6
				z M193.8,87.4l-10-3.5l3.6-8.5L193.8,87.4z M183,83.6l-8.8-3.1l12.5-5.7L183,83.6z M185.9,72.7l-9.1-3.9l2.7-8L185.9,72.7z
				 M176,68.4l-7.8-3.4l10.6-4.8L176,68.4z M178.1,58.3L178.1,58.3l-8.3-4.4l1.8-7.6L178.1,58.3z M170.1,43.2l-7.2-4.8l0.9-6.8
				L170.1,43.2z M162.2,37.9l-5.8-3.9l6.7-3.1L162.2,37.9z M156.1,17.2l6.1,11.3l-6.3-5.3L156.1,17.2z M154.9,31.3l-4.4-11.6
				l4.6,3.9L154.9,31.3z M155.2,22.6l-5-4.2l5.2-2.3L155.2,22.6z M155.9,24.2l6,5.1l-6.2,2.8L155.9,24.2z M156.3,34.9l5.8,3.9
				l-1.2,8.3L156.3,34.9z M162.8,39.2l7,4.7l-8.1,3.7L162.8,39.2z M171.1,45.6l-1.9,7.9l-7.1-3.8L171.1,45.6z M162.2,50.6l6.8,3.7
				l-2.1,8.7L162.2,50.6z M169.7,54.6l7.5,4.1l-9.6,4.4L169.7,54.6z M168,65.8l7.8,3.4l-3.1,9.1L168,65.8z M176.5,69.5l8.7,3.8
				l-11.8,5.4L176.5,69.5z M173.9,81.2l8.8,3.1l-4,9.6L173.9,81.2z M183.4,84.6l9.6,3.3l-13.5,6.2L183.4,84.6z M179.7,96.6l9.8,2.7
				l-5,10L179.7,96.6z M190.3,99.5l10.7,3l-15.7,7.2L190.3,99.5z M186.5,113.4l10.7,2.8l-4,7.9L186.5,113.4z M197.9,116.3l8.8,2.2
				l-12.9,5.9L197.9,116.3z M202.1,138.2l-5.7-9.1l8.1,3L202.1,138.2z M204.7,131.3l-9-3.3l-0.2-0.3l12.6-5.7l0.1,0.4L204.7,131.3z
				 M205.4,131.6l3.1-8.1l3.1,10.4L205.4,131.6z"/>
			<g>
				<path fill="#263238" d="M141.2,56.8c0,0,0-0.3,0-0.7c0-0.5,0-1.2,0-2.2c0-1.9,0-4.7,0-8.4c0-7.2,0-17.7,0-30.4l0-0.1l0.1,0
					c4.1-0.4,8.6-0.9,13.3-1.4l0,0l0,0c10.1,11.3,22,24.6,34.7,38.7c19.7,22.1,37.5,42,50.5,56.5c6.4,7.2,11.7,13.1,15.3,17.1
					c1.8,2,3.2,3.6,4.1,4.7c0.5,0.5,0.8,0.9,1.1,1.2c0.2,0.3,0.4,0.4,0.4,0.4s-0.1-0.1-0.4-0.4c-0.2-0.3-0.6-0.7-1.1-1.2
					c-1-1.1-2.4-2.6-4.2-4.6c-3.6-4-8.9-9.9-15.3-17.1c-12.9-14.4-30.8-34.4-50.5-56.4c-12.6-14.1-24.5-27.4-34.6-38.8l0.1,0
					c-4.7,0.5-9.2,1-13.3,1.4l0.1-0.1c0,12.7,0,23.2,0,30.4c0,3.6,0,6.4,0,8.4c0,1,0,1.7,0,2.2C141.2,56.6,141.2,56.8,141.2,56.8z"
					/>
			</g>
			<g>
				<path fill="#263238" d="M141.8,49.5h-1.4c-0.2,0-0.4-0.2-0.4-0.4v-3.8c0-0.2,0.2-0.4,0.4-0.4h1.4c0.2,0,0.4,0.2,0.4,0.4v3.8
					C142.2,49.3,142,49.5,141.8,49.5z"/>
				<path fill="#263238" d="M144.7,50.2h-7c-0.4,0-0.8-0.3-0.8-0.8l0,0c0-0.4,0.3-0.8,0.8-0.8h7c0.4,0,0.8,0.3,0.8,0.8l0,0
					C145.5,49.9,145.1,50.2,144.7,50.2z"/>
				<path fill="#263238" d="M141.7,62.7l0-1l-1,0.4c0,0.4,0,0.7,0,1.1c0,0.1,0,0.1,0,0.2c0,0.1,0.2,0.1,0.2,0.2
					c0.4,0.2,0.8,0.5,1.1,0.9c0.2,0.4,0.2,1.4-0.7,1.7c-0.8,0.3-1.6-0.5-1.6-0.8c0-0.2,0-0.4-0.2-0.4c-0.3,0-0.5,0.5-0.5,0.7
					c0.1,1.5,1.5,2,2.1,2c0.4,0,0.8-0.1,1.2-0.3c0.6-0.3,1-0.9,1.1-1.6C143.7,63.9,141.6,62.8,141.7,62.7z"/>
				<path fill="#E0E0E0" d="M142.6,62.2l4.5-10.7c0.4-1-0.3-2-1.4-2h-4.5h-4.5c-1.1,0-1.8,1.1-1.4,2l4.5,10.7
					C140.4,63.4,142.1,63.4,142.6,62.2z"/>
				<g>
					<path fill="#FF4F5B" d="M137.2,50.2l-1.2,1.2c0,0,0,0.1,0,0.1l0.4,0.9l2.2-2.2H137.2z"/>
					<polygon fill="#FF4F5B" points="141.5,50.2 140.1,50.2 136.9,53.4 137.3,54.4 					"/>
					<polygon fill="#FF4F5B" points="144.6,55.7 145.6,53.3 139.4,59.5 139.9,60.5 					"/>
					<path fill="#FF4F5B" d="M143.6,58.2l-3.3,3.3l0.1,0.3c0.1,0.3,0.3,0.4,0.5,0.5l1.6-1.6L143.6,58.2z"/>
					<polygon fill="#FF4F5B" points="144.4,50.2 143,50.2 137.7,55.4 138.2,56.4 					"/>
					<path fill="#FF4F5B" d="M146.5,51c0-0.1-0.1-0.3-0.2-0.4c-0.1-0.2-0.3-0.3-0.5-0.3l-7.2,7.2l0.4,1L146.5,51z"/>
				</g>
			</g>
			<g>
				<path fill="#263238" d="M264.8,134.5h-9.7v-1.9c0-1.5,1.2-2.6,2.6-2.6h4.4c1.5,0,2.6,1.2,2.6,2.6V134.5z"/>
				<g>
					<path fill="#263238" d="M238.1,133.4h-1.6v-9.5c0-0.4,0.1-0.8,0.2-1.2l0.8-2.5c0,0,0.1-0.1,0.1,0l0.9,1.7l-0.2,0.8
						c-0.1,0.4-0.2,0.8-0.2,1.3V133.4z"/>
				</g>
				<path fill="#FF4F5B" d="M277.4,135.1c-0.5-1.1-1.4-1.9-2.6-2.1l-39.9,0v-6.6c0-0.9-0.7-1.6-1.6-1.6H214c-0.7,0-1.3,0.5-1.5,1.1
					l-0.6,1.8h2.1c0.5,0,1,0.2,1.3,0.6c0.3,0.4,0.4,0.9,0.3,1.3l-2.1,9.8c-0.2,0.7-0.8,1.3-1.6,1.3h-4.1c-0.1,0.6,0,1.2,0.1,1.9
					l0.2,1l-10.5,2.1c-0.2,0-0.3,0.2-0.3,0.3l-1,2.7c-0.1,0.1-0.1,0.2-0.1,0.4l0,0h0c-0.2,0.9-0.1,2.4,0.5,2.4H208l-0.5,0.6l-0.6,2
					h71.8C278.7,147.5,278.5,137.8,277.4,135.1z M227.6,129.1l-1.1,9.6c0,0.1,0,0.2-0.1,0.4c-0.4,2-2.2,3.3-4.2,3.3l-4.7,0
					c-0.9,0-1.6-0.9-1.4-1.8l2.2-11.5c0.2-0.8,0.8-1.3,1.6-1.3h6.4c0.3,0,0.7,0.1,0.9,0.4C227.6,128.4,227.7,128.7,227.6,129.1z"/>
				<g>
					<path fill="#375A64" d="M245.3,158.7l-30.5,0.4c-0.2,0-0.6-0.6-0.6-0.8v-3.4c0-0.2,0.2-0.4,0.4-0.4h30.7c0.2,0,0.4,0.2,0.4,0.4
						v3.4C245.7,158.6,245.5,158.7,245.3,158.7z"/>
				</g>
				<g>
					<defs>
						<path id="SVGID_1_" d="M227.6,129.1l-1.1,9.6c0,0.1,0,0.2-0.1,0.4c-0.4,2-2.2,3.3-4.2,3.3l-4.7,0c-0.9,0-1.6-0.9-1.4-1.8
							l2.2-11.5c0.2-0.8,0.8-1.3,1.6-1.3h6.4c0.3,0,0.7,0.1,0.9,0.4C227.6,128.4,227.7,128.7,227.6,129.1z"/>
					</defs>
					<use xlink:href="#SVGID_1_"  overflow="visible" fill="#FF4F5B"/>
					<clipPath id="SVGID_2_">
						<use xlink:href="#SVGID_1_"  overflow="visible"/>
					</clipPath>
					<g clip-path="url(#SVGID_2_)">
						<g>
							<path fill="#FF4F5B" d="M278.7,154.8c0-0.3,0-0.6-0.1-0.8H207c-0.1,0.1-0.1,0.5-0.1,0.8H278.7z"/>
							<g>
								<defs>
									<path id="SVGID_3_" d="M212.5,125.9l-4.3,13.4c-0.3,1.1-0.4,2.2-0.2,3.3l1.8,8.6h11.7h13.4v-24.8c0-0.9-0.7-1.6-1.6-1.6
										H214C213.3,124.8,212.7,125.2,212.5,125.9z"/>
								</defs>
								<use xlink:href="#SVGID_3_"  overflow="visible" fill="#FF4F5B"/>
								<clipPath id="SVGID_4_">
									<use xlink:href="#SVGID_3_"  overflow="visible"/>
								</clipPath>
							</g>
						</g>
					</g>
				</g>
				<path fill="#375A64" d="M217.6,142.3c-0.9,0-1.6-0.9-1.4-1.8l2.2-11.5c0.2-0.8,0.8-1.3,1.6-1.3h6.4c0.3,0,0.7,0.1,0.9,0.4
					c0.2,0.3,0.3,0.6,0.3,0.9l-1.1,9.6c0,0.1,0,0.2-0.1,0.4c-0.4,2-2.2,3.3-4.2,3.3L217.6,142.3z"/>
				<path fill="#375A64" d="M207.9,140.7c0-0.5,0.1-0.9,0.3-1.4l3.7-11.6h2.1c0.5,0,1,0.2,1.3,0.6c0.3,0.4,0.4,0.9,0.3,1.3l-2.1,9.8
					c-0.2,0.7-0.8,1.3-1.6,1.3H207.9z"/>
				<path fill="#263238" d="M278.7,155.8H207c-0.5,0-0.5-2,0-2h71.8C279.3,153.8,279.3,155.8,278.7,155.8z"/>
				<g>
					<path fill="#263238" d="M235,133.5c0,0,0,0,0,0.1c0,0.1,0,0.2,0,0.3c0,0.3,0,0.7,0,1.2c0,1.1-0.1,2.6-0.1,4.4
						c-0.1,1.9-0.1,4.1-0.2,6.5c0,0.6,0,1.2-0.1,1.9c0,0.6-0.1,1.3-0.4,2c-0.3,0.6-1,1-1.7,1.2c-0.7,0.2-1.4,0.2-2.1,0.2
						c-5.7-0.1-10.8-0.2-14.5-0.3c-1.8,0-3.3-0.1-4.4-0.1c-0.5,0-0.9,0-1.2,0c-0.1,0-0.2,0-0.3,0c-0.1,0-0.1,0-0.1,0c0,0,0,0,0.1,0
						c0.1,0,0.2,0,0.3,0c0.3,0,0.7,0,1.2,0c1.1,0,2.6,0,4.4,0c3.7,0.1,8.8,0.1,14.5,0.2c0.7,0,1.4,0,2-0.2c0.6-0.2,1.2-0.6,1.5-1.1
						c0.3-0.6,0.4-1.2,0.4-1.9c0-0.6,0.1-1.3,0.1-1.9c0.1-2.4,0.2-4.7,0.3-6.5c0.1-1.8,0.2-3.3,0.2-4.4c0-0.5,0.1-0.9,0.1-1.2
						c0-0.1,0-0.2,0-0.3C235,133.6,235,133.5,235,133.5z"/>
				</g>
				<g>
					<ellipse fill="#263238" cx="214.5" cy="146.5" rx="0.1" ry="4.7"/>
				</g>
				<g>
					<path fill="#263238" d="M218.3,124.8c0,0,0,0.2-0.1,0.7c-0.1,0.4-0.2,1.1-0.3,1.8c-0.3,1.5-0.7,3.7-1.2,6
						c-0.5,2.3-1.1,4.4-1.5,6c-0.2,0.8-0.4,1.4-0.5,1.8c-0.1,0.4-0.2,0.7-0.2,0.6c0,0,0-0.2,0.1-0.7c0.1-0.5,0.3-1.1,0.4-1.8
						c0.4-1.5,0.9-3.6,1.4-6c0.5-2.3,1-4.5,1.3-6c0.2-0.7,0.3-1.4,0.4-1.8C218.2,125.1,218.3,124.8,218.3,124.8z"/>
				</g>
				<g>
					<path fill="#FF4F5B" d="M226.6,146.1c0,0,0.2,0,0.4-0.2c0.1-0.1,0.2-0.2,0.3-0.4c0-0.2,0-0.4-0.1-0.6c-0.1-0.2-0.4-0.3-0.6-0.3
						c-0.3,0-0.6,0-1,0c-0.7,0-1.4,0-2.2,0c-0.3,0-0.6,0.3-0.6,0.6c0,0.3,0.1,0.6,0.4,0.7c0.1,0,0.1,0,0.2,0c0.1,0,0.2,0,0.2,0
						c0.2,0,0.3,0,0.5,0c0.3,0,0.6,0,0.8,0c0.5,0,0.9,0,1.2,0C226.4,146.1,226.6,146.1,226.6,146.1c0,0-0.2,0-0.4,0
						c-0.3,0-0.7,0-1.2,0c-0.3,0-0.5,0-0.8,0c-0.2,0-0.3,0-0.5,0c-0.1,0-0.2,0-0.2,0c-0.1,0-0.2,0-0.3,0c-0.4-0.1-0.6-0.5-0.6-0.9
						c0-0.4,0.4-0.8,0.9-0.8c0.8,0,1.5,0,2.2,0c0.3,0,0.7,0,1,0c0.3,0,0.6,0.2,0.8,0.4c0.1,0.1,0.1,0.3,0.1,0.4c0,0.1,0,0.2,0,0.3
						c-0.1,0.2-0.2,0.3-0.3,0.4c-0.1,0.1-0.2,0.1-0.3,0.1C226.6,146.2,226.6,146.1,226.6,146.1z"/>
				</g>
				<g>
					<g>
						<ellipse fill="#263238" cx="267.5" cy="135.8" rx="6.5" ry="0.1"/>
					</g>
					<g>
						<ellipse fill="#263238" cx="267.5" cy="137.1" rx="6.5" ry="0.1"/>
					</g>
					<g>
						<ellipse fill="#263238" cx="267.5" cy="138.4" rx="6.5" ry="0.1"/>
					</g>
					<g>
						<ellipse fill="#263238" cx="267.5" cy="139.7" rx="6.5" ry="0.1"/>
					</g>
					<g>
						<ellipse fill="#263238" cx="267.5" cy="141" rx="6.5" ry="0.1"/>
					</g>
					<g>
						<ellipse fill="#263238" cx="267.5" cy="142.3" rx="6.5" ry="0.1"/>
					</g>
					<g>
						<ellipse fill="#263238" cx="267.5" cy="143.6" rx="6.5" ry="0.1"/>
					</g>
				</g>
				<path fill="#263238" d="M199.6,174.6c-3.9,0-7.2-3.8-7.2-7.7c0-3.9,3.5-7.2,7.4-7.2l63.3-2.9c3.3-0.1,6.4,1.5,7.9,4.4
					c0.8,1.5,1.2,3.5,0.7,5.9c-1.7,7.7-8,7.6-10.5,7.4C258.8,174.3,199.6,174.6,199.6,174.6z"/>
				<path fill="#375A64" d="M205.4,165.5c1,4.3-2.8,8.1-7.1,7.1c-2.2-0.5-3.9-2.2-4.4-4.4c-1-4.3,2.8-8.1,7.1-7.1
					C203.2,161.6,204.9,163.3,205.4,165.5z"/>
				<path fill="#375A64" d="M270.2,164.1c1,5.4-3.6,10-9,9c-3-0.6-5.4-3-6-6c-1-5.4,3.6-10,9-9C267.2,158.7,269.7,161.1,270.2,164.1
					z"/>
				<g>
					<path fill="#375A64" d="M263.6,158.2c0,0-0.1,0-0.2,0c-0.1,0-0.3,0-0.5,0.1c-0.4,0-1.1,0.1-1.9,0.2c-1.6,0.2-4,0.4-6.9,0.6
						c-5.8,0.5-13.8,1-22.6,1.4c-8.9,0.4-16.9,0.5-22.7,0.6c-2.9,0-5.3,0-6.9,0c-0.8,0-1.4,0-1.9,0c-0.2,0-0.4,0-0.5,0
						c-0.1,0-0.2,0-0.2,0s0.1,0,0.2,0c0.1,0,0.3,0,0.5,0c0.4,0,1.1,0,1.9,0c1.6,0,4,0,6.9-0.1c5.8-0.1,13.8-0.3,22.7-0.6
						c8.8-0.4,16.9-0.9,22.6-1.4c2.9-0.2,5.2-0.4,6.9-0.5c0.8-0.1,1.4-0.1,1.9-0.1c0.2,0,0.4,0,0.5,0
						C263.5,158.2,263.6,158.2,263.6,158.2z"/>
				</g>
				<g>
					<path fill="#375A64" d="M261.1,172.6c0,0.1-13.8,0.1-30.8,0.1c-17,0-30.8,0-30.8-0.1c0-0.1,13.8-0.1,30.8-0.1
						C247.4,172.5,261.1,172.5,261.1,172.6z"/>
				</g>
				<g>
					<path fill="#FF4F5B" d="M210.2,151c0,0-0.2-0.6-0.4-1.5c-0.3-0.9-0.6-2.2-1-3.6c-0.4-1.4-0.7-2.7-0.8-3.7
						c-0.1-0.5-0.1-0.9-0.1-1.1c0-0.3,0-0.4,0.1-0.4c0,0,0,0.6,0.2,1.5c0.2,0.9,0.5,2.2,0.8,3.6c0.4,1.4,0.7,2.7,0.9,3.6
						c0.1,0.5,0.2,0.8,0.2,1.1C210.2,150.9,210.2,151,210.2,151z"/>
				</g>
				<g>
					<path fill="#FAFAFA" d="M258.5,170.4c0,0-0.2-0.1-0.4-0.3c-0.3-0.2-0.6-0.5-1-1c-0.4-0.5-0.7-1.1-0.9-1.9
						c-0.2-0.8-0.3-1.7-0.1-2.6c0.2-0.9,0.6-1.7,1.1-2.4c0.5-0.6,1.1-1.1,1.6-1.4c0.5-0.3,1-0.5,1.3-0.6c0.3-0.1,0.5-0.1,0.5-0.1
						c0,0-0.7,0.2-1.7,0.8c-0.5,0.3-1,0.8-1.5,1.4c-0.5,0.6-0.9,1.4-1,2.3c-0.2,0.9-0.1,1.8,0.1,2.5c0.2,0.8,0.5,1.4,0.9,1.9
						C257.9,169.9,258.5,170.3,258.5,170.4z"/>
				</g>
				<g>
					<g>
						
							<ellipse transform="matrix(0.81 -0.5864 0.5864 0.81 -38.0836 156.1174)" fill="#FFFFFF" cx="221.9" cy="136.8" rx="4.1" ry="0.1"/>
					</g>
					<g>
						
							<ellipse transform="matrix(0.8195 -0.5731 0.5731 0.8195 -36.9554 152.0136)" fill="#FFFFFF" cx="222.8" cy="134.7" rx="3.6" ry="0.1"/>
					</g>
					<g>
						
							<ellipse transform="matrix(0.8207 -0.5714 0.5714 0.8207 -39.959 145.5641)" fill="#FFFFFF" cx="211.9" cy="136.4" rx="1.8" ry="0.1"/>
					</g>
					<g>
						
							<ellipse transform="matrix(0.7903 -0.6128 0.6128 0.7903 -38.1746 158.5725)" fill="#FFFFFF" cx="212.6" cy="135.1" rx="2.2" ry="0.1"/>
					</g>
					<g>
						<ellipse fill="#FF4F5B" cx="225.1" cy="143.9" rx="2.4" ry="0.1"/>
					</g>
				</g>
				<g>
					<path fill="#FAFAFA" d="M198.4,171.9c0,0-0.2,0-0.5-0.1c-0.3-0.1-0.8-0.3-1.3-0.6c-0.5-0.3-1-0.9-1.5-1.5
						c-0.4-0.7-0.8-1.5-0.9-2.5c-0.1-0.9,0.2-1.8,0.5-2.6c0.3-0.7,0.8-1.3,1.3-1.7c0.5-0.4,0.9-0.7,1.2-0.8c0.3-0.1,0.5-0.2,0.5-0.2
						c0,0-0.7,0.3-1.6,1.1c-0.4,0.4-0.9,1-1.2,1.7c-0.3,0.7-0.5,1.6-0.5,2.5c0.1,0.9,0.4,1.7,0.8,2.4c0.4,0.7,0.9,1.2,1.4,1.5
						C197.7,171.7,198.5,171.8,198.4,171.9z"/>
				</g>
				<g>
					<ellipse fill="#FFFFFF" cx="202.3" cy="148.5" rx="5.1" ry="0.1"/>
				</g>
			</g>
		</g>
		<path fill="#FF4F5B" d="M161.5,23.9l-3.8-8.2c-1.2-2.5-4.2-3.6-6.8-2.5h0c-2.5,1.2-3.6,4.2-2.5,6.8l3.8,8.2
			c0.1,0.2,0.3,0.2,0.4,0.1l8.7-4C161.5,24.3,161.6,24.1,161.5,23.9z"/>
	</g>
	<g>
		<path fill="#263238" d="M276,174.6c0,0.1-61.1,0.1-136.6,0.1c-75.4,0-136.6,0-136.6-0.1c0-0.1,61.1-0.1,136.6-0.1
			C214.8,174.5,276,174.6,276,174.6z"/>
	</g>
</g>
</svg>
