<?xml version="1.0" encoding="utf-8"?>
<!-- Generator: Adobe Illustrator 18.1.1, SVG Export Plug-In . SVG Version: 6.00 Build 0)  -->
<svg version="1.1" id="Layer_1" xmlns="http://www.w3.org/2000/svg" xmlns:xlink="http://www.w3.org/1999/xlink" x="0px" y="0px"
	 viewBox="0 0 120 60" enable-background="new 0 0 120 60" xml:space="preserve">
<g>
	<path fill="#3395FF" d="M84.6,33.3h-5.5c-0.5,0-0.9,0.4-0.9,0.9c0,0,0,0,0,0v0.9h-6.9c-1.1,0-2.2,0.4-3.1,1.2
		c-0.1,0-0.1,0.1-0.2,0.1l-6.7,6.7c-1.4,1.4-1.4,3.7,0,5.1c0.4,0.4,1,0.8,1.6,0.9l-0.5,0.5H47.2c-2,0-3.6,1.6-3.6,3.6
		c0,2,1.6,3.6,3.6,3.6h15.5c0.1,0,0.1,0,0.2,0c1.4,0,2.8-0.4,4-1.1l11.3-7.8v0.7c0,0.5,0.4,0.9,0.9,0.9c0,0,0,0,0,0h5.5
		c0.5,0,0.9-0.4,0.9-0.9c0,0,0,0,0,0V34.3C85.5,33.8,85.1,33.3,84.6,33.3C84.6,33.3,84.6,33.3,84.6,33.3z M78.2,46.1
		c-0.2,0-0.4,0-0.5,0.1L66,54.4c-1,0.6-2.1,0.9-3.2,0.9c0,0-0.1,0-0.1,0H47.2c-1,0-1.8-0.8-1.8-1.8c0-1,0.8-1.8,1.8-1.8h15.5
		c0.3,0,0.5-0.1,0.7-0.3l2.6-2.6c0.2-0.1,0.3-0.2,0.5-0.4l4-4c0.4-0.4,0.3-0.9,0-1.3c-0.4-0.3-0.9-0.3-1.3,0l-4.4,4.3
		c-0.9,0.5-2,0.3-2.5-0.6c-0.5-0.7-0.3-1.7,0.3-2.3l6.7-6.6c0,0,0,0,0.1,0c0.5-0.5,1.2-0.8,1.9-0.8h6.9V46.1z M83.7,47.9h-3.6V35.2
		h3.6V47.9z"/>
	<circle fill="#3395FF" cx="81.9" cy="38.8" r="0.9"/>
	<path fill="#3395FF" d="M41.8,21.5v-0.7l11.4,7.8c1.2,0.7,2.6,1.1,4,1.1c0.1,0,0.1,0,0.2,0h15.5c2,0,3.6-1.6,3.6-3.6
		s-1.6-3.6-3.6-3.6H57.6l-0.5-0.5c1.9-0.5,3-2.6,2.5-4.5c-0.2-0.6-0.5-1.1-0.9-1.6l-6.7-6.7c0,0-0.1-0.1-0.2-0.1
		c-0.8-0.8-1.9-1.2-3.1-1.2h-6.9V6.9c0-0.5-0.4-0.9-0.9-0.9c0,0,0,0,0,0h-5.5c-0.5,0-0.9,0.4-0.9,0.9c0,0,0,0,0,0v14.6
		c0,0.5,0.4,0.9,0.9,0.9c0,0,0,0,0,0h5.5C41.4,22.4,41.8,22,41.8,21.5C41.8,21.5,41.8,21.5,41.8,21.5z M41.8,9.6h6.9
		c0.7,0,1.4,0.3,1.9,0.8c0,0,0,0,0.1,0l6.7,6.6c0.7,0.7,0.7,1.9,0,2.6c-0.6,0.6-1.5,0.7-2.3,0.3l-4.4-4.3c-0.4-0.4-0.9-0.3-1.3,0
		c-0.3,0.4-0.3,0.9,0,1.3l4,4c0.1,0.1,0.3,0.3,0.5,0.4l2.6,2.6c0.2,0.2,0.5,0.3,0.7,0.3h15.5c1,0,1.8,0.8,1.8,1.8
		c0,1-0.8,1.8-1.8,1.8H57.4c0,0-0.1,0-0.1,0c-1.1,0-2.2-0.3-3.2-0.8l-11.8-8.1c-0.1-0.1-0.3-0.1-0.5-0.1V9.6z M39.9,20.6h-3.6V7.8
		h3.6V20.6z"/>
	<circle fill="#3395FF" cx="38.1" cy="11.4" r="0.9"/>
	<path fill="#3395FF" d="M49.1,47.9c0.1,0,0.2,0,0.3,0l10-3.3c0.4-0.1,0.6-0.5,0.6-0.9V32.6c0-0.4-0.3-0.8-0.8-0.9l0,0l0,0l0,0l0,0
		L48,29.7c-0.1,0-0.2,0-0.4,0l-8.8,1.9l0,0l0,0c-0.1,0-0.2,0.1-0.3,0.2c0,0,0,0,0,0c0,0,0,0,0,0c-0.1,0.1-0.1,0.1-0.2,0.2
		c-0.1,0.1-0.1,0.3-0.1,0.4l0,0l0,0v11.2c0,0.4,0.3,0.7,0.6,0.9l10,3.3C48.9,47.9,49,47.9,49.1,47.9z M58.2,43.1L50,45.8v-6.6
		l8.2-2.7V43.1z M58.2,34.6L50,37.3v-1.4l8.2-2.2V34.6z M47.8,31.6l6.9,1.2l-5.7,1.5l-6.1-1.6L47.8,31.6z M48.1,45.8l-8.2-2.7v-6.6
		l2.2,0.7l6,1.9V45.8z M48.1,37.2l-5.5-1.8l-2.7-0.9v-0.8l0.1,0l1.7,0.5l0,0l0.4,0.1l6,1.6V37.2z"/>
	<path fill="#3395FF" d="M84.6,6H60.9C60.4,6,60,6.4,60,6.9c0,0,0,0,0,0v12.8c0,0.5,0.4,0.9,0.9,0.9c0,0,0,0,0,0h23.7
		c0.5,0,0.9-0.4,0.9-0.9c0,0,0,0,0,0V6.9C85.5,6.4,85.1,6,84.6,6C84.6,6,84.6,6,84.6,6z M83.7,18.8H61.8V7.8h21.9V18.8z"/>
	<path fill="#3395FF" d="M65.7,17.6c0.2,0.2,0.4,0.3,0.6,0.3h12.8c0.2,0,0.5-0.1,0.6-0.3l1.8-1.8c0.2-0.2,0.3-0.4,0.3-0.6v-3.6
		c0-0.2-0.1-0.5-0.3-0.6L79.8,9c-0.2-0.2-0.4-0.3-0.6-0.3H66.4c-0.2,0-0.5,0.1-0.6,0.3l-1.8,1.8c-0.2,0.2-0.3,0.4-0.3,0.6v3.6
		c0,0.2,0.1,0.5,0.3,0.6L65.7,17.6z M65.5,11.8l1.3-1.3h12l1.3,1.3v2.9L78.8,16h-12l-1.3-1.3V11.8z"/>
</g>
</svg>
