<?xml version="1.0" encoding="utf-8"?>
<!-- Generator: Adobe Illustrator 18.1.1, SVG Export Plug-In . SVG Version: 6.00 Build 0)  -->
<svg version="1.1" id="Layer_1" xmlns="http://www.w3.org/2000/svg" xmlns:xlink="http://www.w3.org/1999/xlink" x="0px" y="0px"
	 viewBox="0 0 120 60" enable-background="new 0 0 120 60" xml:space="preserve">
<path fill="#F0514E" d="M38,47.9c-0.4,0.4-0.6,0.9-0.6,1.5c0,0.6,0.2,1.1,0.6,1.5c0.4,0.4,0.9,0.6,1.5,0.6c0.6,0,1.1-0.2,1.5-0.6
	s0.6-0.9,0.6-1.5c0-0.6-0.2-1.1-0.6-1.5C40.2,47.1,38.8,47.1,38,47.9z M87.4,16.3h-16V6.6H22.7v44.8h9.2c0.9,3.3,4,5.8,7.6,5.8
	c3.6,0,6.7-2.5,7.6-5.8h27.3c0.9,3.3,4,5.8,7.6,5.8c3.6,0,6.7-2.5,7.6-5.8h8.3V33.3L87.4,16.3z M39.5,53.1c-2,0-3.7-1.7-3.7-3.7
	c0-2,1.7-3.7,3.7-3.7c2,0,3.7,1.7,3.7,3.7C43.2,51.4,41.5,53.1,39.5,53.1z M67.2,47.2H47.1c-0.9-3.3-4-5.8-7.6-5.8
	c-3.6,0-6.7,2.5-7.6,5.8h-5V10.8h40.3V47.2L67.2,47.2z M88.3,25.8l3.7,6h-3.7V25.8z M82,53.1c-2,0-3.7-1.7-3.7-3.7
	c0-2,1.7-3.7,3.7-3.7c2,0,3.7,1.7,3.7,3.7C85.7,51.4,84.1,53.1,82,53.1z M93.7,47.2h-4.1c-0.9-3.3-4-5.8-7.6-5.8
	c-3.6,0-6.7,2.5-7.6,5.8h-3V20.5h12.8V36h9.6V47.2z M80.5,47.9c-0.4,0.4-0.6,0.9-0.6,1.5c0,0.6,0.2,1.1,0.6,1.5
	c0.4,0.4,0.9,0.6,1.5,0.6c0.6,0,1.1-0.2,1.5-0.6c0.4-0.4,0.6-0.9,0.6-1.5c0-0.6-0.2-1.1-0.6-1.5C82.7,47.1,81.3,47.1,80.5,47.9z
	 M40.1,38.7L57.8,21l-3-3L37.1,35.7L40.1,38.7z M48.9,34.7c0,3.3,2.7,6,6,6c3.3,0,6-2.7,6-6c0-3.3-2.7-6-6-6
	C51.6,28.7,48.9,31.4,48.9,34.7z M56.7,34.7c0,1-0.8,1.8-1.8,1.8c-1,0-1.8-0.8-1.8-1.8c0-1,0.8-1.8,1.8-1.8
	C55.9,32.9,56.7,33.7,56.7,34.7z M39.9,28c3.3,0,6-2.7,6-6c0-3.3-2.7-6-6-6c-3.3,0-6,2.7-6,6C33.9,25.3,36.6,28,39.9,28z M39.9,20.2
	c1,0,1.8,0.8,1.8,1.8c0,1-0.8,1.8-1.8,1.8c-1,0-1.8-0.8-1.8-1.8C38.1,21.1,38.9,20.2,39.9,20.2z"/>
</svg>
