<?xml version="1.0" encoding="utf-8"?>
<!-- Generator: Adobe Illustrator 18.1.1, SVG Export Plug-In . SVG Version: 6.00 Build 0)  -->
<svg version="1.1" id="Layer_1" xmlns="http://www.w3.org/2000/svg" xmlns:xlink="http://www.w3.org/1999/xlink" x="0px" y="0px"
	 viewBox="0 0 120 60" enable-background="new 0 0 120 60" xml:space="preserve">
<g>
	<path fill="#0D62AB" d="M54.3,18.3L54.3,18.3c0.1-0.6,0.6-1,1.3-1h17.8c0,0,0,0,0.1,0c-0.4-6.3-5.7-9.2-10.3-9.2H45.3
		c-0.6,0-1.1,0.4-1.3,1l0,0l-7.8,35.7l0,0c0,0.1-0.1,0.2-0.1,0.3c0,0.7,0.6,1.3,1.3,1.3h10.6L54.3,18.3z"/>
	<path fill="#199BE2" d="M73.4,17.3c0.1,1.2,0,2.4-0.3,3.8c-1.7,7.9-7.8,12-15.4,12c0,0-4.6,0-5.7,0c-0.7,0-1,0.4-1.2,0.7l-2.3,10.6
		l-0.4,1.9h0L46.6,54l0,0c0,0.1-0.1,0.2-0.1,0.3c0,0.7,0.6,1.3,1.3,1.3h9.7l0,0c0.6,0,1.1-0.5,1.2-1l0,0l2.4-11.1
		c0,0,0.2-1.1,1.3-1.1c1.1,0,5.5,0,5.5,0c7.6,0,13.7-4.1,15.4-12C85.3,21.4,78.9,17.4,73.4,17.3z"/>
	<path fill="#006FC4" d="M55.6,17.3c-0.6,0-1.1,0.4-1.3,1l0,0l-3.4,15.5c0.1-0.3,0.5-0.7,1.2-0.7c1.1,0,5.6,0,5.6,0
		c7.6,0,13.8-4.1,15.5-12c0.3-1.4,0.4-2.6,0.3-3.8c0,0,0,0-0.1,0H55.6z"/>
</g>
</svg>
