<?xml version="1.0" encoding="utf-8"?>
<!-- Generator: Adobe Illustrator 18.1.1, SVG Export Plug-In . SVG Version: 6.00 Build 0)  -->
<svg version="1.1" id="Layer_1" xmlns="http://www.w3.org/2000/svg" xmlns:xlink="http://www.w3.org/1999/xlink" x="0px" y="0px"
	 viewBox="0 0 32 32" enable-background="new 0 0 32 32" xml:space="preserve">
<g>
	<g>
		<path fill="#566074" d="M25.8,30.2h-19c-0.7,0-1.2-0.5-1.2-1.2c0,0,0,0,0-0.1L7.3,9.8c0-0.6,0.5-1.2,1.2-1.2h1.1
			c0.4,0,0.6,0.3,0.6,0.6c0,0.4-0.3,0.6-0.6,0.6h-1L6.9,28.9h18.8L24,9.9h-0.8c-0.4,0-0.6-0.3-0.6-0.6c0-0.4,0.3-0.6,0.6-0.6h0.9
			c0.6,0,1.2,0.5,1.2,1.2L27,28.9c0,0,0,0,0,0.1C27,29.6,26.5,30.2,25.8,30.2z"/>
	</g>
	<g>
		<path fill="#566074" d="M19.6,9.9h-6.3c-0.4,0-0.6-0.3-0.6-0.6c0-0.4,0.3-0.6,0.6-0.6h6.3c0.4,0,0.6,0.3,0.6,0.6
			C20.2,9.7,20,9.9,19.6,9.9z"/>
	</g>
	<g>
		<path fill="#566074" d="M21.6,13.8c-0.4,0-0.6-0.3-0.6-0.6c0-6.5-2.4-10.8-4.7-10.8s-4.7,4.4-4.7,10.8c0,0.4-0.3,0.6-0.6,0.6
			c-0.4,0-0.6-0.3-0.6-0.6c0-6.8,2.6-12.1,6-12.1c3.4,0,6,5.3,6,12.1C22.3,13.5,22,13.8,21.6,13.8z"/>
	</g>
	<g>
		<path fill="#566074" d="M25.5,26.1H7.1c-0.4,0-0.6-0.3-0.6-0.6c0-0.4,0.3-0.6,0.6-0.6h18.4c0.4,0,0.6,0.3,0.6,0.6
			C26.1,25.8,25.8,26.1,25.5,26.1z"/>
	</g>
</g>
</svg>
