<?xml version="1.0" encoding="utf-8"?>
<!-- Generator: Adobe Illustrator 18.1.1, SVG Export Plug-In . SVG Version: 6.00 Build 0)  -->
<svg version="1.1" id="Layer_1" xmlns="http://www.w3.org/2000/svg" xmlns:xlink="http://www.w3.org/1999/xlink" x="0px" y="0px"
	 viewBox="0 0 120 60" enable-background="new 0 0 120 60" xml:space="preserve">
<g>
	<path fill="#3395FF" d="M9,25.9l-1,3.6l5.6-3.7L9.9,39.7l3.7,0l5.5-20.3"/>
	<path fill="#072654" d="M2.9,33.9l-1.6,5.8H9l3.1-11.8L2.9,33.9 M29.6,28.8c-0.2,0.7-0.5,1.2-1.1,1.5c-0.5,0.3-1.3,0.5-2.3,0.5
		h-3.1l1.1-4.1h3.1c1,0,1.6,0.2,2,0.5C29.7,27.6,29.8,28.1,29.6,28.8 M32.8,28.7c0.4-1.5,0.2-2.6-0.5-3.4c-0.7-0.8-2-1.2-3.8-1.2
		h-6.9l-4.2,15.5h3.4l1.7-6.3h2.2c0.5,0,0.9,0.1,1.2,0.2c0.3,0.2,0.5,0.4,0.5,0.9l0.6,5.2h3.6L30,34.8c-0.1-1.1-0.6-1.7-1.5-1.9
		c1.1-0.3,2-0.9,2.8-1.6C32,30.6,32.5,29.7,32.8,28.7 M41,34.1c-0.3,1.1-0.7,1.8-1.3,2.4c-0.6,0.6-1.3,0.8-2.1,0.8
		c-0.8,0-1.4-0.3-1.7-0.8c-0.3-0.5-0.3-1.3,0-2.4c0.3-1,0.7-1.8,1.3-2.4c0.6-0.6,1.3-0.9,2.1-0.9c0.8,0,1.4,0.3,1.7,0.8
		C41.3,32.3,41.3,33.1,41,34.1L41,34.1z M42.4,28.6L42,30.2c-0.2-0.6-0.5-1-1.1-1.4c-0.5-0.3-1.2-0.5-1.9-0.5
		c-0.9,0-1.9,0.2-2.7,0.7s-1.6,1.2-2.3,2.1s-1.1,1.9-1.4,3c-0.3,1.1-0.4,2.1-0.2,3c0.2,0.9,0.6,1.5,1.2,2c0.6,0.5,1.4,0.7,2.4,0.7
		c0.8,0,1.5-0.2,2.2-0.5c0.7-0.3,1.3-0.8,1.8-1.3l-0.4,1.6h3.3l3-11.1L42.4,28.6L42.4,28.6z M57.4,28.6h-9.5l-0.7,2.5h5.5l-7.3,6.3
		l-0.6,2.3h9.8l0.7-2.5h-5.9l7.4-6.4 M65.7,34.1c-0.3,1.1-0.7,1.9-1.3,2.4c-0.6,0.5-1.3,0.8-2.1,0.8c-1.7,0-2.3-1.1-1.7-3.3
		c0.3-1.1,0.7-1.9,1.3-2.4c0.6-0.5,1.3-0.8,2.1-0.8c0.8,0,1.4,0.3,1.6,0.8C66,32.2,66,33,65.7,34.1 M67.6,29
		c-0.7-0.5-1.7-0.7-2.9-0.7c-1.2,0-2.3,0.2-3.3,0.7c-1,0.5-1.9,1.1-2.6,2c-0.7,0.9-1.2,1.9-1.5,3.1c-0.3,1.2-0.3,2.2-0.1,3.1
		c0.2,0.9,0.7,1.5,1.5,2c0.8,0.5,1.7,0.7,2.9,0.7c1.2,0,2.2-0.2,3.2-0.7c1-0.5,1.8-1.1,2.6-2c0.7-0.9,1.2-1.9,1.5-3.1
		s0.4-2.2,0.1-3.1C68.9,30.1,68.4,29.5,67.6,29 M79.2,31.6l0.8-3c-0.3-0.1-0.7-0.2-1.1-0.2c-0.7,0-1.5,0.2-2.1,0.6
		c-0.6,0.3-1.1,0.8-1.5,1.3l0.4-1.6l-0.9,0h-2.3l-3,11.1h3.3l1.5-5.8c0.2-0.8,0.6-1.5,1.2-2c0.6-0.5,1.3-0.7,2.2-0.7
		C78.2,31.2,78.7,31.3,79.2,31.6 M88.4,34.1c-0.3,1-0.7,1.8-1.3,2.4c-0.6,0.5-1.3,0.8-2.1,0.8c-0.8,0-1.4-0.3-1.7-0.8
		c-0.3-0.6-0.3-1.4,0-2.4c0.3-1,0.7-1.9,1.3-2.4c0.6-0.6,1.3-0.8,2.1-0.8c0.8,0,1.3,0.3,1.6,0.9C88.6,32.3,88.6,33.1,88.4,34.1
		 M90.7,29c-0.6-0.5-1.4-0.7-2.3-0.7c-0.8,0-1.6,0.2-2.4,0.6c-0.7,0.4-1.4,0.9-1.8,1.5l0-0.1l0.6-1.8h-3.2l-0.8,3.1l0,0.1l-3.4,12.6
		h3.3l1.7-6.3c0.2,0.6,0.5,1,1,1.3c0.5,0.3,1.2,0.5,1.9,0.5c1,0,1.9-0.2,2.7-0.7c0.9-0.5,1.6-1.1,2.3-2c0.6-0.9,1.1-1.9,1.4-3
		c0.3-1.1,0.4-2.1,0.2-3C91.7,30.2,91.3,29.5,90.7,29 M101.6,34.1c-0.3,1-0.7,1.8-1.3,2.4c-0.6,0.6-1.3,0.8-2.1,0.8
		c-0.8,0-1.4-0.3-1.7-0.8c-0.3-0.5-0.3-1.3,0-2.4c0.3-1,0.7-1.8,1.3-2.4s1.3-0.9,2.1-0.9c0.8,0,1.4,0.3,1.7,0.8
		C101.9,32.2,101.9,33.1,101.6,34.1L101.6,34.1z M103.1,28.6l-0.4,1.6c-0.2-0.6-0.5-1-1.1-1.4c-0.5-0.3-1.2-0.5-1.9-0.5
		c-0.9,0-1.9,0.2-2.7,0.7c-0.9,0.5-1.6,1.2-2.3,2.1s-1.1,1.9-1.4,3c-0.3,1.1-0.4,2.1-0.2,3c0.2,0.9,0.6,1.5,1.2,2
		c0.6,0.5,1.4,0.7,2.4,0.7c0.8,0,1.5-0.2,2.2-0.5c0.7-0.3,1.3-0.8,1.8-1.3l-0.4,1.6h3.3l3-11.1L103.1,28.6L103.1,28.6z M120,28.6
		L120,28.6l-2,0c-0.1,0-0.1,0-0.2,0h-1l-0.5,0.7l-0.1,0.2l-0.1,0.1l-4.2,5.9l-0.9-6.9h-3.4l1.7,10.4l-3.9,5.3h3.4l0.9-1.3
		c0,0,0.1-0.1,0.1-0.1l1.1-1.5l0,0l4.9-6.9L120,28.6L120,28.6L120,28.6L120,28.6z"/>
</g>
</svg>
