<?xml version="1.0" encoding="utf-8"?>
<!-- Generator: Adobe Illustrator 18.1.1, SVG Export Plug-In . SVG Version: 6.00 Build 0)  -->
<svg version="1.1" id="Layer_1" xmlns="http://www.w3.org/2000/svg" xmlns:xlink="http://www.w3.org/1999/xlink" x="0px" y="0px"
	 viewBox="0 0 120 60" enable-background="new 0 0 120 60" xml:space="preserve">
<g>
	<path fill="#3395FF" d="M90.5,56.7H29.5c-3.1,0-5.5-2.3-5.5-5.4V12.5C24,9.5,26.5,7,29.5,7h60.9c3.1,0,5.5,2.5,5.5,5.5v38.8
		C96,54.4,93.5,56.7,90.5,56.7z"/>
	<path fill="#FFFFFF" d="M82,31.5c0.1-1.9,0.6-2.8,1.6-2.8c0.9,0,1.5,0.9,1.5,2.8H82z M89.1,32.6c0-2.1-0.5-3.8-1.3-4.9
		c-0.9-1.2-2.3-1.8-4-1.8c-3.6,0-5.8,2.7-5.8,6.9c0,2.4,0.6,4.2,1.8,5.3c1.1,1,2.6,1.5,4.5,1.5c1.8,0,3.5-0.4,4.5-1.1l-0.5-2.9
		c-1,0.6-2.2,0.9-3.6,0.9c-0.8,0-1.4-0.2-1.8-0.5c-0.4-0.4-0.7-1-0.8-1.8h7C89,33.9,89.1,32.9,89.1,32.6z M72.1,35.3
		c-0.4,0.6-0.9,1-1.5,1c-0.4,0-0.8-0.1-1.1-0.3v-6.4c0.7-0.8,1.4-0.8,1.6-0.8c1.1,0,1.6,1.2,1.6,3.5C72.7,33.6,72.5,34.6,72.1,35.3z
		 M75.6,27.1c-0.8-1-1.8-1.5-3.2-1.5c-1.2,0-2.3,0.5-3.3,1.6l-0.2-1.3h-3.8v18.8l4.3-0.7l0-4.8c0.7,0.2,1.3,0.3,1.9,0.3
		c1.1,0,2.6-0.3,3.8-1.6c1.1-1.3,1.7-3.2,1.7-5.8C76.9,29.9,76.5,28.2,75.6,27.1z M59.2,25.9h4.2v13.7h-4.2V25.9z M61.3,24.5
		c1.2,0,2.2-1,2.2-2.3c0-1.3-1-2.3-2.2-2.3c-1.3,0-2.3,1-2.3,2.3C59.1,23.5,60.1,24.5,61.3,24.5z M57.4,25.7c-1.2,0-2.2,0.6-2.6,1.8
		l-0.3-1.6h-3.7v13.7h4.3v-9c0.5-0.7,1.3-0.9,2.3-0.9c0.2,0,0.4,0,0.8,0v-3.9C57.9,25.7,57.6,25.7,57.4,25.7z M49.2,29l0.5-3.2h-2.7
		V22l-3.6,0.6l-0.5,3.2l-1.3,0.2L41,29h1.8v6.2c0,1.6,0.4,2.7,1.2,3.4c0.7,0.6,1.7,0.8,3.2,0.8c1.1,0,1.8-0.2,2.2-0.3v-3.4
		c-0.2,0.1-0.8,0.2-1.2,0.2c-0.8,0-1.2-0.4-1.2-1.4V29L49.2,29C49.2,29,49.2,29,49.2,29z M36.9,31.1c-1.2-0.5-1.9-0.8-1.9-1.4
		c0-0.5,0.4-0.7,1.1-0.7c1.3,0,2.6,0.5,3.5,0.9l0.5-3.1c-0.7-0.3-2.2-0.9-4.2-0.9c-1.4,0-2.6,0.4-3.5,1.1c-0.9,0.7-1.4,1.8-1.4,3.1
		c0,2.3,1.4,3.3,3.7,4.1c1.5,0.5,2,0.9,2,1.5c0,0.6-0.5,0.9-1.4,0.9c-1.1,0-2.8-0.5-4-1.2l-0.5,3.2c1,0.6,2.8,1.1,4.7,1.1
		c1.5,0,2.8-0.4,3.6-1c1-0.7,1.4-1.8,1.4-3.3C40.7,32.9,39.2,31.9,36.9,31.1L36.9,31.1z"/>
</g>
</svg>
