<?xml version="1.0" encoding="utf-8"?>
<!-- Generator: Adobe Illustrator 18.1.1, SVG Export Plug-In . SVG Version: 6.00 Build 0)  -->
<svg version="1.1" id="Layer_1" xmlns="http://www.w3.org/2000/svg" xmlns:xlink="http://www.w3.org/1999/xlink" x="0px" y="0px"
	 viewBox="0 0 120 60" enable-background="new 0 0 120 60" xml:space="preserve">
<g>
	<g>
		<path fill="#F0514E" d="M75.6,56.7H44.4c-1.6,0-2.8-1.2-2.8-2.8V6.1c0-1.6,1.2-2.8,2.8-2.8h31.3c1.6,0,2.8,1.2,2.8,2.8v47.9
			C78.4,55.5,77.2,56.7,75.6,56.7z M44.4,5.2c-0.6,0-0.9,0.4-0.9,0.9v47.9c0,0.6,0.4,0.9,0.9,0.9h31.3c0.6,0,0.9-0.4,0.9-0.9V6.1
			c0-0.6-0.4-0.9-0.9-0.9H44.4z"/>
	</g>
	<g>
		<path fill="#F0514E" d="M72,19H48c-1.6,0-2.8-1.2-2.8-2.8V9.8C45.3,8.2,46.5,7,48,7H72c1.6,0,2.8,1.2,2.8,2.8v6.4
			C74.7,17.8,73.5,19,72,19z M48,8.8c-0.6,0-0.9,0.4-0.9,0.9v6.4c0,0.6,0.4,0.9,0.9,0.9H72c0.6,0,0.9-0.4,0.9-0.9V9.8
			c0-0.6-0.4-0.9-0.9-0.9H48z"/>
	</g>
	<g>
		<path fill="#F0514E" d="M54.5,28.2h-9.2v-7.4h9.2V28.2z M47.1,26.3h5.5v-3.7h-5.5V26.3z"/>
	</g>
	<g>
		<path fill="#F0514E" d="M54.5,36.4h-9.2v-7.4h9.2V36.4z M47.1,34.6h5.5v-3.7h-5.5V34.6z"/>
	</g>
	<g>
		<path fill="#F0514E" d="M54.5,44.7h-9.2v-7.4h9.2V44.7z M47.1,42.9h5.5v-3.7h-5.5V42.9z"/>
	</g>
	<g>
		<path fill="#F0514E" d="M64.6,53H45.3v-7.4h19.3V53z M47.1,51.2h15.6v-3.7H47.1V51.2z"/>
	</g>
	<g>
		<path fill="#F0514E" d="M64.6,28.2h-9.2v-7.4h9.2V28.2z M57.2,26.3h5.5v-3.7h-5.5V26.3z"/>
	</g>
	<g>
		<path fill="#F0514E" d="M64.6,36.4h-9.2v-7.4h9.2V36.4z M57.2,34.6h5.5v-3.7h-5.5V34.6z"/>
	</g>
	<g>
		<path fill="#F0514E" d="M64.6,44.7h-9.2v-7.4h9.2V44.7z M57.2,42.9h5.5v-3.7h-5.5V42.9z"/>
	</g>
	<g>
		<path fill="#F0514E" d="M74.7,28.2h-9.2v-7.4h9.2V28.2z M67.4,26.3h5.5v-3.7h-5.5V26.3z"/>
	</g>
	<g>
		<path fill="#F0514E" d="M74.7,36.4h-9.2v-7.4h9.2V36.4z M67.4,34.6h5.5v-3.7h-5.5V34.6z"/>
	</g>
	<g>
		<path fill="#F0514E" d="M74.7,44.7h-9.2v-7.4h9.2V44.7z M67.4,42.9h5.5v-3.7h-5.5V42.9z"/>
	</g>
	<g>
		<path fill="#F0514E" d="M74.7,53h-9.2v-7.4h9.2V53z M67.4,51.2h5.5v-3.7h-5.5V51.2z"/>
	</g>
</g>
</svg>
