<?xml version="1.0" encoding="utf-8"?>
<!-- Generator: Adobe Illustrator 18.1.1, SVG Export Plug-In . SVG Version: 6.00 Build 0)  -->
<svg version="1.1" id="Layer_1" xmlns="http://www.w3.org/2000/svg" xmlns:xlink="http://www.w3.org/1999/xlink" x="0px" y="0px"
	 viewBox="0 0 120 60" enable-background="new 0 0 120 60" xml:space="preserve">
<g>
	<path fill="#F0514E" d="M84.6,53.5H40.2V22.1c5.7-0.7,9.8-5.9,9.1-11.7c-0.7-5.7-5.9-9.8-11.7-9.1S27.8,7.3,28.5,13
		c0.6,4.7,4.3,8.5,9.1,9.1v31.4h-7.8c-0.7,0-1.3,0.6-1.3,1.3s0.6,1.3,1.3,1.3h2.6v1.3c0,0.7,0.6,1.3,1.3,1.3s1.3-0.6,1.3-1.3v-1.3
		h44.4v1.3c0,0.7,0.6,1.3,1.3,1.3c0.7,0,1.3-0.6,1.3-1.3v-1.3h2.6c0.7,0,1.3-0.6,1.3-1.3S85.3,53.5,84.6,53.5z M31.1,11.7
		c0-4.3,3.5-7.8,7.8-7.8s7.8,3.5,7.8,7.8s-3.5,7.8-7.8,7.8S31.1,16.1,31.1,11.7z"/>
	<path fill="#F0514E" d="M45.4,30c-0.7,0-1.3,0.6-1.3,1.3v18.3c0,0.7,0.6,1.3,1.3,1.3h36.5c0.7,0,1.3-0.6,1.3-1.3V31.3
		c0-0.7-0.6-1.3-1.3-1.3h-7.8V13c0-0.7-0.6-1.3-1.3-1.3H54.5c-0.7,0-1.3,0.6-1.3,1.3v17H45.4z M51.9,32.6h5.2v5.2h-5.2V32.6z
		 M46.7,32.6h2.6v6.5c0,0.7,0.6,1.3,1.3,1.3h7.8c0.7,0,1.3-0.6,1.3-1.3v-6.5h2.6v15.7H46.7V32.6z M80.6,48.3H65V32.6h2.6v6.5
		c0,0.7,0.6,1.3,1.3,1.3h7.8c0.7,0,1.3-0.6,1.3-1.3v-6.5h2.6V48.3z M75.4,32.6v5.2h-5.2v-5.2H75.4z M61.1,14.3h5.2v5.2h-5.2V14.3z
		 M55.8,14.3h2.6v6.5c0,0.7,0.6,1.3,1.3,1.3h7.8c0.7,0,1.3-0.6,1.3-1.3v-6.5h2.6V30H55.8V14.3z"/>
	<path fill="#F0514E" d="M39.8,12.7l2.6-2.6c0.5-0.5,0.5-1.3,0-1.9s-1.3-0.5-1.9,0L38,10.8c-0.5,0.5-0.5,1.3,0,1.8c0,0,0,0,0,0
		C38.5,13.2,39.3,13.2,39.8,12.7C39.8,12.7,39.8,12.7,39.8,12.7z"/>
</g>
</svg>
